<?xml version="1.0" encoding="UTF-8"?>
<svg viewBox="0 0 24 24" version="1.1" xmlns="http://www.w3.org/2000/svg" xmlns:xlink="http://www.w3.org/1999/xlink">
    <g stroke="none" stroke-width="1" fill="none" fill-rule="evenodd">
        <g transform="translate(-20.000000, -315.000000)" fill="#00BAA1">
            <path d="M20,315 L44,315 L44,339 L20,339 L20,315 Z M26.209,323.687083 C25.1165,323.687083 24.2323333,324.572083 24.2323333,325.664583 C24.2323333,326.75625 25.1165,327.64125 26.209,327.64125 C27.3015,327.64125 28.1865,326.75625 28.1865,325.664583 C28.1865,324.572083 27.3015,323.687083 26.209,323.687083 Z M31.1479167,332.69425 L29.1795833,335.39175 L30.6029167,336.428417 L32.5445833,333.705083 C31.9979167,333.497583 31.5154167,333.14925 31.1479167,332.69425 Z M23.6699167,327.73825 L21.9999167,330.02325 L23.42325,331.069083 L25.1024167,328.766583 C24.5399167,328.56075 24.0440833,328.204917 23.6699167,327.73825 Z M35.5766667,333.397417 L38.02,335.154917 L39.0566667,333.704917 L36.71,332.009083 C36.4666667,332.566583 36.075,333.047417 35.5766667,333.397417 Z M31.4995,328.265583 L29.3286667,326.67475 C29.142,327.240583 28.8045,327.74475 28.3536667,328.133917 L30.5853333,329.750583 C30.7511667,329.18225 31.0661667,328.668917 31.4995,328.265583 Z M33.7309167,328.696083 C32.6384167,328.696083 31.75425,329.581083 31.75425,330.673583 C31.75425,331.76525 32.6384167,332.65025 33.7309167,332.65025 C34.8234167,332.65025 35.7084167,331.76525 35.7084167,330.673583 C35.7084167,329.581083 34.8234167,328.696083 33.7309167,328.696083 Z M28.7659167,322.28125 C29.92925,322.334583 30.91675,321.435417 30.9709167,320.272083 C30.9709167,320.259583 30.9709167,320.247083 30.97175,320.23375 L29.9084167,320.23375 C29.89425,320.85125 29.38425,321.342083 28.7659167,321.332083 C27.78175,321.332083 27.40425,320.52375 27.40425,319.644583 C27.40425,318.76625 27.7734167,317.887917 28.7659167,317.887917 C29.32675,317.857917 29.8200833,318.255417 29.9084167,318.810417 L30.9800833,318.810417 C30.85675,317.707083 29.87175,316.90625 28.7659167,317.00875 C27.4225833,316.989583 26.3175833,318.06375 26.2975833,319.407917 C26.29675,319.487083 26.29925,319.56625 26.3059167,319.644583 C26.18925,320.979583 27.17675,322.15625 28.5100833,322.272083 C28.5959167,322.280417 28.6809167,322.282917 28.7659167,322.28125 Z M34.5399167,324.812 L35.6465833,324.812 C36.1999167,324.812 36.4024167,325.040333 36.52575,325.567833 C36.5424167,325.973667 36.6024167,326.377833 36.7015833,326.771167 L37.80825,326.771167 C37.6474167,326.397833 37.57575,325.992 37.5974167,325.585333 C37.5974167,325.075333 37.4049167,324.557 36.86825,324.417 C37.3649167,324.206167 37.6649167,323.695333 37.6065833,323.160333 C37.6224167,322.397833 37.01825,321.767833 36.2565833,321.751167 C36.2174167,321.750333 36.17825,321.751167 36.1390833,321.753667 L33.42325,321.753667 L33.42325,326.771167 L34.53075,326.771167 L34.5399167,324.812 Z M34.5399167,322.615333 L35.7524167,322.615333 C36.25325,322.615333 36.5074167,322.826167 36.5074167,323.3095 C36.5074167,323.792833 36.2440833,324.030333 35.7524167,324.030333 L34.5399167,324.030333 L34.5399167,322.615333 Z M37.896,321.753917 L37.896,322.685583 L39.3993333,322.685583 L39.3993333,326.771417 L40.4976667,326.771417 L40.4976667,322.685583 L42.0001667,322.685583 L42.0001667,321.753917 L37.896,321.753917 Z"></path>
        </g>
    </g>
</svg>
