<?xml version="1.0" encoding="UTF-8"?>
<svg viewBox="0 0 24 24" version="1.1" xmlns="http://www.w3.org/2000/svg" xmlns:xlink="http://www.w3.org/1999/xlink">
    <g stroke="none" stroke-width="1" fill="none" fill-rule="evenodd">
        <g transform="translate(-20.000000, -475.000000)" fill="#00BAA1">
            <path d="M20,475 L44,475 L44,499 L20,499 L20,475 Z M37.8311667,485.318167 L34.4203333,482.6865 C34.6036667,482.3365 34.702,481.948167 34.7061667,481.553167 C34.7061667,480.143167 33.5628333,478.999833 32.1528333,478.999833 C30.7428333,478.999833 29.6003333,480.143167 29.6003333,481.553167 C29.597,481.927333 29.677,482.298167 29.8361667,482.637333 L26.1995,485.357333 C25.1578333,484.432333 23.5628333,484.5265 22.6361667,485.569 C21.7111667,486.610667 21.8053333,488.205667 22.8478333,489.1315 C23.8895,490.0565 25.4845,489.962333 26.4103333,488.919833 C26.8211667,488.457333 27.0478333,487.859 27.047,487.240667 C27.0453333,486.8615 26.9586667,486.4865 26.7911667,486.1465 L30.457,483.425667 C30.782,483.718167 31.1753333,483.9215 31.6011667,484.017333 L31.6011667,489.744 C30.2228333,490.0165 29.327,491.354 29.5986667,492.732333 C29.8711667,494.109833 31.2086667,495.0065 32.587,494.734 C33.9645,494.4615 34.8603333,493.124 34.5886667,491.745667 C34.3886667,490.734833 33.5986667,489.944 32.587,489.744 L32.587,484.037333 C33.0286667,483.952333 33.4403333,483.7515 33.7786667,483.455667 L37.1795,486.097333 C36.9961667,486.447333 36.8986667,486.835667 36.8945,487.230667 C36.8828333,488.640667 38.017,489.792333 39.4278333,489.803167 C40.837,489.814 41.9895,488.679833 42.0003333,487.269833 C42.0103333,485.860667 40.877,484.708167 39.467,484.697333 C38.8786667,484.699833 38.2903333,484.919833 37.8311667,485.318167 Z"></path>
        </g>
    </g>
</svg>
