<?xml version="1.0" encoding="UTF-8"?>
<svg viewBox="0 0 24 24" version="1.1" xmlns="http://www.w3.org/2000/svg" xmlns:xlink="http://www.w3.org/1999/xlink">
    <g stroke="none" stroke-width="1" fill="none" fill-rule="evenodd">
        <g transform="translate(-20.000000, -355.000000)" fill="#00BAA1">
            <path d="M20,355 L44,355 L44,379 L20,379 L20,355 Z M29.3608333,361.7375 L34.0975,361.7375 L34.0975,357 L29.3608333,357 L29.3608333,361.7375 Z M30.15,360.9475 L30.15,357.789167 L33.3083333,357.789167 L33.3083333,360.9475 L30.15,360.9475 Z M29.3608333,377 L34.0975,377 L34.0975,372.2625 L29.3608333,372.2625 L29.3608333,377 Z M30.15,376.21 L30.15,373.051667 L33.3083333,373.051667 L33.3083333,376.21 L30.15,376.21 Z M28.5,370.225 L34.9591667,370.225 L34.9591667,363.766667 L28.5,363.766667 L28.5,370.225 Z M33.2366667,365.685833 L33.7825,366.254167 L31.0983333,368.843333 L29.6608333,367.430833 L30.2058333,366.861667 L31.0983333,367.714167 L33.2366667,365.685833 Z"></path>
        </g>
    </g>
</svg>
