<?xml version="1.0" encoding="UTF-8"?>
<svg viewBox="0 0 24 24" version="1.1" xmlns="http://www.w3.org/2000/svg" xmlns:xlink="http://www.w3.org/1999/xlink">
    <g stroke="none" stroke-width="1" fill="none" fill-rule="evenodd">
        <g transform="translate(-20.000000, -275.000000)" fill="#00BAA1">
            <path d="M20,275 L44,275 L44,299 L20,299 L20,275 Z M29.7636667,277.499833 C28.7261667,277.499833 27.8853333,278.340667 27.8853333,279.378167 C27.8853333,280.415667 28.7261667,281.255667 29.7636667,281.255667 C30.8003333,281.255667 31.6411667,280.415667 31.6411667,279.378167 C31.6411667,278.340667 30.8003333,277.499833 29.7636667,277.499833 Z M34.4544167,286.05575 L32.5844167,288.626583 L33.9369167,289.611583 L35.79775,287.057417 C35.26775,286.852417 34.80275,286.50575 34.4544167,286.05575 Z M27.35075,281.347917 L25.76575,283.517917 L27.1174167,284.502917 L28.6865833,282.31625 C28.16325,282.11875 27.7015833,281.784583 27.35075,281.347917 Z M34.7880833,281.848833 L32.7264167,280.346333 C32.5489167,280.883833 32.2289167,281.363 31.79975,281.732167 L33.91975,283.268 C34.0755833,282.724667 34.3755833,282.233833 34.7880833,281.848833 Z M39.7465833,285.438083 C39.51325,285.936417 39.15325,286.365583 38.70325,286.681417 L41.02325,288.351417 L41.9999167,286.998917 L39.7465833,285.438083 Z M36.908,282.25775 C35.8713333,282.25775 35.0305,283.098583 35.0305,284.136083 C35.0305,285.173583 35.8713333,286.013583 36.908,286.013583 C37.9455,286.013583 38.7863333,285.173583 38.7863333,284.136083 C38.7863333,283.098583 37.9455,282.25775 36.908,282.25775 Z M24.3543333,289.185667 C23.411,289.185667 23.0601667,288.3515 23.0601667,287.5915 C23.0601667,286.8315 23.411,285.9215 24.3543333,285.9215 C24.8576667,285.9115 25.2976667,286.263167 25.3976667,286.7565 L26.4076667,286.7565 C26.2735,285.743167 25.3751667,285.008167 24.3543333,285.079 C23.0776667,285.055667 22.0243333,286.072333 22.0018333,287.349 C22.0001667,287.427333 22.0026667,287.505667 22.0093333,287.583167 C21.8985,288.850667 22.836,289.968167 24.1026667,290.079 C24.1868333,290.0865 24.2701667,290.089 24.3543333,290.087333 C25.4593333,290.138167 26.3968333,289.284 26.4485,288.179 C26.4493333,288.1665 26.4493333,288.154833 26.4501667,288.142333 L25.431,288.142333 C25.4168333,288.725667 24.9376667,289.190667 24.3543333,289.185667 Z M31.5491667,292.357417 C31.2058333,292.33825 30.8708333,292.469083 30.6308333,292.716583 L30.815,291.656583 L32.7433333,291.656583 L32.7433333,290.854917 L30.1225,290.854917 L29.6625,293.434083 L30.4975,293.434083 C30.6475,293.184083 30.925,293.039083 31.2158333,293.059083 C31.6766667,293.059083 32.0508333,293.432417 32.0508333,293.89325 C32.0875,294.35325 31.7441667,294.754917 31.2858333,294.792417 C31.2616667,294.794083 31.2391667,294.794917 31.2158333,294.794917 C30.8116667,294.809083 30.47,294.497417 30.4483333,294.09325 L29.5208333,294.09325 C29.5566667,294.954917 30.2841667,295.624083 31.1458333,295.58825 C31.1833333,295.586583 31.22,295.584083 31.2566667,295.579917 C32.1791667,295.616583 32.955,294.899083 32.9916667,293.97825 C32.9925,293.95575 32.9933333,293.93325 32.9933333,293.909917 C33.0541667,293.114917 32.4575,292.421583 31.6625,292.361583 C31.625,292.359083 31.5875,292.357417 31.5491667,292.357417 Z M33.4366667,295.538 L34.4883333,295.538 L34.4883333,294.511333 L33.4366667,294.511333 L33.4366667,295.538 Z M36.6915833,290.77175 C35.7649167,290.77175 35.0215833,291.355917 35.0215833,293.18425 C35.0215833,295.01175 35.8065833,295.630083 36.6915833,295.630083 C37.5765833,295.630083 38.41075,295.045083 38.41075,293.18425 C38.41075,291.322583 37.6174167,290.77175 36.6915833,290.77175 Z M36.6915833,294.853417 C35.9315833,294.853417 35.9315833,293.710083 35.9315833,293.18425 C35.9315833,292.658417 35.9315833,291.515083 36.6915833,291.515083 C37.45075,291.515083 37.46825,292.658417 37.46825,293.18425 C37.46825,293.710083 37.4590833,294.853417 36.6915833,294.853417 Z"></path>
        </g>
    </g>
</svg>
