<?xml version="1.0" encoding="UTF-8"?>
<svg viewBox="0 0 24 24" version="1.1" xmlns="http://www.w3.org/2000/svg" xmlns:xlink="http://www.w3.org/1999/xlink">
    <g stroke="none" stroke-width="1" fill="none" fill-rule="evenodd">
        <g transform="translate(-20.000000, -515.000000)" fill="#00BAA1">
            <path d="M20,515 L44,515 L44,539 L20,539 L20,515 Z M34.90952,523.80896 L31.67992,520.52496 L28.39512,523.75376 L29.32712,524.70416 L31.00632,523.05216 L31.02552,527.05696 L32.34472,527.06576 L32.33512,523.08016 L33.95912,524.74096 L34.90952,523.80896 Z M31.67568,516.99976 L28.40048,520.22856 L29.33168,521.17976 L31.62048,518.91016 L33.96288,521.20696 L34.90448,520.28536 L31.67568,516.99976 Z M22.5,532.91536 L23.432,533.85616 L25.1024,532.19536 L25.1392,536.19056 L26.4672,536.20016 L26.4304,532.21376 L28.0728,533.86576 L29.0128,532.93376 L25.7656,529.66736 L22.5,532.91536 Z M22.55544,529.3816 L23.48744,530.3224 L25.76584,528.044 L28.12824,530.332 L29.05944,529.4 L25.82104,526.1336 L22.55544,529.3816 Z M34.24536,532.91536 L35.17736,533.85616 L36.84696,532.19536 L36.88376,536.19056 L38.21256,536.20016 L38.17496,532.21376 L39.81816,533.86576 L40.75816,532.93376 L37.51096,529.66736 L34.24536,532.91536 Z M34.30008,529.3816 L35.23208,530.3224 L37.51128,528.044 L39.87288,530.332 L40.80488,529.4 L37.56648,526.1336 L34.30008,529.3816 Z"></path>
        </g>
    </g>
</svg>
