<?xml version="1.0" encoding="UTF-8"?>
<svg viewBox="0 0 24 24" version="1.1" xmlns="http://www.w3.org/2000/svg" xmlns:xlink="http://www.w3.org/1999/xlink">
    <g stroke="none" stroke-width="1" fill="none" fill-rule="evenodd">
        <g transform="translate(-20.000000, -435.000000)" fill="#00BAA1">
            <path d="M20,435 L44,435 L44,459 L20,459 L20,435 Z M22.5,437.500167 L22.5,455.616833 L41.5,455.616833 L41.5,453.3335 L24.6691667,453.3335 L24.6691667,437.500167 L22.5,437.500167 Z M32.1519208,449.166833 C33.2626292,448.009333 33.8642958,446.416 33.8112542,444.771833 C33.7328792,442.560167 35.3724208,440.701 37.4735042,440.6185 C37.5431708,440.616 37.6128375,440.615167 37.6825042,440.616 L37.6825042,438.3335 C34.4129208,438.262667 31.7077958,440.995167 31.6405042,444.436833 C31.6389208,444.541 31.6397125,444.645167 31.6420875,444.7485 C31.6967125,445.766833 31.3475875,446.7635 30.6770458,447.500167 C29.8457958,448.2385 28.7928792,448.642667 27.7051292,448.641833 L27.7051292,449.782667 L27.7051292,450.924333 L27.8246708,450.924333 C29.4190875,450.896833 30.9525458,450.2735 32.1519208,449.166833 Z"></path>
        </g>
    </g>
</svg>
