<svg xmlns="http://www.w3.org/2000/svg" width="244" height="60"><path fill="#fff" d="M217.054 17.063c-3.988 0-7.253 1.325-9.798 3.974-2.518 2.624-3.777 6.074-3.777 10.35s1.26 7.74 3.777 10.389c2.545 2.623 5.81 3.934 9.798 3.934 3.095 0 5.745-.8 7.949-2.4l2.715 2.243 2.912-3.502-2.44-2.007c1.627-2.466 2.44-5.351 2.44-8.656 0-4.276-1.272-7.727-3.816-10.35-2.519-2.65-5.773-3.975-9.76-3.975zm-148.365.55l-3.7 27.545h3.935l2.597-20.815 7.633 14.284 7.477-14.284 2.598 20.815h3.936l-3.66-27.544h-3.227l-7.163 13.653-7.24-13.653h-3.186zm126.884 0v27.545h5.035V17.614h-5.035zm21.483 4.29c2.597 0 4.592.866 5.982 2.597s2.084 4.028 2.084 6.887c0 1.994-.354 3.724-1.062 5.193l-3.463-2.912-2.91 3.502 3.304 2.795c-1.128.603-2.44.904-3.936.904-2.597 0-4.59-.866-5.98-2.597s-2.086-4.026-2.086-6.885c0-2.86.695-5.155 2.086-6.887s3.383-2.597 5.98-2.597zm-113.934 3.582c-2.623 0-4.8.668-6.531 2.005l.511 2.873c1.68-1.154 3.372-1.732 5.077-1.732 1.469 0 2.53.316 3.185.945.682.604 1.024 1.77 1.024 3.502a23.796 23.796 0 00-3.934.393c-1.233.21-2.453.551-3.66 1.023-1.18.472-2.139 1.18-2.873 2.125-.709.945-1.063 2.06-1.063 3.346 0 1.626.538 2.964 1.613 4.013 1.102 1.05 2.545 1.575 4.329 1.575 2.308 0 4.276-.946 5.902-2.834.446 1.023.984 1.757 1.614 2.203.655.42 1.771.63 3.345.63h.276l.55-2.833h-.353c-.944 0-1.548-.288-1.81-.866-.263-.603-.395-1.666-.395-3.187v-3.935c0-3.437-.523-5.837-1.573-7.202-1.023-1.364-2.768-2.044-5.234-2.044zm20.985 0c-2.44 0-4.563.813-6.373 2.44l-.395-2.048h-2.754v19.28h3.541V31.15c.945-1.679 2.703-2.52 5.274-2.52 1.81 0 3.095.474 3.855 1.419.787.918 1.18 2.411 1.18 4.484v10.625h3.541V34.533c0-6.034-2.623-9.049-7.87-9.049zm18.455 0c-2.623 0-4.8.668-6.531 2.005l.512 2.873c1.679-1.154 3.37-1.732 5.076-1.732 1.47 0 2.53.316 3.186.945.682.604 1.023 1.77 1.023 3.502a23.796 23.796 0 00-3.934.393c-1.233.21-2.453.551-3.66 1.023-1.18.472-2.139 1.18-2.873 2.125-.708.945-1.062 2.06-1.062 3.346 0 1.626.537 2.964 1.613 4.013 1.102 1.05 2.544 1.575 4.328 1.575 2.309 0 4.276-.946 5.903-2.834.446 1.023.983 1.757 1.613 2.203.656.42 1.772.63 3.346.63h.275l.551-2.833h-.354c-.944 0-1.548-.288-1.81-.866-.262-.603-.395-1.666-.395-3.187v-3.935c0-3.437-.523-5.837-1.572-7.202-1.023-1.364-2.769-2.044-5.235-2.044zm18.522 0c-2.466 0-4.393.734-5.783 2.203-1.39 1.469-2.086 3.319-2.086 5.548 0 2.571 1.116 4.669 3.345 6.295-.813.394-1.404.865-1.771 1.416-.341.525-.512 1.011-.512 1.457 0 .997.655 1.81 1.967 2.44-2.282.813-3.422 2.255-3.422 4.328 0 1.521.734 2.872 2.203 4.052 1.5 1.18 3.77 1.771 6.81 1.771 3.017 0 5.38-.604 7.084-1.81 1.732-1.18 2.596-2.598 2.596-4.25 0-.709-.183-1.364-.55-1.967a4.94 4.94 0 00-1.338-1.416c-.499-.341-1.141-.657-1.928-.945a17.097 17.097 0 00-2.047-.63 39.135 39.135 0 00-2.006-.394c-2.492-.42-4.118-.746-4.88-.982-.734-.236-1.1-.59-1.1-1.063 0-.42.313-.814.943-1.181.813.236 1.73.355 2.754.355 2.387 0 4.277-.761 5.668-2.283 1.416-1.521 2.123-3.318 2.123-5.39 0-1.653-.59-3.187-1.77-4.604a9.688 9.688 0 012.281-.275h.907l.431-2.361h-.314c-1.731 0-3.292.367-4.682 1.101-1.521-.944-3.162-1.416-4.92-1.416zm19.645 0c-2.885 0-5.181.943-6.886 2.832s-2.557 4.237-2.557 7.044c0 2.912.918 5.338 2.754 7.28s4.393 2.912 7.672 2.912c2.072 0 4.224-.5 6.453-1.497l-.472-2.792c-1.68.76-3.527 1.14-5.547 1.14-4.381 0-6.795-2.296-7.24-6.886h13.969a11.01 11.01 0 00.156-1.89c0-2.544-.773-4.537-2.32-5.98-1.522-1.442-3.515-2.164-5.981-2.164zm-19.604 2.832c1.39 0 2.504.42 3.344 1.26.865.813 1.299 1.954 1.299 3.423 0 1.443-.408 2.636-1.221 3.58-.8.944-1.92 1.416-3.33 1.416-1.364 0-2.48-.431-3.346-1.297-.84-.892-1.258-2.086-1.258-3.582 0-1.443.393-2.597 1.18-3.463.787-.891 1.903-1.337 3.346-1.337zm19.523.314c1.574 0 2.755.395 3.542 1.182.787.787 1.181 1.875 1.181 3.265H175.22c.76-2.964 2.57-4.447 5.43-4.447zm-74.262 6.887v4.603a6.406 6.406 0 01-2.203 1.889 5.594 5.594 0 01-2.715.709c-1.993 0-2.99-.984-2.99-2.952 0-1.442.604-2.48 1.81-3.109 1.234-.656 3.265-1.036 6.098-1.14zm39.44 0v4.603a6.406 6.406 0 01-2.203 1.889 5.594 5.594 0 01-2.715.709c-1.993 0-2.99-.984-2.99-2.952 0-1.442.604-2.48 1.81-3.109 1.234-.656 3.265-1.036 6.099-1.14zm13.448 10.19c1.889.315 3.056.473 3.502.473 3.436.63 5.154 1.626 5.154 2.99 0 .813-.525 1.522-1.574 2.125-1.05.63-2.505.945-4.367.945-1.81 0-3.227-.302-4.25-.906-1.023-.577-1.536-1.324-1.536-2.242 0-.682.29-1.352.868-2.008.577-.656 1.31-1.114 2.203-1.377z"/><g color="#000"><path fill="#ef2929" d="M30.885 10.999c-10.54 0-19.06 8.52-19.06 19.06s8.52 19.062 19.06 19.062c3.82 0 7.368-1.13 10.348-3.06l3.948 3.945 5.338-5.346-3.873-3.872a18.986 18.986 0 003.299-10.73c0-10.374-8.259-18.798-18.567-19.06-.134-.005-.298 0-.492 0zm0 6.31c7.029 0 12.752 5.721 12.752 12.75s-5.723 12.752-12.752 12.752-12.75-5.723-12.75-12.752c0-7.029 5.721-12.75 12.75-12.75z"/><path fill="#fff" d="M30.885 26.403c-2.021 0-3.652 1.633-3.652 3.654s1.631 3.654 3.652 3.654a3.652 3.652 0 003.656-3.654 3.652 3.652 0 00-3.656-3.654zm-6.994 5.553l-.353.353-12.6 12.6 5.341 5.341 12.956-12.955-5.344-5.34z"/></g></svg>