<svg xmlns="http://www.w3.org/2000/svg" width="60" height="60">
  <g color="#000">
    <path fill="#ef2929" d="M30.947 11.002c-10.539 0-19.059 8.52-19.059 19.061s8.52 19.062 19.059 19.062c3.82 0 7.367-1.13 10.348-3.06l3.947 3.945 5.338-5.346-3.873-3.873a18.987 18.987 0 003.299-10.729c0-10.375-8.258-18.799-18.566-19.06-.134-.006-.298 0-.492 0zm0 6.31c7.028 0 12.752 5.722 12.752 12.75s-5.724 12.752-12.752 12.752-12.75-5.722-12.75-12.751c0-7.03 5.722-12.75 12.75-12.75z"/>
    <path fill="#fff" d="M30.947 26.406c-2.021 0-3.652 1.633-3.652 3.654s1.631 3.655 3.652 3.655a3.652 3.652 0 003.656-3.655 3.652 3.652 0 00-3.656-3.654zm-6.994 5.553l-.353.353-12.6 12.6 5.342 5.342 12.955-12.955-5.344-5.34z"/>
  </g>
</svg>
