<?xml version="1.0" encoding="UTF-8"?>
<svg viewBox="0 0 24 25" version="1.1" xmlns="http://www.w3.org/2000/svg" xmlns:xlink="http://www.w3.org/1999/xlink">
    <g stroke="none" stroke-width="1" fill="none" fill-rule="evenodd">
        <g  transform="translate(-20.000000, -473.000000)" fill="#00B6CB">
            <path d="M20,473.821484 L44,473.821484 L44,497.821484 L20,497.821484 L20,473.821484 Z M24.7741667,481.575818 L39.03,481.575818 L39.03,478.320818 L24.7741667,478.320818 L24.7741667,481.575818 Z M24.7741667,494.074151 L39.03,494.074151 L39.03,490.819151 L24.7741667,490.819151 L24.7741667,494.074151 Z M22,487.905818 L36.255,487.905818 L36.255,484.651651 L22,484.651651 L22,487.905818 Z M38.0785,484.423901 L38.111,487.914734 L39.1926667,487.898068 L39.1768333,486.238068 L41.251,488.223901 L42.0001667,487.450568 L39.941,485.481401 L41.5768333,485.465568 L41.561,484.391401 L38.0785,484.423901 Z"></path>
        </g>
    </g>
</svg>
