<?xml version="1.0" encoding="UTF-8"?>
<svg viewBox="0 0 24 25" version="1.1" xmlns="http://www.w3.org/2000/svg" xmlns:xlink="http://www.w3.org/1999/xlink">
    <g stroke="none" stroke-width="1" fill="none" fill-rule="evenodd">
        <g  transform="translate(-20.000000, -833.000000)" fill="#00B6CB">
            <path d="M20,833.821484 L44,833.821484 L44,857.821484 L20,857.821484 L20,833.821484 Z M22,852.037234 L31.695,852.037234 L31.695,850.099734 L22,850.099734 L22,852.037234 Z M26.1925,837.821401 L26.1925,845.215568 L23.5916667,842.623901 L22.2641667,843.951401 L27.13,848.817234 L31.995,843.951401 L30.6675,842.623901 L28.0666667,845.215568 L28.0666667,837.821401 L26.1925,837.821401 Z M32.0041667,840.213901 L41.6991667,840.213901 L41.6991667,838.276401 L32.0041667,838.276401 L32.0041667,840.213901 Z M32.26825,847.044151 L33.5965833,848.371651 L36.1974167,845.779984 L36.1974167,853.174151 L38.07075,853.174151 L38.07075,845.779984 L40.6724167,848.371651 L41.9999167,847.044151 L37.1340833,842.178318 L32.26825,847.044151 Z"></path>
        </g>
    </g>
</svg>
