<?xml version="1.0" encoding="UTF-8"?>
<svg viewBox="0 0 24 25" version="1.1" xmlns="http://www.w3.org/2000/svg" xmlns:xlink="http://www.w3.org/1999/xlink">
    <g stroke="none" stroke-width="1" fill="none" fill-rule="evenodd">
        <g  transform="translate(-20.000000, -793.000000)" fill="#00B6CB">
            <path d="M20,793.848931 L44,793.848931 L44,817.848931 L20,817.848931 L20,793.848931 Z M29.541875,815.348931 L33.6213333,815.348931 L33.6213333,811.347056 L29.541875,811.347056 L29.541875,815.348931 Z M25.357125,802.770931 L29.1777083,802.770931 C29.1777083,800.926348 29.9828333,799.39289 31.855125,799.39289 C32.0205833,799.377056 32.1884167,799.381806 32.3546667,799.40714 C33.4685417,799.577348 34.2332917,800.61839 34.063875,801.731473 C34.1414583,804.537931 30.2694167,804.148431 29.9060417,808.618181 L29.9060417,809.787473 L33.43925,809.787473 L33.43925,808.800265 C33.881,805.655765 38.1694583,806.331056 38.1694583,801.368098 C38.1694583,799.39289 36.5584167,796.352098 31.67225,796.352098 C31.5044167,796.346556 31.3357917,796.34814 31.1679583,796.356056 C27.7922917,796.523098 25.190875,799.395265 25.357125,802.770931 Z" id="Fill-1"></path>
        </g>
    </g>
</svg>
