<?xml version="1.0" encoding="UTF-8"?>
<svg viewBox="0 0 24 25" version="1.1" xmlns="http://www.w3.org/2000/svg" xmlns:xlink="http://www.w3.org/1999/xlink">
    <g stroke="none" stroke-width="1" fill="none" fill-rule="evenodd">
        <g  transform="translate(-20.000000, -713.000000)" fill="#00B6CB">
            <path d="M20,713.821484 L44,713.821484 L44,737.821484 L20,737.821484 L20,713.821484 Z M31.1683333,728.890793 L37.3966667,728.890793 L37.3966667,722.654126 L31.1683333,722.654126 L31.1683333,728.890793 Z M32.715,727.343293 L32.715,724.201626 L35.8491667,724.201626 L35.8491667,727.343293 L32.715,727.343293 Z M38.6341667,727.451626 L42,727.451626 L42,724.086626 L38.6341667,724.086626 L38.6341667,727.451626 Z M26.5883333,727.451626 L29.9533333,727.451626 L29.9533333,724.085793 L26.5883333,724.085793 L26.5883333,727.451626 Z M22,727.451626 L25.3658333,727.451626 L25.3658333,724.086626 L22,724.086626 L22,727.451626 Z"></path>
        </g>
    </g>
</svg>
