<?xml version="1.0" encoding="UTF-8"?>
<svg viewBox="0 0 24 25" version="1.1" xmlns="http://www.w3.org/2000/svg" xmlns:xlink="http://www.w3.org/1999/xlink">
    <g stroke="none" stroke-width="1" fill="none" fill-rule="evenodd">
        <g  transform="translate(-20.000000, -273.000000)" fill="#00B6CB">
            <path d="M20,273.821484 L44,273.821484 L44,297.821484 L20,297.821484 L20,273.821484 Z M25.18675,278.821401 L25.18675,281.478068 L30.7300833,281.478068 L30.7300833,289.676401 L29.40175,289.676401 L29.40175,292.332234 L34.7134167,292.332234 L34.7134167,289.676401 L33.3859167,289.676401 L33.3859167,281.478068 L38.9284167,281.478068 L38.9284167,278.821401 L25.18675,278.821401 Z M35.785,284.071568 C35.6016667,285.783234 36.8408333,287.319068 38.5516667,287.502401 C40.2633333,287.684901 41.7991667,286.446568 41.9825,284.734901 C42.0058333,284.514901 42.0058333,284.292401 41.9825,284.071568 L35.785,284.071568 Z M25.1160833,287.187984 C26.8235833,287.168818 28.19775,285.778818 28.1969167,284.071318 L22.00025,284.071318 C22.00025,285.792984 23.3960833,287.187984 25.1160833,287.187984 Z"></path>
        </g>
    </g>
</svg>
