<?xml version="1.0" encoding="UTF-8"?>
<svg viewBox="0 0 24 25" version="1.1" xmlns="http://www.w3.org/2000/svg" xmlns:xlink="http://www.w3.org/1999/xlink">
    <g stroke="none" stroke-width="1" fill="none" fill-rule="evenodd">
        <g  transform="translate(-20.000000, -513.000000)" fill="#00B6CB">
            <path d="M20,513.821484 L44,513.821484 L44,537.821484 L20,537.821484 L20,513.821484 Z M25.0501444,528.850532 L25.0501444,530.157732 L23.6909444,530.157732 L23.6909444,531.871332 L25.0501444,531.871332 L25.0501444,533.179332 L26.7637444,533.179332 L26.7637444,531.871332 L28.0197444,531.871332 L28.0197444,530.157732 L26.7637444,530.157732 L26.7637444,528.850532 L25.0501444,528.850532 Z M34.1999044,521.181092 L34.1999044,525.232292 L29.9839044,525.232292 L29.9839044,528.721092 L34.1999044,528.721092 L34.1999044,532.772292 L37.6887044,532.772292 L37.6887044,528.721092 L41.5839044,528.721092 L41.5839044,525.232292 L37.6887044,525.232292 L37.6887044,521.181092 L34.1999044,521.181092 Z M24.6779044,518.229812 L24.6779044,520.436212 L22.3843044,520.436212 L22.3843044,522.722612 L24.6779044,522.722612 L24.6779044,524.929812 L26.9715044,524.929812 L26.9715044,522.722612 L29.0843044,522.722612 L29.0843044,520.436212 L26.9715044,520.436212 L26.9715044,518.229812 L24.6779044,518.229812 Z"></path>
        </g>
    </g>
</svg>
