<?xml version="1.0" encoding="UTF-8"?>
<svg viewBox="0 0 24 25" version="1.1" xmlns="http://www.w3.org/2000/svg" xmlns:xlink="http://www.w3.org/1999/xlink">
    <g stroke="none" stroke-width="1" fill="none" fill-rule="evenodd">
        <g  transform="translate(-20.000000, -433.000000)" fill="#00B6CB">
            <path d="M20,433.821484 L44,433.821484 L44,457.821484 L20,457.821484 L20,433.821484 Z M36.23575,446.548484 L35.0965833,448.505151 L38.19325,451.436818 L41.2899167,448.505151 L40.1499167,446.548484 L36.23575,446.548484 Z M23.13925,446.548484 L22.0000833,448.505151 L25.09675,451.436818 L28.2009167,448.505151 L27.0534167,446.548484 L23.13925,446.548484 Z M29.62975,450.924734 L28.4905833,452.881401 L31.5955833,455.821401 L34.6914167,452.881401 L33.55225,450.924734 L29.62975,450.924734 Z M27.706,435.821234 L24.9643333,440.512068 L31.6368333,446.837068 L38.3168333,440.512068 L35.5843333,435.821234 L27.706,435.821234 Z M28.0943333,440.066234 L29.1268333,438.298734 L34.1635,438.298734 L35.2118333,440.066234 L31.6451667,443.427068 L28.0943333,440.066234 Z"></path>
        </g>
    </g>
</svg>
