<?xml version="1.0" encoding="UTF-8"?>
<svg viewBox="0 0 24 25" version="1.1" xmlns="http://www.w3.org/2000/svg" xmlns:xlink="http://www.w3.org/1999/xlink">
    <g stroke="none" stroke-width="1" fill="none" fill-rule="evenodd">
        <g  transform="translate(-20.000000, -673.000000)" fill="#00B6CB">
            <path d="M20,673.821484 L44,673.821484 L44,697.821484 L20,697.821484 L20,673.821484 Z M36.6283333,688.076984 L42,688.076984 L42,682.705318 L36.6283333,682.705318 L36.6283333,688.076984 Z M37.7783333,686.926151 L37.7783333,683.856151 L40.8483333,683.856151 L40.8483333,686.926151 L37.7783333,686.926151 Z M31.5621667,683.787318 L32.6671667,684.892318 L29.958,684.923151 L29.958,685.936484 L32.653,685.905651 L31.5621667,686.995651 L32.2763333,687.716484 L34.6013333,685.391484 L32.2763333,683.065651 L31.5621667,683.787318 Z M25.0696667,682.321484 C23.3746667,682.321484 21.9996667,683.695651 21.9996667,685.391484 C21.9996667,687.086484 23.3746667,688.460651 25.0696667,688.460651 C26.7655,688.460651 28.1396667,687.086484 28.1396667,685.391484 C28.1396667,683.695651 26.7655,682.321484 25.0696667,682.321484 Z M25.0696667,687.309818 C24.0105,687.309818 23.1513333,686.450651 23.1513333,685.391484 C23.1513333,684.331484 24.0105,683.473151 25.0696667,683.473151 C26.1288333,683.473151 26.9888333,684.331484 26.9888333,685.391484 C26.9888333,686.450651 26.1288333,687.309818 25.0696667,687.309818 Z"></path>
        </g>
    </g>
</svg>
