<?xml version="1.0" encoding="UTF-8"?>
<svg viewBox="0 0 24 25" version="1.1" xmlns="http://www.w3.org/2000/svg" xmlns:xlink="http://www.w3.org/1999/xlink">
    <g stroke="none" stroke-width="1" fill="none" fill-rule="evenodd">
        <g  transform="translate(-20.000000, -393.000000)" fill="#00B6CB">
            <path d="M20,393.821484 L44,393.821484 L44,417.821484 L20,417.821484 L20,393.821484 Z M39.69864,398.337484 C39.33864,397.979084 38.75624,397.979084 38.39624,398.337484 L36.54824,400.185484 C36.19064,400.550284 36.19704,401.135884 36.56184,401.492684 C36.92664,401.850284 37.51224,401.843884 37.86904,401.479084 L39.71704,399.631084 C40.06424,399.267084 40.05624,398.691084 39.69864,398.337484 Z M31.96504,400.841404 C32.47544,400.841404 32.88904,400.427804 32.88904,399.917404 L32.88904,397.145404 C32.88904,396.635004 32.47544,396.221404 31.96504,396.221404 C31.45464,396.221404 31.04184,396.635004 31.04184,397.145404 L31.04184,399.917404 C31.04184,400.427804 31.45464,400.841404 31.96504,400.841404 Z M27.27128,401.497244 C27.62968,401.137244 27.62968,400.554844 27.27128,400.194844 L25.42328,398.346844 C24.99368,398.070844 24.42248,398.194844 24.14728,398.624444 C23.94728,398.934844 23.95208,399.334044 24.15768,399.640444 L26.00568,401.488444 C26.36568,401.846844 26.94808,401.846844 27.30888,401.488444 L27.27128,401.497244 Z M29.0264,412.649484 L34.9032,412.649484 L34.9032,406.772684 L29.0264,406.772684 L29.0264,412.649484 Z M26.2552,415.421484 L37.6752,415.421484 L37.6752,404.001484 L26.2552,404.001484 L26.2552,415.421484 Z"></path>
        </g>
    </g>
</svg>
