<?xml version="1.0" encoding="UTF-8"?>
<svg viewBox="0 0 24 25" version="1.1" xmlns="http://www.w3.org/2000/svg" xmlns:xlink="http://www.w3.org/1999/xlink">
    <g stroke="none" stroke-width="1" fill="none" fill-rule="evenodd">
        <g  transform="translate(-20.000000, -873.000000)" fill="#00B6CB">
            <path d="M20,873.821484 L44,873.821484 L44,897.821484 L20,897.821484 L20,873.821484 Z M23.3105302,895.030667 L30.7537536,895.030667 L30.7537536,887.9977 L23.3105302,887.9977 L23.3105302,895.030667 Z M25.104181,893.249226 L25.104181,889.732742 L28.9967329,889.732742 L28.9967329,893.249226 L25.104181,893.249226 Z M36.884645,889.064488 L38.5842787,890.751912 L34.4463055,890.799531 L34.4463055,892.34654 L38.5488696,892.300142 L36.884645,893.964366 L37.9859881,895.065709 L41.5378806,891.513817 L37.9859881,887.963145 L36.884645,889.064488 Z M36.9430088,883.391106 L38.0333629,884.492449 L41.5852555,880.941778 L38.0333629,877.389885 L36.9430088,878.491228 L38.6316535,880.179873 L34.4924594,880.226271 L34.4924594,881.77328 L38.6072335,881.726882 L36.9430088,883.391106 Z M27.0260369,878.597089 C28.3215192,878.597089 29.3715802,879.64715 29.3715802,880.941411 C29.3715802,882.235673 28.3215192,883.285734 27.0260369,883.285734 C25.7317756,883.285734 24.6817146,882.235673 24.6817146,880.941411 C24.6817146,879.64715 25.7317756,878.597089 27.0260369,878.597089 Z M27.0260369,885.043976 C29.2922152,885.043976 31.128601,883.20759 31.128601,880.941411 C31.128601,878.675233 29.2922152,876.838847 27.0260369,876.838847 C24.7610796,876.838847 22.9246938,878.675233 22.9246938,880.941411 C22.9246938,883.20759 24.7610796,885.043976 27.0260369,885.043976 Z"></path>
        </g>
    </g>
</svg>
