<?xml version="1.0" encoding="UTF-8"?>
<svg viewBox="0 0 24 25" version="1.1" xmlns="http://www.w3.org/2000/svg" xmlns:xlink="http://www.w3.org/1999/xlink">
    <g stroke="none" stroke-width="1" fill="none" fill-rule="evenodd">
        <g  transform="translate(-20.000000, -553.000000)" fill="#00B6CB">
            <path d="M20,553.821484 L44,553.821484 L44,577.821484 L20,577.821484 L20,553.821484 Z M41.5471667,556.824787 L23.4520417,556.824787 C23.2026667,556.824787 23,557.027454 23,557.277621 L23,559.685871 C23.0015833,559.805412 23.0506667,559.919412 23.135375,560.002537 L30.2382083,567.116454 L30.2382083,575.372746 C30.241375,575.622121 30.4464167,575.822412 30.6965833,575.818454 C30.8129583,575.816871 30.9237917,575.770954 31.0069167,575.689412 L34.625625,572.069912 C34.711125,571.986787 34.7602083,571.872787 34.7617917,571.753246 L34.7617917,570.622746 C36.131375,571.410454 37.8809583,570.940204 38.6686667,569.570621 C39.4571667,568.201037 38.986125,566.451454 37.6165417,565.662954 C37.2943333,565.477704 36.9396667,565.356579 36.5715417,565.306704 L41.8638333,560.014412 C41.9493333,559.930496 41.9984167,559.816496 42,559.697746 L42,557.277621 C42,557.027454 41.7973333,556.824787 41.5471667,556.824787 Z M37.475625,568.134537 C37.475625,568.883454 36.8684167,569.491454 36.1187083,569.491454 C35.369,569.491454 34.7617917,568.883454 34.7617917,568.134537 C34.7617917,567.384829 35.369,566.777621 36.1187083,566.777621 C36.8684167,566.777621 37.475625,567.384829 37.475625,568.134537 Z M33.3819167,566.358829 C33.2972083,566.441954 33.248125,566.556746 33.2465417,566.675496 L33.2465417,571.312287 L31.742375,572.827537 L31.742375,566.675496 C31.74,566.556746 31.6917083,566.441954 31.6062083,566.358829 L25.3860833,560.138704 L39.6020417,560.138704 L33.3819167,566.358829 Z"></path>
        </g>
    </g>
</svg>
