<?xml version="1.0" encoding="UTF-8"?>
<svg viewBox="0 0 24 25" version="1.1" xmlns="http://www.w3.org/2000/svg" xmlns:xlink="http://www.w3.org/1999/xlink">
    <g stroke="none" stroke-width="1" fill="none" fill-rule="evenodd">
        <g  transform="translate(-20.000000, -633.000000)" fill="#00B6CB">
            <path d="M20,633.821484 L44,633.821484 L44,657.821484 L20,657.821484 L20,633.821484 Z M24.120575,641.136044 L39.634175,641.136044 L39.634175,637.172044 L24.120575,637.172044 L24.120575,641.136044 Z M24.120575,653.883244 L39.634175,653.883244 L39.634175,649.919244 L24.120575,649.919244 L24.120575,653.883244 Z M39.021375,646.232844 L41.509375,646.232844 L41.509375,644.376844 L39.021375,644.376844 L39.021375,646.232844 Z M33.450975,646.232844 L36.235775,646.232844 L36.235775,644.376844 L33.450975,644.376844 L33.450975,646.232844 Z M27.879775,646.232844 L30.664575,646.232844 L30.664575,644.376844 L27.879775,644.376844 L27.879775,646.232844 Z M22.309375,646.232844 L25.094175,646.232844 L25.094175,644.376844 L22.309375,644.376844 L22.309375,646.232844 Z"></path>
        </g>
    </g>
</svg>
