<?xml version="1.0" encoding="UTF-8"?>
<svg viewBox="0 0 24 25" version="1.1" xmlns="http://www.w3.org/2000/svg" xmlns:xlink="http://www.w3.org/1999/xlink">
    <g stroke="none" stroke-width="1" fill="none" fill-rule="evenodd">
        <g  transform="translate(-20.000000, -353.000000)" fill="#00B6CB">
            <path d="M20,353.821484 L44,353.821484 L44,377.821484 L20,377.821484 L20,353.821484 Z M31.16704,357.821484 L31.16704,373.293484 L33.20304,373.293484 L33.20304,366.648684 L37.20144,366.648684 L35.08464,368.774284 L36.55824,370.247884 L41.20064,365.606284 L36.55824,360.964684 L35.08464,362.439084 L37.20144,364.563884 L33.20304,364.563884 L33.20304,357.821484 L31.16704,357.821484 Z M26.28672,362.589164 C25.79392,363.341164 26.00352,364.350764 26.75552,364.844364 C27.50752,365.337964 28.51712,365.127564 29.00992,364.375564 C29.50352,363.623564 29.29392,362.613964 28.54192,362.120364 C27.78992,361.627564 26.77952,361.837164 26.28672,362.589164 Z M22.2672,364.717244 C21.7728,365.472444 21.984,366.486044 22.74,366.981244 C23.4952,367.475644 24.5088,367.264444 25.0032,366.508444 C25.4984,365.753244 25.2864,364.739644 24.5312,364.245244 C23.776,363.750044 22.7616,363.961244 22.2672,364.717244 Z M26.28512,367.223164 C25.79152,367.975164 26.00192,368.984764 26.75392,369.478364 C27.50512,369.971964 28.51552,369.761564 29.00832,369.009564 C29.50192,368.257564 29.29232,367.247964 28.53952,366.754364 C27.78832,366.261564 26.77792,366.471164 26.28512,367.223164 Z"></path>
        </g>
    </g>
</svg>
