<?xml version="1.0" encoding="UTF-8"?>
<svg viewBox="0 0 24 25" version="1.1" xmlns="http://www.w3.org/2000/svg" xmlns:xlink="http://www.w3.org/1999/xlink">
    <g stroke="none" stroke-width="1" fill="none" fill-rule="evenodd">
        <g  transform="translate(-20.000000, -314.000000)" fill="#00B6CB">
            <path d="M20,314.336719 L44,314.336719 L44,338.336719 L20,338.336719 L20,314.336719 Z M38.5078825,322.187416 L38.5078825,320.190616 C38.5078825,320.031416 38.3790825,319.902616 38.2198825,319.902616 L36.9814825,319.902616 C36.8222825,319.902616 36.6934825,320.031416 36.6934825,320.190616 L36.6934825,322.187416 L34.6486825,322.187416 L34.6486825,319.307416 C34.6486825,319.148216 34.5198825,319.019416 34.3606825,319.019416 L33.1222825,319.019416 C32.9630825,319.019416 32.8342825,319.148216 32.8342825,319.307416 L32.8342825,322.187416 L30.7414825,322.187416 L30.6934825,318.635416 C30.6934825,318.476216 30.5646825,318.347416 30.4054825,318.347416 L29.1670825,318.347416 C29.0078825,318.347416 28.8790825,318.476216 28.8790825,318.635416 L28.9270825,322.187416 L26.7478825,322.187416 L26.7478825,320.190616 C26.7478825,320.031416 26.6190825,319.902616 26.4598825,319.902616 L25.2214825,319.902616 C25.0622825,319.902616 24.9334825,320.031416 24.9334825,320.190616 L24.9334825,322.187416 L22.3894825,322.187416 C22.2302825,322.187416 22.1014825,322.316216 22.1014825,322.475416 L22.1014825,324.357016 C22.1014825,324.516216 22.2302825,324.645016 22.3894825,324.645016 L23.3494825,324.645016 L24.5878825,333.707416 C24.6070825,333.851416 24.7310825,333.958616 24.8758825,333.957016 L38.5558825,333.957016 C38.7006825,333.958616 38.8246825,333.851416 38.8438825,333.707416 L40.0534825,324.635416 L41.0134825,324.635416 C41.1718825,324.635416 41.3014825,324.506616 41.3014825,324.347416 L41.3014825,322.485016 C41.3070825,322.333016 41.1934825,322.202616 41.0422825,322.187416 L38.5078825,322.187416 Z M26.2198825,332.142616 L25.3846825,325.883416 L38.0470825,325.883416 L37.2118825,332.142616 L26.2198825,332.142616 Z M29.0808425,328.005096 C28.9216425,328.005096 28.7928425,328.133896 28.7928425,328.293096 L28.7928425,329.685096 C28.7928425,329.844296 28.9216425,329.973096 29.0808425,329.973096 L34.2360425,329.973096 C34.3952425,329.973096 34.5240425,329.844296 34.5240425,329.685096 L34.5240425,328.293096 C34.5240425,328.133896 34.3952425,328.005096 34.2360425,328.005096 L29.0808425,328.005096 Z"></path>
        </g>
    </g>
</svg>
