<?xml version="1.0" encoding="UTF-8"?>
<svg viewBox="0 0 24 25" version="1.1" xmlns="http://www.w3.org/2000/svg" xmlns:xlink="http://www.w3.org/1999/xlink">
    <g stroke="none" stroke-width="1" fill="none" fill-rule="evenodd">
        <g  transform="translate(-20.000000, -233.000000)" fill="#00B6CB">
            <path d="M20,233.821484 L44,233.821484 L44,257.821484 L20,257.821484 L20,233.821484 Z M32.94768,242.400044 L35.47648,244.938444 L31.41088,244.938444 L24.42608,251.112844 L26.08608,253.154444 L32.57568,247.400844 L35.47648,247.400844 L32.94768,249.939244 L34.68448,251.676044 L40.20048,246.169644 L34.68448,240.654444 L32.94768,242.400044 Z M25.7864,238.421884 L25.7864,241.093884 L23,241.093884 L23,242.897084 L25.7864,242.897084 L25.7864,245.788284 L27.5808,245.788284 L27.5808,242.897084 L30.3672,242.897084 L30.3672,241.093884 L27.5808,241.093884 L27.5808,238.421884 L25.7864,238.421884 Z"></path>
        </g>
    </g>
</svg>
