<?xml version="1.0" encoding="UTF-8"?>
<svg viewBox="0 0 24 24" version="1.1" xmlns="http://www.w3.org/2000/svg" xmlns:xlink="http://www.w3.org/1999/xlink">
    <g stroke="none" stroke-width="1" fill="none" fill-rule="evenodd">
        <g  transform="translate(-20.000000, -314.000000)" fill="#164D56">
            <path d="M20,314 L44,314 L44,338 L20,338 L20,314 Z M34.1979781,330.34817 L38.7475781,334.89777 L40.6979781,332.94737 L36.1483781,328.39777 L34.1979781,330.34817 Z M28.6421381,328.69505 C25.4109381,328.69505 22.7909381,326.07585 22.7909381,322.84465 C22.7909381,319.61265 25.4109381,316.99345 28.6421381,316.99345 C31.8733381,316.99345 34.4925381,319.61265 34.4925381,322.84465 C34.4885381,326.07345 31.8717381,328.69025 28.6421381,328.69505 Z M28.6421381,315.69985 C24.6965381,315.69985 21.4973381,318.89825 21.4973381,322.84465 C21.4973381,326.79025 24.6965381,329.98865 28.6421381,329.98865 C32.5877381,329.98865 35.7869381,326.79025 35.7869381,322.84465 C35.7821381,318.90065 32.5861381,315.70465 28.6421381,315.69985 Z M29.1901381,319.59745 L28.1021381,319.59745 L28.1021381,322.30465 L25.3949381,322.30465 L25.3949381,323.39265 L28.1021381,323.39265 L28.1021381,326.09905 L29.1901381,326.09905 L29.1901381,323.39265 L31.8973381,323.39265 L31.8973381,322.30465 L29.1901381,322.30465 L29.1901381,319.59745 Z"></path>
        </g>
    </g>
</svg>
