<?xml version="1.0" encoding="UTF-8"?>
<svg viewBox="0 0 24 24" version="1.1" xmlns="http://www.w3.org/2000/svg" xmlns:xlink="http://www.w3.org/1999/xlink">
    <g stroke="none" stroke-width="1" fill="none" fill-rule="evenodd">
        <g  transform="translate(-20.000000, -354.000000)" fill="#164D56">
            <path d="M20,354 L44,354 L44,378 L20,378 L20,354 Z M40.509948,372.84 L24.872948,372.84228 L24.872948,356.5 L22.975228,356.5 L22.975228,374.74 L40.510708,374.73772 L40.509948,372.84 Z M30.870792,360.28442 C31.695392,359.4887 32.875672,359.09046 34.398712,359.09046 C35.203552,359.09046 36.102632,359.20142 37.095952,359.42334 L29.455672,367.23538 C29.172192,365.06178 29.192712,361.90398 30.870792,360.28442 Z M28.624232,370.11502 C28.704032,370.13554 28.784592,370.14618 28.865152,370.14618 C29.116712,370.14618 29.362952,370.0451 29.543072,369.86042 L39.589512,359.58826 C39.819792,359.3519 39.911752,359.01142 39.830432,358.6907 C39.747592,358.36922 39.504392,358.11462 39.187472,358.0181 C34.802272,356.67898 31.560872,356.98146 29.553712,358.91946 C26.081272,362.26954 27.870312,369.15058 27.948592,369.44242 C28.036752,369.7715 28.294392,370.02838 28.624232,370.11502 Z"></path>
        </g>
    </g>
</svg>
