<?xml version="1.0" encoding="UTF-8"?>
<svg viewBox="0 0 24 24" version="1.1" xmlns="http://www.w3.org/2000/svg" xmlns:xlink="http://www.w3.org/1999/xlink">
    <g stroke="none" stroke-width="1" fill="none" fill-rule="evenodd">
        <g  transform="translate(-20.000000, -474.000000)" fill="#164D56">
            <path d="M20,474 L44,474 L44,498 L20,498 L20,474 Z M24.875,477.499763 L24.875,493.794638 L29.378,493.794638 L29.378,491.752929 L26.9095833,491.752929 L26.9095833,480.118596 L32.3459583,480.118596 L32.3459583,482.761971 L35.0597917,482.761971 L35.0597917,487.021929 L37.0935833,489.003471 L37.0935833,481.890346 L37.0935833,481.261763 L33.2357917,477.499763 L24.875,477.499763 Z M33.2711,490.390313 L34.60585,491.725854 L31.0631417,491.769396 L31.0631417,493.803188 L34.5631,493.768354 L33.2711,495.060354 L34.7111417,496.499604 L38.48185,492.729688 L34.7111417,488.950271 L33.2711,490.390313 Z"></path>
        </g>
    </g>
</svg>
