<svg xmlns="http://www.w3.org/2000/svg" viewBox="0 0 64 60"><path d="M33.07.29,57.2,14.21a2.17,2.17,0,0,1,1.07,1.86V43.93a2.17,2.17,0,0,1-1.07,1.86L33.07,59.71a2.1,2.1,0,0,1-2.14,0L6.8,45.79a2.17,2.17,0,0,1-1.07-1.86V16.07A2.17,2.17,0,0,1,6.8,14.21L30.93.29A2.1,2.1,0,0,1,33.07.29Z" fill="#0072c3" fill-rule="evenodd"/><path d="M29.09,30a7,7,0,1,0-7-7A7,7,0,0,0,29.09,30Zm0-12a5,5,0,1,1-5,5A5,5,0,0,1,29.09,18Z" fill="#fff"/><path d="M32.09,32h-6a7,7,0,0,0-7,7v5h2V39a5,5,0,0,1,5-5h6a5,5,0,0,1,5,5v5h2V39A7,7,0,0,0,32.09,32Z" fill="#fff"/><circle cx="41.66" cy="28.24" r="1.25" fill="#fff"/><path d="M42.09,18h-.86a2.69,2.69,0,0,0-2,.88A3,3,0,0,0,38.41,21v.55h1.64V21a1.24,1.24,0,0,1,1.18-1.28h.86a1.28,1.28,0,0,1,0,2.55h-1.4v3.24h1.65V24a3,3,0,0,0-.25-6Z" fill="#fff"/></svg>