<svg xmlns="http://www.w3.org/2000/svg" viewBox="0 0 64 60"><path d="M33.07.29,57.2,14.21a2.17,2.17,0,0,1,1.07,1.86V43.93a2.17,2.17,0,0,1-1.07,1.86L33.07,59.71a2.1,2.1,0,0,1-2.14,0L6.8,45.79a2.17,2.17,0,0,1-1.07-1.86V16.07A2.17,2.17,0,0,1,6.8,14.21L30.93.29A2.1,2.1,0,0,1,33.07.29Z" fill="#0072c3" fill-rule="evenodd"/><path d="M39.93,24l6.14,6-6.14,6-1.44-1.41L42.15,31H32.69L19.46,44,18,42.54,30.1,30.74,31.77,29H42.15l-3.66-3.59ZM24.07,16v4h4.1v2h-4.1v4H22V22H17.93V20H22V16Z" fill="#fff" fill-rule="evenodd"/></svg>