<svg xmlns="http://www.w3.org/2000/svg" viewBox="0 0 64 60"><path d="M33.18,58.33l26-18.85a2,2,0,0,0,.73-2.24L49.94,6.73A2,2,0,0,0,48,5.35H16a2,2,0,0,0-1.9,1.38L4.14,37.24a2,2,0,0,0,.73,2.24l26,18.85A2,2,0,0,0,33.18,58.33Z" fill="#8c7300" fill-rule="evenodd"/><rect x="23.62" y="18.29" width="16" height="2" fill="#fff"/><polygon points="30.62 32.38 27.83 29.59 26.41 31 31.62 36.21 36.83 31 35.41 29.59 32.62 32.38 32.62 24.29 39.62 24.29 39.62 22.29 23.62 22.29 23.62 24.29 30.62 24.29 30.62 32.38" fill="#fff"/><path d="M39.62,35.29h-3v2h2v3h-14v-3h2v-2h-3a1,1,0,0,0-1,1v5a1,1,0,0,0,1,1h16a1,1,0,0,0,1-1v-5A1,1,0,0,0,39.62,35.29Z" fill="#fff"/></svg>