<svg xmlns="http://www.w3.org/2000/svg" viewBox="0 0 64 60"><path d="M33.18,58.33l26-18.85a2,2,0,0,0,.73-2.24L49.94,6.73A2,2,0,0,0,48,5.35H16a2,2,0,0,0-1.9,1.38L4.14,37.24a2,2,0,0,0,.73,2.24l26,18.85A2,2,0,0,0,33.18,58.33Z" fill="#8c7300" fill-rule="evenodd"/><path d="M33.53,18.29H30.68a1.43,1.43,0,0,0-1.43,1.43v8.57h1.43V24.72h2.85v3.57H35V19.72A1.43,1.43,0,0,0,33.53,18.29Zm-2.85,5V19.72h2.85v3.57Z" fill="#fff"/><path d="M46.39,28.29H43.53v-10h2.86a2.86,2.86,0,0,1,2.86,2.86v4.29A2.86,2.86,0,0,1,46.39,28.29ZM45,26.86h1.43a1.43,1.43,0,0,0,1.43-1.42V21.15a1.43,1.43,0,0,0-1.43-1.43H45Z" fill="#fff"/><polygon points="26.39 18.29 26.39 22.58 23.54 22.58 23.54 18.29 22.11 18.29 22.11 28.29 23.54 28.29 23.54 24.01 26.39 24.01 26.39 28.29 27.82 28.29 27.82 18.29 26.39 18.29" fill="#fff"/><polygon points="36.39 19.72 38.53 19.72 38.53 26.86 36.39 26.86 36.39 28.29 42.11 28.29 42.11 26.86 39.96 26.86 39.96 19.72 42.11 19.72 42.11 18.29 36.39 18.29 36.39 19.72" fill="#fff"/><path d="M20.68,28.29H16.39A1.43,1.43,0,0,1,15,26.86V19.72a1.43,1.43,0,0,1,1.43-1.43h4.29v1.43H16.39v7.14h4.29Z" fill="#fff"/><path d="M39,39.44a2.6,2.6,0,0,0-.84.15l-3.81-3.82a2.54,2.54,0,0,0,.15-.83,2.5,2.5,0,1,0-4.82.92L25.94,39.6l0,0a2.45,2.45,0,0,0-1-.2,2.5,2.5,0,1,0,2.5,2.5,2.45,2.45,0,0,0-.2-1l.05.06,3.75-3.75a2.48,2.48,0,0,0,1.88,0L36.7,41a2.45,2.45,0,0,0-.2,1,2.5,2.5,0,1,0,2.5-2.5Z" fill="#fff"/></svg>