<svg xmlns="http://www.w3.org/2000/svg" viewBox="0 0 64 60"><path d="M33.18,58.33l26-18.85a2,2,0,0,0,.73-2.24L49.94,6.73A2,2,0,0,0,48,5.35H16a2,2,0,0,0-1.9,1.38L4.14,37.24a2,2,0,0,0,.73,2.24l26,18.85A2,2,0,0,0,33.18,58.33Z" fill="#8c7300" fill-rule="evenodd"/><polygon points="34.47 20.63 34.47 19.31 29.14 19.31 29.14 28.63 34.47 28.63 34.47 27.29 30.47 27.29 30.47 24.63 33.81 24.63 33.81 23.29 30.47 23.29 30.47 20.63 34.47 20.63" fill="#fff"/><path d="M19.72,19.29H17.06a1.34,1.34,0,0,0-1.34,1.34v6.66a1.34,1.34,0,0,0,1.34,1.34h.66V30a1.34,1.34,0,0,0,1.34,1.33h1.33V30H19.06V28.63h.66a1.34,1.34,0,0,0,1.34-1.34V20.63A1.34,1.34,0,0,0,19.72,19.29Zm-2.66,8V20.63h2.66v6.66Z" fill="#fff"/><path d="M39.81,28.63h-4V27.29h4V24.63H37.14a1.34,1.34,0,0,1-1.33-1.34V20.63a1.34,1.34,0,0,1,1.33-1.34h4v1.34h-4v2.66h2.67a1.34,1.34,0,0,1,1.33,1.34v2.66A1.34,1.34,0,0,1,39.81,28.63Z" fill="#fff"/><polygon points="42.48 20.63 44.48 20.63 44.48 28.63 45.81 28.63 45.81 20.63 47.81 20.63 47.81 19.29 42.48 19.29 42.48 20.63" fill="#fff"/><path d="M26.47,28.63H23.81a1.34,1.34,0,0,1-1.34-1.34v-8h1.34v8h2.66v-8h1.34v8A1.34,1.34,0,0,1,26.47,28.63Z" fill="#fff"/><path d="M38.66,40.44a2.6,2.6,0,0,0-.84.15L34,36.77a2.54,2.54,0,0,0,.15-.83,2.5,2.5,0,1,0-4.82.92L25.6,40.6l0,0a2.45,2.45,0,0,0-1-.2,2.5,2.5,0,1,0,2.5,2.5,2.45,2.45,0,0,0-.2-1L27,42l3.74-3.75a2.48,2.48,0,0,0,1.88,0L36.36,42a2.45,2.45,0,0,0-.2,1,2.5,2.5,0,1,0,2.5-2.5Z" fill="#fff"/></svg>