<svg xmlns="http://www.w3.org/2000/svg" viewBox="0 0 64 60"><path d="M33.18,58.33l26-18.85a2,2,0,0,0,.73-2.24L49.94,6.73A2,2,0,0,0,48,5.35H16a2,2,0,0,0-1.9,1.38L4.14,37.24a2,2,0,0,0,.73,2.24l26,18.85A2,2,0,0,0,33.18,58.33Z" fill="#8c7300" fill-rule="evenodd"/><path d="M22.09,39.42V17.57h-2V39.42a2.15,2.15,0,0,0,2.15,2.15H44.09v-2H22.24A.15.15,0,0,1,22.09,39.42Z" fill="#fff"/><path d="M31.34,34.24a1.45,1.45,0,0,0-.19-.23,1.5,1.5,0,0,0-1.35-.41l-.29.08a2,2,0,0,0-.25.14A1.45,1.45,0,0,0,29,34a2.11,2.11,0,0,0-.19.23,2.15,2.15,0,0,0-.14.26,2.29,2.29,0,0,0-.08.28,1.36,1.36,0,0,0,0,.29A1.47,1.47,0,0,0,29,36.13a1.5,1.5,0,0,0,1.06.44,1.52,1.52,0,0,0,1.06-.44,1.5,1.5,0,0,0,.44-1.06,1.36,1.36,0,0,0,0-.29,1.31,1.31,0,0,0-.09-.28A1.26,1.26,0,0,0,31.34,34.24Z" fill="#fff"/><path d="M36.59,30.07a1.51,1.51,0,0,0,1.06-.44,1.5,1.5,0,1,0-1.06.44Z" fill="#fff"/><path d="M44.15,21a2.11,2.11,0,0,0-.23-.19l-.26-.14-.28-.08a1.42,1.42,0,0,0-.58,0l-.28.08-.26.14A2.11,2.11,0,0,0,42,21a1.45,1.45,0,0,0-.19.23,2.15,2.15,0,0,0-.14.26,2.29,2.29,0,0,0-.08.28,1.36,1.36,0,0,0,0,.29,1.5,1.5,0,0,0,3,0A1.52,1.52,0,0,0,44.15,21Z" fill="#fff"/><path d="M30.09,29.81l5.18,7.34a1,1,0,0,0,.82.42h.07A1,1,0,0,0,37,37l6-11.5-1.78-.93L36,34.66,30.91,27.5a1,1,0,0,0-1.64,0l-6,8.5,1.64,1.15Z" fill="#fff"/></svg>