<svg xmlns="http://www.w3.org/2000/svg" viewBox="0 0 64 60"><path d="M33.18,58.33l26-18.85a2,2,0,0,0,.73-2.24L49.94,6.73A2,2,0,0,0,48,5.35H16a2,2,0,0,0-1.9,1.38L4.14,37.24a2,2,0,0,0,.73,2.24l26,18.85A2,2,0,0,0,33.18,58.33Z" fill="#8c7300" fill-rule="evenodd"/><path d="M41.06,24.59,39.65,26l3.29,3.29H36.11v-8a1,1,0,0,0-1-1H29.3a4,4,0,1,0,0,2h4.81v7H29.3a4,4,0,1,0,0,2h4.81v7H29.3a4,4,0,1,0,0,2h5.81a1,1,0,0,0,1-1v-8h6.83l-3.29,3.3L41.06,36l5.71-5.71Zm-15.62-1.3a2,2,0,1,1,2-2A2,2,0,0,1,25.44,23.29Zm0,9a2,2,0,1,1,2-2A2,2,0,0,1,25.44,32.29Zm0,9a2,2,0,1,1,2-2A2,2,0,0,1,25.44,41.29Z" fill="#fff"/><rect x="13.26" y="-83.07" width="431" height="358" fill="none"/></svg>