<svg xmlns="http://www.w3.org/2000/svg" viewBox="0 0 64 60"><path d="M33.18,58.33l26-18.85a2,2,0,0,0,.73-2.24L49.94,6.73A2,2,0,0,0,48,5.35H16a2,2,0,0,0-1.9,1.38L4.14,37.24a2,2,0,0,0,.73,2.24l26,18.85A2,2,0,0,0,33.18,58.33Z" fill="#8c7300" fill-rule="evenodd"/><path d="M22.78,39.57a.15.15,0,0,1-.15-.15V17.57h-2V39.42a2.15,2.15,0,0,0,2.15,2.15H44.63v-2Z" fill="#fff"/><path d="M26.06,36.46a1.56,1.56,0,0,0,.57.11,1.5,1.5,0,0,0,1.5-1.5,1.36,1.36,0,0,0,0-.29A1.31,1.31,0,0,0,28,34.5a1.26,1.26,0,0,0-.13-.26,2.11,2.11,0,0,0-.19-.23,1.55,1.55,0,0,0-2.12,0,1.51,1.51,0,0,0,.49,2.45Z" fill="#fff"/><path d="M39.08,27.81a1.44,1.44,0,0,0,.57.11,1.49,1.49,0,1,0-.57-.11Z" fill="#fff"/><path d="M36.53,32.35a1.5,1.5,0,1,0-1.11-.49A1.51,1.51,0,0,0,36.53,32.35Z" fill="#fff"/><path d="M31.9,35.2a1.65,1.65,0,0,0,.57-.11,1.5,1.5,0,1,0-1.95-.82A1.48,1.48,0,0,0,31.9,35.2Z" fill="#fff"/><path d="M40.63,22.57a1.5,1.5,0,0,0,1.5-1.5,1.5,1.5,0,0,0-1.79-1.47l-.28.08a1.59,1.59,0,0,0-.26.14,1.45,1.45,0,0,0-.23.19,1.5,1.5,0,0,0,1.06,2.56Z" fill="#fff"/></svg>