<svg xmlns="http://www.w3.org/2000/svg" viewBox="0 0 64 60"><path d="M33.18,58.33l26-18.85a2,2,0,0,0,.73-2.24L49.94,6.73A2,2,0,0,0,48,5.35H16a2,2,0,0,0-1.9,1.38L4.14,37.24a2,2,0,0,0,.73,2.24l26,18.85A2,2,0,0,0,33.18,58.33Z" fill="#8c7300" fill-rule="evenodd"/><rect x="19.31" y="26.07" width="4" height="2" fill="#fff"/><rect x="19.31" y="22.07" width="4" height="2" fill="#fff"/><path d="M26.64,28.07h4a1,1,0,0,0,1-1v-4a1,1,0,0,0-1-1h-4a1,1,0,0,0-1,1v4A1,1,0,0,0,26.64,28.07Zm1-4h2v2h-2Z" fill="#fff"/><rect x="33.97" y="22.07" width="4" height="2" fill="#fff"/><rect x="33.97" y="26.07" width="4" height="2" fill="#fff"/><path d="M45.31,22.07h-4a1,1,0,0,0-1,1v4a1,1,0,0,0,1,1h4a1,1,0,0,0,1-1v-4A1,1,0,0,0,45.31,22.07Zm-1,4h-2v-2h2Z" fill="#fff"/><path d="M42.31,34.07h-5.5v-3h-2v3h-5.5v-3h-2v3h-5v-3h-2v4a1,1,0,0,0,1,1h22a1,1,0,0,0,1-1v-4h-2Z" fill="#fff"/></svg>