<svg xmlns="http://www.w3.org/2000/svg" viewBox="0 0 64 60"><path d="M33.18,58.33l26-18.85a2,2,0,0,0,.73-2.24L49.94,6.73A2,2,0,0,0,48,5.35H16a2,2,0,0,0-1.9,1.38L4.14,37.24a2,2,0,0,0,.73,2.24l26,18.85A2,2,0,0,0,33.18,58.33Z" fill="#8c7300" fill-rule="evenodd"/><circle cx="21.94" cy="33.29" r="1.07" fill="none" stroke="#f1f1f2" stroke-width="2"/><circle cx="34.79" cy="33.29" r="1.07" fill="none" stroke="#f1f1f2" stroke-width="2"/><line x1="29.43" y1="33.29" x2="27.29" y2="33.29" fill="none" stroke="#f1f1f2" stroke-linecap="square" stroke-width="2"/><line x1="21.94" y1="40.78" x2="21.94" y2="38.64" fill="none" stroke="#fff" stroke-linecap="square" stroke-width="2"/><line x1="42.28" y1="33.29" x2="40.14" y2="33.29" fill="none" stroke="#f1f1f2" stroke-linecap="square" stroke-width="2"/><line x1="34.79" y1="40.78" x2="34.79" y2="38.64" fill="none" stroke="#f1f1f2" stroke-linecap="square" stroke-width="2"/><polygon points="39.07 19.53 41.07 19.53 41.07 26.86 42.41 26.86 42.41 19.53 44.42 19.53 44.42 18.3 39.07 18.3 39.07 19.53" fill="#fff" fill-rule="evenodd"/><path d="M25.15,26.86h-4a1.28,1.28,0,0,1-1.34-1.22V19.53a1.29,1.29,0,0,1,1.34-1.23h4v1.23h-4v6.11h4Z" fill="#fff" fill-rule="evenodd"/><path d="M36.93,22V19.53a1.29,1.29,0,0,0-1.34-1.23h-4v8.56h1.34V23.2h1l1.57,3.66h1.46L35.37,23.2h.22A1.29,1.29,0,0,0,36.93,22Zm-4-2.44h2.68V22H32.91Z" fill="#fff" fill-rule="evenodd"/></svg>