<svg xmlns="http://www.w3.org/2000/svg" viewBox="0 0 64 60"><path d="M33.18,58.33l26-18.85a2,2,0,0,0,.73-2.24L49.94,6.73A2,2,0,0,0,48,5.35H16a2,2,0,0,0-1.9,1.38L4.14,37.24a2,2,0,0,0,.73,2.24l26,18.85A2,2,0,0,0,33.18,58.33Z" fill="#8c7300" fill-rule="evenodd"/><path d="M39.7,27.34a.94.94,0,0,0,.48-.13,1,1,0,1,0-.48.13Z" fill="#fff"/><path d="M29.73,22.92a1,1,0,1,0-.26,0A.75.75,0,0,0,29.73,22.92Z" fill="#fff"/><path d="M37.67,22.55a1,1,0,1,0,.22,1.4A1,1,0,0,0,37.67,22.55Z" fill="#fff"/><path d="M33.43,22.8a1,1,0,1,0-.18,0Z" fill="#fff"/><path d="M33.87,36.38a1,1,0,0,0,.26,2l.26,0a1,1,0,0,0-.52-1.93Z" fill="#fff"/><path d="M23.42,32.08A1,1,0,0,0,23.9,34a1.07,1.07,0,0,0,.48-.12,1,1,0,1,0-1-1.76Z" fill="#fff"/><path d="M25.71,35.35a1,1,0,0,0,.22,1.4,1,1,0,0,0,.59.19,1,1,0,0,0,.59-1.81A1,1,0,0,0,25.71,35.35Z" fill="#fff"/><path d="M30.35,36.52a1,1,0,1,0-.37,2l.18,0a1,1,0,0,0,.19-2Z" fill="#fff"/><path d="M44.8,30.65h-6a1,1,0,0,0-1,1v6a1,1,0,0,0,1,1h6a1,1,0,0,0,1-1v-6A1,1,0,0,0,44.8,30.65Zm-1,6h-4v-4h4Z" fill="#fff"/><path d="M26.73,25.15a4,4,0,1,0-4,4A4,4,0,0,0,26.73,25.15Zm-4,2a2,2,0,1,1,2-2A2,2,0,0,1,22.73,27.15Z" fill="#fff"/></svg>