<svg xmlns="http://www.w3.org/2000/svg" viewBox="0 0 64 60"><path d="M33.18,58.33l26-18.85a2,2,0,0,0,.73-2.24L49.94,6.73A2,2,0,0,0,48,5.35H16a2,2,0,0,0-1.9,1.38L4.14,37.24a2,2,0,0,0,.73,2.24l26,18.85A2,2,0,0,0,33.18,58.33Z" fill="#8c7300" fill-rule="evenodd"/><circle cx="31.75" cy="29.54" r="2" fill="#fff"/><circle cx="19.75" cy="32.54" r="2" fill="#fff"/><circle cx="43.75" cy="32.54" r="2" fill="#fff"/><path d="M34.58,27.59l2.73-4.09h0c.15,0,.29,0,.44,0a2.85,2.85,0,0,0,.29,0h0l3.85,6.54,1.72-1-3.69-6.27h0a3.49,3.49,0,1,0-4.46-.09l-2.54,3.82Zm3.17-9a1.5,1.5,0,1,1-1.5,1.5A1.5,1.5,0,0,1,37.75,18.54Z" fill="#fff"/><path d="M19.89,29l1.72,1,3.85-6.54h0a2.58,2.58,0,0,0,.29,0c.15,0,.29,0,.43,0h0l2.74,4.09,1.66-1.1L28,22.67A3.49,3.49,0,1,0,22.25,20a3.46,3.46,0,0,0,1.33,2.72h0Zm5.86-10.49a1.5,1.5,0,1,1-1.5,1.5A1.5,1.5,0,0,1,25.75,18.54Z" fill="#fff"/><path d="M40.71,34.19,35,37.78a4,4,0,0,0-2.29-1.6V32.54h-2v3.64a4,4,0,0,0-2.29,1.6l-5.68-3.59-1.07,1.7,6.07,3.83c0,.11,0,.21,0,.32a4,4,0,0,0,8,0c0-.11,0-.21,0-.32l6.06-3.83ZM28,38.65c0,.05,0,.11-.05.16S28,38.7,28,38.65Zm.35-.71a2.42,2.42,0,0,0-.21.39A2.42,2.42,0,0,1,28.36,37.94ZM31.75,42a2,2,0,1,1,2-2A2,2,0,0,1,31.75,42Zm3.74-3.39c0,.05,0,.11,0,.16A.94.94,0,0,0,35.49,38.65Zm-.35-.71a3.58,3.58,0,0,1,.21.39A2.42,2.42,0,0,0,35.14,37.94Z" fill="#fff"/></svg>