<svg xmlns="http://www.w3.org/2000/svg" viewBox="0 0 64 60"><path d="M33.18,58.33l26-18.85a2,2,0,0,0,.73-2.24L49.94,6.73A2,2,0,0,0,48,5.35H16a2,2,0,0,0-1.9,1.38L4.14,37.24a2,2,0,0,0,.73,2.24l26,18.85A2,2,0,0,0,33.18,58.33Z" fill="#8c7300" fill-rule="evenodd"/><path d="M40,35.94a4,4,0,0,0-2,.57L33.45,32a4,4,0,0,0,.57-2,4.1,4.1,0,0,0-.27-1.4l3.94-2.27-.1-.17A4,4,0,1,0,36,22.94a3.91,3.91,0,0,0,.41,1.74L32.59,26.9A4.22,4.22,0,0,0,31,26.08V23.8a4,4,0,1,0-2,0v2.28a4,4,0,0,0-3,3.86,3.84,3.84,0,0,0,.11.91l-2.93,1.7A4,4,0,1,0,24,34.94a3,3,0,0,0-.06-.52l3.11-1.8A3.94,3.94,0,0,0,30,33.94a3.89,3.89,0,0,0,2-.57l4.54,4.55a4,4,0,1,0,3.44-2Zm-20,1a2,2,0,1,1,1.61-3.17l.23.4A2,2,0,0,1,20,36.94Zm20-16a2,2,0,1,1-2,2A2,2,0,0,1,40,20.94Zm-12-1a2,2,0,1,1,2,2A2,2,0,0,1,28,19.94Zm0,10a2,2,0,1,1,2,2A2,2,0,0,1,28,29.94Zm12,12a2,2,0,1,1,2-2A2,2,0,0,1,40,41.94Z" fill="#fff"/><rect x="-155.84" y="-83.07" width="431" height="358" fill="none"/></svg>