<svg xmlns="http://www.w3.org/2000/svg" viewBox="0 0 64 60"><path d="M33.18,58.33l26-18.85a2,2,0,0,0,.73-2.24L49.94,6.73A2,2,0,0,0,48,5.35H16a2,2,0,0,0-1.9,1.38L4.14,37.24a2,2,0,0,0,.73,2.24l26,18.85A2,2,0,0,0,33.18,58.33Z" fill="#8c7300" fill-rule="evenodd"/><rect x="34.69" y="31.41" width="10" height="2" fill="#fff"/><rect x="21.69" y="31.41" width="10" height="2" fill="#fff"/><rect x="21.69" y="27.41" width="10" height="2" fill="#fff"/><rect x="34.69" y="35.41" width="10" height="2" fill="#fff"/><polygon points="28.77 35.65 26.01 35.65 24.01 38.29 25.16 39.19 26.86 36.96 26.97 36.96 26.97 42.57 24.72 42.57 24.72 44.02 30.55 44.02 30.55 42.57 28.77 42.57 28.77 35.65" fill="#fff"/><path d="M39.67,22.4a1,1,0,0,1,1.1,1v.16c0,.71-.32,1.18-1.26,2l-2.57,2.21v1.64h5.92V27.84h-4l1.56-1.22c1.2-.95,2.23-1.82,2.23-3.26s-1-2.52-2.85-2.52A3,3,0,0,0,36.76,23l1.57.6A1.36,1.36,0,0,1,39.67,22.4Z" fill="#fff"/><path d="M30.84,24.29H27.41V23.15h3.43V20.86H28.55a1.14,1.14,0,0,1-1.14-1.14V17.44a1.15,1.15,0,0,1,1.14-1.15H32v1.15H28.55v2.28h2.29A1.14,1.14,0,0,1,32,20.86v2.29A1.14,1.14,0,0,1,30.84,24.29Z" fill="#fff"/><path d="M25.16,16.29H22.87a1.15,1.15,0,0,0-1.14,1.15v6.85h1.14V21.44h2.29v2.85H26.3V17.44A1.15,1.15,0,0,0,25.16,16.29Zm-2.29,4V17.44h2.29v2.85Z" fill="#fff"/></svg>