<svg xmlns="http://www.w3.org/2000/svg" viewBox="0 0 64 60"><path d="M33.18,58.33l26-18.85a2,2,0,0,0,.73-2.24L49.94,6.73A2,2,0,0,0,48,5.35H16a2,2,0,0,0-1.9,1.38L4.14,37.24a2,2,0,0,0,.73,2.24l26,18.85A2,2,0,0,0,33.18,58.33Z" fill="#8c7300" fill-rule="evenodd"/><path d="M23.67,38.79v-19h-2v19a2,2,0,0,0,2,2h19v-2Z" fill="#fff"/><rect x="24.19" y="28.79" width="16.97" height="2" transform="translate(-11.5 31.83) rotate(-45)" fill="#fff"/><rect x="31.43" y="31.79" width="8.49" height="2" transform="translate(-12.74 34.83) rotate(-45)" fill="#fff"/><rect x="25.43" y="25.79" width="8.49" height="2" transform="translate(-10.25 28.83) rotate(-45)" fill="#fff"/></svg>