<svg xmlns="http://www.w3.org/2000/svg" viewBox="0 0 64 60"><path d="M33.18,58.33l26-18.85a2,2,0,0,0,.73-2.24L49.94,6.73A2,2,0,0,0,48,5.35H16a2,2,0,0,0-1.9,1.38L4.14,37.24a2,2,0,0,0,.73,2.24l26,18.85A2,2,0,0,0,33.18,58.33Z" fill="#8c7300" fill-rule="evenodd"/><path d="M27.07,24.22l8-2.15a2,2,0,0,0,2,1.93h4a2,2,0,0,0,2-2V18a2,2,0,0,0-2-2h-4a2,2,0,0,0-2,2v2L26.89,22.2A2,2,0,0,0,25.07,21h-4a2,2,0,0,0-2,2v4a2,2,0,0,0,2,2h4a2,2,0,0,0,1.76-1.08L34.59,30l-7.76,2.08A2,2,0,0,0,25.07,31h-4a2,2,0,0,0-2,2v4a2,2,0,0,0,2,2h4a2,2,0,0,0,1.76-1.08l8.24,2.21V42a2,2,0,0,0,2,2h4a2,2,0,0,0,2-2V38a2,2,0,0,0-2-2h-4a2,2,0,0,0-2,2v.06l-8-2.15V34.09l8-2.15V32a2,2,0,0,0,2,2h4a2,2,0,0,0,2-2V28a2,2,0,0,0-2-2h-4a2,2,0,0,0-2,2v.06l-8-2.15Zm10-6.22h4v4h-4Zm0,20h4v4h-4Zm0-10h4v4h-4Zm-16-1V23h4v4Zm0,10V33h4v4Z" fill="#fff"/></svg>