<svg xmlns="http://www.w3.org/2000/svg" viewBox="0 0 64 60"><path d="M33.18,58.33l26-18.85a2,2,0,0,0,.73-2.24L49.94,6.73A2,2,0,0,0,48,5.35H16a2,2,0,0,0-1.9,1.38L4.14,37.24a2,2,0,0,0,.73,2.24l26,18.85A2,2,0,0,0,33.18,58.33Z" fill="#8c7300" fill-rule="evenodd"/><path d="M26.22,25.53a8,8,0,1,0,8,8A8,8,0,0,0,26.22,25.53Zm0,14a6,6,0,1,1,6-6A6,6,0,0,1,26.22,39.53Z" fill="#fff"/><polygon points="27.22 29.11 25.22 29.11 25.22 33.95 28.51 37.24 29.93 35.82 27.22 33.12 27.22 29.11" fill="#fff"/><path d="M30.72,21.11v2a6,6,0,0,1,6,6h2A8,8,0,0,0,30.72,21.11Z" fill="#fff"/><path d="M41.72,14.61v2a2,2,0,0,1,2,2h2A4,4,0,0,0,41.72,14.61Z" fill="#fff"/><path d="M36.72,17.61v2a4,4,0,0,1,4,4h2A6,6,0,0,0,36.72,17.61Z" fill="#fff"/></svg>