<svg xmlns="http://www.w3.org/2000/svg" viewBox="0 0 64 60"><path d="M33.18,58.33l26-18.85a2,2,0,0,0,.73-2.24L49.94,6.73A2,2,0,0,0,48,5.35H16a2,2,0,0,0-1.9,1.38L4.14,37.24a2,2,0,0,0,.73,2.24l26,18.85A2,2,0,0,0,33.18,58.33Z" fill="#8c7300" fill-rule="evenodd"/><rect x="29.95" y="23.67" width="14.33" height="2" fill="#fff"/><rect x="40.61" y="34.33" width="3.67" height="2" fill="#fff"/><rect x="36.61" y="18" width="2" height="3.67" fill="#fff"/><rect x="25.95" y="38.33" width="2" height="3.67" fill="#fff"/><rect x="20.28" y="23.67" width="3.67" height="2" fill="#fff"/><rect x="20.28" y="34.33" width="14.33" height="2" fill="#fff"/><rect x="36.61" y="27.67" width="2" height="14.33" fill="#fff"/><rect x="25.95" y="18" width="2" height="14.33" fill="#fff"/></svg>