<svg xmlns="http://www.w3.org/2000/svg" viewBox="0 0 64 60"><path d="M33.18,58.33l26-18.85a2,2,0,0,0,.73-2.24L49.94,6.73A2,2,0,0,0,48,5.35H16a2,2,0,0,0-1.9,1.38L4.14,37.24a2,2,0,0,0,.73,2.24l26,18.85A2,2,0,0,0,33.18,58.33Z" fill="#8c7300" fill-rule="evenodd"/><rect x="33.57" y="28.98" width="10" height="2" fill="#fff"/><rect x="20.57" y="24.98" width="10" height="2" fill="#fff"/><rect x="33.57" y="32.98" width="10" height="2" fill="#fff"/><rect x="20.57" y="28.98" width="10" height="2" fill="#fff"/><polygon points="27.15 33.22 24.39 33.22 22.39 35.86 23.54 36.76 25.24 34.53 25.35 34.53 25.35 40.14 23.09 40.14 23.09 41.59 28.92 41.59 28.92 40.14 27.15 40.14 27.15 33.22" fill="#fff"/><path d="M38.55,20a1,1,0,0,1,1.1,1v.16c0,.71-.33,1.18-1.26,2l-2.58,2.21v1.64h5.93V25.41h-4l1.56-1.22c1.2-1,2.23-1.83,2.23-3.26s-1-2.52-2.86-2.52a3,3,0,0,0-3.08,2.13l1.57.6A1.36,1.36,0,0,1,38.55,20Z" fill="#fff"/></svg>
