<svg xmlns="http://www.w3.org/2000/svg" viewBox="0 0 64 60"><path d="M33.18,58.33l26-18.85a2,2,0,0,0,.73-2.24L49.94,6.73A2,2,0,0,0,48,5.35H16a2,2,0,0,0-1.9,1.38L4.14,37.24a2,2,0,0,0,.73,2.24l26,18.85A2,2,0,0,0,33.18,58.33Z" fill="#8c7300" fill-rule="evenodd"/><polygon points="36.91 23.77 44.2 31.06 45.61 29.65 36.91 20.94 28.2 29.65 29.61 31.06 36.91 23.77" fill="#fff"/><polygon points="28.2 35.65 29.61 37.06 35.91 30.77 35.91 44.35 37.91 44.35 37.91 30.77 44.2 37.06 45.61 35.65 36.91 26.94 28.2 35.65" fill="#fff"/><path d="M25.78,17.43V16.29H22.35a1.14,1.14,0,0,0-1.14,1.14v5.72a1.14,1.14,0,0,0,1.14,1.14h3.43V19.72H23.5v1.14h1.14v2.29H22.35V17.43Z" fill="#fff"/><polygon points="18.92 16.29 17.78 19.72 16.64 16.29 15.49 16.29 17.07 20.29 15.49 24.29 16.64 24.29 17.78 20.86 18.92 24.29 20.07 24.29 18.49 20.29 20.07 16.29 18.92 16.29" fill="#fff"/></svg>