<svg xmlns="http://www.w3.org/2000/svg" viewBox="0 0 64 60"><path d="M33.18,58.33l26-18.85a2,2,0,0,0,.73-2.24L49.94,6.73A2,2,0,0,0,48,5.35H16a2,2,0,0,0-1.9,1.38L4.14,37.24a2,2,0,0,0,.73,2.24l26,18.85A2,2,0,0,0,33.18,58.33Z" fill="#8c7300" fill-rule="evenodd"/><path d="M35.74,24a10,10,0,1,0,10,10A10,10,0,0,0,35.74,24Zm0,18a8,8,0,1,1,8-8A8,8,0,0,1,35.74,42Z" fill="#fff" fill-rule="evenodd"/><polygon points="36.74 27.63 34.74 27.63 34.74 34.13 39.43 38.81 40.84 37.4 36.74 33.3 36.74 27.63" fill="#fff" fill-rule="evenodd"/><path d="M28.74,21.27A5.4,5.4,0,0,0,23.3,16h-.11a5.42,5.42,0,0,0-5.45,5.29,5.13,5.13,0,0,0,1.09,3.14l4.41,6.31,4.39-6.26A5.17,5.17,0,0,0,28.74,21.27Zm-2.72,2-2.78,4-2.81-4a3.23,3.23,0,0,1-.69-1.94A3.41,3.41,0,0,1,23.19,18h.11a3.39,3.39,0,0,1,3.44,3.28A3.17,3.17,0,0,1,26,23.28Z" fill="#fff" fill-rule="evenodd"/><circle cx="23.24" cy="21.29" r="1.13" fill="#fff"/></svg>