<svg xmlns="http://www.w3.org/2000/svg" viewBox="0 0 64 60"><path d="M33.18,58.33l26-18.85a2,2,0,0,0,.73-2.24L49.94,6.73A2,2,0,0,0,48,5.35H16a2,2,0,0,0-1.9,1.38L4.14,37.24a2,2,0,0,0,.73,2.24l26,18.85A2,2,0,0,0,33.18,58.33Z" fill="#8c7300" fill-rule="evenodd"/><rect x="18.22" y="16.29" width="10" height="2" fill="#fff"/><rect x="18.22" y="20.29" width="10" height="2" fill="#fff"/><rect x="18.22" y="24.29" width="10" height="2" fill="#fff"/><path d="M30.43,36.58a1,1,0,0,0-1.42,0,1.15,1.15,0,0,0-.21.33.94.94,0,0,0,0,.76.9.9,0,0,0,.54.54,1,1,0,0,0,.38.08,1,1,0,0,0,.71-.29,1.15,1.15,0,0,0,.21-.33.94.94,0,0,0,0-.76A1.15,1.15,0,0,0,30.43,36.58Z" fill="#fff"/><circle cx="26.22" cy="37.29" r="1" fill="#fff"/><path d="M23.27,36.46a.56.56,0,0,0-.17-.09.6.6,0,0,0-.19-.06.93.93,0,0,0-.57.06,1,1,0,0,0-.62.92,1,1,0,0,0,.08.38A1.15,1.15,0,0,0,22,38a1,1,0,0,0,.33.21A1,1,0,0,0,23.42,38a1,1,0,0,0,.3-.71,1,1,0,0,0-.3-.71Z" fill="#fff"/><circle cx="22.72" cy="33.79" r="1" fill="#fff"/><path d="M22.34,29.37a1,1,0,0,0-.62.92,1,1,0,0,0,1,1l.19,0a.6.6,0,0,0,.19-.06.56.56,0,0,0,.17-.09l.15-.12a1,1,0,0,0,0-1.42A1,1,0,0,0,22.34,29.37Z" fill="#fff"/><path d="M39.22,30.29a7,7,0,1,0,7,7A7,7,0,0,0,39.22,30.29Zm0,2c.17,0,.33,0,.5.05v5.45H34.27a4,4,0,0,1-.05-.5A5,5,0,0,1,39.22,32.29Zm0,10a5,5,0,0,1-4.3-2.5h5.8a1,1,0,0,0,1-1V33a5,5,0,0,1-2.5,9.3Z" fill="#fff"/></svg>