<svg xmlns="http://www.w3.org/2000/svg" viewBox="0 0 64 60"><path d="M33.18,58.33l26-18.85a2,2,0,0,0,.73-2.24L49.94,6.73A2,2,0,0,0,48,5.35H16a2,2,0,0,0-1.9,1.38L4.14,37.24a2,2,0,0,0,.73,2.24l26,18.85A2,2,0,0,0,33.18,58.33Z" fill="#8c7300" fill-rule="evenodd"/><polygon points="41.81 25.36 41.81 18.44 39.05 18.44 37.05 21.08 38.2 21.98 39.91 19.75 40.01 19.75 40.01 25.36 37.76 25.36 37.76 26.81 43.59 26.81 43.59 25.36 41.81 25.36" fill="#fff"/><path d="M41,39.41c1.2-.95,2.23-1.83,2.23-3.27s-1-2.52-2.85-2.52a3,3,0,0,0-3.08,2.14l1.57.6a1.36,1.36,0,0,1,1.34-1.18,1,1,0,0,1,1.1,1v.17c0,.71-.32,1.18-1.25,2L37.48,40.5v1.64H43.4V40.63h-4Z" fill="#fff"/><path d="M30.28,25.62,28,26.35a6,6,0,0,0-1.74-1L25.84,23H22.78l-.46,2.33a6,6,0,0,0-1.76,1l-2.22-.76-1.53,2.6,1.77,1.6a5.77,5.77,0,0,0,0,2L16.81,33.4,18.34,36l2.24-.73a5.74,5.74,0,0,0,1.74,1l.46,2.3h3.06l.46-2.34a5.84,5.84,0,0,0,1.76-1l2.22.76,1.53-2.6L30,31.8a5.77,5.77,0,0,0,0-2l1.77-1.55Zm-3.41,7.75a3.5,3.5,0,0,1-2.48,1h-.16a3.59,3.59,0,0,1,0-7.18h.16a3.62,3.62,0,0,1,2.48,6.15Z" fill="#fff"/><rect x="32.83" y="23.63" width="3.46" height="2" transform="translate(-7.68 20.58) rotate(-29.99)" fill="#fff"/><rect x="33.56" y="35.24" width="2" height="3.46" transform="translate(-14.74 48.41) rotate(-59.99)" fill="#fff"/></svg>