<svg xmlns="http://www.w3.org/2000/svg" viewBox="0 0 64 60"><path d="M33.18,58.33l26-18.85a2,2,0,0,0,.73-2.24L49.94,6.73A2,2,0,0,0,48,5.35H16a2,2,0,0,0-1.9,1.38L4.14,37.24a2,2,0,0,0,.73,2.24l26,18.85A2,2,0,0,0,33.18,58.33Z" fill="#8c7300" fill-rule="evenodd"/><path d="M42.29,35.43a4,4,0,1,0,4,4A4,4,0,0,0,42.29,35.43Zm0,6a2,2,0,1,1,2-2A2,2,0,0,1,42.29,41.43Z" fill="#fff"/><path d="M22.29,35.43a4,4,0,1,0,4,4A4,4,0,0,0,22.29,35.43Zm0,6a2,2,0,1,1,2-2A2,2,0,0,1,22.29,41.43Z" fill="#fff"/><path d="M32.29,35.43a4,4,0,1,0,4,4A4,4,0,0,0,32.29,35.43Zm0,6a2,2,0,1,1,2-2A2,2,0,0,1,32.29,41.43Z" fill="#fff"/><polygon points="27.58 32.47 29 33.89 32.29 30.59 35.58 33.89 37 32.47 32.29 27.77 27.58 32.47" fill="#fff"/><path d="M22.29,27.72h7v-5h6v5h7c1.68,0,3-1.07,3-2.43V18.14c0-1.36-1.32-2.42-3-2.42h-20c-1.68,0-3,1.06-3,2.42v7.15C19.29,26.65,20.61,27.72,22.29,27.72Zm5-2h-5c-.65,0-1-.33-1-.43V22.72h6Zm15,0h-5v-3h6v2.57C43.29,25.39,42.94,25.72,42.29,25.72Zm0-8c.65,0,1,.32,1,.42v2.58h-6v-3Zm-7,0v3h-6v-3Zm-13,0h5v3h-6V18.14C21.29,18,21.64,17.72,22.29,17.72Z" fill="#fff"/></svg>