<svg xmlns="http://www.w3.org/2000/svg" viewBox="0 0 64 60"><path d="M33.18,58.33l26-18.85a2,2,0,0,0,.73-2.24L49.94,6.73A2,2,0,0,0,48,5.35H16a2,2,0,0,0-1.9,1.38L4.14,37.24a2,2,0,0,0,.73,2.24l26,18.85A2,2,0,0,0,33.18,58.33Z" fill="#8c7300" fill-rule="evenodd"/><path d="M32.73,16.57a11.5,11.5,0,1,0,11.5,11.5A11.51,11.51,0,0,0,32.73,16.57Zm0,21a9.5,9.5,0,1,1,9.5-9.5A9.51,9.51,0,0,1,32.73,37.57Z" fill="#fff"/><path d="M30.73,21.82a4.5,4.5,0,1,0,4.5,4.5A4.51,4.51,0,0,0,30.73,21.82Zm0,7a2.5,2.5,0,1,1,2.5-2.5A2.5,2.5,0,0,1,30.73,28.82Z" fill="#fff"/><circle cx="33.23" cy="33.57" r="1.5" fill="#fff"/><circle cx="37.23" cy="31.57" r="1.5" fill="#fff"/><circle cx="38.23" cy="27.57" r="1.5" fill="#fff"/></svg>