<svg xmlns="http://www.w3.org/2000/svg" viewBox="0 0 64 60"><path d="M33.18,58.33l26-18.85a2,2,0,0,0,.73-2.24L49.94,6.73A2,2,0,0,0,48,5.35H16a2,2,0,0,0-1.9,1.38L4.14,37.24a2,2,0,0,0,.73,2.24l26,18.85A2,2,0,0,0,33.18,58.33Z" fill="#8c7300" fill-rule="evenodd"/><path d="M41.22,15.45l-4.61,9.24h9.23Zm0,4.48,1.39,2.76H39.84Z" fill="#fff" fill-rule="evenodd"/><path d="M19.22,20.69v2a18,18,0,0,1,18,18h2A20,20,0,0,0,19.22,20.69Z" fill="#fff" fill-rule="evenodd"/><circle cx="22.22" cy="28.69" r="2" fill="#fff"/><circle cx="29.22" cy="30.69" r="2" fill="#fff"/><circle cx="26.22" cy="36.69" r="2" fill="#fff"/></svg>