<svg xmlns="http://www.w3.org/2000/svg" viewBox="0 0 64 60"><path d="M33.18,58.33l26-18.85a2,2,0,0,0,.73-2.24L49.94,6.73A2,2,0,0,0,48,5.35H16a2,2,0,0,0-1.9,1.38L4.14,37.24a2,2,0,0,0,.73,2.24l26,18.85A2,2,0,0,0,33.18,58.33Z" fill="#8c7300" fill-rule="evenodd"/><circle cx="38.78" cy="32.94" r="10.5" fill="none" stroke="#fff" stroke-miterlimit="10" stroke-width="2"/><path d="M24.66,19.94v-2h-3v-2h-2v2h-2v2h2v6a2,2,0,0,0,2,2h3v-2h-3v-6Z" fill="#fff"/><polyline points="38.78 27.65 38.78 33.72 42.47 38.23" fill="none" stroke="#fff" stroke-miterlimit="10" stroke-width="2"/><rect x="-241.29" y="-83.07" width="431" height="358" fill="none"/></svg>