<svg xmlns="http://www.w3.org/2000/svg" viewBox="0 0 64 60"><path d="M33.18,58.33l26-18.85a2,2,0,0,0,.73-2.24L49.94,6.73A2,2,0,0,0,48,5.35H16a2,2,0,0,0-1.9,1.38L4.14,37.24a2,2,0,0,0,.73,2.24l26,18.85A2,2,0,0,0,33.18,58.33Z" fill="#8c7300" fill-rule="evenodd"/><rect x="24.33" y="14.65" width="2" height="14.14" transform="translate(-7.94 24.27) rotate(-45)" fill="#fff"/><rect x="40.33" y="30.65" width="2" height="14.14" transform="translate(-14.57 40.27) rotate(-45)" fill="#fff"/><path d="M32,36.43A1,1,0,0,0,32,35l-3.5-3.5a1,1,0,0,0-1.42,0l-1,1-4-4-1.42,1.42,4.05,4-1.05,1a1,1,0,0,0,0,1.42l3.5,3.5a1,1,0,0,0,1.42,0l1-1,4,4L35,41.51l-4.05-4ZM27.83,37.8l-2.09-2.08,2.09-2.09,2.09,2.09Z" fill="#fff"/><path d="M35.33,23.72a4,4,0,0,0,4,4A4,4,0,0,0,41,27.33l4.1,4.1L46.54,30l-4-4a4,4,0,0,0,.76-2.32,4,4,0,0,0-4-4,3.94,3.94,0,0,0-2.33.76L33.54,17l-1.42,1.42L35.72,22A4,4,0,0,0,35.33,23.72Zm4-2a2,2,0,1,1-2,2A2,2,0,0,1,39.33,21.72Z" fill="#fff"/><circle cx="31.83" cy="31.22" r="1" fill="#fff"/><circle cx="34.83" cy="28.22" r="1" fill="#fff"/></svg>