<svg xmlns="http://www.w3.org/2000/svg" viewBox="0 0 64 60"><path d="M33.18,58.33l26-18.85a2,2,0,0,0,.73-2.24L49.94,6.73A2,2,0,0,0,48,5.35H16a2,2,0,0,0-1.9,1.38L4.14,37.24a2,2,0,0,0,.73,2.24l26,18.85A2,2,0,0,0,33.18,58.33Z" fill="#8c7300" fill-rule="evenodd"/><polygon points="28.52 22.15 29.94 23.56 32.23 21.27 34.52 23.56 35.94 22.15 32.23 18.44 28.52 22.15" fill="#fff"/><polygon points="28.52 27.15 29.94 28.56 32.23 26.27 34.52 28.56 35.94 27.15 32.23 23.44 28.52 27.15" fill="#fff"/><polygon points="40.73 34.27 43.02 36.56 44.44 35.15 40.73 31.44 37.02 35.15 38.44 36.56 40.73 34.27" fill="#fff"/><polygon points="37.02 40.15 38.44 41.56 40.73 39.27 43.02 41.56 44.44 40.15 40.73 36.44 37.02 40.15" fill="#fff"/><polygon points="20.02 35.15 21.44 36.56 23.73 34.27 26.02 36.56 27.44 35.15 23.73 31.44 20.02 35.15" fill="#fff"/><polygon points="20.02 40.15 21.44 41.56 23.73 39.27 26.02 41.56 27.44 40.15 23.73 36.44 20.02 40.15" fill="#fff"/></svg>