<svg xmlns="http://www.w3.org/2000/svg" viewBox="0 0 64 60"><path d="M33.18,58.33l26-18.85a2,2,0,0,0,.73-2.24L49.94,6.73A2,2,0,0,0,48,5.35H16a2,2,0,0,0-1.9,1.38L4.14,37.24a2,2,0,0,0,.73,2.24l26,18.85A2,2,0,0,0,33.18,58.33Z" fill="#8c7300" fill-rule="evenodd"/><path d="M21.53,39.57v-22h-2v22a2,2,0,0,0,2,2h22v-2Z" fill="#fff"/><rect x="31.95" y="21.02" width="2" height="16.1" transform="translate(-8.7 43.07) rotate(-60)" fill="#fff"/><circle cx="27.03" cy="32.07" r="1.5" fill="#fff"/><circle cx="41.03" cy="27.07" r="1.5" fill="#fff"/><path d="M35.88,25.31a1.5,1.5,0,1,0-2.09-.39A1.5,1.5,0,0,0,35.88,25.31Z" fill="#fff"/></svg>