<svg xmlns="http://www.w3.org/2000/svg" viewBox="0 0 64 60"><path d="M33.18,58.33l26-18.85a2,2,0,0,0,.73-2.24L49.94,6.73A2,2,0,0,0,48,5.35H16a2,2,0,0,0-1.9,1.38L4.14,37.24a2,2,0,0,0,.73,2.24l26,18.85A2,2,0,0,0,33.18,58.33Z" fill="#8c7300" fill-rule="evenodd"/><path d="M37.48,26.07H33.2V24.64h4.28V21.79H34.63a1.43,1.43,0,0,1-1.43-1.43V17.5a1.43,1.43,0,0,1,1.43-1.43h4.28V17.5H34.63v2.86h2.85a1.43,1.43,0,0,1,1.43,1.43v2.85A1.43,1.43,0,0,1,37.48,26.07Z" fill="#fff"/><path d="M30.38,16.07H27.52a1.43,1.43,0,0,0-1.43,1.43v8.57h1.43V22.5h2.86v3.57h1.43V17.5A1.43,1.43,0,0,0,30.38,16.07Zm-2.86,5V17.5h2.86v3.57Z" fill="#fff"/><path d="M39.39,38.22a2.54,2.54,0,0,0-.83.15l-3.82-3.81a2.65,2.65,0,0,0,.15-.84,2.5,2.5,0,0,0-5,0,2.33,2.33,0,0,0,.19.92l-3.74,3.74,0,0a2.54,2.54,0,0,0-1-.2,2.5,2.5,0,1,0,2.5,2.5,2.45,2.45,0,0,0-.2-1l.06.06,3.75-3.75a2.43,2.43,0,0,0,.89.17,2.5,2.5,0,0,0,1-.2l3.72,3.72a2.46,2.46,0,0,0-.21,1,2.5,2.5,0,1,0,2.5-2.5Z" fill="#fff"/></svg>