<svg xmlns="http://www.w3.org/2000/svg" viewBox="0 0 64 60"><path d="M33.18,58.33l26-18.85a2,2,0,0,0,.73-2.24L49.94,6.73A2,2,0,0,0,48,5.35H16a2,2,0,0,0-1.9,1.38L4.14,37.24a2,2,0,0,0,.73,2.24l26,18.85A2,2,0,0,0,33.18,58.33Z" fill="#8c7300" fill-rule="evenodd"/><path d="M43.21,26.29H40.35a1.43,1.43,0,0,1-1.43-1.43V17.72a1.43,1.43,0,0,1,1.43-1.43h2.86a1.43,1.43,0,0,1,1.43,1.43v7.14A1.43,1.43,0,0,1,43.21,26.29Zm-2.86-8.57h0v7.14h2.86V17.72Z" fill="#fff"/><path d="M33.21,26.29H28.92V24.86h4.29V22H28.92V16.29h5.72v1.43H30.35v2.86h2.86A1.43,1.43,0,0,1,34.64,22v2.85A1.43,1.43,0,0,1,33.21,26.29Z" fill="#fff"/><path d="M26.24,26.29H22a1.43,1.43,0,0,1-1.43-1.43V17.72A1.43,1.43,0,0,1,22,16.29h4.28v1.43H22v7.14h4.28Z" fill="#fff"/><rect x="36.07" y="24.86" width="1.43" height="1.43" fill="#fff"/><path d="M40.39,37.44a2.54,2.54,0,0,0-.83.15l-3.82-3.82a2.54,2.54,0,0,0,.15-.83,2.5,2.5,0,1,0-4.82.92L27.34,37.6l0,0a2.45,2.45,0,0,0-1-.2,2.5,2.5,0,1,0,2.5,2.5,2.45,2.45,0,0,0-.2-1l.06.06,3.75-3.75a2.43,2.43,0,0,0,.89.17,2.54,2.54,0,0,0,1-.2L38.09,39a2.64,2.64,0,0,0-.2,1,2.5,2.5,0,1,0,2.5-2.5Z" fill="#fff"/></svg>