<svg xmlns="http://www.w3.org/2000/svg" viewBox="0 0 64 60"><path d="M33.18,58.33l26-18.85a2,2,0,0,0,.73-2.24L49.94,6.73A2,2,0,0,0,48,5.35H16a2,2,0,0,0-1.9,1.38L4.14,37.24a2,2,0,0,0,.73,2.24l26,18.85A2,2,0,0,0,33.18,58.33Z" fill="#8c7300" fill-rule="evenodd"/><polygon points="36.89 23.77 44.18 31.06 45.59 29.65 36.89 20.94 28.18 29.65 29.59 31.06 36.89 23.77" fill="#fff"/><polygon points="28.18 35.65 29.59 37.06 35.89 30.77 35.89 44.35 37.89 44.35 37.89 30.77 44.18 37.06 45.59 35.65 36.89 26.94 28.18 35.65" fill="#fff"/><path d="M27.46,24.29H24V23.15h3.42V20.86H25.18A1.14,1.14,0,0,1,24,19.72V17.43a1.14,1.14,0,0,1,1.14-1.14h3.43v1.14H25.18v2.29h2.28a1.14,1.14,0,0,1,1.15,1.14v2.29A1.14,1.14,0,0,1,27.46,24.29Z" fill="#fff"/><path d="M21.78,16.29H19.49a1.14,1.14,0,0,0-1.14,1.14v6.86h1.14V21.43h2.29v2.86h1.14V17.43A1.14,1.14,0,0,0,21.78,16.29Zm-2.29,4V17.43h2.29v2.86Z" fill="#fff"/></svg>