<svg xmlns="http://www.w3.org/2000/svg" viewBox="0 0 64 60"><path d="M33.18,58.33l26-18.85a2,2,0,0,0,.73-2.24L49.94,6.73A2,2,0,0,0,48,5.35H16a2,2,0,0,0-1.9,1.38L4.14,37.24a2,2,0,0,0,.73,2.24l26,18.85A2,2,0,0,0,33.18,58.33Z" fill="#8c7300" fill-rule="evenodd"/><path d="M35.57,16v4h-7V16h-2v4a2,2,0,0,0,2,2h7a2,2,0,0,0,2-2V16Z" fill="#fff"/><path d="M35.57,38h-7a2,2,0,0,0-2,2v4h2V40h7v4h2V40A2,2,0,0,0,35.57,38Z" fill="#fff"/><path d="M36.57,24.5h-9a1,1,0,0,0-1,1v9a1,1,0,0,0,1,1h9a1,1,0,0,0,1-1v-9A1,1,0,0,0,36.57,24.5ZM31.23,33,28.4,30.53,29.73,29l1.42,1.26,4.1-4.1,1.42,1.41Z" fill="#fff"/></svg>