<svg xmlns="http://www.w3.org/2000/svg" viewBox="0 0 64 60"><path d="M33.18,58.33l26-18.85a2,2,0,0,0,.73-2.24L49.94,6.73A2,2,0,0,0,48,5.35H16a2,2,0,0,0-1.9,1.38L4.14,37.24a2,2,0,0,0,.73,2.24l26,18.85A2,2,0,0,0,33.18,58.33Z" fill="#8c7300" fill-rule="evenodd"/><path d="M37.07,21a8.94,8.94,0,0,0-5,1.52,9,9,0,1,0,0,15,9,9,0,1,0,5-16.48Zm-5,13.89a7,7,0,0,1,0-9.78,7,7,0,0,1,0,9.78ZM20.07,30a7,7,0,0,1,10.41-6.11,9,9,0,0,0,0,12.22A7,7,0,0,1,20.07,30Zm17,7a7,7,0,0,1-3.41-.89,9,9,0,0,0,0-12.22A7,7,0,1,1,37.07,37Z" fill="#fff"/></svg>