<svg xmlns="http://www.w3.org/2000/svg" viewBox="0 0 64 60"><path d="M33.18,58.33l26-18.85a2,2,0,0,0,.73-2.24L49.94,6.73A2,2,0,0,0,48,5.35H16a2,2,0,0,0-1.9,1.38L4.14,37.24a2,2,0,0,0,.73,2.24l26,18.85A2,2,0,0,0,33.18,58.33Z" fill="#8c7300" fill-rule="evenodd"/><path d="M38.53,38.22a2.6,2.6,0,0,0-.84.15l-3.81-3.81a2.65,2.65,0,0,0,.15-.84,2.5,2.5,0,1,0-4.82.92l-3.74,3.74,0,0a2.45,2.45,0,0,0-1-.2,2.5,2.5,0,1,0,2.5,2.5,2.45,2.45,0,0,0-.2-1l.06.06,3.74-3.75a2.48,2.48,0,0,0,1.88,0l3.72,3.72a2.45,2.45,0,0,0-.2,1,2.5,2.5,0,1,0,2.5-2.5Z" fill="#fff"/><path d="M41.64,20.36V17.5a1.43,1.43,0,0,0-1.43-1.43H35.92v10h1.43V21.79h1.06l1.67,4.28h1.53l-1.67-4.28h.27A1.43,1.43,0,0,0,41.64,20.36Zm-4.29,0V17.5h2.86v2.86Z" fill="#fff"/><path d="M23.07,17.5h4.28V16.07H23.07a1.43,1.43,0,0,0-1.43,1.43v7.14a1.43,1.43,0,0,0,1.43,1.43h4.28V24.64H23.07Z" fill="#fff"/><polygon points="31.64 17.5 30.21 17.5 30.21 20.36 27.35 20.36 27.35 21.79 30.21 21.79 30.21 24.64 31.64 24.64 31.64 21.79 34.49 21.79 34.49 20.36 31.64 20.36 31.64 17.5" fill="#fff"/></svg>