<svg xmlns="http://www.w3.org/2000/svg" viewBox="0 0 64 60"><path d="M33.18,58.33l26-18.85a2,2,0,0,0,.73-2.24L49.94,6.73A2,2,0,0,0,48,5.35H16a2,2,0,0,0-1.9,1.38L4.14,37.24a2,2,0,0,0,.73,2.24l26,18.85A2,2,0,0,0,33.18,58.33Z" fill="#8c7300" fill-rule="evenodd"/><path d="M22.57,40.32a.15.15,0,0,1-.15-.15V18.32h-2V40.17a2.15,2.15,0,0,0,2.15,2.15H44.42v-2Z" fill="#fff"/><rect x="26.42" y="27.32" width="4" height="11" fill="#fff"/><polygon points="33.92 32.32 33.92 38.32 41.92 38.32 41.92 32.32 39.92 32.32 39.92 36.32 35.92 36.32 35.92 32.32 33.92 32.32" fill="#fff"/><path d="M28.92,24.82A4,4,0,0,0,31.37,24l3.7,3a2.91,2.91,0,0,0-.15.89,3,3,0,1,0,1.35-2.5L32.6,22.39a3.77,3.77,0,0,0,.18-.57h2.33a3,3,0,1,0,0-2H32.78a4,4,0,1,0-3.86,5Zm0-6a2,2,0,1,1-2,2A2,2,0,0,1,28.92,18.82Z" fill="#fff"/></svg>