<svg xmlns="http://www.w3.org/2000/svg" viewBox="0 0 64 60"><path d="M33.18,58.33l26-18.85a2,2,0,0,0,.73-2.24L49.94,6.73A2,2,0,0,0,48,5.35H16a2,2,0,0,0-1.9,1.38L4.14,37.24a2,2,0,0,0,.73,2.24l26,18.85A2,2,0,0,0,33.18,58.33Z" fill="#8c7300" fill-rule="evenodd"/><path d="M37.24,28a8,8,0,1,0,8,8A8,8,0,0,0,37.24,28Zm0,14a6,6,0,1,1,6-6A6,6,0,0,1,37.24,42Z" fill="#fff"/><polygon points="38.24 31.58 36.24 31.58 36.24 36.41 39.54 39.71 40.95 38.29 38.24 35.59 38.24 31.58" fill="#fff"/><path d="M32.32,21.38a.76.76,0,0,0,.09.18,1.58,1.58,0,0,0,.12.15,1,1,0,0,0,1.42,0,1,1,0,0,0,.29-.71,1,1,0,0,0-.08-.38,1,1,0,0,0-.21-.33,1,1,0,0,0-1.42,0,1.15,1.15,0,0,0-.21.33,1,1,0,0,0-.08.38,1.5,1.5,0,0,0,0,.2A.64.64,0,0,0,32.32,21.38Z" fill="#fff"/><path d="M36.53,21.71l.15.12a.76.76,0,0,0,.18.09L37,22l.2,0a1.05,1.05,0,0,0,.71-.29,1,1,0,0,0,.21-.33,1,1,0,0,0,.08-.38,1,1,0,0,0-.29-.71A1,1,0,0,0,37,20l-.18.06a.76.76,0,0,0-.18.09l-.15.12a1.05,1.05,0,0,0-.29.71,1,1,0,0,0,.08.38A1,1,0,0,0,36.53,21.71Z" fill="#fff"/><path d="M37.24,26a1,1,0,0,0,.38-.08.9.9,0,0,0,.54-.54.94.94,0,0,0,0-.76,1.15,1.15,0,0,0-.21-.33A1,1,0,0,0,37,24l-.18.06a.76.76,0,0,0-.18.09l-.15.12a1.15,1.15,0,0,0-.21.33,1,1,0,0,0-.08.38,1.05,1.05,0,0,0,.29.71A1,1,0,0,0,37.24,26Z" fill="#fff"/><path d="M24.24,16a6,6,0,1,0,6,6A6,6,0,0,0,24.24,16Zm0,10a4,4,0,1,1,4-4A4,4,0,0,1,24.24,26Z" fill="#fff"/><polygon points="25.25 19.5 23.25 19.5 23.25 22.41 25.04 24.21 26.45 22.79 25.25 21.59 25.25 19.5" fill="#fff"/></svg>