<svg xmlns="http://www.w3.org/2000/svg" viewBox="0 0 64 60"><path d="M33.18,58.33l26-18.85a2,2,0,0,0,.73-2.24L49.94,6.73A2,2,0,0,0,48,5.35H16a2,2,0,0,0-1.9,1.38L4.14,37.24a2,2,0,0,0,.73,2.24l26,18.85A2,2,0,0,0,33.18,58.33Z" fill="#8c7300" fill-rule="evenodd"/><path d="M31.77,27.65v-2a4,4,0,0,1,0-8,2,2,0,1,1,0,4v2a4,4,0,1,0,0-8,6,6,0,0,0,0,12Z" fill="#fff"/><path d="M31.77,31.65v2a4,4,0,1,1,0,8,2,2,0,0,1,0-4v-2a4,4,0,0,0,0,8,6,6,0,1,0,0-12Z" fill="#fff"/><path d="M39.77,23.65a6,6,0,0,0-6,6h2a4,4,0,0,1,8,0,2,2,0,0,1-4,0h-2a4,4,0,0,0,8,0A6,6,0,0,0,39.77,23.65Z" fill="#fff"/><path d="M29.77,29.65h-2a4,4,0,0,1-8,0,2,2,0,0,1,4,0h2a4,4,0,0,0-8,0,6,6,0,0,0,12,0Z" fill="#fff"/></svg>