<svg xmlns="http://www.w3.org/2000/svg" viewBox="0 0 64 60"><path d="M33.18,58.33l26-18.85a2,2,0,0,0,.73-2.24L49.94,6.73A2,2,0,0,0,48,5.35H16a2,2,0,0,0-1.9,1.38L4.14,37.24a2,2,0,0,0,.73,2.24l26,18.85A2,2,0,0,0,33.18,58.33Z" fill="#8c7300" fill-rule="evenodd"/><path d="M29.9,41.07v-16h-2v16a2,2,0,0,0,2,2h16v-2Z" fill="#fff"/><circle cx="43.9" cy="34.07" r="1" fill="#fff"/><circle cx="39.9" cy="26.07" r="1" fill="#fff"/><circle cx="35.9" cy="31.07" r="1" fill="#fff"/><polygon points="35.98 36.07 40.9 36.07 40.9 31.07 44.9 31.07 44.9 29.07 38.9 29.07 38.9 34.07 34.83 34.07 32.44 38.14 34.17 39.15 35.98 36.07" fill="#fff"/><path d="M30.25,22.07H26.82V20.93h3.43V18.64H28a1.14,1.14,0,0,1-1.14-1.14V15.22A1.15,1.15,0,0,1,28,14.07h3.43v1.15H28V17.5h2.29a1.14,1.14,0,0,1,1.14,1.14v2.29A1.14,1.14,0,0,1,30.25,22.07Z" fill="#fff"/><path d="M24.56,14.07H22.28a1.16,1.16,0,0,0-1.15,1.15v6.85h1.15V19.22h2.28v2.85H25.7V15.22A1.15,1.15,0,0,0,24.56,14.07Zm-2.28,4V15.22h2.28v2.85Z" fill="#fff"/></svg>