<svg xmlns="http://www.w3.org/2000/svg" viewBox="0 0 64 60"><path d="M33.18,58.33l26-18.85a2,2,0,0,0,.73-2.24L49.94,6.73A2,2,0,0,0,48,5.35H16a2,2,0,0,0-1.9,1.38L4.14,37.24a2,2,0,0,0,.73,2.24l26,18.85A2,2,0,0,0,33.18,58.33Z" fill="#8c7300" fill-rule="evenodd"/><path d="M31.46,25.11l-2.24.73a5.91,5.91,0,0,0-1.75-1L27,22.52H24l-.47,2.33a5.88,5.88,0,0,0-1.75,1l-2.23-.75L18,27.71l1.77,1.6a6.29,6.29,0,0,0,0,2L18,32.89l1.53,2.59,2.24-.72a6.22,6.22,0,0,0,1.74,1l.47,2.3H27l.46-2.34a5.61,5.61,0,0,0,1.76-1l2.23.75L33,32.89l-1.76-1.6a6.29,6.29,0,0,0,0-2L33,27.71Zm-3.41,7.75a3.5,3.5,0,0,1-2.48,1H25.4a3.5,3.5,0,0,1-2.48-1,3.72,3.72,0,0,1,0-5.12,3.5,3.5,0,0,1,2.48-1h.17a3.5,3.5,0,0,1,2.48,1,3.72,3.72,0,0,1,0,5.12Z" fill="#fff"/><path d="M34.74,25.85l3.39-2A4,4,0,1,0,36.91,21a4.08,4.08,0,0,0,.19,1.16l-3.36,1.94ZM40.91,19a2,2,0,1,1-2,2A2,2,0,0,1,40.91,19Z" fill="#fff"/><path d="M40.91,35.56a4,4,0,0,0-2.78,1.13l-3.39-2-1,1.73L37.1,38.4a4.08,4.08,0,0,0-.19,1.16,4,4,0,1,0,4-4Zm0,6a2,2,0,1,1,2-2A2,2,0,0,1,40.91,41.56Z" fill="#fff"/></svg>