<svg xmlns="http://www.w3.org/2000/svg" viewBox="0 0 64 60"><path d="M33.18,58.33l26-18.85a2,2,0,0,0,.73-2.24L49.94,6.73A2,2,0,0,0,48,5.35H16a2,2,0,0,0-1.9,1.38L4.14,37.24a2,2,0,0,0,.73,2.24l26,18.85A2,2,0,0,0,33.18,58.33Z" fill="#8c7300" fill-rule="evenodd"/><path d="M33.12,17.72h11v-2h-11a3,3,0,0,0-3,3v1h-8a3,3,0,0,0-3,3v14a3,3,0,0,0,3,3h8v1a3,3,0,0,0,3,3h11v-2h-11a1,1,0,0,1-1-1v-4a1,1,0,0,1,1-1h11v-2h-11a3,3,0,0,0-3,3v1h-8a1,1,0,0,1-1-1v-14a1,1,0,0,1,1-1h8v1a3,3,0,0,0,3,3h5v1a3,3,0,0,0,3,3h3v-2h-3a1,1,0,0,1-1-1v-4a1,1,0,0,1,1-1h3v-2h-3a3,3,0,0,0-3,3v1h-5a1,1,0,0,1-1-1v-4A1,1,0,0,1,33.12,17.72Z" fill="#fff"/></svg>