<svg xmlns="http://www.w3.org/2000/svg" viewBox="0 0 64 60"><path d="M33.18,58.33l26-18.85a2,2,0,0,0,.73-2.24L49.94,6.73A2,2,0,0,0,48,5.35H16a2,2,0,0,0-1.9,1.38L4.14,37.24a2,2,0,0,0,.73,2.24l26,18.85A2,2,0,0,0,33.18,58.33Z" fill="#8c7300" fill-rule="evenodd"/><rect x="31.23" y="12.6" width="2" height="33.94" transform="translate(-11.47 31.45) rotate(-45)" fill="#fff"/><path d="M37.73,29.57a4,4,0,1,0,4-4,4,4,0,0,0-2,.57l-8.28-8.27L30,19.28l8.27,8.27A4,4,0,0,0,37.73,29.57Zm6,0a2,2,0,1,1-2-2A2,2,0,0,1,43.73,29.57Z" fill="#fff"/><path d="M27.23,29.57a4,4,0,1,0-4,4,3.88,3.88,0,0,0,1.69-.39l8.1,8.1,1.41-1.41-8-8A4,4,0,0,0,27.23,29.57Zm-6,0a2,2,0,1,1,2,2A2,2,0,0,1,21.23,29.57Z" fill="#fff"/></svg>