<svg xmlns="http://www.w3.org/2000/svg" viewBox="0 0 64 60"><path d="M33.18,58.33l26-18.85a2,2,0,0,0,.73-2.24L49.94,6.73A2,2,0,0,0,48,5.35H16a2,2,0,0,0-1.9,1.38L4.14,37.24a2,2,0,0,0,.73,2.24l26,18.85A2,2,0,0,0,33.18,58.33Z" fill="#8c7300" fill-rule="evenodd"/><polygon points="33.85 29.57 39.15 24.28 37.73 22.87 32.44 28.16 27.15 22.87 25.73 24.28 31.02 29.57 25.73 34.87 27.15 36.28 32.44 30.99 37.73 36.28 39.15 34.87 33.85 29.57" fill="#fff"/><rect x="28.44" y="38.57" width="8" height="2" fill="#fff"/><rect x="41.44" y="25.57" width="2" height="8" fill="#fff"/><circle cx="42.44" cy="39.57" r="4" fill="#fff"/><path d="M22.44,35.57a4,4,0,1,0,4,4A4,4,0,0,0,22.44,35.57Zm0,6a2,2,0,1,1,2-2A2,2,0,0,1,22.44,41.57Z" fill="#fff"/><path d="M42.44,23.57a4,4,0,1,0-4-4A4,4,0,0,0,42.44,23.57Zm0-6a2,2,0,1,1-2,2A2,2,0,0,1,42.44,17.57Z" fill="#fff"/><path d="M22.44,23.57a4,4,0,1,0-4-4A4,4,0,0,0,22.44,23.57Zm0-6a2,2,0,1,1-2,2A2,2,0,0,1,22.44,17.57Z" fill="#fff"/></svg>