<svg xmlns="http://www.w3.org/2000/svg" viewBox="0 0 64 60"><path d="M33.18,58.33l26-18.85a2,2,0,0,0,.73-2.24L49.94,6.73A2,2,0,0,0,48,5.35H16a2,2,0,0,0-1.9,1.38L4.14,37.24a2,2,0,0,0,.73,2.24l26,18.85A2,2,0,0,0,33.18,58.33Z" fill="#8c7300" fill-rule="evenodd"/><rect x="39.52" y="18.67" width="2" height="4.24" transform="translate(-2.83 34.74) rotate(-45)" fill="#fff"/><rect x="21.52" y="37.67" width="2" height="4.24" transform="translate(-21.54 27.58) rotate(-45)" fill="#fff"/><rect x="30.52" y="11.91" width="2" height="36.77" transform="translate(-12.19 31.16) rotate(-45)" fill="#fff"/><path d="M26.23,31a1,1,0,0,0,0-1.41l-3.5-3.5a1,1,0,0,0-1.42,0l-3.5,3.5a1,1,0,0,0,0,1.41l3.5,3.5a1,1,0,0,0,.71.29,1,1,0,0,0,.71-.29l1-1L32.31,42l1.42-1.41L25.18,32Z" fill="#fff"/><path d="M37,30.29a4,4,0,1,0,4-4,4,4,0,0,0-2,.57l-8.27-8.27L29.31,20l8.28,8.27A3.89,3.89,0,0,0,37,30.29Z" fill="#fff"/></svg>