<svg xmlns="http://www.w3.org/2000/svg" viewBox="0 0 64 60"><path d="M33.18,58.33l26-18.85a2,2,0,0,0,.73-2.24L49.94,6.73A2,2,0,0,0,48,5.35H16a2,2,0,0,0-1.9,1.38L4.14,37.24a2,2,0,0,0,.73,2.24l26,18.85A2,2,0,0,0,33.18,58.33Z" fill="#8c7300" fill-rule="evenodd"/><path d="M42.91,20.71h0l0,0a3,3,0,0,0-1.36-1.36l0,0h0a3,3,0,0,0-1.29-.3h-16a2.9,2.9,0,0,0-1.28.3h0l0,0a3,3,0,0,0-1.36,1.36l0,0h0a3.13,3.13,0,0,0-.3,1.29V38a3,3,0,0,0,3,3h16a3,3,0,0,0,3-3V22A3,3,0,0,0,42.91,20.71ZM39.8,21l-7.59,7.59L24.63,21ZM23.21,38V22.41l8,8V39h-7A1,1,0,0,1,23.21,38Zm17,1h-7V30.41l8-8V38A1,1,0,0,1,40.21,39Z" fill="#fff"/></svg>