<svg xmlns="http://www.w3.org/2000/svg" viewBox="0 0 64 60"><path d="M33.18.73l26,18.86a2,2,0,0,1,.73,2.23L49.94,52.33A2,2,0,0,1,48,53.71H16a2,2,0,0,1-1.9-1.38L4.14,21.82a2,2,0,0,1,.73-2.23L30.82.73A2,2,0,0,1,33.18.73Z" fill="#008985" fill-rule="evenodd"/><path d="M28,24.22l8-2.15A2,2,0,0,0,38,24h4a2,2,0,0,0,2-2V18a2,2,0,0,0-2-2H38a2,2,0,0,0-2,2v2L27.83,22.2A2,2,0,0,0,26,21H22a2,2,0,0,0-2,2v4a2,2,0,0,0,2,2h4a2,2,0,0,0,1.76-1.08L35.52,30l-7.76,2.08A2,2,0,0,0,26,31H22a2,2,0,0,0-2,2v4a2,2,0,0,0,2,2h4a2,2,0,0,0,1.76-1.08L36,40.13V42a2,2,0,0,0,2,2h4a2,2,0,0,0,2-2V38a2,2,0,0,0-2-2H38a2,2,0,0,0-2,2v.06l-8-2.15V34.09l8-2.15V32a2,2,0,0,0,2,2h4a2,2,0,0,0,2-2V28a2,2,0,0,0-2-2H38a2,2,0,0,0-2,2v.06l-8-2.15ZM38,18h4v4H38Zm0,20h4v4H38Zm0-10h4v4H38ZM22,27V23h4v4Zm0,10V33h4v4Z" fill="#fff"/></svg>