<svg xmlns="http://www.w3.org/2000/svg" viewBox="0 0 64 60"><path d="M33.18.73l26,18.86a2,2,0,0,1,.73,2.23L49.94,52.33A2,2,0,0,1,48,53.71H16a2,2,0,0,1-1.9-1.38L4.14,21.82a2,2,0,0,1,.73-2.23L30.82.73A2,2,0,0,1,33.18.73Z" fill="#008985" fill-rule="evenodd"/><rect x="24" y="18" width="16" height="2" fill="#fff"/><polygon points="31 32.09 28.21 29.29 26.79 30.71 32 35.91 37.21 30.71 35.79 29.29 33 32.09 33 24 40 24 40 22 24 22 24 24 31 24 31 32.09" fill="#fff"/><path d="M40,35H37v2h2v3H25V37h2V35H24a1,1,0,0,0-1,1v5a1,1,0,0,0,1,1H40a1,1,0,0,0,1-1V36A1,1,0,0,0,40,35Z" fill="#fff"/></svg>