<svg xmlns="http://www.w3.org/2000/svg" viewBox="0 0 64 60"><path d="M33.07.29,57.2,14.21a2.17,2.17,0,0,1,1.07,1.86V43.93a2.17,2.17,0,0,1-1.07,1.86L33.07,59.71a2.1,2.1,0,0,1-2.14,0L6.8,45.79a2.17,2.17,0,0,1-1.07-1.86V16.07A2.17,2.17,0,0,1,6.8,14.21L30.93.29A2.1,2.1,0,0,1,33.07.29Z" fill="#0072c3" fill-rule="evenodd"/><polygon points="23.03 25.5 23.03 22.5 26.03 22.5 26.03 20.5 23.03 20.5 23.03 17.5 21.03 17.5 21.03 20.5 18.03 20.5 18.03 22.5 21.03 22.5 21.03 25.5 23.03 25.5" fill="#fff"/><polygon points="42.05 17.59 40.64 19 42.14 20.5 34.03 20.5 34.03 22.5 42.14 22.5 40.64 24 42.05 25.41 45.97 21.5 42.05 17.59" fill="#fff"/><path d="M32,26.5a8,8,0,1,0,8,8A8,8,0,0,0,32,26.5Zm0,14a6,6,0,1,1,6-6A6,6,0,0,1,32,40.5Z" fill="#fff"/><polygon points="33.03 30.08 31.03 30.08 31.03 34.91 34.33 38.21 35.74 36.79 33.03 34.09 33.03 30.08" fill="#fff"/></svg>