<svg xmlns="http://www.w3.org/2000/svg" viewBox="0 0 64 60"><path d="M33.18.73l26,18.86a2,2,0,0,1,.73,2.23L49.94,52.33A2,2,0,0,1,48,53.71H16a2,2,0,0,1-1.9-1.38L4.14,21.82a2,2,0,0,1,.73-2.23L30.82.73A2,2,0,0,1,33.18.73Z" fill="#008985" fill-rule="evenodd"/><path d="M37,21a8.94,8.94,0,0,0-5,1.52,9,9,0,1,0,0,15A9,9,0,1,0,37,21ZM32,34.89a7,7,0,0,1,0-9.78,7,7,0,0,1,0,9.78ZM20,30a7,7,0,0,1,10.41-6.11,9,9,0,0,0,0,12.22A7,7,0,0,1,20,30Zm17,7a7,7,0,0,1-3.41-.89,9,9,0,0,0,0-12.22A7,7,0,1,1,37,37Z" fill="#fff"/></svg>