<svg xmlns="http://www.w3.org/2000/svg" viewBox="0 0 64 60"><path d="M33.07.29,57.2,14.21a2.17,2.17,0,0,1,1.07,1.86V43.93a2.17,2.17,0,0,1-1.07,1.86L33.07,59.71a2.1,2.1,0,0,1-2.14,0L6.8,45.79a2.17,2.17,0,0,1-1.07-1.86V16.07A2.17,2.17,0,0,1,6.8,14.21L30.93.29A2.1,2.1,0,0,1,33.07.29Z" fill="#0072c3" fill-rule="evenodd"/><path d="M43.32,30.76V29.23l2-1.69A2,2,0,0,0,45.69,25l-2.43-4a2,2,0,0,0-1.78-1,2.11,2.11,0,0,0-.66.1l-2.5.82A11.07,11.07,0,0,0,37,20.14l-.53-2.53A2,2,0,0,0,34.38,16H29.56a2.06,2.06,0,0,0-2.06,1.61L27,20.14a11.2,11.2,0,0,0-1.36.75L23.17,20a2.46,2.46,0,0,0-.66-.06,2,2,0,0,0-1.78,1L18.3,25a2,2,0,0,0,.42,2.51l1.94,1.74v1.53l-1.94,1.69A2,2,0,0,0,18.3,35l2.43,4a2,2,0,0,0,1.78,1,2.11,2.11,0,0,0,.66-.1l2.5-.82a11.07,11.07,0,0,0,1.35.75l.53,2.53A2,2,0,0,0,29.61,44h4.86a2.06,2.06,0,0,0,2.06-1.61l.52-2.53a11.2,11.2,0,0,0,1.36-.75l2.49.82a2.16,2.16,0,0,0,.66.1,2.08,2.08,0,0,0,1.79-1l2.34-4a2,2,0,0,0-.42-2.51ZM41.48,38,38,36.86a9.25,9.25,0,0,1-2.79,1.57L34.43,42H29.56l-.73-3.56a9.78,9.78,0,0,1-2.78-1.57L22.51,38l-2.43-4,2.8-2.41a8.67,8.67,0,0,1,0-3.13L20.08,26l2.43-4L26,23.14a9.25,9.25,0,0,1,2.79-1.57l.73-3.6h4.87l.73,3.56a9.78,9.78,0,0,1,2.78,1.57L41.48,22l2.43,4-2.8,2.41a8.67,8.67,0,0,1,0,3.13L43.91,34ZM32,36a6,6,0,1,1,6.18-6,5.83,5.83,0,0,1-1.79,4.27A6.23,6.23,0,0,1,32,36Zm0-10a4.06,4.06,0,0,0-2.94,1.15,4.06,4.06,0,0,0,0,5.72,4.35,4.35,0,0,0,5.89,0,4.08,4.08,0,0,0,0-5.72A4.08,4.08,0,0,0,32,26Z" fill="#fff" fill-rule="evenodd"/></svg>