<svg xmlns="http://www.w3.org/2000/svg" viewBox="0 0 64 60"><path d="M33.18.73l26,18.86a2,2,0,0,1,.73,2.23L49.94,52.33A2,2,0,0,1,48,53.71H16a2,2,0,0,1-1.9-1.38L4.14,21.82a2,2,0,0,1,.73-2.23L30.82.73A2,2,0,0,1,33.18.73Z" fill="#008985" fill-rule="evenodd"/><polygon points="44.06 25.07 44.06 18.15 41.3 18.15 39.3 20.79 40.45 21.69 42.16 19.46 42.26 19.46 42.26 25.07 40.01 25.07 40.01 26.52 45.84 26.52 45.84 25.07 44.06 25.07" fill="#fff"/><path d="M43.25,39.12c1.2-.95,2.23-1.83,2.23-3.27s-1-2.52-2.85-2.52a3,3,0,0,0-3.08,2.14l1.57.6a1.36,1.36,0,0,1,1.34-1.18,1,1,0,0,1,1.11,1V36c0,.71-.33,1.18-1.26,2l-2.58,2.21v1.64h5.92V40.34h-4Z" fill="#fff"/><path d="M32.53,25.33l-2.24.73a5.74,5.74,0,0,0-1.74-1l-.46-2.3H25l-.46,2.33a6.09,6.09,0,0,0-1.76,1l-2.22-.76-1.53,2.6,1.77,1.6a5.77,5.77,0,0,0,0,2l-1.77,1.55,1.53,2.6L22.83,35a6,6,0,0,0,1.74,1L25,38.3h3.06L28.55,36a6,6,0,0,0,1.76-1l2.22.76,1.53-2.6-1.77-1.6a5.77,5.77,0,0,0,0-2l1.77-1.55Zm-3.41,7.75a3.5,3.5,0,0,1-2.48,1h-.16a3.59,3.59,0,0,1,0-7.18h.16a3.62,3.62,0,0,1,2.48,6.15Z" fill="#fff"/><rect x="35.08" y="23.34" width="3.46" height="2" transform="translate(-7.24 21.66) rotate(-29.99)" fill="#fff"/><rect x="35.81" y="34.95" width="2" height="3.46" transform="translate(-13.36 50.22) rotate(-59.99)" fill="#fff"/></svg>