<svg xmlns="http://www.w3.org/2000/svg" viewBox="0 0 64 60"><path d="M33.18.73l26,18.86a2,2,0,0,1,.73,2.23L49.94,52.33A2,2,0,0,1,48,53.71H16a2,2,0,0,1-1.9-1.38L4.14,21.82a2,2,0,0,1,.73-2.23L30.82.73A2,2,0,0,1,33.18.73Z" fill="#008985" fill-rule="evenodd"/><path d="M32.89,24.82l-2.24.73a5.74,5.74,0,0,0-1.74-1l-.46-2.3H25.39l-.46,2.33a6.29,6.29,0,0,0-1.76,1L21,24.82l-1.53,2.6L21.19,29a5.77,5.77,0,0,0,0,2L19.42,32.6,21,35.19l2.24-.72a6,6,0,0,0,1.74,1l.46,2.3h3.06l.46-2.34a5.84,5.84,0,0,0,1.76-1l2.22.75,1.53-2.59L32.65,31a5.77,5.77,0,0,0,0-2l1.77-1.55Zm-3.41,7.75a3.5,3.5,0,0,1-2.48,1h-.16a3.59,3.59,0,0,1,0-7.18H27a3.62,3.62,0,0,1,2.48,6.15Z" fill="#fff"/><path d="M36.17,25.56l3.4-2a4,4,0,0,0,2.77,1.13,4,4,0,1,0-4-4,4.08,4.08,0,0,0,.19,1.16l-3.36,1.94Zm6.17-6.83a2,2,0,1,1-2,2A2,2,0,0,1,42.34,18.73Z" fill="#fff"/><path d="M42.34,35.27a4,4,0,0,0-2.77,1.13l-3.4-2-1,1.73,3.36,1.94a4.08,4.08,0,0,0-.19,1.16,4,4,0,1,0,4-4Zm0,6a2,2,0,1,1,2-2A2,2,0,0,1,42.34,41.27Z" fill="#fff"/></svg>