<svg xmlns="http://www.w3.org/2000/svg" viewBox="0 0 64 60"><path d="M33.07.29,57.2,14.21a2.17,2.17,0,0,1,1.07,1.86V43.93a2.17,2.17,0,0,1-1.07,1.86L33.07,59.71a2.1,2.1,0,0,1-2.14,0L6.8,45.79a2.17,2.17,0,0,1-1.07-1.86V16.07A2.17,2.17,0,0,1,6.8,14.21L30.93.29A2.1,2.1,0,0,1,33.07.29Z" fill="#0072c3" fill-rule="evenodd"/><polygon points="33 22.5 44 22.5 44 20.5 20 20.5 20 22.5 31 22.5 31 41.5 29.5 41.5 29.5 43.5 34.5 43.5 34.5 41.5 33 41.5 33 22.5" fill="#fff"/><path d="M37.81,30.52a.6.6,0,0,0-.19.06.76.76,0,0,0-.18.09l-.15.12a1.05,1.05,0,0,0-.29.71,1,1,0,1,0,2,0,1.05,1.05,0,0,0-.29-.71A1,1,0,0,0,37.81,30.52Z" fill="#fff"/><path d="M39.5,29.5A1,1,0,0,0,40,27.61a1,1,0,1,0-.9,1.78A.93.93,0,0,0,39.5,29.5Z" fill="#fff"/><path d="M41,26.5a1,1,0,0,0,.38-.08.9.9,0,0,0,.54-.54.94.94,0,0,0,0-.76.9.9,0,0,0-.54-.54,1,1,0,0,0-.76,0,.9.9,0,0,0-.54.54.94.94,0,0,0,0,.76.9.9,0,0,0,.54.54A1,1,0,0,0,41,26.5Z" fill="#fff"/><path d="M42.5,29.5a.93.93,0,0,0,.45-.11A1,1,0,1,0,41.61,29,1,1,0,0,0,42.5,29.5Z" fill="#fff"/><path d="M43.62,30.58a.76.76,0,0,0-.18.09l-.15.12a1.05,1.05,0,0,0-.29.71,1,1,0,0,0,1.38.92,1.15,1.15,0,0,0,.33-.21A1,1,0,0,0,45,31.5a1.05,1.05,0,0,0-.29-.71,1,1,0,0,0-.91-.27Z" fill="#fff"/><path d="M43.5,33.5a2.5,2.5,0,0,1-5,0h-2a4.5,4.5,0,0,0,9,0Z" fill="#fff"/><path d="M20,32.5a1,1,0,0,0,1-1,1,1,0,1,0-2,0,1,1,0,0,0,1,1Z" fill="#fff"/><path d="M20.61,28.05a1,1,0,0,0,.44,1.34.93.93,0,0,0,.45.11,1,1,0,0,0,.89-.55,1,1,0,0,0-1.78-.9Z" fill="#fff"/><path d="M23.38,24.58a1,1,0,0,0-1.09.21,1.05,1.05,0,0,0-.29.71,1,1,0,0,0,.08.38.9.9,0,0,0,.54.54,1,1,0,0,0,1.09-.21,1.15,1.15,0,0,0,.21-.33A.84.84,0,0,0,24,25.5a1.05,1.05,0,0,0-.29-.71A1,1,0,0,0,23.38,24.58Z" fill="#fff"/><path d="M24.05,27.61A1,1,0,0,0,23.61,29a1,1,0,0,0,.89.55.93.93,0,0,0,.45-.11,1,1,0,0,0-.9-1.78Z" fill="#fff"/><path d="M25.29,32.21a1.15,1.15,0,0,0,.33.21A1,1,0,0,0,27,31.5a1.05,1.05,0,0,0-.29-.71,1.58,1.58,0,0,0-.15-.12.76.76,0,0,0-.18-.09l-.18-.06a1,1,0,0,0-.91.27,1,1,0,0,0-.29.71A1,1,0,0,0,25.29,32.21Z" fill="#fff"/><path d="M23,36a2.5,2.5,0,0,1-2.5-2.5h-2a4.5,4.5,0,0,0,9,0h-2A2.5,2.5,0,0,1,23,36Z" fill="#fff"/><circle cx="32" cy="17.5" r="1" fill="#fff"/></svg>