<svg xmlns="http://www.w3.org/2000/svg" viewBox="0 0 64 60"><path d="M33.18.73l26,18.86a2,2,0,0,1,.73,2.23L49.94,52.33A2,2,0,0,1,48,53.71H16a2,2,0,0,1-1.9-1.38L4.14,21.82a2,2,0,0,1,.73-2.23L30.82.73A2,2,0,0,1,33.18.73Z" fill="#008985" fill-rule="evenodd"/><circle cx="32" cy="29.25" r="2" fill="#fff"/><circle cx="20" cy="32.25" r="2" fill="#fff"/><circle cx="44" cy="32.25" r="2" fill="#fff"/><path d="M34.83,27.3l2.73-4.09h0c.15,0,.29,0,.44,0a2.58,2.58,0,0,0,.29,0h0l3.85,6.54,1.72-1-3.69-6.27h0a3.46,3.46,0,0,0,1.33-2.72,3.5,3.5,0,1,0-5.79,2.63L33.17,26.2Zm3.17-9a1.5,1.5,0,1,1-1.5,1.5A1.5,1.5,0,0,1,38,18.25Z" fill="#fff"/><path d="M20.14,28.74l1.72,1,3.85-6.54h0a2.58,2.58,0,0,0,.29,0c.15,0,.29,0,.44,0h0l2.73,4.09,1.66-1.1-2.54-3.82a3.49,3.49,0,1,0-5.79-2.63,3.46,3.46,0,0,0,1.33,2.72h0ZM26,18.25a1.5,1.5,0,1,1-1.5,1.5A1.5,1.5,0,0,1,26,18.25Z" fill="#fff"/><path d="M41,33.9l-5.68,3.59A4,4,0,0,0,33,35.89V32.25H31v3.64a4,4,0,0,0-2.29,1.6L23,33.9,22,35.6,28,39.43c0,.11,0,.21,0,.32a4,4,0,0,0,8,0c0-.11,0-.21,0-.32L42,35.6ZM28.26,38.36s0,.11-.05.16S28.24,38.41,28.26,38.36Zm.35-.71a2.42,2.42,0,0,0-.21.39A2.42,2.42,0,0,1,28.61,37.65ZM32,41.75a2,2,0,1,1,2-2A2,2,0,0,1,32,41.75Zm3.74-3.39s0,.11,0,.16S35.76,38.41,35.74,38.36Zm-.35-.71a2.42,2.42,0,0,1,.21.39A2.42,2.42,0,0,0,35.39,37.65Z" fill="#fff"/></svg>