<svg xmlns="http://www.w3.org/2000/svg" viewBox="0 0 64 60"><path d="M33.07.29,57.2,14.21a2.17,2.17,0,0,1,1.07,1.86V43.93a2.17,2.17,0,0,1-1.07,1.86L33.07,59.71a2.1,2.1,0,0,1-2.14,0L6.8,45.79a2.17,2.17,0,0,1-1.07-1.86V16.07A2.17,2.17,0,0,1,6.8,14.21L30.93.29A2.1,2.1,0,0,1,33.07.29Z" fill="#0072c3" fill-rule="evenodd"/><path d="M46,26.5H42v-2H40v2H36v-4H34v4H30v-6H28v6H24v-2H22v2H18v2h1.58l.84,10.08a1,1,0,0,0,1,.92H42.58a1,1,0,0,0,1-.92l.84-10.08H46Zm-4.34,11H22.34l-.75-9H42.41Z" fill="#fff"/><rect x="24" y="31.5" width="16" height="2" fill="#fff"/></svg>