<svg xmlns="http://www.w3.org/2000/svg" viewBox="0 0 64 60"><path d="M33.18.73l26,18.86a2,2,0,0,1,.73,2.23L49.94,52.33A2,2,0,0,1,48,53.71H16a2,2,0,0,1-1.9-1.38L4.14,21.82a2,2,0,0,1,.73-2.23L30.82.73A2,2,0,0,1,33.18.73Z" fill="#008985" fill-rule="evenodd"/><path d="M41.71,29H38.85a1.43,1.43,0,0,1-1.43-1.43V20.43A1.43,1.43,0,0,1,38.85,19h2.86a1.43,1.43,0,0,1,1.43,1.43v7.14A1.43,1.43,0,0,1,41.71,29Zm-2.86-8.57h0v7.14h2.86V20.43Z" fill="#fff"/><path d="M31.71,29H27.42V27.57h4.29V24.71H27.42V19h5.72v1.43H28.85v2.86h2.86a1.43,1.43,0,0,1,1.43,1.42v2.86A1.43,1.43,0,0,1,31.71,29Z" fill="#fff"/><path d="M24.74,29H20.46A1.43,1.43,0,0,1,19,27.57V20.43A1.43,1.43,0,0,1,20.46,19h4.28v1.43H20.46v7.14h4.28Z" fill="#fff"/><rect x="34.57" y="27.57" width="1.43" height="1.43" fill="#fff"/><path d="M38.89,40.15a2.54,2.54,0,0,0-.83.15l-3.82-3.82a2.54,2.54,0,0,0,.15-.83,2.5,2.5,0,1,0-4.82.92l-3.74,3.74,0,0a2.45,2.45,0,0,0-1-.2,2.5,2.5,0,1,0,2.5,2.5,2.45,2.45,0,0,0-.2-1l.06,0L31,38a2.65,2.65,0,0,0,.89.17,2.45,2.45,0,0,0,1-.2l3.72,3.72a2.45,2.45,0,0,0-.2,1,2.5,2.5,0,1,0,2.5-2.5Z" fill="#fff"/></svg>