<svg xmlns="http://www.w3.org/2000/svg" viewBox="0 0 64 60"><path d="M33.18.73l26,18.86a2,2,0,0,1,.73,2.23L49.94,52.33A2,2,0,0,1,48,53.71H16a2,2,0,0,1-1.9-1.38L4.14,21.82a2,2,0,0,1,.73-2.23L30.82.73A2,2,0,0,1,33.18.73Z" fill="#008985" fill-rule="evenodd"/><rect x="30.47" y="23.67" width="14.33" height="2" fill="#fff"/><rect x="41.13" y="34.33" width="3.67" height="2" fill="#fff"/><rect x="37.13" y="18" width="2" height="3.67" fill="#fff"/><rect x="26.47" y="38.33" width="2" height="3.67" fill="#fff"/><rect x="20.8" y="23.67" width="3.67" height="2" fill="#fff"/><rect x="20.8" y="34.33" width="14.33" height="2" fill="#fff"/><rect x="37.13" y="27.67" width="2" height="14.33" fill="#fff"/><rect x="26.47" y="18" width="2" height="14.33" fill="#fff"/></svg>