<svg xmlns="http://www.w3.org/2000/svg" viewBox="0 0 64 60"><path d="M33.18.73l26,18.86a2,2,0,0,1,.73,2.23L49.94,52.33A2,2,0,0,1,48,53.71H16a2,2,0,0,1-1.9-1.38L4.14,21.82a2,2,0,0,1,.73-2.23L30.82.73A2,2,0,0,1,33.18.73Z" fill="#008985" fill-rule="evenodd"/><circle cx="21.14" cy="33.73" r="1.07" fill="none" stroke="#f1f1f2" stroke-width="2"/><circle cx="33.98" cy="33.73" r="1.07" fill="none" stroke="#f1f1f2" stroke-width="2"/><line x1="28.63" y1="33.73" x2="26.49" y2="33.73" fill="none" stroke="#f1f1f2" stroke-linecap="square" stroke-width="2"/><line x1="21.14" y1="41.22" x2="21.14" y2="39.08" fill="none" stroke="#fff" stroke-linecap="square" stroke-width="2"/><line x1="41.47" y1="33.73" x2="39.33" y2="33.73" fill="none" stroke="#f1f1f2" stroke-linecap="square" stroke-width="2"/><line x1="33.98" y1="41.22" x2="33.98" y2="39.08" fill="none" stroke="#f1f1f2" stroke-linecap="square" stroke-width="2"/><polygon points="38.26 19.97 40.27 19.97 40.27 27.31 41.61 27.31 41.61 19.97 43.61 19.97 43.61 18.75 38.26 18.75 38.26 19.97" fill="#fff" fill-rule="evenodd"/><path d="M24.35,27.31h-4A1.29,1.29,0,0,1,19,26.09V20a1.29,1.29,0,0,1,1.34-1.22h4V20h-4v6.12h4Z" fill="#fff" fill-rule="evenodd"/><path d="M36.12,22.42V20a1.28,1.28,0,0,0-1.33-1.22h-4v8.56h1.34V23.64h1l1.56,3.67h1.46l-1.56-3.67h.23A1.28,1.28,0,0,0,36.12,22.42Zm-4-2.45h2.68v2.45H32.11Z" fill="#fff" fill-rule="evenodd"/></svg>