<svg xmlns="http://www.w3.org/2000/svg" viewBox="0 0 64 60"><path d="M33.18.73l26,18.86a2,2,0,0,1,.73,2.23L49.94,52.33A2,2,0,0,1,48,53.71H16a2,2,0,0,1-1.9-1.38L4.14,21.82a2,2,0,0,1,.73-2.23L30.82.73A2,2,0,0,1,33.18.73Z" fill="#008985" fill-rule="evenodd"/><path d="M33.43,19H30.57a1.43,1.43,0,0,0-1.43,1.43V29h1.43V25.43h2.86V29h1.43V20.43A1.43,1.43,0,0,0,33.43,19Zm-2.86,5V20.43h2.86V24Z" fill="#fff"/><path d="M46.29,29H43.43V19h2.86a2.86,2.86,0,0,1,2.85,2.86v4.28A2.86,2.86,0,0,1,46.29,29Zm-1.43-1.43h1.43a1.43,1.43,0,0,0,1.42-1.43V21.86a1.43,1.43,0,0,0-1.42-1.43H44.86Z" fill="#fff"/><polygon points="26.29 19 26.29 23.29 23.43 23.29 23.43 19 22 19 22 29 23.43 29 23.43 24.71 26.29 24.71 26.29 29 27.71 29 27.71 19 26.29 19" fill="#fff"/><polygon points="36.29 20.43 38.43 20.43 38.43 27.57 36.29 27.57 36.29 29 42 29 42 27.57 39.86 27.57 39.86 20.43 42 20.43 42 19 36.29 19 36.29 20.43" fill="#fff"/><path d="M20.57,29H16.29a1.43,1.43,0,0,1-1.43-1.43V20.43A1.43,1.43,0,0,1,16.29,19h4.28v1.43H16.29v7.14h4.28Z" fill="#fff"/><path d="M38.89,40.15a2.54,2.54,0,0,0-.83.15l-3.82-3.82a2.54,2.54,0,0,0,.15-.83,2.5,2.5,0,1,0-4.82.92l-3.74,3.74,0,0a2.45,2.45,0,0,0-1-.2,2.5,2.5,0,1,0,2.5,2.5,2.45,2.45,0,0,0-.2-1l.06,0L31,38a2.65,2.65,0,0,0,.89.17,2.45,2.45,0,0,0,1-.2l3.72,3.72a2.45,2.45,0,0,0-.2,1,2.5,2.5,0,1,0,2.5-2.5Z" fill="#fff"/></svg>