<?xml version="1.0" encoding="utf-8"?>
<!-- Generator: Adobe Illustrator 23.0.1, SVG Export Plug-In . SVG Version: 6.00 Build 0)  -->
<svg version="1.0" xmlns="http://www.w3.org/2000/svg" xmlns:xlink="http://www.w3.org/1999/xlink" x="0px" y="0px"
	 viewBox="0 0 26 26" enable-background="new 0 0 26 26" xml:space="preserve">
<g>
	<g>
		<rect fill="#9B82F3" width="26" height="26"/>
		<path fill="#F3F3F3" d="M13.1,5.7c4,0,7.2,3.2,7.2,7.3s-3.2,7.2-7.3,7.2c-4,0-7.2-3.2-7.2-7.2C5.8,9,9,5.7,13.1,5.7
			C13,5.7,13.1,5.7,13.1,5.7 M13.1,3.9c-5,0-9,4-9,9s4,9,9,9s9-4,9-9S18,3.9,13.1,3.9z"/>
		<rect x="12.1" y="11.5" fill="#F3F3F3" width="2" height="5"/>
		<rect x="15.2" y="9.5" fill="#F3F3F3" width="2" height="7"/>
		<rect x="8.9" y="10.4" fill="#F3F3F3" width="2" height="6.1"/>
	</g>
</g>
</svg>
