<?xml version="1.0" encoding="utf-8"?>
<!-- Generator: Adobe Illustrator 23.0.1, SVG Export Plug-In . SVG Version: 6.00 Build 0)  -->
<svg version="1.0" xmlns="http://www.w3.org/2000/svg" xmlns:xlink="http://www.w3.org/1999/xlink" x="0px" y="0px"
	 viewBox="0 0 26 26" enable-background="new 0 0 26 26" xml:space="preserve">
<g>
	<g>
		<rect fill="#174E56" width="26" height="26"/>
		<path fill="#F3F3F3" d="M13,5.8c4,0,7.2,3.2,7.2,7.2S17,20.2,13,20.2S5.8,17,5.8,13l0,0C5.8,9,9,5.8,13,5.8 M13,4c-5,0-9,4-9,9
			s4,9,9,9s9-4,9-9S18,4,13,4z"/>
		<rect x="12" y="11.6" fill="#F3F3F3" width="2" height="5"/>
		<rect x="15.1" y="9.6" fill="#F3F3F3" width="2" height="7"/>
		<rect x="8.9" y="10.4" fill="#F3F3F3" width="2" height="6.1"/>
	</g>
</g>
</svg>
