<svg xmlns="http://www.w3.org/2000/svg" viewBox="0 0 64 60"><rect x="6" y="3.7" width="52" height="52" rx="2" fill="#198038"/><path d="M32,16a4,4,0,1,0,4,4A4,4,0,0,0,32,16Zm0,6a2,2,0,1,1,2-2A2,2,0,0,1,32,22Z" fill="#fff"/><path d="M32,26a4,4,0,1,0,4,4A4,4,0,0,0,32,26Zm0,6a2,2,0,1,1,2-2A2,2,0,0,1,32,32Z" fill="#fff"/><path d="M32,36a4,4,0,1,0,4,4A4,4,0,0,0,32,36Zm0,6a2,2,0,1,1,2-2A2,2,0,0,1,32,42Z" fill="#fff"/><path d="M41,31a4,4,0,1,0,4,4A4,4,0,0,0,41,31Zm0,6a2,2,0,1,1,2-2A2,2,0,0,1,41,37Z" fill="#fff"/><path d="M23,31a4,4,0,1,0,4,4A4,4,0,0,0,23,31Zm0,6a2,2,0,1,1,2-2A2,2,0,0,1,23,37Z" fill="#fff"/><path d="M23,21a4,4,0,1,0,4,4A4,4,0,0,0,23,21Zm0,6a2,2,0,1,1,2-2A2,2,0,0,1,23,27Z" fill="#fff"/><path d="M41,29a4,4,0,1,0-4-4A4,4,0,0,0,41,29Zm0-6a2,2,0,1,1-2,2A2,2,0,0,1,41,23Z" fill="#fff"/></svg>