<svg xmlns="http://www.w3.org/2000/svg" viewBox="0 0 64 60"><path d="M33.18.73l26,18.86a2,2,0,0,1,.73,2.23L49.94,52.33A2,2,0,0,1,48,53.71H16a2,2,0,0,1-1.9-1.38L4.14,21.82a2,2,0,0,1,.73-2.23L30.82.73A2,2,0,0,1,33.18.73Z" fill="#008985" fill-rule="evenodd"/><rect x="19.34" y="16" width="10" height="2" fill="#fff"/><rect x="19.34" y="20" width="10" height="2" fill="#fff"/><rect x="19.34" y="24" width="10" height="2" fill="#fff"/><path d="M31.55,36.29a1,1,0,0,0-1.42,0,1,1,0,0,0-.21.33.94.94,0,0,0,0,.76,1,1,0,0,0,.21.33,1,1,0,0,0,.33.21,1,1,0,0,0,.38.08,1.07,1.07,0,0,0,.71-.29,1.12,1.12,0,0,0,.2-.33.85.85,0,0,0,0-.76A1.12,1.12,0,0,0,31.55,36.29Z" fill="#fff"/><circle cx="27.34" cy="37" r="1" fill="#fff"/><path d="M24.38,36.17a.46.46,0,0,0-.17-.09A.6.6,0,0,0,24,36a.9.9,0,0,0-.56.06.93.93,0,0,0-.33.21,1,1,0,0,0-.21,1.09,1,1,0,0,0,.21.33.93.93,0,0,0,.33.21,1,1,0,0,0,.38.08,1,1,0,0,0,.7-.29,1,1,0,0,0,.3-.71,1.06,1.06,0,0,0-.3-.71Z" fill="#fff"/><circle cx="23.84" cy="33.5" r="1" fill="#fff"/><path d="M23.46,29.08a.93.93,0,0,0-.33.21,1,1,0,0,0-.29.71,1,1,0,0,0,.29.71,1,1,0,0,0,.71.29L24,31a.6.6,0,0,0,.19-.06.46.46,0,0,0,.17-.09,1.11,1.11,0,0,0,.16-.12,1,1,0,0,0,0-1.42A1,1,0,0,0,23.46,29.08Z" fill="#fff"/><path d="M40.34,30a7,7,0,1,0,7,7A7,7,0,0,0,40.34,30Zm0,2a4.23,4.23,0,0,1,.5,0V37.5H35.39a4.23,4.23,0,0,1,0-.5A5,5,0,0,1,40.34,32Zm0,10A5,5,0,0,1,36,39.5h5.81a1,1,0,0,0,1-1V32.7a5,5,0,0,1-2.5,9.3Z" fill="#fff"/></svg>