<svg xmlns="http://www.w3.org/2000/svg" viewBox="0 0 64 60"><path d="M33.07.29,57.2,14.21a2.17,2.17,0,0,1,1.07,1.86V43.93a2.17,2.17,0,0,1-1.07,1.86L33.07,59.71a2.1,2.1,0,0,1-2.14,0L6.8,45.79a2.17,2.17,0,0,1-1.07-1.86V16.07A2.17,2.17,0,0,1,6.8,14.21L30.93.29A2.1,2.1,0,0,1,33.07.29Z" fill="#0072c3" fill-rule="evenodd"/><circle cx="19.51" cy="29.5" r="1.5" fill="#fff"/><circle cx="23.51" cy="32.5" r="1.5" fill="#fff"/><polygon points="39.99 24 38.58 25.41 42.16 29 30.01 29 30.01 21 28.01 21 28.01 39 30.01 39 30.01 31 42.16 31 38.58 34.59 39.99 36 45.99 30 39.99 24" fill="#fff"/><circle cx="23.51" cy="26.5" r="1.5" fill="#fff"/></svg>