<svg xmlns="http://www.w3.org/2000/svg" viewBox="0 0 64 60"><path d="M33.18.73l26,18.86a2,2,0,0,1,.73,2.23L49.94,52.33A2,2,0,0,1,48,53.71H16a2,2,0,0,1-1.9-1.38L4.14,21.82a2,2,0,0,1,.73-2.23L30.82.73A2,2,0,0,1,33.18.73Z" fill="#008985" fill-rule="evenodd"/><path d="M42.7,20.71h0l0,0a3,3,0,0,0-1.36-1.36l0,0h0A3,3,0,0,0,40,19H24a3,3,0,0,0-1.29.3h0l0,0a3,3,0,0,0-1.36,1.36l0,0h0A3,3,0,0,0,21,22V38a3,3,0,0,0,3,3H40a3,3,0,0,0,3-3V22A3,3,0,0,0,42.7,20.71ZM39.59,21,32,28.59,24.41,21ZM23,38V22.41l8,8V39H24A1,1,0,0,1,23,38Zm17,1H33V30.41l8-8V38A1,1,0,0,1,40,39Z" fill="#fff"/></svg>