<svg xmlns="http://www.w3.org/2000/svg" viewBox="0 0 64 60"><rect x="6" y="3.7" width="52" height="52" rx="2" fill="#198038"/><path d="M20,42V16H18V42a2,2,0,0,0,2,2H46V42Z" fill="#fff"/><path d="M23,24H37a1,1,0,0,0,1-1V19a1,1,0,0,0-1-1H23a1,1,0,0,0-1,1v4A1,1,0,0,0,23,24Zm1-4H36v2H24Z" fill="#fff"/><path d="M23,40H36a1,1,0,0,0,1-1V35a1,1,0,0,0-1-1H23a1,1,0,0,0-1,1v4A1,1,0,0,0,23,40Zm1-4H35v2H24Z" fill="#fff"/><path d="M23,32H43a1,1,0,0,0,1-1V27a1,1,0,0,0-1-1H23a1,1,0,0,0-1,1v4A1,1,0,0,0,23,32Zm1-4H42v2H24Z" fill="#fff"/></svg>