<svg xmlns="http://www.w3.org/2000/svg" viewBox="0 0 64 60"><path d="M33.07.29,57.2,14.21a2.17,2.17,0,0,1,1.07,1.86V43.93a2.17,2.17,0,0,1-1.07,1.86L33.07,59.71a2.1,2.1,0,0,1-2.14,0L6.8,45.79a2.17,2.17,0,0,1-1.07-1.86V16.07A2.17,2.17,0,0,1,6.8,14.21L30.93.29A2.1,2.1,0,0,1,33.07.29Z" fill="#0072c3" fill-rule="evenodd"/><polygon points="39.99 24 38.58 25.41 42.16 29 34.01 29 34.01 31 42.16 31 38.58 34.59 39.99 36 45.99 30 39.99 24" fill="#fff"/><path d="M29.51,26.5h-3a2,2,0,0,0-2,2v3a2,2,0,0,0,2,2h3a2,2,0,0,0,2-2v-3A2,2,0,0,0,29.51,26.5Zm0,5h-3v-3h3Z" fill="#fff"/><rect x="27.01" y="20" width="2" height="4" fill="#fff"/><rect x="18.01" y="29" width="4" height="2" fill="#fff"/><rect x="27.01" y="36" width="2" height="4" fill="#fff"/><rect x="20.01" y="34.91" width="4" height="2" transform="translate(-18.95 26.08) rotate(-45)" fill="#fff"/><rect x="21.01" y="21.91" width="2" height="4" transform="translate(-10.46 22.57) rotate(-45)" fill="#fff"/></svg>