<svg xmlns="http://www.w3.org/2000/svg" viewBox="0 0 64 60"><path d="M33.07.29,57.2,14.21a2.17,2.17,0,0,1,1.07,1.86V43.93a2.17,2.17,0,0,1-1.07,1.86L33.07,59.71a2.1,2.1,0,0,1-2.14,0L6.8,45.79a2.17,2.17,0,0,1-1.07-1.86V16.07A2.17,2.17,0,0,1,6.8,14.21L30.93.29A2.1,2.1,0,0,1,33.07.29Z" fill="#0072c3" fill-rule="evenodd"/><path d="M44.45,26.63H37.89l-2.58,3.82L41.06,36l5.83-5.54Zm-3.38,6.61-3.16-3.06,1-1.55h4.4l1,1.52Z" fill="#fff"/><path d="M23.11,17.37a4,4,0,1,0,4,4A4,4,0,0,0,23.11,17.37Zm0,6a2,2,0,1,1,2-2A2,2,0,0,1,23.11,23.37Z" fill="#fff"/><path d="M25.6,35.63h-5a1,1,0,0,0-1,1v5a1,1,0,0,0,1,1h5a1,1,0,0,0,1-1v-5A1,1,0,0,0,25.6,35.63Zm-1,5h-3v-3h3Z" fill="#fff"/><circle cx="23.11" cy="28.13" r="1" fill="#fff"/><circle cx="23.11" cy="32.13" r="1" fill="#fff"/><path d="M34.07,25.11a1,1,0,1,0-1,1.73,1,1,0,0,0,.49.14,1,1,0,0,0,.87-.51A1,1,0,0,0,34.07,25.11Z" fill="#fff"/><path d="M30.61,23.11a1,1,0,1,0-1,1.73,1,1,0,0,0,.5.14,1,1,0,0,0,.5-1.87Z" fill="#fff"/><path d="M29.61,36.42a1,1,0,0,0-.37,1.36,1,1,0,0,0,.87.5,1,1,0,1,0-.5-1.86Z" fill="#fff"/><path d="M33.07,34.42a1,1,0,0,0,.51,1.86,1,1,0,0,0,.49-.13,1,1,0,1,0-1-1.73Z" fill="#fff"/></svg>