<?xml version="1.0" encoding="utf-8"?>
<!-- Generator: Adobe Illustrator 23.0.1, SVG Export Plug-In . SVG Version: 6.00 Build 0)  -->
<svg version="1.0" xmlns="http://www.w3.org/2000/svg" xmlns:xlink="http://www.w3.org/1999/xlink" x="0px" y="0px"
	 viewBox="0 0 26 26" enable-background="new 0 0 26 26" xml:space="preserve">
<g>
	<g>
		<rect fill="#9B82F3" width="26" height="26"/>
		<rect x="5" y="6.8" fill="#F3F3F3" width="16.1" height="12.8"/>
		<rect x="6.7" y="10.1" fill="#9B82F3" width="12.7" height="1.9"/>
		<rect x="6.7" y="13.2" fill="#9B82F3" width="12.7" height="1.9"/>
		<rect x="6.7" y="16.1" fill="#9B82F3" width="12.7" height="1.9"/>
		<path fill="#F3F3F3" d="M6.9,21.2c-2.3,0-4.1-1.8-4.2-4.1c0-2.3,1.8-4.1,4.1-4.2c2.3,0,4.1,1.8,4.2,4.1c0,0,0,0,0,0
			C11,19.3,9.2,21.2,6.9,21.2z"/>
		<polygon fill="#9B82F3" stroke="#9B82F3" stroke-width="0.25" stroke-miterlimit="10" points="6.7,15.5 7.9,16.8 4.5,16.8
			4.5,17.4 7.9,17.4 6.7,18.7 7.1,19.1 9.1,17.1 7.1,15.1 		"/>
	</g>
</g>
</svg>
