<?xml version="1.0" encoding="utf-8"?>
<!-- Generator: Adobe Illustrator 23.0.1, SVG Export Plug-In . SVG Version: 6.00 Build 0)  -->
<svg version="1.0" xmlns="http://www.w3.org/2000/svg" xmlns:xlink="http://www.w3.org/1999/xlink" x="0px" y="0px"
	 viewBox="0 0 26 26" enable-background="new 0 0 26 26" xml:space="preserve">
<rect fill="#174E56" width="26" height="26"/>
<polygon fill="#F3F3F3" points="5.1,6.9 5.1,9 5.1,19.7 21.1,19.7 21.1,6.9 "/>
<rect x="6.7" y="10.1" fill="#174E56" width="12.8" height="2"/>
<rect x="6.7" y="16.1" fill="#174E56" width="12.8" height="2"/>
<rect x="6.7" y="13.1" fill="#174E56" width="12.8" height="2"/>
<path fill="#F3F3F3" d="M19.6,21.1c-2.3,0-4.1-1.8-4.1-4.1s1.8-4.1,4.1-4.1s4.1,1.8,4.1,4.1S21.8,21.1,19.6,21.1z"/>
<polygon fill="#174E56" stroke="#174E56" stroke-width="0.25" stroke-miterlimit="10" points="19.3,15.4 20.6,16.7 17.2,16.7
	17.2,17.3 20.6,17.3 19.3,18.6 19.8,19 21.8,17 19.8,15 "/>
</svg>
