<?xml version="1.0" encoding="utf-8"?>
<!-- Generator: Adobe Illustrator 23.0.1, SVG Export Plug-In . SVG Version: 6.00 Build 0)  -->
<svg version="1.0" xmlns="http://www.w3.org/2000/svg" xmlns:xlink="http://www.w3.org/1999/xlink" x="0px" y="0px"
	 viewBox="0 0 26 26" enable-background="new 0 0 26 26" xml:space="preserve">
<rect fill="#174E56" width="26" height="26"/>
<path fill-rule="evenodd" clip-rule="evenodd" fill="#F3F3F3" d="M5,6.6v12.8h16V6.6H5z M19.4,17.8H6.6v-2h12.8V17.8z M19.4,14.8
	H6.6v-2h12.8V14.8z M19.4,11.9H6.6v-2h12.8V11.9z"/>
<path fill="#174E56" d="M11.2,15.8v2.6h1.5c0,0,0.1,0,0.2,0c0.2,0.1,0.2,0.3,0.2,0.4c0,0.3,0.1,0.7,0.1,1.2c0.1,0.2,0.2,0.6,0.6,0.9
	c0.3,0.3,0.6,0.4,0.9,0.4c0.6,0.2,1,0.2,1.4,0.1c0,0,0.1,0.6,0.6,1.2s1.7,1.3,1.7,1.3s0.7,0.2,1.6,0.2c1,0,1.7,0,1.7,0V23h2.5
	c0,0,0.9,0.1,0.9-1.1S24,21,24,21v-1.3c0,0,1.2,0.2,1.2-1c0-1.1-1.1-1.1-1.1-1.1H22v-1.4h-2c0,0-1-0.1-1.8,0.2
	c-0.8,0.3-1.8,1.6-1.8,1.6h-0.7c0,0-0.1-2.2-1.5-2.2C12.7,15.8,11.2,15.8,11.2,15.8z"/>
<path fill="#F9F9FB" d="M22.6,21.2h-2v-2h2c1,0,1-1,0-1h-2v-1h-1c-1.5-0.1-2.8,1-3,2.5h-1c-0.1,0-0.3-0.1-0.4-0.2
	c-0.1-0.1-0.1-0.2-0.1-0.3v-1c0.1-0.8-0.5-1.4-1.3-1.5c-0.1,0-0.1,0-0.2,0h-1v1h1c0.1,0,0.3,0,0.4,0.1c0.1,0.1,0.1,0.2,0.1,0.4v1
	c0,0.4,0.2,0.7,0.4,1c0.3,0.3,0.7,0.5,1.1,0.5h1c0.2,1.5,1.5,2.6,3,2.5h1v-1h2C23.6,22.2,23.6,21.2,22.6,21.2z M19.6,21.2h-1v-2h1
	V21.2z"/>
</svg>
