<?xml version="1.0" encoding="utf-8"?>
<!-- Generator: Adobe Illustrator 23.0.1, SVG Export Plug-In . SVG Version: 6.00 Build 0)  -->
<svg version="1.0" xmlns="http://www.w3.org/2000/svg" xmlns:xlink="http://www.w3.org/1999/xlink" x="0px" y="0px"
	 viewBox="0 0 26 24.7" enable-background="new 0 0 26 24.7" xml:space="preserve">
<rect fill="#00B6CB" width="26" height="24.7"/>
<g>
	<g id="Icon_1_">
		<g>
			<g>
				<path fill="#F9F9FB" d="M19.2,10.9c0-0.3,0-0.7-0.1-1l2-1.7l-1.7-2.8L17,6.2c-0.6-0.5-1.2-0.9-1.9-1.1l-0.5-2.3h-3.3l-0.5,2.3
					c-0.7,0.3-1.4,0.7-1.9,1.1L6.6,5.4L4.9,8.2l2,1.7c-0.1,0.3-0.1,0.6-0.1,1c0,0.3,0,0.7,0.1,1l-2,1.7l1.7,2.8L9,15.6
					c0.6,0.5,1.2,0.9,1.9,1.1l0.5,2.3h3.3l0.5-2.3c0.7-0.3,1.4-0.7,1.9-1.1l2.4,0.8l1.7-2.8l-2-1.7C19.2,11.6,19.2,11.3,19.2,10.9z
					 M13,13.1c-1.2,0-2.2-1-2.2-2.2s1-2.2,2.2-2.2s2.2,1,2.2,2.2S14.2,13.1,13,13.1z"/>
			</g>
		</g>
	</g>
</g>
<path fill="#00B6CB" d="M11.9,14.2v2.4h1c0,0,0.1,0,0.2,0c0.2,0.1,0.2,0.3,0.2,0.4c0,0.3,0.1,0.7,0.1,1.2c0.1,0.2,0.2,0.6,0.6,0.9
	c0.3,0.3,0.6,0.4,0.9,0.5c0.6,0.2,1,0.2,1.4,0.1c0,0,0.1,0.7,0.6,1.3c0.5,0.6,1.7,1.3,1.7,1.3s0.7,0.2,1.6,0.2c1,0,1.7,0,1.7,0v-1.2
	h2.5c0,0,0.9,0.1,0.9-1.1S24.1,19,24.1,19v-1.3c0,0,1.2,0.2,1.2-1s-1.1-1.1-1.1-1.1h-2.1v-1.4h-1.9c0,0-1.1,0-1.9,0.3
	S16.6,16,16.6,16h-0.7c0,0-0.1-1.9-1.6-1.9S11.9,14.2,11.9,14.2z"/>
<path fill="#FFFFFF" d="M22.7,19.5h-2v-2h2c1,0,1-1,0-1h-2v-1h-1c-1.5-0.1-2.8,1-3,2.5h-1c-0.1,0-0.3-0.1-0.4-0.2
	c-0.1-0.1-0.1-0.2-0.1-0.3v-1c0.1-0.8-0.5-1.4-1.3-1.5c-0.1,0-0.1,0-0.2,0h-1v1h1c0.1,0,0.3,0,0.4,0.1c0.1,0.1,0.1,0.2,0.1,0.4v1
	c0,0.4,0.2,0.7,0.4,1c0.3,0.3,0.7,0.5,1.1,0.5h1c0.2,1.5,1.5,2.6,3,2.5h1v-1h2C23.7,20.5,23.7,19.5,22.7,19.5z M19.7,19.5h-1v-2h1
	V19.5z"/>
</svg>
