<?xml version="1.0" encoding="utf-8"?>
<!-- Generator: Adobe Illustrator 23.0.1, SVG Export Plug-In . SVG Version: 6.00 Build 0)  -->
<svg version="1.0" xmlns="http://www.w3.org/2000/svg" xmlns:xlink="http://www.w3.org/1999/xlink" x="0px" y="0px"
	 viewBox="0 0 26 26" enable-background="new 0 0 26 26" xml:space="preserve">
<rect fill="#174E56" width="26" height="26"/>
<g>
	<g>
		<polygon fill="#F3F3F3" stroke="#F3F3F3" stroke-width="0.5" stroke-miterlimit="10" points="12.3,6.9 12.3,15.1 13.3,15.1 
			13.3,6.9 16.4,10 17,9.3 12.8,5.1 8.5,9.3 9.2,10 		"/>
		<polygon fill="#F3F3F3" stroke="#F3F3F3" stroke-width="0.5" stroke-miterlimit="10" points="19.2,15.2 19.2,19.1 6.4,19.1 
			6.4,15.2 5.4,15.2 5.4,19.1 5.4,21.1 6.4,21.1 19.2,21.1 20.1,21.1 20.1,19.1 20.1,15.2 		"/>
	</g>
</g>
<path fill="#174E56" d="M11.1,15.9v2.7h1.5c0,0,0.1,0,0.2,0C13,18.7,13,19,13,19.1c0,0.3,0.1,0.7,0.1,1.2c0.1,0.2,0.2,0.6,0.6,0.9
	c0.3,0.3,0.6,0.4,0.9,0.5c0.6,0.2,1,0.2,1.4,0.1c0,0,0.1,0.7,0.6,1.3c0.5,0.6,1.7,1.3,1.7,1.3s0.7,0.2,1.6,0.2c1,0,1.7,0,1.7,0v-1.2
	h2.5c0,0,0.9,0.1,0.9-1.1s-1.2-1.2-1.2-1.2v-1.3c0,0,1.2,0.2,1.2-1s-1-1-1-1h-2.1v-1.4H20c0,0-1-0.1-1.8,0.2
	c-0.8,0.3-1.8,1.6-1.8,1.6h-1c0,0,0.2-2.3-1.3-2.3S11.1,15.9,11.1,15.9z"/>
<path fill="#F9F9FB" d="M22.5,21.5h-2v-2h2c1,0,1-1,0-1h-2v-1h-1c-1.5-0.1-2.8,1-3,2.5h-1c-0.1,0-0.3-0.1-0.4-0.2
	c-0.1,0-0.1-0.2-0.1-0.3v-1c0.1-0.8-0.5-1.4-1.3-1.5c-0.1,0-0.1,0-0.2,0h-1v1h1c0.1,0,0.3,0,0.4,0.1c0.1,0.1,0.1,0.2,0.1,0.4v1
	c0,0.4,0.2,0.7,0.4,1c0.3,0.3,0.7,0.5,1.1,0.5h1c0.2,1.5,1.5,2.6,3,2.5h1v-1h2C23.5,22.5,23.5,21.5,22.5,21.5z M19.5,21.5h-1v-2h1
	V21.5z"/>
</svg>
