<?xml version="1.0" encoding="utf-8"?>
<!-- Generator: Adobe Illustrator 23.0.1, SVG Export Plug-In . SVG Version: 6.00 Build 0)  -->
<svg version="1.0" xmlns="http://www.w3.org/2000/svg" xmlns:xlink="http://www.w3.org/1999/xlink" x="0px" y="0px"
	 viewBox="0 0 24 24" enable-background="new 0 0 24 24" xml:space="preserve">
<rect id="Rectangle-11" fill="#01B9A0" width="24" height="24"/>
<polygon fill="none" stroke="#F9F9FB" stroke-miterlimit="10" points="12,3.1 5,7.8 12,18.9 19,7.8 "/>
<polyline fill="none" stroke="#F9F9FB" stroke-miterlimit="10" points="5,7.8 9.7,9.1 14.3,9.1 19,7.8 "/>
<polygon fill="none" stroke="#F9F9FB" stroke-miterlimit="10" points="12,17.4 14.3,9.2 12,4.1 9.7,9.2 "/>
<path fill="none" stroke="#F9F9FB" stroke-miterlimit="10" d="M14,9.1"/>
<path fill="#01B9A0" d="M8.9,12.9v2.6h1.5c0,0,0.1,0,0.2,0c0.2,0.1,0.2,0.3,0.2,0.4c0,0.3,0.1,0.7,0.1,1.2c0.1,0.2,0.2,0.6,0.6,0.9
	c0.3,0.3,0.6,0.4,0.9,0.4c0.6,0.2,1,0.2,1.4,0.1c0,0,0.1,0.6,0.6,1.2s1.7,1.3,1.7,1.3s0.7,0.2,1.6,0.2s1.7,0,1.7,0v-1.1H22
	c0,0,0.9,0.1,0.9-1.1s-1.2-1-1.2-1v-1.3c0,0,1.2,0.2,1.2-1s-1.1-1.1-1.1-1.1h-2.1v-1.4h-1.9c0,0-1-0.1-1.8,0.2
	c-0.8,0.3-1.8,1.6-1.8,1.6h-0.7c0,0-0.1-2.2-1.5-2.2S8.9,12.9,8.9,12.9z"/>
<path fill="#F9F9FB" d="M20.2,18.2h-2v-2h2c1,0,1-1,0-1h-2v-1h-1c-1.5-0.1-2.8,1-3,2.5h-1c-0.1,0-0.3-0.1-0.4-0.2
	c-0.1-0.1-0.1-0.2-0.1-0.3v-1c0.1-0.8-0.5-1.4-1.3-1.5c-0.1,0-0.1,0-0.2,0h-1v1h1c0.1,0,0.3,0,0.4,0.1c0.1,0.1,0.1,0.2,0.1,0.4v1
	c0,0.4,0.2,0.7,0.4,1c0.3,0.3,0.7,0.5,1.1,0.5h1c0.2,1.5,1.5,2.6,3,2.5h1v-1h2C21.2,19.2,21.2,18.2,20.2,18.2z M17.2,18.2h-1v-2h1
	V18.2z"/>
</svg>
