<?xml version="1.0" encoding="utf-8"?>
<!-- Generator: Adobe Illustrator 23.0.1, SVG Export Plug-In . SVG Version: 6.00 Build 0)  -->
<svg version="1.0" xmlns="http://www.w3.org/2000/svg" xmlns:xlink="http://www.w3.org/1999/xlink" x="0px" y="0px"
	 viewBox="0 0 26 26" enable-background="new 0 0 26 26" xml:space="preserve">
<rect fill="#9B82F3" width="26" height="26"/>
<g>
	<g>
		<polygon fill="#F3F3F3" stroke="#F3F3F3" stroke-width="0.5" stroke-miterlimit="10" points="12.5,13.1 12.5,5 13.5,5 13.5,13.1 
			16.6,10.1 17.3,10.7 13,15 8.7,10.7 9.4,10.1 		"/>
		<polygon fill="#F3F3F3" stroke="#F3F3F3" stroke-width="0.5" stroke-miterlimit="10" points="19.4,15.1 19.4,19 6.6,19 6.6,15.1 
			5.6,15.1 5.6,19 5.6,21 6.6,21 19.4,21 20.4,21 20.4,19 20.4,15.1 		"/>
	</g>
</g>
<path fill="#9B82F3" d="M11.9,15.8v2.7h1.5c0,0,0.1,0,0.2,0c0.2,0.1,0.2,0.3,0.2,0.4c0,0.3,0.1,0.7,0.1,1.2c0.1,0.2,0.2,0.6,0.6,0.9
	c0.3,0.3,0.6,0.4,0.9,0.5c0.6,0.2,1,0.2,1.4,0.1c0,0,0.1,0.7,0.6,1.3c0.5,0.6,1.7,1.3,1.7,1.3s0.7,0.2,1.6,0.2s1.7,0,1.7,0v-1.2h2.5
	c0,0,0.9,0.1,0.9-1.1s-1.2-1.2-1.2-1.2v-1.3c0,0,1.2,0.2,1.2-1s-1.1-1.1-1.1-1.1h-2.1v-1.4h-1.9c0,0-1-0.1-1.8,0.2
	c-0.8,0.3-1.8,1.6-1.8,1.6h-1c0,0,0.2-2.3-1.3-2.3C13.4,15.8,11.9,15.8,11.9,15.8z"/>
<path fill="#F9F9FB" d="M23.2,21.4h-2v-2h2c1,0,1-1,0-1h-2v-1h-1c-1.5-0.1-2.8,1-3,2.5h-1c-0.1,0-0.3-0.1-0.4-0.2
	c-0.1-0.1-0.1-0.2-0.1-0.3v-1c0.1-0.8-0.5-1.4-1.3-1.5c-0.1,0-0.1,0-0.2,0h-1v1h1c0.1,0,0.3,0,0.4,0.1c0.1,0.1,0.1,0.2,0.1,0.4v1
	c0,0.4,0.2,0.7,0.4,1c0.3,0.3,0.7,0.5,1.1,0.5h1c0.2,1.5,1.5,2.6,3,2.5h1v-1h2C24.2,22.4,24.2,21.4,23.2,21.4z M20.2,21.4h-1v-2h1
	V21.4z"/>
</svg>
