<svg xmlns="http://www.w3.org/2000/svg" viewBox="0 0 64 60"><path d="M33.18.73l26,18.86a2,2,0,0,1,.73,2.23L49.94,52.33A2,2,0,0,1,48,53.71H16a2,2,0,0,1-1.9-1.38L4.14,21.82a2,2,0,0,1,.73-2.23L30.82.73A2,2,0,0,1,33.18.73Z" fill="#008985" fill-rule="evenodd"/><path d="M35.5,16v4h-7V16h-2v4a2,2,0,0,0,2,2h7a2,2,0,0,0,2-2V16Z" fill="#fff"/><path d="M35.5,38h-7a2,2,0,0,0-2,2v4h2V40h7v4h2V40A2,2,0,0,0,35.5,38Z" fill="#fff"/><path d="M36.5,24.5h-9a1,1,0,0,0-1,1v9a1,1,0,0,0,1,1h9a1,1,0,0,0,1-1v-9A1,1,0,0,0,36.5,24.5ZM31.17,33l-2.83-2.51L29.66,29l1.42,1.26,4.11-4.1L36.6,27.6Z" fill="#fff"/></svg>