<svg xmlns="http://www.w3.org/2000/svg" viewBox="0 0 64 60"><path d="M33.07.29,57.2,14.21a2.17,2.17,0,0,1,1.07,1.86V43.93a2.17,2.17,0,0,1-1.07,1.86L33.07,59.71a2.1,2.1,0,0,1-2.14,0L6.8,45.79a2.17,2.17,0,0,1-1.07-1.86V16.07A2.17,2.17,0,0,1,6.8,14.21L30.93.29A2.1,2.1,0,0,1,33.07.29Z" fill="#0072c3" fill-rule="evenodd"/><path d="M19,23h8a1,1,0,0,0,1-1V17a1,1,0,0,0-1-1H19a1,1,0,0,0-1,1v5A1,1,0,0,0,19,23Zm1-5h6v3H20ZM19,33.5h8a1,1,0,0,0,1-1v-5a1,1,0,0,0-1-1H19a1,1,0,0,0-1,1v5A1,1,0,0,0,19,33.5Zm1-5h6v3H20ZM19,44h8a1,1,0,0,0,1-1V38a1,1,0,0,0-1-1H19a1,1,0,0,0-1,1v5A1,1,0,0,0,19,44Zm1-5h6v3H20ZM43,23H34l3.41-3.59L36,18l-6,6,6,6,1.41-1.41L34,25h9a1,1,0,0,1,1,1V38a1,1,0,0,1-1,1H31v2H43a3,3,0,0,0,3-3V26A3,3,0,0,0,43,23Z" fill="#fff" fill-rule="evenodd"/></svg>