<svg xmlns="http://www.w3.org/2000/svg" viewBox="0 0 64 60"><path d="M33.07.29,57.2,14.21a2.17,2.17,0,0,1,1.07,1.86V43.93a2.17,2.17,0,0,1-1.07,1.86L33.07,59.71a2.1,2.1,0,0,1-2.14,0L6.8,45.79a2.17,2.17,0,0,1-1.07-1.86V16.07A2.17,2.17,0,0,1,6.8,14.21L30.93.29A2.1,2.1,0,0,1,33.07.29Z" fill="#0072c3" fill-rule="evenodd"/><polygon points="45 29 38 29 38 22 36 22 36 29 29 29 29 31 36 31 36 38 38 38 38 31 45 31 45 29" fill="#fff"/><polygon points="23 26 25 26 25 22 29 22 29 20 25 20 25 16 23 16 23 20 19 20 19 22 23 22 23 26" fill="#fff"/><polygon points="25 34 23 34 23 38 19 38 19 40 23 40 23 44 25 44 25 40 29 40 29 38 25 38 25 34" fill="#fff"/></svg>