<svg xmlns="http://www.w3.org/2000/svg" viewBox="0 0 64 60"><path d="M33.07.29,57.2,14.21a2.17,2.17,0,0,1,1.07,1.86V43.93a2.17,2.17,0,0,1-1.07,1.86L33.07,59.71a2.1,2.1,0,0,1-2.14,0L6.8,45.79a2.17,2.17,0,0,1-1.07-1.86V16.07A2.17,2.17,0,0,1,6.8,14.21L30.93.29A2.1,2.1,0,0,1,33.07.29Z" fill="#0072c3" fill-rule="evenodd"/><path d="M34,42H30a2,2,0,0,1-2-2V32.41L20.59,25A2,2,0,0,1,20,23.59V20a2,2,0,0,1,2-2H42a2,2,0,0,1,2,2v3.59A2,2,0,0,1,43.41,25L36,32.41V40A2,2,0,0,1,34,42ZM22,20v3.59l8,8V40h4V31.59l8-8V20Z" fill="#fff" fill-rule="evenodd"/></svg>