<svg xmlns="http://www.w3.org/2000/svg" viewBox="0 0 64 60"><path d="M33.18.73l26,18.86a2,2,0,0,1,.73,2.23L49.94,52.33A2,2,0,0,1,48,53.71H16a2,2,0,0,1-1.9-1.38L4.14,21.82a2,2,0,0,1,.73-2.23L30.82.73A2,2,0,0,1,33.18.73Z" fill="#008985" fill-rule="evenodd"/><path d="M23,40a.15.15,0,0,1-.15-.15V18h-2V39.85A2.15,2.15,0,0,0,23,42H44.88V40Z" fill="#fff"/><path d="M26.31,36.89a1.56,1.56,0,0,0,.57.11,1.5,1.5,0,0,0,1.5-1.5,1.36,1.36,0,0,0,0-.29,1.31,1.31,0,0,0-.09-.28,1.26,1.26,0,0,0-.13-.26,2.11,2.11,0,0,0-.19-.23,1.55,1.55,0,0,0-2.12,0,1.51,1.51,0,0,0,.49,2.45Z" fill="#fff"/><path d="M39.33,28.24a1.44,1.44,0,0,0,.57.11,1.49,1.49,0,1,0-.57-.11Z" fill="#fff"/><path d="M36.78,32.78a1.5,1.5,0,1,0-1.11-.49A1.51,1.51,0,0,0,36.78,32.78Z" fill="#fff"/><path d="M32.15,35.63a1.65,1.65,0,0,0,.57-.11,1.5,1.5,0,1,0-1.95-.82A1.48,1.48,0,0,0,32.15,35.63Z" fill="#fff"/><path d="M40.88,23a1.5,1.5,0,0,0,1.5-1.5A1.5,1.5,0,0,0,40.59,20l-.28.08a1.59,1.59,0,0,0-.26.14,1.45,1.45,0,0,0-.23.19A1.5,1.5,0,0,0,40.88,23Z" fill="#fff"/></svg>