<svg xmlns="http://www.w3.org/2000/svg" viewBox="0 0 64 60"><path d="M33.18.73l26,18.86a2,2,0,0,1,.73,2.23L49.94,52.33A2,2,0,0,1,48,53.71H16a2,2,0,0,1-1.9-1.38L4.14,21.82a2,2,0,0,1,.73-2.23L30.82.73A2,2,0,0,1,33.18.73Z" fill="#008985" fill-rule="evenodd"/><path d="M22.15,40.75A.15.15,0,0,1,22,40.6V18.75H20V40.6a2.15,2.15,0,0,0,2.15,2.15H44v-2Z" fill="#fff"/><rect x="26" y="27.75" width="4" height="11" fill="#fff"/><polygon points="33.5 32.75 33.5 38.75 41.5 38.75 41.5 32.75 39.5 32.75 39.5 36.75 35.5 36.75 35.5 32.75 33.5 32.75" fill="#fff"/><path d="M28.5,25.25A4,4,0,0,0,31,24.39l3.7,3a3,3,0,0,0-.15.9,3,3,0,1,0,3-3,2.92,2.92,0,0,0-1.65.5l-3.67-2.94a3.65,3.65,0,0,0,.18-.56h2.32a3,3,0,1,0,0-2H32.36a4,4,0,1,0-3.86,5Zm0-6a2,2,0,1,1-2,2A2,2,0,0,1,28.5,19.25Z" fill="#fff"/></svg>