<svg xmlns="http://www.w3.org/2000/svg" viewBox="0 0 64 60"><path d="M33.18.73l26,18.86a2,2,0,0,1,.73,2.23L49.94,52.33A2,2,0,0,1,48,53.71H16a2,2,0,0,1-1.9-1.38L4.14,21.82a2,2,0,0,1,.73-2.23L30.82.73A2,2,0,0,1,33.18.73Z" fill="#008985" fill-rule="evenodd"/><path d="M21.75,39.85V18h-2V39.85A2.15,2.15,0,0,0,21.9,42H43.75V40H21.9A.15.15,0,0,1,21.75,39.85Z" fill="#fff"/><path d="M31,34.67a1.45,1.45,0,0,0-.19-.23A1.5,1.5,0,0,0,29.46,34l-.29.08a2,2,0,0,0-.25.14,1.45,1.45,0,0,0-.23.19,2.11,2.11,0,0,0-.19.23,2.15,2.15,0,0,0-.14.26,2.29,2.29,0,0,0-.08.28,1.36,1.36,0,0,0,0,.29,1.47,1.47,0,0,0,.44,1.06,1.5,1.5,0,0,0,1.06.44,1.52,1.52,0,0,0,1.06-.44,1.5,1.5,0,0,0,.44-1.06,1.36,1.36,0,0,0,0-.29,1.31,1.31,0,0,0-.09-.28A1.26,1.26,0,0,0,31,34.67Z" fill="#fff"/><path d="M36.25,30.5a1.51,1.51,0,0,0,1.06-.44,1.5,1.5,0,1,0-1.06.44Z" fill="#fff"/><path d="M43.81,21.44a2.11,2.11,0,0,0-.23-.19l-.26-.14L43,21a1.42,1.42,0,0,0-.58,0l-.28.08-.26.14a2.11,2.11,0,0,0-.23.19,1.45,1.45,0,0,0-.19.23,2.15,2.15,0,0,0-.14.26,2.29,2.29,0,0,0-.08.28,1.36,1.36,0,0,0,0,.29,1.5,1.5,0,0,0,3,0A1.52,1.52,0,0,0,43.81,21.44Z" fill="#fff"/><path d="M29.75,30.23l5.18,7.35a1,1,0,0,0,.82.42h.07a1,1,0,0,0,.82-.54l6-11.5L40.86,25l-5.24,10-5-7.16a1,1,0,0,0-1.64,0l-6,8.5,1.64,1.16Z" fill="#fff"/></svg>