<svg xmlns="http://www.w3.org/2000/svg" viewBox="0 0 64 60"><path d="M33.18.73l26,18.86a2,2,0,0,1,.73,2.23L49.94,52.33A2,2,0,0,1,48,53.71H16a2,2,0,0,1-1.9-1.38L4.14,21.82a2,2,0,0,1,.73-2.23L30.82.73A2,2,0,0,1,33.18.73Z" fill="#008985" fill-rule="evenodd"/><path d="M31.34,18h11V16h-11a3,3,0,0,0-3,3v1h-8a3,3,0,0,0-3,3V37a3,3,0,0,0,3,3h8v1a3,3,0,0,0,3,3h11V42h-11a1,1,0,0,1-1-1V37a1,1,0,0,1,1-1h11V34h-11a3,3,0,0,0-3,3v1h-8a1,1,0,0,1-1-1V23a1,1,0,0,1,1-1h8v1a3,3,0,0,0,3,3h5v1a3,3,0,0,0,3,3h3V28h-3a1,1,0,0,1-1-1V23a1,1,0,0,1,1-1h3V20h-3a3,3,0,0,0-3,3v1h-5a1,1,0,0,1-1-1V19A1,1,0,0,1,31.34,18Z" fill="#fff"/></svg>