<svg xmlns="http://www.w3.org/2000/svg" viewBox="0 0 64 60"><rect x="6" y="3.7" width="52" height="52" rx="2" fill="#198038"/><path d="M21.67,39h2.66A1.84,1.84,0,0,0,26,37V19a1.84,1.84,0,0,0-1.67-2H21.67A1.84,1.84,0,0,0,20,19V37A1.84,1.84,0,0,0,21.67,39ZM22,19h2V37H22Z" fill="#fff"/><path d="M39.67,39h2.66A1.84,1.84,0,0,0,44,37V22a1.84,1.84,0,0,0-1.67-2H39.67A1.84,1.84,0,0,0,38,22V37A1.84,1.84,0,0,0,39.67,39ZM40,22h2V37H40Z" fill="#fff"/><path d="M30.67,39h2.66A1.84,1.84,0,0,0,35,37V28a1.84,1.84,0,0,0-1.67-2H30.67A1.84,1.84,0,0,0,29,28v9A1.84,1.84,0,0,0,30.67,39ZM31,28h2v9H31Z" fill="#fff"/><rect x="18" y="41" width="28" height="2" fill="#fff"/></svg>