<svg xmlns="http://www.w3.org/2000/svg" viewBox="0 0 64 60"><path d="M33.07.29,57.2,14.21a2.17,2.17,0,0,1,1.07,1.86V43.93a2.17,2.17,0,0,1-1.07,1.86L33.07,59.71a2.1,2.1,0,0,1-2.14,0L6.8,45.79a2.17,2.17,0,0,1-1.07-1.86V16.07A2.17,2.17,0,0,1,6.8,14.21L30.93.29A2.1,2.1,0,0,1,33.07.29Z" fill="#0072c3" fill-rule="evenodd"/><path d="M41.93,18H22.07a1,1,0,0,0-1,1V41a1,1,0,0,0,1,1H41.93a1,1,0,0,0,1-1V19A1,1,0,0,0,41.93,18ZM25.07,40h-2V20h2Zm15.86,0H27.21V20H40.93Z" fill="#fff"/><rect x="30.57" y="26" width="7" height="2" fill="#fff"/></svg>