<svg xmlns="http://www.w3.org/2000/svg" viewBox="0 0 64 60"><path d="M33.18.73l26,18.86a2,2,0,0,1,.73,2.23L49.94,52.33A2,2,0,0,1,48,53.71H16a2,2,0,0,1-1.9-1.38L4.14,21.82a2,2,0,0,1,.73-2.23L30.82.73A2,2,0,0,1,33.18.73Z" fill="#008985" fill-rule="evenodd"/><path d="M27.67,43V27h-2V43a2,2,0,0,0,2,2h16V43Z" fill="#fff"/><circle cx="41.67" cy="36" r="1" fill="#fff"/><circle cx="37.67" cy="28" r="1" fill="#fff"/><circle cx="33.67" cy="33" r="1" fill="#fff"/><polygon points="33.75 38 38.67 38 38.67 33 42.67 33 42.67 31 36.67 31 36.67 36 32.6 36 30.21 40.07 31.94 41.07 33.75 38" fill="#fff"/><path d="M28,24H24.59V22.86H28V20.57H25.73a1.14,1.14,0,0,1-1.14-1.14V17.14A1.14,1.14,0,0,1,25.73,16h3.43v1.14H25.73v2.29H28a1.14,1.14,0,0,1,1.14,1.14v2.29A1.14,1.14,0,0,1,28,24Z" fill="#fff"/><path d="M22.33,16H20.05a1.14,1.14,0,0,0-1.14,1.14V24h1.14V21.14h2.28V24h1.15V17.14A1.14,1.14,0,0,0,22.33,16Zm-2.28,4V17.14h2.28V20Z" fill="#fff"/></svg>