<svg xmlns="http://www.w3.org/2000/svg" viewBox="0 0 64 60"><path d="M33.18,58.33l26-18.85a2,2,0,0,0,.73-2.24L49.94,6.73A2,2,0,0,0,48,5.35H16a2,2,0,0,0-1.9,1.38L4.14,37.24a2,2,0,0,0,.73,2.24l26,18.85A2,2,0,0,0,33.18,58.33Z" fill="#8c7300" fill-rule="evenodd"/><path d="M23,20.07H21v19a2,2,0,0,0,2,2H42v-2H23Z" fill="#fff"/><path d="M44.84,15.07H39.77l-2.47,3.2,5,5.73,5-5.73ZM42.3,21,39.88,18.2l.87-1.13h3.1l.87,1.13Z" fill="#fff"/><path d="M30,32.19V30a3,3,0,0,1,6,0v2.23a5,5,0,0,0,5,4.88v-2a2.94,2.94,0,0,1-3-2.88V30a5,5,0,0,0-10,0v2.23a3,3,0,0,1-3,2.88v2A5,5,0,0,0,30,32.19Z" fill="#fff"/></svg>