<?xml version="1.0" encoding="utf-8"?>
<!-- Generator: Adobe Illustrator 23.0.1, SVG Export Plug-In . SVG Version: 6.00 Build 0)  -->
<svg version="1.0" xmlns="http://www.w3.org/2000/svg" xmlns:xlink="http://www.w3.org/1999/xlink" x="0px" y="0px"
	 viewBox="0 0 32 32" enable-background="new 0 0 32 32" xml:space="preserve">
<g>
	<rect y="0" fill="#AC98F6" width="32" height="32"/>
	<g>
		<polygon fill="#EFEFEF" points="28,7.3 24.7,7.3 24.7,4 23,4 23,7.3 19.7,7.3 19.7,9 23,9 23,12.3 24.7,12.3 24.7,9 28,9 		"/>
		<path fill="#EFEFEF" d="M5.6,10H3.9v17.1c0,0.5,0.4,0.9,0.9,0.9h17.1v-1.7H5.6V10z"/>
		<path fill="#EFEFEF" d="M11.7,18.7v-1.9c0-1.4,1.2-2.5,2.6-2.5s2.6,1.1,2.6,2.5v1.9c0,2.3,1.9,4.2,4.3,4.2v-1.7
			c-1.4,0-2.6-1.1-2.6-2.5v-1.9c0-2.3-1.9-4.2-4.3-4.2S10,14.4,10,16.8v1.9c0,1.4-1.2,2.5-2.6,2.5v1.7C9.8,22.9,11.7,21,11.7,18.7z"
			/>
	</g>
</g>
</svg>
