<svg xmlns="http://www.w3.org/2000/svg" viewBox="0 0 64 60"><path d="M33.18.73l26,18.86a2,2,0,0,1,.73,2.23L49.94,52.33A2,2,0,0,1,48,53.71H16a2,2,0,0,1-1.9-1.38L4.14,21.82a2,2,0,0,1,.73-2.23L30.82.73A2,2,0,0,1,33.18.73Z" fill="#008985" fill-rule="evenodd"/><path d="M22.4,22h-2V41a2,2,0,0,0,2,2h19V41h-19Z" fill="#fff"/><path d="M44.22,17H39.16l-2.48,3.2,5,5.73,5-5.73Zm-2.53,5.89-2.42-2.77L40.14,19h3.1l.87,1.12Z" fill="#fff"/><path d="M29.4,34.12V31.88a3,3,0,0,1,6,0v2.24a5,5,0,0,0,5,4.88V37a3,3,0,0,1-3-2.88V31.88a5,5,0,0,0-10,0v2.24a2.94,2.94,0,0,1-3,2.88v2A5,5,0,0,0,29.4,34.12Z" fill="#fff"/></svg>