<svg data-name="Layer 1" xmlns="http://www.w3.org/2000/svg" viewBox="0 0 64 60"><path fill="#008985" d="M33.18.73l26,18.86a2,2,0,0,1,.73,2.23L49.94,52.33A2,2,0,0,1,48,53.71H16a2,2,0,0,1-1.9-1.38L4.14,21.82a2,2,0,0,1,.73-2.23L30.82.73A2,2,0,0,1,33.18.73Z"/><path fill="#fff" d="M36,30a4,4,0,1,0-4,4A4,4,0,0,0,36,30Zm-4,2a2,2,0,1,1,2-2A2,2,0,0,1,32,32Z"/><path fill="#fff" d="M26,30a4,4,0,1,0-4,4A4,4,0,0,0,26,30Zm-4,2a2,2,0,1,1,2-2A2,2,0,0,1,22,32Z"/><path fill="#fff" d="M42,26a4,4,0,1,0,4,4A4,4,0,0,0,42,26Zm0,6a2,2,0,1,1,2-2A2,2,0,0,1,42,32Z"/><path fill="#fff" d="M37,25a4,4,0,1,0-4-4A4,4,0,0,0,37,25Zm0-6a2,2,0,1,1-2,2A2,2,0,0,1,37,19Z"/><path fill="#fff" d="M27,25a4,4,0,1,0-4-4A4,4,0,0,0,27,25Zm0-6a2,2,0,1,1-2,2A2,2,0,0,1,27,19Z"/><path fill="#fff" d="M37,35a4,4,0,1,0,4,4A4,4,0,0,0,37,35Zm0,6a2,2,0,1,1,2-2A2,2,0,0,1,37,41Z"/><path fill="#fff" d="M27,35a4,4,0,1,0,4,4A4,4,0,0,0,27,35Zm0,6a2,2,0,1,1,2-2A2,2,0,0,1,27,41Z"/></svg>
