<svg xmlns="http://www.w3.org/2000/svg" viewBox="0 0 64 60"><path d="M33.18.73l26,18.86a2,2,0,0,1,.73,2.23L49.94,52.33A2,2,0,0,1,48,53.71H16a2,2,0,0,1-1.9-1.38L4.14,21.82a2,2,0,0,1,.73-2.23L30.82.73A2,2,0,0,1,33.18.73Z" fill="#008985" fill-rule="evenodd"/><path d="M41.66,35.86a4,4,0,1,0,4,4A4,4,0,0,0,41.66,35.86Zm0,6a2,2,0,1,1,2-2A2,2,0,0,1,41.66,41.86Z" fill="#fff"/><path d="M21.66,35.86a4,4,0,1,0,4,4A4,4,0,0,0,21.66,35.86Zm0,6a2,2,0,1,1,2-2A2,2,0,0,1,21.66,41.86Z" fill="#fff"/><path d="M31.66,35.86a4,4,0,1,0,4,4A4,4,0,0,0,31.66,35.86Zm0,6a2,2,0,1,1,2-2A2,2,0,0,1,31.66,41.86Z" fill="#fff"/><polygon points="26.95 32.9 28.37 34.31 31.66 31.02 34.95 34.31 36.37 32.9 31.66 28.19 26.95 32.9" fill="#fff"/><path d="M21.66,28.14h7v-5h6v5h7c1.68,0,3-1.06,3-2.43V18.57c0-1.36-1.32-2.43-3-2.43h-20c-1.68,0-3,1.07-3,2.43v7.14C18.66,27.08,20,28.14,21.66,28.14Zm5-2h-5c-.65,0-1-.32-1-.43V23.14h6Zm15,0h-5v-3h6v2.57C42.66,25.82,42.3,26.14,41.66,26.14Zm0-8c.64,0,1,.32,1,.43v2.57h-6v-3Zm-7,0v3h-6v-3Zm-13,0h5v3h-6V18.57C20.66,18.46,21,18.14,21.66,18.14Z" fill="#fff"/></svg>