<svg xmlns="http://www.w3.org/2000/svg" viewBox="0 0 64 60"><path d="M33.07.29,57.2,14.21a2.17,2.17,0,0,1,1.07,1.86V43.93a2.17,2.17,0,0,1-1.07,1.86L33.07,59.71a2.1,2.1,0,0,1-2.14,0L6.8,45.79a2.17,2.17,0,0,1-1.07-1.86V16.07A2.17,2.17,0,0,1,6.8,14.21L30.93.29A2.1,2.1,0,0,1,33.07.29Z" fill="#0072c3" fill-rule="evenodd"/><path d="M21.83,23l1.84-4.4L25.5,23Zm5.34,4h2.16L24.75,16H22.58L18,27h2.17L21,25h5.33ZM30,35V33H25V31H23v2H18v2h8.22A8.7,8.7,0,0,1,24,39a9.33,9.33,0,0,1-1.45-2H20.33a10.93,10.93,0,0,0,2.15,3.3A14.64,14.64,0,0,1,19,42.13L19.7,44A16.26,16.26,0,0,0,24,41.66,16.53,16.53,0,0,0,28.3,44l.7-1.87a14.64,14.64,0,0,1-3.48-1.83A10.33,10.33,0,0,0,28.25,35Zm4-10H46v2H34Zm0,4H46v2H34Zm0,4h6v2H34Z" fill="#fff" fill-rule="evenodd"/></svg>