<svg xmlns="http://www.w3.org/2000/svg" viewBox="0 0 64 60"><path d="M33.18.73l26,18.86a2,2,0,0,1,.73,2.23L49.94,52.33A2,2,0,0,1,48,53.71H16a2,2,0,0,1-1.9-1.38L4.14,21.82a2,2,0,0,1,.73-2.23L30.82.73A2,2,0,0,1,33.18.73Z" fill="#008985" fill-rule="evenodd"/><path d="M37,28H32.7V26.57H37V23.71H34.12a1.43,1.43,0,0,1-1.42-1.42V19.43A1.43,1.43,0,0,1,34.12,18h4.29v1.43H34.12v2.86H37a1.43,1.43,0,0,1,1.43,1.42v2.86A1.43,1.43,0,0,1,37,28Z" fill="#fff"/><path d="M29.88,18H27a1.43,1.43,0,0,0-1.43,1.43V28H27V24.43h2.86V28H31.3V19.43A1.43,1.43,0,0,0,29.88,18ZM27,23V19.43h2.86V23Z" fill="#fff"/><path d="M38.89,40.15a2.54,2.54,0,0,0-.83.15l-3.82-3.82a2.54,2.54,0,0,0,.15-.83,2.5,2.5,0,1,0-4.82.92l-3.74,3.74,0,0a2.45,2.45,0,0,0-1-.2,2.5,2.5,0,1,0,2.5,2.5,2.45,2.45,0,0,0-.2-1l.06,0L31,38a2.65,2.65,0,0,0,.89.17,2.45,2.45,0,0,0,1-.2l3.72,3.72a2.45,2.45,0,0,0-.2,1,2.5,2.5,0,1,0,2.5-2.5Z" fill="#fff"/></svg>