<svg xmlns="http://www.w3.org/2000/svg" viewBox="0 0 64 60"><path d="M33.18.73l26,18.86a2,2,0,0,1,.73,2.23L49.94,52.33A2,2,0,0,1,48,53.71H16a2,2,0,0,1-1.9-1.38L4.14,21.82a2,2,0,0,1,.73-2.23L30.82.73A2,2,0,0,1,33.18.73Z" fill="#008985" fill-rule="evenodd"/><rect x="30.75" y="13.03" width="2" height="33.94" transform="translate(-11.91 31.24) rotate(-45)" fill="#fff"/><path d="M37.25,30a4.05,4.05,0,1,0,2-3.43L31,18.29l-1.42,1.42L37.82,28A4,4,0,0,0,37.25,30Zm6,0a2,2,0,1,1-2-2A2,2,0,0,1,43.25,30Z" fill="#fff"/><path d="M26.75,30a4,4,0,1,0-2.3,3.61l8.09,8.1L34,40.29l-8-8A4,4,0,0,0,26.75,30Zm-6,0a2,2,0,1,1,2,2A2,2,0,0,1,20.75,30Z" fill="#fff"/></svg>