<svg xmlns="http://www.w3.org/2000/svg" viewBox="0 0 64 60"><path d="M33.07.29,57.2,14.21a2.17,2.17,0,0,1,1.07,1.86V43.93a2.17,2.17,0,0,1-1.07,1.86L33.07,59.71a2.1,2.1,0,0,1-2.14,0L6.8,45.79a2.17,2.17,0,0,1-1.07-1.86V16.07A2.17,2.17,0,0,1,6.8,14.21L30.93.29A2.1,2.1,0,0,1,33.07.29Z" fill="#0072c3" fill-rule="evenodd"/><path d="M39.7,23.25l6,6-6,6-1.41-1.41,3.58-3.59H32.63L19.72,43.16,18.3,41.75,30.08,30l1.66-1.72H41.87l-3.58-3.59ZM20.22,16.84l9.41,9.41-1.41,1.41L18.8,18.25Z" fill="#fff" fill-rule="evenodd"/></svg>