<svg xmlns="http://www.w3.org/2000/svg" viewBox="0 0 64 60"><path d="M33.18.73l26,18.86a2,2,0,0,1,.73,2.23L49.94,52.33A2,2,0,0,1,48,53.71H16a2,2,0,0,1-1.9-1.38L4.14,21.82a2,2,0,0,1,.73-2.23L30.82.73A2,2,0,0,1,33.18.73Z" fill="#008985" fill-rule="evenodd"/><polygon points="33.41 30 38.71 24.71 37.29 23.29 32 28.59 26.71 23.29 25.29 24.71 30.59 30 25.29 35.29 26.71 36.71 32 31.41 37.29 36.71 38.71 35.29 33.41 30" fill="#fff"/><rect x="28" y="39" width="8" height="2" fill="#fff"/><rect x="41" y="26" width="2" height="8" fill="#fff"/><circle cx="42" cy="40" r="4" fill="#fff"/><path d="M22,36a4,4,0,1,0,4,4A4,4,0,0,0,22,36Zm0,6a2,2,0,1,1,2-2A2,2,0,0,1,22,42Z" fill="#fff"/><path d="M42,24a4,4,0,1,0-4-4A4,4,0,0,0,42,24Zm0-6a2,2,0,1,1-2,2A2,2,0,0,1,42,18Z" fill="#fff"/><path d="M22,24a4,4,0,1,0-4-4A4,4,0,0,0,22,24Zm0-6a2,2,0,1,1-2,2A2,2,0,0,1,22,18Z" fill="#fff"/></svg>