<?xml version="1.0" encoding="utf-8"?>
<!-- Generator: Adobe Illustrator 23.0.1, SVG Export Plug-In . SVG Version: 6.00 Build 0)  -->
<svg version="1.0" xmlns="http://www.w3.org/2000/svg" xmlns:xlink="http://www.w3.org/1999/xlink" x="0px" y="0px"
	 viewBox="0 0 32 32" enable-background="new 0 0 32 32;" xml:space="preserve">
<g>
	<rect id="_x3C_Transparent_Rectangle_x3E__69_" fill="#FFAD00" width="32" height="32"/>
	<g>
		<path fill="#EFEFEF" d="M6.5,25.5v-21h-2v22c0,0.6,0.4,1,1,1h22v-2H6.5z"/>
		<path fill="#EFEFEF" d="M20.2,22.2c2.5,0,4.6-2.1,4.6-4.6S22.7,13,20.2,13s-4.6,2.1-4.6,4.6S17.7,22.2,20.2,22.2z M20.2,15
			c1.4,0,2.6,1.2,2.6,2.6c0,1.4-1.2,2.6-2.6,2.6c-1.4,0-2.6-1.2-2.6-2.6C17.6,16.2,18.8,15,20.2,15z"/>
		<path fill="#EFEFEF" d="M13,15c1.9,0,3.4-1.5,3.4-3.4c0-1.9-1.5-3.4-3.4-3.4s-3.4,1.5-3.4,3.4C9.6,13.5,11.1,15,13,15z M13,10.2
			c0.8,0,1.4,0.6,1.4,1.4c0,0.8-0.6,1.4-1.4,1.4s-1.4-0.6-1.4-1.4C11.6,10.8,12.2,10.2,13,10.2z"/>
		<polygon fill="#EFEFEF" points="22,4 22,10 26.2,7 		"/>
	</g>
</g>
</svg>
