<svg xmlns="http://www.w3.org/2000/svg" viewBox="0 0 64 60"><path d="M33.18.73l26,18.86a2,2,0,0,1,.73,2.23L49.94,52.33A2,2,0,0,1,48,53.71H16a2,2,0,0,1-1.9-1.38L4.14,21.82a2,2,0,0,1,.73-2.23L30.82.73A2,2,0,0,1,33.18.73Z" fill="#008985" fill-rule="evenodd"/><path d="M32,18.5A11.5,11.5,0,1,0,43.5,30,11.51,11.51,0,0,0,32,18.5Zm0,21A9.5,9.5,0,1,1,41.5,30,9.51,9.51,0,0,1,32,39.5Z" fill="#fff"/><path d="M30,23.75a4.5,4.5,0,1,0,4.5,4.5A4.51,4.51,0,0,0,30,23.75Zm0,7a2.5,2.5,0,1,1,2.5-2.5A2.5,2.5,0,0,1,30,30.75Z" fill="#fff"/><circle cx="32.5" cy="35.5" r="1.5" fill="#fff"/><circle cx="36.5" cy="33.5" r="1.5" fill="#fff"/><circle cx="37.5" cy="29.5" r="1.5" fill="#fff"/></svg>