<svg xmlns="http://www.w3.org/2000/svg" xmlns:xlink="http://www.w3.org/1999/xlink" viewBox="0 0 64 60">
<path d="M33.18.73l26,18.86a2,2,0,0,1,.73,2.23L49.94,52.33A2,2,0,0,1,48,53.71H16a2,2,0,0,1-1.9-1.38L4.14,21.82a2,2,0,0,1,.73-2.23L30.82.73A2,2,0,0,1,33.18.73Z" fill="#008985" fill-rule="evenodd"/>
<path d="M43.63,31.87A1.87,1.87,0,1,1,45.5,30,1.87,1.87,0,0,1,43.63,31.87Zm-11.2,0A1.87,1.87,0,1,1,34.3,30,1.87,1.87,0,0,1,32.43,31.87ZM25,41.2a1.87,1.87,0,1,1,1.87-1.87A1.87,1.87,0,0,1,25,41.2ZM23.1,20.67A1.87,1.87,0,1,1,25,22.53,1.87,1.87,0,0,1,23.1,20.67Zm20.53,5.6a3.71,3.71,0,0,0-3.6,2.8H36a3.69,3.69,0,0,0-5.12-2.47l-3-3.71a3.66,3.66,0,0,0,.76-2.22A3.74,3.74,0,1,0,25,24.4a3.66,3.66,0,0,0,1.53-.33l3,3.7a3.69,3.69,0,0,0,0,4.46l-3,3.7A3.66,3.66,0,0,0,25,35.6a3.74,3.74,0,1,0,3.74,3.73,3.66,3.66,0,0,0-.76-2.22l3-3.71A3.69,3.69,0,0,0,36,30.93h4a3.73,3.73,0,1,0,3.6-4.66Zm-22.4,5.6A1.87,1.87,0,1,0,19.36,30,1.87,1.87,0,0,0,21.23,31.87ZM37.1,22.53a1.87,1.87,0,1,0-1.87-1.86A1.87,1.87,0,0,0,37.1,22.53Zm0,18.67a1.87,1.87,0,1,0-1.87-1.87A1.87,1.87,0,0,0,37.1,41.2Z" fill="#fff" fill-rule="evenodd"/>
</svg>
