<svg xmlns="http://www.w3.org/2000/svg" viewBox="0 0 64 60"><path d="M33.18.73l26,18.86a2,2,0,0,1,.73,2.23L49.94,52.33A2,2,0,0,1,48,53.71H16a2,2,0,0,1-1.9-1.38L4.14,21.82a2,2,0,0,1,.73-2.23L30.82.73A2,2,0,0,1,33.18.73Z" fill="#008985" fill-rule="evenodd"/><rect x="22.32" y="14.93" width="2" height="14.14" transform="translate(-8.73 22.93) rotate(-45)" fill="#fff"/><rect x="38.32" y="30.93" width="2" height="14.14" transform="translate(-15.35 38.93) rotate(-45)" fill="#fff"/><path d="M30,36.71a1,1,0,0,0,0-1.42l-3.5-3.5a1,1,0,0,0-1.42,0l-1,1.05-4-4.05-1.42,1.42,4.05,4-1.05,1a1,1,0,0,0,0,1.42l3.5,3.5a1,1,0,0,0,.71.29,1,1,0,0,0,.71-.29l1-1.05,4,4.05L33,41.79l-4-4Zm-4.21,1.38L23.74,36l2.08-2.09L27.91,36Z" fill="#fff"/><path d="M33.32,24A4,4,0,0,0,39,27.61l4.09,4.1,1.42-1.42-4-4A4,4,0,0,0,35,20.76l-3.46-3.47-1.42,1.42,3.6,3.59A4,4,0,0,0,33.32,24Zm4-2a2,2,0,1,1-2,2A2,2,0,0,1,37.32,22Z" fill="#fff"/><circle cx="29.82" cy="31.5" r="1" fill="#fff"/><circle cx="32.82" cy="28.5" r="1" fill="#fff"/></svg>