<?xml version="1.0" encoding="utf-8"?>
<!-- Generator: Adobe Illustrator 23.1.1, SVG Export Plug-In . SVG Version: 6.00 Build 0)  -->
<svg version="1.0" xmlns="http://www.w3.org/2000/svg" xmlns:xlink="http://www.w3.org/1999/xlink" x="0px" y="0px"
	 viewBox="0 0 32 32" enable-background="new 0 0 32 32" xml:space="preserve">

<polygon points="28,19 14.8,19 17.4,16.4 16,15 11,20 16,25 17.4,23.6 14.8,21 28,21 "/>
<path d="M24,14v-4c0-0.3-0.1-0.5-0.3-0.7l-7-7C16.5,2.1,16.3,2,16,2H6C4.9,2,4,2.9,4,4v24c0,1.1,0.9,2,2,2h16c1.1,0,2-0.9,2-2v-2h-2
	v2H6V4h8v6c0,1.1,0.9,2,2,2h6v2H24z M16,10V4.4l5.6,5.6H16z"/>
</svg>
