<?xml version="1.0" encoding="utf-8"?>
<!-- Generator: Adobe Illustrator 23.1.1, SVG Export Plug-In . SVG Version: 6.00 Build 0)  -->
<svg version="1.0" xmlns="http://www.w3.org/2000/svg" xmlns:xlink="http://www.w3.org/1999/xlink" x="0px" y="0px"
	 viewBox="0 0 32 32" enable-background="new 0 0 32 32" xml:space="preserve">

<rect x="20" y="2" width="2" height="10"/>
<rect x="24" y="2" width="2" height="10"/>
<rect x="28" y="2" width="2" height="10"/>
<path d="M16,20c-2.2,0-4-1.7-4-3.8c0-0.1,0-0.1,0-0.2c0-2.2,1.7-4,3.8-4c0.1,0,0.1,0,0.2,0v-2c-3.3,0-6,2.7-6,6s2.7,6,6,6s6-2.7,6-6
	h-2c0,2.2-1.7,4-3.8,4C16.1,20,16.1,20,16,20z"/>
<path d="M28.9,18.5L26.1,16l-1.3,1.5l2.8,2.5L25.2,24l-3.4-1.2c-0.8,0.7-1.7,1.2-2.7,1.6L18.4,28h-4.7l-0.7-3.6
	c-1-0.4-1.9-0.9-2.7-1.6L6.8,24L4.4,20l2.7-2.4c-0.2-1-0.2-2.1,0-3.1L4.4,12L6.8,8l3.4,1.2c0.8-0.7,1.7-1.2,2.7-1.6L13.6,4H16V2
	h-2.4c-1,0-1.8,0.7-2,1.6l-0.5,2.5c-0.5,0.2-0.9,0.5-1.3,0.8L7.4,6.1C6.5,5.8,5.5,6.1,5.1,7L2.7,11c-0.5,0.8-0.3,1.9,0.4,2.5L5,15.2
	c0,0.3,0,0.5,0,0.8c0,0.3,0,0.5,0,0.8l-1.9,1.7c-0.7,0.6-0.9,1.7-0.4,2.5L5.1,25c0.5,0.8,1.5,1.2,2.4,0.9l2.4-0.8
	c0.4,0.3,0.9,0.5,1.3,0.8l0.5,2.5c0.2,0.9,1,1.6,2,1.6h4.7c1,0,1.8-0.7,2-1.6l0.5-2.5c0.5-0.2,0.9-0.5,1.3-0.8l2.4,0.8
	c0.9,0.3,1.9-0.1,2.4-0.9l2.4-4.1C29.8,20.1,29.6,19.1,28.9,18.5z"/>
</svg>
