<svg xmlns="http://www.w3.org/2000/svg" viewBox="0 0 64 60"><path d="M33.07.29,57.2,14.21a2.17,2.17,0,0,1,1.07,1.86V43.93a2.17,2.17,0,0,1-1.07,1.86L33.07,59.71a2.1,2.1,0,0,1-2.14,0L6.8,45.79a2.17,2.17,0,0,1-1.07-1.86V16.07A2.17,2.17,0,0,1,6.8,14.21L30.93.29A2.1,2.1,0,0,1,33.07.29Z" fill="#0072c3" fill-rule="evenodd"/><path d="M40,20H24v6H40Zm-2,4H26V22H38Z" fill="#fff"/><path d="M24,40H40V34H24Zm2-4H38v2H26Z" fill="#fff"/><circle cx="40" cy="30" r="1" fill="#fff"/><circle cx="36" cy="30" r="1" fill="#fff"/><circle cx="44" cy="30" r="1" fill="#fff"/><circle cx="28" cy="30" r="1" fill="#fff"/><circle cx="24" cy="30" r="1" fill="#fff"/><circle cx="20" cy="30" r="1" fill="#fff"/><circle cx="32" cy="30" r="1" fill="#fff"/></svg>