<svg xmlns="http://www.w3.org/2000/svg" viewBox="0 0 64 60"><path d="M32.18.73l26,18.86a2,2,0,0,1,.73,2.23L48.94,52.33A2,2,0,0,1,47,53.71H15a2,2,0,0,1-1.9-1.38L3.14,21.82a2,2,0,0,1,.73-2.23L29.82.73A2,2,0,0,1,32.18.73Z" fill="#008985" fill-rule="evenodd"/><path d="M39,24.29l-1.41,1.42L40.83,29H34V21a1,1,0,0,0-1-1H27.2a4,4,0,1,0,0,2H32v7H27.2a4,4,0,1,0,0,2H32v7H27.2a4,4,0,1,0,0,2H33a1,1,0,0,0,1-1V31h6.82l-3.29,3.29L39,35.71,44.66,30ZM23.34,23a2,2,0,1,1,2-2A2,2,0,0,1,23.34,23Zm0,9a2,2,0,1,1,2-2A2,2,0,0,1,23.34,32Zm0,9a2,2,0,1,1,2-2A2,2,0,0,1,23.34,41Z" fill="#fff"/><rect x="13.26" y="16.93" width="431" height="358" fill="none"/></svg>