<svg xmlns="http://www.w3.org/2000/svg" viewBox="0 0 64 60"><rect x="6" y="4" width="52" height="52" rx="2" fill="#198038"/><path d="M26.06,31.88A4.25,4.25,0,0,0,27,32a4,4,0,0,0,2.23-.68l3.22,2.87a3.86,3.86,0,0,0-.2,3.17A4,4,0,1,0,38.62,33l2.54-5.09a3.79,3.79,0,0,0,2.91-.53A4,4,0,1,0,39.38,27l-2.54,5.09a4,4,0,0,0-3.07.59l-3.22-2.87a3.86,3.86,0,0,0,.2-3.17,4,4,0,1,0-6.45,4.29L20,39V16H18V42a2,2,0,0,0,2,2H46V42H20.67ZM42,22a2,2,0,1,1-2,2A2,2,0,0,1,42,22ZM38,36a2,2,0,1,1-2-2A2,2,0,0,1,38,36ZM27,26a2,2,0,1,1-2,2A2,2,0,0,1,27,26Z" fill="#fff" fill-rule="evenodd"/></svg>