<svg xmlns="http://www.w3.org/2000/svg" viewBox="0 0 64 60"><path d="M33.18.73l26,18.86a2,2,0,0,1,.73,2.23L49.94,52.33A2,2,0,0,1,48,53.71H16a2,2,0,0,1-1.9-1.38L4.14,21.82a2,2,0,0,1,.73-2.23L30.82.73A2,2,0,0,1,33.18.73Z" fill="#008985" fill-rule="evenodd"/><polygon points="34.71 20.33 34.71 19.02 29.37 19.02 29.37 28.33 34.71 28.33 34.71 27 30.71 27 30.71 24.33 34.04 24.33 34.04 23 30.71 23 30.71 20.33 34.71 20.33" fill="#fff"/><path d="M20,19H17.29A1.34,1.34,0,0,0,16,20.33V27a1.33,1.33,0,0,0,1.33,1.33H18v1.34A1.34,1.34,0,0,0,19.29,31h1.33V29.67H19.29V28.33H20A1.33,1.33,0,0,0,21.29,27V20.33A1.34,1.34,0,0,0,20,19Zm-2.67,8V20.33H20V27Z" fill="#fff"/><path d="M40,28.33H36V27h4V24.33H37.37A1.33,1.33,0,0,1,36,23V20.33A1.34,1.34,0,0,1,37.37,19h4v1.33h-4V23H40a1.33,1.33,0,0,1,1.33,1.33V27A1.32,1.32,0,0,1,40,28.33Z" fill="#fff"/><polygon points="42.71 20.33 44.71 20.33 44.71 28.33 46.04 28.33 46.04 20.33 48.04 20.33 48.04 19 42.71 19 42.71 20.33" fill="#fff"/><path d="M26.71,28.33H24A1.32,1.32,0,0,1,22.71,27V19H24v8h2.67V19H28v8A1.33,1.33,0,0,1,26.71,28.33Z" fill="#fff"/><path d="M38.89,40.15a2.54,2.54,0,0,0-.83.15l-3.82-3.82a2.54,2.54,0,0,0,.15-.83,2.5,2.5,0,1,0-4.82.92l-3.74,3.74,0,0a2.45,2.45,0,0,0-1-.2,2.5,2.5,0,1,0,2.5,2.5,2.45,2.45,0,0,0-.2-1l.06,0L31,38a2.65,2.65,0,0,0,.89.17,2.45,2.45,0,0,0,1-.2l3.72,3.72a2.45,2.45,0,0,0-.2,1,2.5,2.5,0,1,0,2.5-2.5Z" fill="#fff"/></svg>