<svg xmlns="http://www.w3.org/2000/svg" viewBox="0 0 64 60"><path d="M33.18.73l26,18.86a2,2,0,0,1,.73,2.23L49.94,52.33A2,2,0,0,1,48,53.71H16a2,2,0,0,1-1.9-1.38L4.14,21.82a2,2,0,0,1,.73-2.23L30.82.73A2,2,0,0,1,33.18.73Z" fill="#008985" fill-rule="evenodd"/><polygon points="28.72 22.15 30.14 23.56 32.43 21.27 34.72 23.56 36.14 22.15 32.43 18.44 28.72 22.15" fill="#fff"/><polygon points="28.72 27.15 30.14 28.56 32.43 26.27 34.72 28.56 36.14 27.15 32.43 23.44 28.72 27.15" fill="#fff"/><polygon points="40.93 34.27 43.22 36.56 44.64 35.15 40.93 31.44 37.22 35.15 38.64 36.56 40.93 34.27" fill="#fff"/><polygon points="37.22 40.15 38.64 41.56 40.93 39.27 43.22 41.56 44.64 40.15 40.93 36.44 37.22 40.15" fill="#fff"/><polygon points="20.22 35.15 21.64 36.56 23.93 34.27 26.22 36.56 27.64 35.15 23.93 31.44 20.22 35.15" fill="#fff"/><polygon points="20.22 40.15 21.64 41.56 23.93 39.27 26.22 41.56 27.64 40.15 23.93 36.44 20.22 40.15" fill="#fff"/></svg>