<svg xmlns="http://www.w3.org/2000/svg" viewBox="0 0 64 60"><path d="M33.18.73l26,18.86a2,2,0,0,1,.73,2.23L49.94,52.33A2,2,0,0,1,48,53.71H16a2,2,0,0,1-1.9-1.38L4.14,21.82a2,2,0,0,1,.73-2.23L30.82.73A2,2,0,0,1,33.18.73Z" fill="#008985" fill-rule="evenodd"/><path d="M41,36a4,4,0,0,0-2,.57L34.43,32A4,4,0,0,0,35,30a3.87,3.87,0,0,0-.27-1.4l3.94-2.28-.09-.16A3.92,3.92,0,0,0,41,27a4,4,0,1,0-4-4,4,4,0,0,0,.41,1.74L33.57,27A3.94,3.94,0,0,0,32,26.14V23.86a4,4,0,1,0-2,0v2.28A4,4,0,0,0,27,30a4.44,4.44,0,0,0,.11.91l-2.93,1.7A4,4,0,1,0,25,35a4.75,4.75,0,0,0-.05-.53l3.1-1.79a3.92,3.92,0,0,0,5,.75L37.57,38A4,4,0,1,0,41,36ZM21,37a2,2,0,1,1,1.61-3.18l.24.41A2.2,2.2,0,0,1,23,35,2,2,0,0,1,21,37ZM41,21a2,2,0,1,1-2,2A2,2,0,0,1,41,21ZM29,20a2,2,0,1,1,2,2A2,2,0,0,1,29,20Zm0,10a2,2,0,1,1,2,2A2,2,0,0,1,29,30ZM41,42a2,2,0,1,1,2-2A2,2,0,0,1,41,42Z" fill="#fff"/><rect x="-155.84" y="16.93" width="431" height="358" fill="none"/></svg>