<svg xmlns="http://www.w3.org/2000/svg" viewBox="0 0 64 60"><path d="M33.07.29,57.2,14.21a2.17,2.17,0,0,1,1.07,1.86V43.93a2.17,2.17,0,0,1-1.07,1.86L33.07,59.71a2.1,2.1,0,0,1-2.14,0L6.8,45.79a2.17,2.17,0,0,1-1.07-1.86V16.07A2.17,2.17,0,0,1,6.8,14.21L30.93.29A2.1,2.1,0,0,1,33.07.29Z" fill="#0072c3" fill-rule="evenodd"/><path d="M22,26a4,4,0,1,0,4,4A4,4,0,0,0,22,26Zm0,6a2,2,0,1,1,2-2A2,2,0,0,1,22,32Z" fill="#fff"/><path d="M45,26H39a1,1,0,0,0-1,1v6a1,1,0,0,0,1,1h6a1,1,0,0,0,1-1V27A1,1,0,0,0,45,26Zm-1,6H40V28h4Z" fill="#fff"/><polygon points="31.6 27.5 33.1 29 28 29 28 31 33.1 31 31.6 32.5 33.02 33.91 36.93 30 33.02 26.09 31.6 27.5" fill="#fff"/></svg>