<svg xmlns="http://www.w3.org/2000/svg" viewBox="0 0 64 60"><path d="M33.18.73l26,18.86a2,2,0,0,1,.73,2.23L49.94,52.33A2,2,0,0,1,48,53.71H16a2,2,0,0,1-1.9-1.38L4.14,21.82a2,2,0,0,1,.73-2.23L30.82.73A2,2,0,0,1,33.18.73Z" fill="#008985" fill-rule="evenodd"/><path d="M22,40V18H20V40a2,2,0,0,0,2,2H44V40Z" fill="#fff"/><rect x="32.42" y="21.45" width="2" height="16.1" transform="translate(-8.84 43.69) rotate(-60)" fill="#fff"/><circle cx="27.5" cy="32.5" r="1.5" fill="#fff"/><circle cx="41.5" cy="27.5" r="1.5" fill="#fff"/><path d="M36.35,25.74a1.5,1.5,0,1,0-2.09-.39A1.51,1.51,0,0,0,36.35,25.74Z" fill="#fff"/></svg>