<svg xmlns="http://www.w3.org/2000/svg" viewBox="0 0 64 60"><path d="M33.07.29,57.2,14.21a2.17,2.17,0,0,1,1.07,1.86V43.93a2.17,2.17,0,0,1-1.07,1.86L33.07,59.71a2.1,2.1,0,0,1-2.14,0L6.8,45.79a2.17,2.17,0,0,1-1.07-1.86V16.07A2.17,2.17,0,0,1,6.8,14.21L30.93.29A2.1,2.1,0,0,1,33.07.29Z" fill="#0072c3" fill-rule="evenodd"/><path d="M32,16A14,14,0,1,0,46,30,14,14,0,0,0,32,16ZM20,30a12,12,0,0,1,4-8.92V23a2,2,0,0,0,2,2h3.38a2,2,0,0,0,1.79-1.11l.45-.89H34v4H29.23a2,2,0,0,0-.89.21L25.1,28.83A2,2,0,0,0,24,30.62v3.7a2,2,0,0,0,1.26,1.86l3.85,1.54.67,4.06A12,12,0,0,1,20,30ZM31.85,42l-1-5.71-4.89-2v-3.7L29.24,29H36V21H30.38l-1,2H26V19.62A12,12,0,0,1,43.3,26H38v4l.92,3.81L37,36.7v4.2A12,12,0,0,1,32,42ZM39,39.73V37.3l1.59-2.38a2,2,0,0,0,.27-1.59L40,29.88V28h3.82A11.85,11.85,0,0,1,39,39.73Z" fill="#fff" fill-rule="evenodd"/></svg>