<svg xmlns="http://www.w3.org/2000/svg" viewBox="0 0 64 60"><path d="M33.07.29,57.2,14.21a2.17,2.17,0,0,1,1.07,1.86V43.93a2.17,2.17,0,0,1-1.07,1.86L33.07,59.71a2.1,2.1,0,0,1-2.14,0L6.8,45.79a2.17,2.17,0,0,1-1.07-1.86V16.07A2.17,2.17,0,0,1,6.8,14.21L30.93.29A2.1,2.1,0,0,1,33.07.29Z" fill="#0072c3" fill-rule="evenodd"/><path d="M30.49,21v8h9.94l-2-1.94,1-1,4,3.95v0l-4,3.95-1-1,2-1.94H30.49v8h9.94l-2-1.94,1-1,4,3.95v0l-4,3.95-1-1,2-1.94H30.49a2,2,0,0,1-2-2h0V21h-8V19H40.43l-2-1.94,1-1,4,3.95v0l-4,3.95-1-1,2-1.94Z" fill="#fff"/></svg>