<svg xmlns="http://www.w3.org/2000/svg" viewBox="0 0 64 60"><path d="M33.07.29,57.2,14.21a2.17,2.17,0,0,1,1.07,1.86V43.93a2.17,2.17,0,0,1-1.07,1.86L33.07,59.71a2.1,2.1,0,0,1-2.14,0L6.8,45.79a2.17,2.17,0,0,1-1.07-1.86V16.07A2.17,2.17,0,0,1,6.8,14.21L30.93.29A2.1,2.1,0,0,1,33.07.29Z" fill="#0072c3" fill-rule="evenodd"/><path d="M27.65,37.84a2.76,2.76,0,0,1,2.72,2.8V42.5H28.56V40.64a.93.93,0,0,0-.91-.94H22.22a.93.93,0,0,0-.91.94V42.5H19.5V40.64a2.76,2.76,0,0,1,2.72-2.8Zm14.86-7.3v1.55c-.08,4.2-4.09,7.53-8.67,7.46h0V37.39h.26a6.27,6.27,0,0,0,4.23-1.53,5.24,5.24,0,0,0,1.81-3.81h0l0-1.51ZM24.93,29.46a3.73,3.73,0,1,1-3.62,3.72A3.68,3.68,0,0,1,24.93,29.46Zm0,1.86a1.87,1.87,0,1,0,1.82,1.86A1.83,1.83,0,0,0,24.93,31.32Zm4.43-13.59h.91V19.9h-.68a5.72,5.72,0,0,0-6,5.34h0v2.14H21.15l0-2.18c.08-4.2,3.86-7.54,8.45-7.47ZM43.1,17.5,44.5,19,37.62,26.2l-4-4.15L35,20.58l2.58,2.69Z" fill="#fff"/></svg>