<svg xmlns="http://www.w3.org/2000/svg" viewBox="0 0 64 60"><path d="M33.07.29,57.2,14.21a2.17,2.17,0,0,1,1.07,1.86V43.93a2.17,2.17,0,0,1-1.07,1.86L33.07,59.71a2.1,2.1,0,0,1-2.14,0L6.8,45.79a2.17,2.17,0,0,1-1.07-1.86V16.07A2.17,2.17,0,0,1,6.8,14.21L30.93.29A2.1,2.1,0,0,1,33.07.29Z" fill="#0072c3" fill-rule="evenodd"/><path d="M25.17,36H20.6V46h1.53V41.71h1.12L25,46h1.66l-1.77-4.29h.25a1.47,1.47,0,0,0,1.52-1.42V37.43A1.48,1.48,0,0,0,25.17,36Zm0,4.29h-3V37.43h3Z" fill="#fff"/><polygon points="28.97 46 30.49 46 30.49 41.71 34.29 41.71 34.29 40.29 30.49 40.29 30.49 37.43 35.05 37.43 35.05 36 28.97 36 28.97 46" fill="#fff"/><polygon points="40.74 39.57 40.37 40.99 40.02 39.57 38.85 36 37.33 36 37.33 46 38.85 46 38.85 40.29 38.73 38.86 39.17 40.29 40.37 43.59 41.57 40.29 42.01 38.86 41.89 40.29 41.89 46 43.41 46 43.41 36 41.89 36 40.74 39.57" fill="#fff"/><path d="M31,30V25h9.15l-3.58,3.59L38,30l6-6-6-6-1.41,1.41L40.16,23H31V18a1.84,1.84,0,0,0-1.67-2H20v2h9v5H20v2h9v5H20v2h9.33A1.84,1.84,0,0,0,31,30Z" fill="#fff"/></svg>