<svg xmlns="http://www.w3.org/2000/svg" viewBox="0 0 64 60"><path d="M33.07.29,57.2,14.21a2.17,2.17,0,0,1,1.07,1.86V43.93a2.17,2.17,0,0,1-1.07,1.86L33.07,59.71a2.1,2.1,0,0,1-2.14,0L6.8,45.79a2.17,2.17,0,0,1-1.07-1.86V16.07A2.17,2.17,0,0,1,6.8,14.21L30.93.29A2.1,2.1,0,0,1,33.07.29Z" fill="#0072c3" fill-rule="evenodd"/><path d="M46,31V29H43a2,2,0,0,0-2,2v7a2,2,0,0,0,2,2h3V38H43V31Z" fill="#fff"/><path d="M36.5,27h-9a2,2,0,0,0-2,2v9a2,2,0,0,0,2,2h9a2,2,0,0,0,2-2V29A2,2,0,0,0,36.5,27Zm0,11h-9V29h9Z" fill="#fff"/><path d="M21,29H18v2h3v7H18v2h3a2,2,0,0,0,2-2V31A2,2,0,0,0,21,29Z" fill="#fff"/><rect x="23.5" y="18.23" width="2" height="6" transform="translate(-7.33 15.09) rotate(-29.99)" fill="#fff"/><rect x="36.5" y="20.23" width="6" height="2" transform="translate(1.36 44.82) rotate(-60)" fill="#fff"/><rect x="31" y="16" width="2" height="6" fill="#fff"/></svg>