<svg xmlns="http://www.w3.org/2000/svg" viewBox="0 0 64 60"><path d="M33.07.29,57.2,14.21a2.17,2.17,0,0,1,1.07,1.86V43.93a2.17,2.17,0,0,1-1.07,1.86L33.07,59.71a2.1,2.1,0,0,1-2.14,0L6.8,45.79a2.17,2.17,0,0,1-1.07-1.86V16.07A2.17,2.17,0,0,1,6.8,14.21L30.93.29A2.1,2.1,0,0,1,33.07.29Z" fill="#0072c3" fill-rule="evenodd"/><path d="M31.76,16a14,14,0,1,0,10,3.93A14,14,0,0,0,31.76,16Zm.45,26A12,12,0,1,1,44,29.79,12,12,0,0,1,32.21,42Zm-.05-3a1.5,1.5,0,1,0-1.53-1.47A1.5,1.5,0,0,0,32.16,39Zm.7-17-1.5,0a4.49,4.49,0,0,0-4.42,4.58v.5l2,0v-.5A2.49,2.49,0,0,1,31.4,24l1.5,0A2.5,2.5,0,1,1,33,29l-2,0,.08,4.5,2,0L33,31a4.5,4.5,0,1,0-.16-9Z" fill="#fff" fill-rule="evenodd"/></svg>