<svg xmlns="http://www.w3.org/2000/svg" viewBox="0 0 64 60"><path d="M33.18.73l26,18.86a2,2,0,0,1,.73,2.23L49.94,52.33A2,2,0,0,1,48,53.71H16a2,2,0,0,1-1.9-1.38L4.14,21.82a2,2,0,0,1,.73-2.23L30.82.73A2,2,0,0,1,33.18.73Z" fill="#008985" fill-rule="evenodd"/><rect x="18.5" y="27" width="4" height="2" fill="#fff"/><rect x="18.5" y="23" width="4" height="2" fill="#fff"/><path d="M25.83,29h4a1,1,0,0,0,1-1V24a1,1,0,0,0-1-1h-4a1,1,0,0,0-1,1v4A1,1,0,0,0,25.83,29Zm1-4h2v2h-2Z" fill="#fff"/><rect x="33.17" y="23" width="4" height="2" fill="#fff"/><rect x="33.17" y="27" width="4" height="2" fill="#fff"/><path d="M44.5,23h-4a1,1,0,0,0-1,1v4a1,1,0,0,0,1,1h4a1,1,0,0,0,1-1V24A1,1,0,0,0,44.5,23Zm-1,4h-2V25h2Z" fill="#fff"/><path d="M41.5,35H36V32H34v3H28.5V32h-2v3h-5V32h-2v4a1,1,0,0,0,1,1h22a1,1,0,0,0,1-1V32h-2Z" fill="#fff"/></svg>