<svg xmlns="http://www.w3.org/2000/svg" viewBox="0 0 64 60"><path d="M33.07.29,57.2,14.21a2.17,2.17,0,0,1,1.07,1.86V43.93a2.17,2.17,0,0,1-1.07,1.86L33.07,59.71a2.1,2.1,0,0,1-2.14,0L6.8,45.79a2.17,2.17,0,0,1-1.07-1.86V16.07A2.17,2.17,0,0,1,6.8,14.21L30.93.29A2.1,2.1,0,0,1,33.07.29Z" fill="#0072c3" fill-rule="evenodd"/><path d="M37.72,36.29l1.88,1.88H34.37v-8h5.47l-2.12,2.12,1.41,1.42,4.42-4.42-4.42-4.41-1.41,1.41,1.88,1.88H34.37v-10a1.94,1.94,0,0,0-2-1.88H20.45l4.5,4.5-4.5,4.5H32.37V38.17a2,2,0,0,0,2,2h5.47l-2.12,2.12,1.41,1.42,4.42-4.42-4.42-4.41Zm-12.44-18h7.09v5H25.28l2.5-2.5Z" fill="#fff"/></svg>