<svg xmlns="http://www.w3.org/2000/svg" viewBox="0 0 64 60"><circle cx="32" cy="30" r="28" fill="#9855d4"/><path d="M28,26h5v4h2V26h5v2h2V19a2,2,0,0,0-2-2H21a2,2,0,0,0-2,2V37a2,2,0,0,0,2,2h7V37h0Zm0-2V19h5v5Zm12,0H35V19h5ZM26,19v5H21V19Zm-5,7h5V37H21Z" fill="#fff"/><path d="M43.58,36.2,45,35l-1.22-2-1.8.56a4.72,4.72,0,0,0-1.39-.77L40.22,31H37.78l-.37,1.8a5.24,5.24,0,0,0-1.41.78L34.22,33,33,35l1.42,1.24a4,4,0,0,0,0,1.55L33,39l1.22,2L36,40.45a4.9,4.9,0,0,0,1.4.77L37.78,43h2.44l.37-1.81a4.58,4.58,0,0,0,1.4-.78l1.79.58L45,39l-1.42-1.24A4,4,0,0,0,43.58,36.2Zm-4.52,3.6h-.12a2.78,2.78,0,1,1,0-5.56h.12a2.78,2.78,0,1,1,0,5.56Z" fill="#fff"/></svg>