<svg xmlns="http://www.w3.org/2000/svg" viewBox="0 0 64 60"><path d="M33.18.73l26,18.86a2,2,0,0,1,.73,2.23L49.94,52.33A2,2,0,0,1,48,53.71H16a2,2,0,0,1-1.9-1.38L4.14,21.82a2,2,0,0,1,.73-2.23L30.82.73A2,2,0,0,1,33.18.73Z" fill="#008985" fill-rule="evenodd"/><path d="M39.44,27.62a.94.94,0,0,0,.48-.13,1,1,0,1,0-.48.13Z" fill="#fff"/><path d="M29.47,23.2a1,1,0,1,0-.26,0A.75.75,0,0,0,29.47,23.2Z" fill="#fff"/><path d="M37.41,22.83a1,1,0,1,0,.22,1.4A1,1,0,0,0,37.41,22.83Z" fill="#fff"/><path d="M33.17,23.08a1,1,0,1,0-.18,0Z" fill="#fff"/><path d="M33.61,36.66a1,1,0,0,0,.26,2l.26,0a1,1,0,0,0-.52-1.93Z" fill="#fff"/><path d="M23.16,32.36a1,1,0,0,0,.48,1.88,1.07,1.07,0,0,0,.48-.12,1,1,0,1,0-1-1.76Z" fill="#fff"/><path d="M25.45,35.63a1,1,0,0,0,.22,1.4,1,1,0,0,0,.59.19,1,1,0,0,0,.59-1.81A1,1,0,0,0,25.45,35.63Z" fill="#fff"/><path d="M30.09,36.8a1,1,0,1,0-.37,2l.18,0a1,1,0,0,0,.19-2Z" fill="#fff"/><path d="M44.54,30.93h-6a1,1,0,0,0-1,1v6a1,1,0,0,0,1,1h6a1,1,0,0,0,1-1v-6A1,1,0,0,0,44.54,30.93Zm-1,6h-4v-4h4Z" fill="#fff"/><path d="M26.46,25.43a4,4,0,1,0-4,4A4,4,0,0,0,26.46,25.43Zm-4,2a2,2,0,1,1,2-2A2,2,0,0,1,22.46,27.43Z" fill="#fff"/></svg>