<svg xmlns="http://www.w3.org/2000/svg" viewBox="0 0 64 60"><path d="M33.07.29,57.2,14.21a2.17,2.17,0,0,1,1.07,1.86V43.93a2.17,2.17,0,0,1-1.07,1.86L33.07,59.71a2.1,2.1,0,0,1-2.14,0L6.8,45.79a2.17,2.17,0,0,1-1.07-1.86V16.07A2.17,2.17,0,0,1,6.8,14.21L30.93.29A2.1,2.1,0,0,1,33.07.29Z" fill="#0072c3" fill-rule="evenodd"/><path d="M44.5,28.59,41,25.13h0L39,23,33.41,17.5a2,2,0,0,0-2.82,0L25,23,23,25.13h0L19.5,28.59a2,2,0,0,0,0,2.82L23,34.87h0L25,37l5.55,5.54a2,2,0,0,0,2.82,0L39,37,41,34.87h0l3.46-3.46A2,2,0,0,0,44.5,28.59Zm-7,7-1.37,1.38-2.76-2.75,2.76-2.76,2.75,2.76ZM32,32.75,29.25,30,32,27.25,34.75,30Zm-5.54,2.79-1.38-1.37,2.75-2.76,2.76,2.76-2.76,2.75Zm1.37-12.46,2.76,2.75-2.76,2.76-2.75-2.76Zm5.58,2.75,2.76-2.75,1.37,1.38,1.38,1.37-2.75,2.76ZM32,18.91l2.75,2.76L32,24.42l-2.75-2.75Zm-8.33,8.34L26.42,30l-2.75,2.75L20.91,30ZM32,41.09l-2.75-2.76L32,35.58l2.75,2.75Zm8.33-8.34L37.58,30l2.75-2.75L43.09,30Z" fill="#fff"/></svg>