<svg xmlns="http://www.w3.org/2000/svg" viewBox="0 0 64 60"><path d="M33.07.29,57.2,14.21a2.17,2.17,0,0,1,1.07,1.86V43.93a2.17,2.17,0,0,1-1.07,1.86L33.07,59.71a2.1,2.1,0,0,1-2.14,0L6.8,45.79a2.17,2.17,0,0,1-1.07-1.86V16.07A2.17,2.17,0,0,1,6.8,14.21L30.93.29A2.1,2.1,0,0,1,33.07.29Z" fill="#0072c3" fill-rule="evenodd"/><polygon points="27 36.15 27 16 25 16 25 36.15 21.41 32.57 20 33.98 26 39.98 32 33.98 30.59 32.57 27 36.15" fill="#fff"/><rect x="20" y="42" width="12" height="2" fill="#fff"/><polygon points="32 26.02 33.41 27.43 37 23.85 37 44 39 44 39 23.85 42.59 27.43 44 26.02 38 20.02 32 26.02" fill="#fff"/><rect x="32" y="16" width="12" height="2" fill="#fff"/></svg>