<?xml version="1.0" encoding="utf-8"?>
<!-- Generator: Adobe Illustrator 23.0.1, SVG Export Plug-In . SVG Version: 6.00 Build 0)  -->
<svg version="1.0"
	 id="svg2" xmlns:cc="http://creativecommons.org/ns#" xmlns:dc="http://purl.org/dc/elements/1.1/" xmlns:inkscape="http://www.inkscape.org/namespaces/inkscape" xmlns:rdf="http://www.w3.org/1999/02/22-rdf-syntax-ns#" xmlns:sodipodi="http://sodipodi.sourceforge.net/DTD/sodipodi-0.dtd" xmlns:svg="http://www.w3.org/2000/svg"
	 xmlns="http://www.w3.org/2000/svg" xmlns:xlink="http://www.w3.org/1999/xlink" x="0px" y="0px" viewBox="0 0 64 64"
	 enable-background="new 0 0 64 64" xml:space="preserve">
<sodipodi:namedview  bordercolor="#666666" borderopacity="1" gridtolerance="10" guidetolerance="10" id="namedview6" inkscape:current-layer="svg2" inkscape:cx="32" inkscape:cy="32" inkscape:pageopacity="0" inkscape:pageshadow="2" inkscape:window-height="750" inkscape:window-maximized="0" inkscape:window-width="1126" inkscape:window-x="364" inkscape:window-y="202" inkscape:zoom="3.6875" objecttolerance="10" pagecolor="#ffffff" showgrid="false">
	</sodipodi:namedview>
<path id="path4" d="M62,26l-22-2L32,2l-8,22L2,26l18,14l-6,22l18-14l18,14l-6-22L62,26z M46.5,56.7L33.2,46.4l-1.2-1l-1.2,1
	L17.5,56.7l4.4-16.2l0.4-1.3l-1.1-0.8l-14-10.9l17-1.5l1.3-0.1l0.4-1.2L32,7.9l6.1,16.8l0.4,1.2l1.3,0.1l17,1.5l-14,10.9l-1.1,0.8
	l0.3,1.3C42.1,40.5,46.5,56.7,46.5,56.7z"/>
<path id="path4138" inkscape:connector-curvature="0" fill="#FFFFB5" stroke="#000000" stroke-width="0.2712" d="M17.9,55.9
	c1.7-5.6,4.5-16.8,4.3-16.9C21.4,38.5,7.8,27.7,7.8,27.7c0,0,3.7-0.4,8.1-0.8s8.4-0.8,8.8-0.8l0.8-0.1l3.2-8.8
	c1.8-4.9,3.3-8.7,3.3-8.5c0.7,2,6.3,17.2,6.4,17.3c0.1,0.1,4,0.5,8.6,0.9c4.7,0.4,8.7,0.8,8.9,0.9c0.3,0.1-12.2,10.1-14.2,11.4
	c-0.2,0.1,0.6,3.2,2,8.4c1.2,4.5,2.2,8.3,2.1,8.4c0,0.1-3.2-2.1-7-5.1c-6.1-4.7-6.9-5.3-7.4-5c-0.4,0.3-6.3,4.8-12.8,9.9
	C17.9,56.3,17.7,56.3,17.9,55.9z"/>
</svg>
