<svg xmlns="http://www.w3.org/2000/svg" viewBox="0 0 64 60"><path d="M33.07.29,57.2,14.21a2.17,2.17,0,0,1,1.07,1.86V43.93a2.17,2.17,0,0,1-1.07,1.86L33.07,59.71a2.1,2.1,0,0,1-2.14,0L6.8,45.79a2.17,2.17,0,0,1-1.07-1.86V16.07A2.17,2.17,0,0,1,6.8,14.21L30.93.29A2.1,2.1,0,0,1,33.07.29Z" fill="#0072c3" fill-rule="evenodd"/><path d="M32,23.47a2.8,2.8,0,1,1-2.8,2.8,2.8,2.8,0,0,1,2.8-2.8Zm0-1.87a4.67,4.67,0,1,0,4.67,4.67A4.67,4.67,0,0,0,32,21.6Zm0-3.73A8.29,8.29,0,0,1,40.4,26a7.92,7.92,0,0,1-1.67,4.86L32,40.7l-6.67-9.77A7.89,7.89,0,0,1,23.6,26,8.29,8.29,0,0,1,32,17.87ZM32,16A10.15,10.15,0,0,0,21.73,26a9.88,9.88,0,0,0,2.06,6L32,44l8.21-12a9.88,9.88,0,0,0,2.06-6A10.15,10.15,0,0,0,32,16Z" fill="#fff" fill-rule="evenodd"/></svg>