<?xml version="1.0" encoding="utf-8"?>
<!-- Generator: Adobe Illustrator 23.0.1, SVG Export Plug-In . SVG Version: 6.00 Build 0)  -->
<svg version="1.0" xmlns="http://www.w3.org/2000/svg" xmlns:xlink="http://www.w3.org/1999/xlink" x="0px" y="0px"
	 viewBox="0 0 26 26" enable-background="new 0 0 26 26" xml:space="preserve">
<g>
	<g>
		<rect fill="#174E56" width="26" height="26"/>
		<rect x="6.5" y="5.7" fill="#F3F3F3" width="13.4" height="12.5"/>
		<rect x="5.1" y="19.3" fill="#F3F3F3" width="16" height="2.3"/>

			<rect x="11.9" y="8.7" transform="matrix(1 -1.047155e-03 1.047155e-03 1 -1.306337e-02 1.366837e-02)" fill="#174E56" width="2.2" height="7.6"/>

			<rect x="15.7" y="11.4" transform="matrix(1 -1.047155e-03 1.047155e-03 1 -1.445253e-02 1.768073e-02)" fill="#174E56" width="2.3" height="4.9"/>
		<rect x="8.3" y="13.3" fill="#174E56" width="2.2" height="2.9"/>
		<circle fill="#F3F3F3" cx="18.9" cy="18.6" r="3.5"/>
		<path fill="#174E56" d="M18.9,15.6c1.7,0,3,1.3,3,3s-1.3,3-3,3s-3-1.3-3-3S17.3,15.6,18.9,15.6 M18.9,14.6c-2.2,0-4,1.8-4,4
			s1.8,4,4,4s4-1.8,4-4S21.1,14.6,18.9,14.6z"/>
		<polygon fill="#174E56" stroke="#174E56" stroke-width="0.25" stroke-miterlimit="10" points="18.8,17.5 19.1,17.2 20.5,18.7
			19.1,20.1 18.8,19.8 19.7,18.9 17.2,18.9 17.2,18.4 19.7,18.4 		"/>
	</g>
</g>
</svg>
