<svg xmlns="http://www.w3.org/2000/svg" viewBox="0 0 64 60"><path d="M33.18.73l26,18.86a2,2,0,0,1,.73,2.23L49.94,52.33A2,2,0,0,1,48,53.71H16a2,2,0,0,1-1.9-1.38L4.14,21.82a2,2,0,0,1,.73-2.23L30.82.73A2,2,0,0,1,33.18.73Z" fill="#008985" fill-rule="evenodd"/><path d="M37,24A10,10,0,1,0,47,34,10,10,0,0,0,37,24Zm0,18a8,8,0,1,1,8-8A8,8,0,0,1,37,42Z" fill="#fff" fill-rule="evenodd"/><polygon points="38 27.63 36 27.63 36 34.13 40.68 38.81 42.1 37.4 38 33.3 38 27.63" fill="#fff" fill-rule="evenodd"/><path d="M30,21.27A5.4,5.4,0,0,0,24.56,16h-.12A5.4,5.4,0,0,0,19,21.29a5.12,5.12,0,0,0,1.08,3.14l4.42,6.31,4.38-6.26A5.18,5.18,0,0,0,30,21.27Zm-2.72,2-2.78,4-2.82-4A3.16,3.16,0,0,1,21,21.3,3.4,3.4,0,0,1,24.44,18h.12A3.4,3.4,0,0,1,28,21.28,3.17,3.17,0,0,1,27.28,23.28Z" fill="#fff" fill-rule="evenodd"/><circle cx="24.5" cy="21.29" r="1.13" fill="#fff"/></svg>