<svg xmlns="http://www.w3.org/2000/svg" viewBox="0 0 64 60"><path d="M31.37,50.36,16.49,58.19a2.1,2.1,0,0,1-3-2.21L16.3,39.41a2.11,2.11,0,0,0-.61-1.86l-12-11.74a2.09,2.09,0,0,1,1.16-3.56l16.64-2.42A2.11,2.11,0,0,0,23,18.68L30.47,3.6a2.09,2.09,0,0,1,3.75,0l7.45,15.08a2.08,2.08,0,0,0,1.57,1.15l16.65,2.42a2.09,2.09,0,0,1,1.16,3.56L49,37.55a2.1,2.1,0,0,0-.6,1.86L51.24,56a2.09,2.09,0,0,1-3,2.21L33.32,50.36A2.1,2.1,0,0,0,31.37,50.36Z" fill="#ee5396"/><path d="M21.72,28A4.28,4.28,0,1,1,26,32.29,4.28,4.28,0,0,1,21.72,28ZM38,34a6,6,0,0,0-3.58,1.19L30.8,31.58A5.88,5.88,0,0,0,32,28a6,6,0,1,0-2.41,4.79l3.61,3.61A6,6,0,1,0,38,34Z" fill="#fff" fill-rule="evenodd"/></svg>