<svg xmlns="http://www.w3.org/2000/svg" viewBox="0 0 64 60"><path d="M33.18.73l26,18.86a2,2,0,0,1,.73,2.23L49.94,52.33A2,2,0,0,1,48,53.71H16a2,2,0,0,1-1.9-1.38L4.14,21.82a2,2,0,0,1,.73-2.23L30.82.73A2,2,0,0,1,33.18.73Z" fill="#008985" fill-rule="evenodd"/><rect x="40.58" y="18.38" width="2" height="4.24" transform="translate(-2.32 35.4) rotate(-45)" fill="#fff"/><rect x="22.58" y="37.38" width="2" height="4.24" transform="translate(-21.02 28.24) rotate(-45)" fill="#fff"/><rect x="31.58" y="11.62" width="2" height="36.77" transform="translate(-11.67 31.82) rotate(-45)" fill="#fff"/><path d="M27.28,30.71a1,1,0,0,0,0-1.42l-3.5-3.5a1,1,0,0,0-1.41,0l-3.5,3.5a1,1,0,0,0,0,1.42l3.5,3.5a1,1,0,0,0,.71.29,1,1,0,0,0,.7-.29l1-1.05,8.54,8.55,1.41-1.42-8.54-8.54Z" fill="#fff"/><path d="M38.08,30a4,4,0,1,0,4-4,4,4,0,0,0-2,.57l-8.28-8.28-1.41,1.42L38.64,28A4,4,0,0,0,38.08,30Z" fill="#fff"/></svg>