<svg xmlns="http://www.w3.org/2000/svg" viewBox="0 0 64 60"><path d="M33.18.73l26,18.86a2,2,0,0,1,.73,2.23L49.94,52.33A2,2,0,0,1,48,53.71H16a2,2,0,0,1-1.9-1.38L4.14,21.82a2,2,0,0,1,.73-2.23L30.82.73A2,2,0,0,1,33.18.73Z" fill="#008985" fill-rule="evenodd"/><path d="M38.18,28a8,8,0,1,0,8,8A8,8,0,0,0,38.18,28Zm0,14a6,6,0,1,1,6-6A6,6,0,0,1,38.18,42Z" fill="#fff"/><polygon points="39.18 31.58 37.18 31.58 37.18 36.41 40.47 39.71 41.89 38.29 39.18 35.59 39.18 31.58" fill="#fff"/><path d="M33.26,21.38a.76.76,0,0,0,.09.18,1.58,1.58,0,0,0,.12.15,1,1,0,0,0,1.42,0,1,1,0,0,0,.29-.71,1,1,0,0,0-.08-.38,1,1,0,0,0-.21-.33,1,1,0,0,0-1.42,0,1.15,1.15,0,0,0-.21.33,1,1,0,0,0-.08.38,1.5,1.5,0,0,0,0,.2A.64.64,0,0,0,33.26,21.38Z" fill="#fff"/><path d="M37.47,21.71l.15.12a.76.76,0,0,0,.18.09L38,22l.2,0a1.05,1.05,0,0,0,.71-.29,1,1,0,0,0,.21-.33,1,1,0,0,0,.08-.38,1,1,0,0,0-.29-.71A1,1,0,0,0,38,20l-.18.06a.76.76,0,0,0-.18.09l-.15.12a1.05,1.05,0,0,0-.29.71,1,1,0,0,0,.08.38A1,1,0,0,0,37.47,21.71Z" fill="#fff"/><path d="M38.18,26a1,1,0,0,0,.38-.08.9.9,0,0,0,.54-.54.94.94,0,0,0,0-.76,1.15,1.15,0,0,0-.21-.33A1,1,0,0,0,38,24l-.18.06a.76.76,0,0,0-.18.09l-.15.12a1.15,1.15,0,0,0-.21.33,1,1,0,0,0-.08.38,1.05,1.05,0,0,0,.29.71A1,1,0,0,0,38.18,26Z" fill="#fff"/><path d="M25.18,16a6,6,0,1,0,6,6A6,6,0,0,0,25.18,16Zm0,10a4,4,0,1,1,4-4A4,4,0,0,1,25.18,26Z" fill="#fff"/><polygon points="26.18 19.5 24.18 19.5 24.18 22.41 25.97 24.21 27.39 22.79 26.18 21.59 26.18 19.5" fill="#fff"/></svg>