<?xml version="1.0" encoding="utf-8"?>
<!-- Generator: Adobe Illustrator 23.0.1, SVG Export Plug-In . SVG Version: 6.00 Build 0)  -->
<svg version="1.0" xmlns="http://www.w3.org/2000/svg" xmlns:xlink="http://www.w3.org/1999/xlink" x="0px" y="0px"
	 viewBox="0 0 26 26" enable-background="new 0 0 26 26" xml:space="preserve">
<g>
	<g>
		<rect fill="#00B6CB" width="26" height="26"/>
		<path fill="#F3F3F3" stroke="#F3F3F3" stroke-width="0.5" stroke-miterlimit="10" d="M12.8,7.7c0-1.2,1-2.3,2.3-2.3s2.3,1,2.3,2.3
			v1.6l0.8-0.8l0.3,0.3L17.2,10l-1.3-1.2l0.3-0.3L17,9.3V7.7c0.1-1-0.7-1.9-1.7-2s-1.9,0.7-2,1.7c0,0.1,0,0.2,0,0.3"/>
		<polygon fill="#F3F3F3" points="8.5,11.9 8,12.4 7.6,11.9 8.1,11.5 7.1,10.5 7.8,9.8 8.8,10.8 10.8,8.8 11.2,9.2 9.2,11.2
			9.9,11.8 9.1,12.5 		"/>
		<path fill="#F3F3F3" d="M10.8,8.9l0.3,0.3l-2,2l0.6,0.6l-0.5,0.5l-0.6-0.6L8,12.2l-0.3-0.3l0.5-0.5l-1-1l0.5-0.5l1,1L10.8,8.9
			 M10.8,8.6l-0.2,0.2l-1.8,1.8L8,9.8L7.8,9.6L7.6,9.8l-0.5,0.5l-0.2,0.2l0.2,0.2l0.8,0.8l-0.3,0.3L7.4,12l0.2,0.2l0.3,0.3l0.2,0.2
			l0.2-0.2l0.3-0.3L9,12.5l0.2,0.2l0.2-0.2L9.9,12l0.2-0.2l-0.2-0.2l-0.4-0.4l1.8-1.8l0.2-0.2L11.2,9L11,8.8L10.8,8.6L10.8,8.6z"/>
		<path fill="#F3F3F3" d="M9,6.2c-3,0-5.4,2.4-5.4,5.4S6,16.9,9,16.9s5.4-2.4,5.4-5.4S12,6.2,9,6.2L9,6.2z M9,15.6
			c-2.3,0-4.1-1.8-4.1-4.1c0-2.3,1.8-4.1,4.1-4.1c2.3,0,4.1,1.8,4.1,4.1C13.1,13.8,11.3,15.6,9,15.6C9,15.6,9,15.6,9,15.6z"/>
		<circle fill="#00B6CB" cx="9.1" cy="11.6" r="7"/>
		<polygon fill="#F3F3F3" points="9,12.2 8.6,12.7 8.2,12.3 8.6,11.8 7.7,10.9 8.4,10.3 9.2,11.2 11,9.4 11.4,9.8 9.7,11.6
			10.2,12.1 9.6,12.8 		"/>
		<path fill="#F3F3F3" d="M11,9.6l0.2,0.2l-1.8,1.8l0.6,0.6l-0.5,0.5L9,12.1l-0.4,0.4l-0.2-0.2l0.4-0.4L7.9,11l0.5-0.5l0.9,0.9
			L11,9.6 M11,9.2l-0.2,0.2L9.2,11l-0.7-0.7l-0.2-0.2l-0.2,0.2l-0.5,0.5L7.5,11l0.2,0.2l0.7,0.7l-0.3,0.3L8,12.3l0.2,0.2l0.2,0.2
			l0.2,0.2l0.2-0.2L9,12.4l0.4,0.4L9.6,13l0.2-0.2l0.5-0.5l0.2-0.2L10.2,12l-0.4-0.4l1.6-1.6l0.2-0.2l-0.2-0.2l-0.2-0.2L11,9.2z"/>
		<path fill="#F3F3F3" d="M9.1,6.2c-3,0-5.4,2.4-5.4,5.4S6.1,17,9.1,17s5.4-2.4,5.4-5.4S12.1,6.2,9.1,6.2C9.1,6.2,9.1,6.2,9.1,6.2z
			 M9.1,15.7c-2.3,0-4.1-1.8-4.1-4.1c0-2.3,1.8-4.1,4.1-4.1c2.3,0,4.1,1.8,4.1,4.1C13.2,13.9,11.4,15.7,9.1,15.7
			C9.1,15.7,9.1,15.7,9.1,15.7z"/>
		<circle fill="#00B6CB" cx="15.1" cy="17.3" r="7"/>
		<polygon fill="#F3F3F3" points="15.1,18 14.6,18.4 14.2,18 14.6,17.5 13.8,16.7 14.4,16 15.3,16.9 17.1,15.1 17.5,15.5 15.7,17.3
			16.2,17.9 15.6,18.5 		"/>
		<path fill="#F3F3F3" d="M17.1,15.3l0.2,0.2l-1.8,1.8l0.5,0.5l-0.5,0.5l-0.6-0.5l-0.4,0.4L14.4,18l0.4-0.4l-0.9-0.9l0.5-0.5
			l0.9,0.9L17.1,15.3 M17.1,15l-0.2,0.2l-1.6,1.6L14.6,16l-0.2-0.2L14.2,16l-0.5,0.5l-0.2,0.2l0.2,0.2l0.7,0.7l-0.3,0.3L14,18
			l0.2,0.2l0.2,0.2l0.2,0.2l0.2-0.2l0.3-0.3l0.4,0.4l0.2,0.2l0.2-0.2l0.5-0.5l0.2-0.2l-0.2-0.2l-0.4-0.4l1.6-1.6l0.2-0.2l-0.2-0.2
			l-0.2-0.2L17.1,15L17.1,15z"/>
		<path fill="#F3F3F3" d="M15.1,11.9c-3,0-5.4,2.4-5.4,5.4s2.4,5.4,5.4,5.4s5.4-2.4,5.4-5.4l0,0C20.5,14.3,18.1,11.9,15.1,11.9z
			 M15.1,21.4c-2.3,0-4.1-1.8-4.1-4.1s1.8-4.1,4.1-4.1s4.1,1.8,4.1,4.1C19.3,19.6,17.4,21.4,15.1,21.4
			C15.2,21.4,15.2,21.4,15.1,21.4z"/>
	</g>
</g>
</svg>
