<svg xmlns="http://www.w3.org/2000/svg" viewBox="0 0 64 60"><path d="M33.07.29,57.2,14.21a2.17,2.17,0,0,1,1.07,1.86V43.93a2.17,2.17,0,0,1-1.07,1.86L33.07,59.71a2.1,2.1,0,0,1-2.14,0L6.8,45.79a2.17,2.17,0,0,1-1.07-1.86V16.07A2.17,2.17,0,0,1,6.8,14.21L30.93.29A2.1,2.1,0,0,1,33.07.29Z" fill="#0072c3" fill-rule="evenodd"/><path d="M20.71,42l5.63-10,7.44,6.49A2,2,0,0,0,36.86,38l7-10.4-1.66-1.12-7,10.45-.07.1L27.66,30.5a2,2,0,0,0-3.08.53L20,39.18V16H18V42a2,2,0,0,0,2,2H46V42ZM24,16H36v2H24Zm0,4H36v2H24Zm0,4h8v2H24Z" fill="#fff"/></svg>