<?xml version="1.0" encoding="utf-8"?>
<!-- Generator: Adobe Illustrator 23.0.1, SVG Export Plug-In . SVG Version: 6.00 Build 0)  -->
<svg version="1.0" xmlns="http://www.w3.org/2000/svg" xmlns:xlink="http://www.w3.org/1999/xlink" x="0px" y="0px"
	 viewBox="0 0 26 26" enable-background="new 0 0 26 26" xml:space="preserve">
<rect fill="#00B6CB" width="26" height="26"/>
<polygon fill="#F3F3F3" points="12.9,11 12.2,11.6 11.7,11.1 12.3,10.4 11,9.1 11.9,8.2 13.2,9.6 15.9,6.9 16.4,7.4 13.7,10.1 
	14.6,10.9 13.7,11.8 "/>
<path fill="#F3F3F3" d="M15.9,7.1l0.4,0.4l-2.7,2.7l0.8,0.8l-0.7,0.7l-0.8-0.8l-0.6,0.6l-0.4-0.3l0.6-0.6l-1.3-1.4l0.7-0.7l1.3,1.3
	L15.9,7.1 M15.9,6.7l-0.2,0.2l-2.5,2.5L12,8.2l-0.2-0.1l-0.2,0.2L11,9l-0.2,0.2L11,9.3l1.2,1.2L11.7,11l-0.2,0.2l0.2,0.2l0.4,0.4
	l0.2,0.2l0.2-0.2l0.5-0.5l0.6,0.6l0.2,0.2l0.2-0.2l0.7-0.7l0.2-0.2l-0.2-0.2L14,10.1l2.5-2.5l0.2-0.2l-0.2-0.2L16,6.9L15.9,6.7
	L15.9,6.7z"/>
<path fill="#F3F3F3" d="M13,2c-4.5,0-8.1,3.6-8.1,8.1s3.6,8.1,8.1,8.1s8.1-3.6,8.1-8.1S17.5,2,13,2z M13,16.3
	c-3.4,0-6.2-2.8-6.2-6.2S9.6,3.9,13,3.9s6.2,2.8,6.2,6.2S16.4,16.3,13,16.3L13,16.3z"/>
<line fill="none" stroke="#F3F3F3" stroke-miterlimit="10" x1="4.9" y1="19.5" x2="4.9" y2="23.2"/>
<line fill="none" stroke="#F3F3F3" stroke-miterlimit="10" x1="21.1" y1="19.5" x2="21.1" y2="23.2"/>
<line fill="none" stroke="#F3F3F3" stroke-miterlimit="10" x1="6.3" y1="21.4" x2="8.7" y2="21.4"/>
<line fill="none" stroke="#F3F3F3" stroke-miterlimit="10" x1="10" y1="21.4" x2="12.4" y2="21.4"/>
<line fill="none" stroke="#F3F3F3" stroke-miterlimit="10" x1="13.7" y1="21.4" x2="16.1" y2="21.4"/>
<line fill="none" stroke="#F3F3F3" stroke-miterlimit="10" x1="17.3" y1="21.4" x2="19.7" y2="21.4"/>
</svg>
