<svg xmlns="http://www.w3.org/2000/svg" viewBox="0 0 64 60"><rect x="6" y="3.7" width="52" height="52" rx="2" fill="#198038"/><path d="M19,24H39a1,1,0,0,0,1-1V19a1,1,0,0,0-1-1H19a1,1,0,0,0-1,1v4A1,1,0,0,0,19,24Zm1-4H38v2H20Z" fill="#fff"/><path d="M19,32H34V30H20V28H37V26H19a1,1,0,0,0-1,1v4A1,1,0,0,0,19,32Z" fill="#fff"/><path d="M45.71,31.29l-3-3A1,1,0,0,0,42,28a1,1,0,0,0-.71.29L32,37.59V42h4.41l9.3-9.29a1,1,0,0,0,0-1.42ZM35.59,40H34V38.41l5-5L40.59,35ZM42,33.59,40.41,32,42,30.41,43.59,32Z" fill="#fff"/><path d="M18,35v4a1,1,0,0,0,1,1h9V38H20V36H30V34H19A1,1,0,0,0,18,35Z" fill="#fff"/></svg>