<svg xmlns="http://www.w3.org/2000/svg" viewBox="0 0 64 60"><path d="M33.18.73l26,18.86a2,2,0,0,1,.73,2.23L49.94,52.33A2,2,0,0,1,48,53.71H16a2,2,0,0,1-1.9-1.38L4.14,21.82a2,2,0,0,1,.73-2.23L30.82.73A2,2,0,0,1,33.18.73Z" fill="#008985" fill-rule="evenodd"/><path d="M38.89,40.15a2.54,2.54,0,0,0-.83.15l-3.82-3.82a2.54,2.54,0,0,0,.15-.83,2.5,2.5,0,1,0-4.82.92l-3.74,3.74,0,0a2.45,2.45,0,0,0-1-.2,2.5,2.5,0,1,0,2.5,2.5,2.45,2.45,0,0,0-.2-1l.06,0L31,38a2.65,2.65,0,0,0,.89.17,2.45,2.45,0,0,0,1-.2l3.72,3.72a2.45,2.45,0,0,0-.2,1,2.5,2.5,0,1,0,2.5-2.5Z" fill="#fff"/><path d="M42,22.29V19.43A1.43,1.43,0,0,0,40.57,18H36.29V28h1.42V23.71h1.06L40.44,28H42l-1.66-4.29h.26A1.43,1.43,0,0,0,42,22.29Zm-4.29,0V19.43h2.86v2.86Z" fill="#fff"/><path d="M23.43,19.43h4.28V18H23.43A1.43,1.43,0,0,0,22,19.43v7.14A1.43,1.43,0,0,0,23.43,28h4.28V26.57H23.43Z" fill="#fff"/><polygon points="32 19.43 30.57 19.43 30.57 22.29 27.71 22.29 27.71 23.71 30.57 23.71 30.57 26.57 32 26.57 32 23.71 34.86 23.71 34.86 22.29 32 22.29 32 19.43" fill="#fff"/></svg>