<svg xmlns="http://www.w3.org/2000/svg" viewBox="0 0 64 60"><path d="M33.18.73l26,18.86a2,2,0,0,1,.73,2.23L49.94,52.33A2,2,0,0,1,48,53.71H16a2,2,0,0,1-1.9-1.38L4.14,21.82a2,2,0,0,1,.73-2.23L30.82.73A2,2,0,0,1,33.18.73Z" fill="#008985" fill-rule="evenodd"/><rect x="33.5" y="28.98" width="10" height="2" fill="#fff"/><rect x="20.5" y="24.98" width="10" height="2" fill="#fff"/><rect x="33.5" y="32.98" width="10" height="2" fill="#fff"/><rect x="20.5" y="28.98" width="10" height="2" fill="#fff"/><polygon points="27.08 33.22 24.32 33.22 22.32 35.86 23.47 36.76 25.18 34.53 25.28 34.53 25.28 40.14 23.03 40.14 23.03 41.59 28.86 41.59 28.86 40.14 27.08 40.14 27.08 33.22" fill="#fff"/><path d="M38.48,20a1,1,0,0,1,1.1,1v.16c0,.71-.32,1.18-1.26,2l-2.57,2.21v1.64h5.92V25.41h-4l1.56-1.22c1.2-1,2.23-1.83,2.23-3.26s-1-2.52-2.85-2.52a3,3,0,0,0-3.08,2.13l1.57.6A1.35,1.35,0,0,1,38.48,20Z" fill="#fff"/></svg>