<svg xmlns="http://www.w3.org/2000/svg" viewBox="0 0 64 60"><path d="M33.18.73l26,18.86a2,2,0,0,1,.73,2.23L49.94,52.33A2,2,0,0,1,48,53.71H16a2,2,0,0,1-1.9-1.38L4.14,21.82a2,2,0,0,1,.73-2.23L30.82.73A2,2,0,0,1,33.18.73Z" fill="#008985" fill-rule="evenodd"/><rect x="34.87" y="31.12" width="10" height="2" fill="#fff"/><rect x="21.87" y="31.12" width="10" height="2" fill="#fff"/><rect x="21.87" y="27.12" width="10" height="2" fill="#fff"/><rect x="34.87" y="35.12" width="10" height="2" fill="#fff"/><polygon points="28.95 35.36 26.19 35.36 24.19 38 25.34 38.9 27.04 36.67 27.15 36.67 27.15 42.28 24.9 42.28 24.9 43.73 30.73 43.73 30.73 42.28 28.95 42.28 28.95 35.36" fill="#fff"/><path d="M39.85,22.11a1,1,0,0,1,1.1.95v.17c0,.71-.32,1.18-1.26,2l-2.58,2.21v1.64H43V27.55h-4l1.56-1.22c1.2-.95,2.23-1.83,2.23-3.27s-1-2.51-2.85-2.51a3,3,0,0,0-3.09,2.13l1.58.6A1.34,1.34,0,0,1,39.85,22.11Z" fill="#fff"/><path d="M31,24H27.59V22.86H31V20.57H28.73a1.14,1.14,0,0,1-1.14-1.14V17.14A1.14,1.14,0,0,1,28.73,16h3.43v1.14H28.73v2.29H31a1.14,1.14,0,0,1,1.14,1.14v2.29A1.14,1.14,0,0,1,31,24Z" fill="#fff"/><path d="M25.33,16H23.05a1.14,1.14,0,0,0-1.14,1.14V24h1.14V21.14h2.28V24h1.15V17.14A1.14,1.14,0,0,0,25.33,16Zm-2.28,4V17.14h2.28V20Z" fill="#fff"/></svg>