<svg xmlns="http://www.w3.org/2000/svg" viewBox="0 0 64 60"><path d="M33.07.29,57.2,14.21a2.17,2.17,0,0,1,1.07,1.86V43.93a2.17,2.17,0,0,1-1.07,1.86L33.07,59.71a2.1,2.1,0,0,1-2.14,0L6.8,45.79a2.17,2.17,0,0,1-1.07-1.86V16.07A2.17,2.17,0,0,1,6.8,14.21L30.93.29A2.1,2.1,0,0,1,33.07.29Z" fill="#0072c3" fill-rule="evenodd"/><circle cx="22.03" cy="39.04" r="3" fill="#fff"/><rect x="19.53" y="27.54" width="5" height="5" fill="#fff"/><polygon points="19.03 23.04 25.03 23.04 22.03 17.04 19.03 23.04" fill="#fff"/><polygon points="39.64 23.54 41.05 24.96 44.97 21.04 41.05 17.13 39.64 18.54 41.14 20.04 29.03 20.04 29.03 22.04 41.14 22.04 39.64 23.54" fill="#fff"/><polygon points="39.64 27.54 41.14 29.04 29.03 29.04 29.03 31.04 41.14 31.04 39.64 32.54 41.05 33.96 44.97 30.04 41.05 26.13 39.64 27.54" fill="#fff"/><polygon points="39.64 36.54 41.14 38.04 29.03 38.04 29.03 40.04 41.14 40.04 39.64 41.54 41.05 42.96 44.97 39.04 41.05 35.13 39.64 36.54" fill="#fff"/></svg>