<svg xmlns="http://www.w3.org/2000/svg" viewBox="0 0 64 60"><rect x="6" y="3.7" width="52" height="52" rx="2" fill="#198038"/><path d="M45.15,42a12.64,12.64,0,0,1-9-14.76l4.53-4.53-1.42-1.42-4.53,4.53a12.57,12.57,0,0,1-14.76-9V16H18V42a2,2,0,0,0,2,2H46V42Zm-4.73,0H35.15a7.37,7.37,0,0,1-5.23-8.51l4-4A14.68,14.68,0,0,0,40.42,42ZM27.81,35.6a9.38,9.38,0,0,0,1.23,4A9.16,9.16,0,0,0,31,42H21.41Zm-7.81,5V31a9.43,9.43,0,0,0,6.39,3.23Zm4.85-14.44a14.59,14.59,0,0,0,7.3,2h.33l-4,4A7.4,7.4,0,0,1,20,26.85V21.59A14.62,14.62,0,0,0,24.85,26.15Z" fill="#fff"/></svg>