<?xml version="1.0" encoding="utf-8"?>
<!-- Generator: Adobe Illustrator 23.0.1, SVG Export Plug-In . SVG Version: 6.00 Build 0)  -->
<svg version="1.0" xmlns="http://www.w3.org/2000/svg" xmlns:xlink="http://www.w3.org/1999/xlink" x="0px" y="0px"
	 viewBox="0 0 26 26" enable-background="new 0 0 26 26" xml:space="preserve">
<rect fill="#00B6CB" width="26" height="26"/>
<g>
	<g>
		<path id="SVGID_1_" fill="#F3F3F3" d="M15.7,12.7v0.6h-2.5v-0.7l1.6-2.2h-1.6V9.8h2.4v0.7L14,12.7H15.7z M12.9,12.1h-2.4v-0.6h2.4
			V12.1z M9.2,11.9l-0.3-1.3l0,0l-0.3,1.3H9.2z M10.4,13.3H9.6l-0.2-0.8h-1l-0.2,0.8H7.4l1-3.5h1.1L10.4,13.3z M16,17.2
			c-2.8,2.1-6.8,1.9-9.4-0.6c-2.8-2.8-2.8-7.3,0-10.1s7.3-2.8,10.1,0c2.6,2.6,2.8,6.8,0.5,9.6l4.3,4.3l-1.2,1.2L16,17.2z M15.5,15.5
			c2.2-2.2,2.2-5.6,0-7.8s-5.6-2.2-7.8,0s-2.2,5.6,0,7.8C9.9,17.6,13.4,17.6,15.5,15.5z"/>
	</g>
	<g>
		<defs>
			<path id="SVGID_2_" d="M15.7,12.7v0.6h-2.5v-0.7l1.6-2.2h-1.6V9.8h2.4v0.7L14,12.7H15.7z M12.9,12.1h-2.4v-0.6h2.4V12.1z
				 M9.2,11.9l-0.3-1.3l0,0l-0.3,1.3H9.2z M10.4,13.3H9.6l-0.2-0.8h-1l-0.2,0.8H7.4l1-3.5h1.1L10.4,13.3z M16,17.2
				c-2.8,2.1-6.8,1.9-9.4-0.6c-2.8-2.8-2.8-7.3,0-10.1s7.3-2.8,10.1,0c2.6,2.6,2.8,6.8,0.5,9.6l4.3,4.3l-1.2,1.2L16,17.2z
				 M15.5,15.5c2.2-2.2,2.2-5.6,0-7.8s-5.6-2.2-7.8,0s-2.2,5.6,0,7.8C9.9,17.6,13.4,17.6,15.5,15.5z"/>
		</defs>
		<clipPath id="SVGID_3_">
			<use xlink:href="#SVGID_2_"  overflow="visible"/>
		</clipPath>
		<rect x="4" y="3.9" clip-path="url(#SVGID_3_)" fill="#F3F3F3" width="18.1" height="18.2"/>
	</g>
</g>
</svg>
