<svg xmlns="http://www.w3.org/2000/svg" viewBox="0 0 64 60"><path d="M33.18.73l26,18.86a2,2,0,0,1,.73,2.23L49.94,52.33A2,2,0,0,1,48,53.71H16a2,2,0,0,1-1.9-1.38L4.14,21.82a2,2,0,0,1,.73-2.23L30.82.73A2,2,0,0,1,33.18.73Z" fill="#008985" fill-rule="evenodd"/><polygon points="37.44 23.48 44.73 30.77 46.15 29.36 37.44 20.65 28.73 29.36 30.15 30.77 37.44 23.48" fill="#fff"/><polygon points="28.73 35.36 30.15 36.77 36.44 30.48 36.44 44.06 38.44 44.06 38.44 30.48 44.73 36.77 46.15 35.36 37.44 26.65 28.73 35.36" fill="#fff"/><path d="M28,24H24.59V22.86H28V20.57H25.73a1.14,1.14,0,0,1-1.14-1.14V17.14A1.14,1.14,0,0,1,25.73,16h3.43v1.14H25.73v2.29H28a1.14,1.14,0,0,1,1.14,1.14v2.29A1.14,1.14,0,0,1,28,24Z" fill="#fff"/><path d="M22.33,16H20.05a1.14,1.14,0,0,0-1.14,1.14V24h1.14V21.14h2.28V24h1.15V17.14A1.14,1.14,0,0,0,22.33,16Zm-2.28,4V17.14h2.28V20Z" fill="#fff"/></svg>