<svg xmlns="http://www.w3.org/2000/svg" viewBox="0 0 64 60"><path d="M33.18.73l26,18.86a2,2,0,0,1,.73,2.23L49.94,52.33A2,2,0,0,1,48,53.71H16a2,2,0,0,1-1.9-1.38L4.14,21.82a2,2,0,0,1,.73-2.23L30.82.73A2,2,0,0,1,33.18.73Z" fill="#008985" fill-rule="evenodd"/><polygon points="37.46 23.48 44.75 30.77 46.17 29.36 37.46 20.65 28.75 29.36 30.17 30.77 37.46 23.48" fill="#fff"/><polygon points="28.75 35.36 30.17 36.77 36.46 30.48 36.46 44.06 38.46 44.06 38.46 30.48 44.75 36.77 46.17 35.36 37.46 26.65 28.75 35.36" fill="#fff"/><path d="M26.34,17.14V16H22.91a1.15,1.15,0,0,0-1.15,1.14v5.72A1.15,1.15,0,0,0,22.91,24h3.43V19.43H24.05v1.14h1.14v2.29H22.91V17.14Z" fill="#fff"/><polygon points="19.48 16 18.34 19.43 17.19 16 16.05 16 17.62 20 16.05 24 17.19 24 18.34 20.57 19.48 24 20.62 24 19.05 20 20.62 16 19.48 16" fill="#fff"/></svg>