<svg xmlns="http://www.w3.org/2000/svg" viewBox="0 0 64 60"><path d="M33.18.73l26,18.86a2,2,0,0,1,.73,2.23L49.94,52.33A2,2,0,0,1,48,53.71H16a2,2,0,0,1-1.9-1.38L4.14,21.82a2,2,0,0,1,.73-2.23L30.82.73A2,2,0,0,1,33.18.73Z" fill="#008985" fill-rule="evenodd"/><path d="M23.5,38.5v-19h-2v19a2,2,0,0,0,2,2h19v-2Z" fill="#fff"/><rect x="24.01" y="28.5" width="16.97" height="2" transform="translate(-11.34 31.62) rotate(-45)" fill="#fff"/><rect x="31.26" y="31.5" width="8.49" height="2" transform="translate(-12.58 34.62) rotate(-45)" fill="#fff"/><rect x="25.26" y="25.5" width="8.49" height="2" transform="translate(-10.1 28.62) rotate(-45)" fill="#fff"/></svg>