<?xml version="1.0" encoding="UTF-8"?>
<svg viewBox="0 0 24 24" version="1.1" xmlns="http://www.w3.org/2000/svg" xmlns:xlink="http://www.w3.org/1999/xlink">
    <g stroke="none" stroke-width="1" fill="none" fill-rule="evenodd">
        <g id="sources" transform="translate(-20.000000, -235.000000)" fill="#9B82F3">
            <g id="Group-6" transform="translate(20.000000, 235.000000)">
                <path d="M0,0 L24,0 L24,24 L0,24 L0,0 Z M7.792516,2.999772 L7.792516,12.204132 L9.867316,14.226492 L9.867316,5.659772 L15.382636,5.659772 L15.382636,8.347132 L18.139916,8.347132 L18.139916,17.480812 L12.810796,17.480812 L10.771716,19.555612 L20.206356,19.555612 L20.206356,6.821812 L16.287036,2.999772 L7.792516,2.999772 Z M5.04352,15.033384 L6.40012,16.389984 L2.8,16.434064 L2.8,18.499744 L6.35604,18.455664 L5.04352,19.777304 L6.50652,21.240304 L10.33692,17.409144 L6.50652,13.569624 L5.04352,15.033384 Z"></path>
            </g>
        </g>
    </g>
</svg>
