<?xml version="1.0" encoding="UTF-8"?>
<svg viewBox="0 0 24 24" version="1.1" xmlns="http://www.w3.org/2000/svg" xmlns:xlink="http://www.w3.org/1999/xlink">
    <g id="Page-1" stroke="none" stroke-width="1" fill="none" fill-rule="evenodd">
        <path d="M0,0 L24,0 L24,24 L0,24 L0,0 Z M6.624907,16.35712 C5.212107,16.35712 4.066507,17.50272 4.066507,18.91552 L4.066507,21.47392 L19.433707,21.47392 L19.433707,18.91552 C19.433707,17.50272 18.288907,16.35712 16.875307,16.35712 L6.624907,16.35712 Z M11.741307,3.55712 C14.566907,3.55712 16.858107,5.84752 16.858107,8.67392 C16.858107,11.49952 14.566907,13.78992 11.741307,13.78992 C8.918907,13.78992 6.630107,11.50512 6.624507,8.68272 C6.630107,5.85872 8.917307,3.57152 11.741307,3.56592 L11.741307,3.55712 Z M11.741307,15.07392 C15.275707,15.07872 18.145307,12.21712 18.150107,8.68272 C18.155707,5.14832 15.294107,2.27872 11.758907,2.27392 C8.224507,2.26832 5.355707,5.12992 5.350107,8.66432 L5.350107,8.68272 C5.355707,12.20992 8.213307,15.06832 11.741307,15.07392 Z M15.076827,7.20904 L14.172827,6.30504 L10.783227,9.69464 L9.318427,8.23064 L8.414427,9.13464 L10.783227,11.50264 L15.076827,7.20904 Z" fill="#9B82F3" fill-rule="nonzero"></path>
    </g>
</svg>
