<?xml version="1.0" encoding="utf-8"?>
<!-- Generator: Adobe Illustrator 19.1.0, SVG Export Plug-In . SVG Version: 6.00 Build 0)  -->
<svg version="1.1" xmlns="http://www.w3.org/2000/svg" xmlns:xlink="http://www.w3.org/1999/xlink" x="0px" y="0px"
	 viewBox="-1.5 -6.1 47.1 45.4" style="enable-background:new -1.5 -6.1 47.1 45.4;" xml:space="preserve">
<style type="text/css">
	.st0{fill:#1D3649;}
	.st1{fill:none;stroke:#152935;stroke-width:2;stroke-miterlimit:10;}
	.st2{fill:none;stroke:#F9F9FB;stroke-miterlimit:10;}
	.st3{fill:#F9F9FB;stroke:#152935;stroke-miterlimit:10;}
	.st4{fill:none;}
	.st5{fill:#41D6C3;}
	.st6{font-family:'HelvNeueRomanforIBM';}
	.st7{font-size:12px;}
</style>
<g>
	<g>
		<polygon class="st0" points="8.6,37 0.4,11.4 21.9,-4.3 43.4,11.5 35.1,37 		"/>
		<polygon class="st1" points="8.6,37 0.4,11.4 21.9,-4.3 43.4,11.5 35.1,37 		"/>
	</g>
</g>
<line class="st2" x1="21.4" y1="8.3" x2="26.9" y2="12.1"/>
<line class="st2" x1="16.9" y1="8.3" x2="11.4" y2="12.1"/>
<line class="st2" x1="26.9" y1="15.3" x2="21.4" y2="19.1"/>
<line class="st2" x1="31.4" y1="15.3" x2="36.9" y2="19.1"/>
<circle class="st3" cx="19.4" cy="6.8" r="2.5"/>
<line class="st2" x1="29.5" y1="16" x2="29.5" y2="19"/>
<circle class="st3" cx="29.4" cy="13.8" r="2.5"/>
<rect x="6.2" y="13.3" class="st4" width="11.3" height="9.6"/>
<text transform="matrix(1 0 0 1 6.1944 21.882)" class="st5 st6 st7">C</text>
<rect x="18.3" y="21.9" class="st4" width="18.2" height="9.6"/>
<text transform="matrix(1 0 0 1 18.3326 30.5026)" class="st5 st6 st7">5.0</text>
</svg>
