<?xml version="1.0" encoding="utf-8"?>
<!-- Generator: Adobe Illustrator 19.1.0, SVG Export Plug-In . SVG Version: 6.00 Build 0)  -->
<svg version="1.1" xmlns="http://www.w3.org/2000/svg" xmlns:xlink="http://www.w3.org/1999/xlink" x="0px" y="0px"
	 viewBox="16 -14.4 47.1 45.4" style="enable-background:new 16 -14.4 47.1 45.4;" xml:space="preserve">
<style type="text/css">
	.sort-st0{fill:#1D3649;}
	.sort-st1{fill:none;stroke:#152935;stroke-width:2;stroke-miterlimit:10;}
	.sort-st2{fill:none;stroke:#F9F9FB;stroke-width:3;stroke-miterlimit:10;}
	.sort-st3{fill:#F9F9FB;}
	.sort-st4{fill:#41D6C3;}
</style>
<g>
	<g>
		<polygon class="sort-st0" points="28.1,26 17.4,7.5 28.1,-11 49.6,-11 60.4,7.5 49.6,26 		"/>
		<polygon class="sort-st1" points="28.1,26 17.4,7.5 28.1,-11 49.6,-11 60.4,7.5 49.6,26 		"/>
	</g>
</g>
<line class="sort-st2" x1="25" y1="7.5" x2="30" y2="7.5"/>
<line class="sort-st2" x1="34" y1="7.5" x2="39" y2="7.5"/>
<polygon class="sort-st3" points="49,11.2 49,9 43,9 43,6 49,6 49,2.5 56.5,6.8 "/>
<polygon class="sort-st4" points="38.4,12 40,12 40,8 42,8 42,12 44.1,12 41.2,16.9 "/>
<rect x="40" y="3.4" class="sort-st4" width="2" height="4.2"/>
<polygon class="sort-st4" points="35.1,4 33,4 33,8 31,8 31,4 29.4,4 32.2,-0.9 "/>
<rect x="31" y="7.2" class="sort-st4" width="2" height="4.5"/>
</svg>
