<?xml version="1.0" encoding="utf-8"?>
<svg version="1.1" id="Layer_1" xmlns="http://www.w3.org/2000/svg" xmlns:xlink="http://www.w3.org/1999/xlink" x="0px" y="0px"
	 viewBox="0 0 100 100" style="enable-background:new 0 0 100 100;" xml:space="preserve">
<style type="text/css">
	.st0{fill:#666699;}
</style>
<path id="path6019-8-6-5-4-5-4" class="st0" d="M32,0C14.4,0,0,14.4,0,32s14.4,32,32,32s32-14.4,32-32S49.6,0,32,0z M32,4.8
	c15.1,0,27.2,12.1,27.2,27.2S47.1,59.2,32,59.2C16.9,59.2,4.8,47.1,4.8,32S16.9,4.8,32,4.8z"/>
<path class="st0" d="M42.7,18.9c-1.3,0-3.3,1-5.1,2.7l-3.8,3.8l-11.5-3.9l-2.2,2.3l8.7,6.6l-1.9,1.9c-0.7,0.7-1.3,1.4-1.7,2.1
	l-5.2-0.4l-1.3,1.3l5.2,3.8l3.8,5.2l1.3-1.3l-0.4-5.3c0.7-0.4,1.3-1,2-1.6l2-2l6.7,8.7l2.3-2.2l-3.9-11.6l3.7-3.7
	c2.4-2.4,3.5-5.1,2.5-6.2C43.5,19,43.1,18.9,42.7,18.9L42.7,18.9z"/>
</svg>
