<?xml version="1.0" encoding="utf-8"?>
<!-- Generator: Adobe Illustrator 20.1.0, SVG Export Plug-In . SVG Version: 6.00 Build 0)  -->
<svg version="1.1" id="Layer_1" xmlns="http://www.w3.org/2000/svg" xmlns:xlink="http://www.w3.org/1999/xlink" x="0px" y="0px"
	 viewBox="0 0 100 100" style="enable-background:new 0 0 100 100;" xml:space="preserve">
<style type="text/css">
	.st0{fill:#F0AB00;}
	.st1{fill:#FFFFFF;}
</style>
<rect class="st0" width="100" height="100"/>
<path class="st1" d="M81.3,21.3v57.3c0,0.7-0.3,1.3-0.8,1.8s-1.1,0.8-1.8,0.8H57.8c-0.7,0-1.3-0.3-1.8-0.8c-0.5-0.5-0.8-1.1-0.8-1.8
	V21.3c0-0.7,0.3-1.3,0.8-1.8c0.5-0.5,1.1-0.8,1.8-0.8h20.9c0.7,0,1.3,0.3,1.8,0.8C81,20,81.3,20.6,81.3,21.3z M44.8,21.3v57.3
	c0,0.7-0.3,1.3-0.8,1.8c-0.5,0.5-1.1,0.8-1.8,0.8H21.3c-0.7,0-1.3-0.3-1.8-0.8c-0.5-0.5-0.8-1.1-0.8-1.8V21.3c0-0.7,0.3-1.3,0.8-1.8
	c0.5-0.5,1.1-0.8,1.8-0.8h20.9c0.7,0,1.3,0.3,1.8,0.8C44.5,20,44.8,20.6,44.8,21.3z"/>
</svg>
