<?xml version="1.0" encoding="utf-8"?>
<!-- Generator: Adobe Illustrator 20.1.0, SVG Export Plug-In . SVG Version: 6.00 Build 0)  -->
<svg version="1.1" id="Layer_1" xmlns="http://www.w3.org/2000/svg" xmlns:xlink="http://www.w3.org/1999/xlink" x="0px" y="0px"
	 viewBox="0 0 100 100" style="enable-background:new 0 0 100 100;" xml:space="preserve">
<style type="text/css">
	.st0{fill:#31728C;}
	.st1{fill:#FFFFFF;}
</style>
<rect class="st0" width="100" height="100"/>
<path id="D" class="st1" d="M20.8,79v-1.6H23c2.4,0,4.2-0.8,5.2-2.3c0.6-0.9,0.9-3,0.9-6.3V31.2c0-3.6-0.4-5.8-1.2-6.7
	c-1.1-1.2-2.7-1.9-4.9-1.9h-2.2V21h23.6c8.7,0,15.2,1,19.8,2.9s8.1,5.2,10.9,9.8c2.7,4.6,4.1,9.9,4.1,15.9c0,8.1-2.5,14.8-7.3,20.2
	C66.3,76,58,79,46.7,79H20.8z M37.3,74.8c3.6,0.8,6.6,1.2,9.1,1.2c6.6,0,12.1-2.3,16.4-7c4.4-4.6,6.5-11,6.5-18.9
	c0-8-2.2-14.3-6.5-19c-4.4-4.6-10-6.9-16.8-6.9c-2.6,0-5.5,0.4-8.8,1.2V74.8z"/>
</svg>
