<?xml version="1.0" encoding="utf-8"?>
<!-- Generator: Adobe Illustrator 20.1.0, SVG Export Plug-In . SVG Version: 6.00 Build 0)  -->
<svg version="1.1" id="Layer_1" xmlns="http://www.w3.org/2000/svg" xmlns:xlink="http://www.w3.org/1999/xlink" x="0px" y="0px"
	 viewBox="0 0 100 100" style="enable-background:new 0 0 100 100;" xml:space="preserve">
<style type="text/css">
	.st0{fill:#F0AB00;}
	.st1{fill:#FFFFFF;}
</style>
<rect class="st0" width="100" height="100"/>
<path class="st1" d="M78.2,77c0.4,0,0.7,0.1,0.9,0.3c0.2,0.2,0.3,0.5,0.3,0.9v4.9c0,0.4-0.1,0.7-0.3,0.9c-0.2,0.2-0.5,0.3-0.9,0.3
	H21.8c-0.4,0-0.7-0.1-0.9-0.3c-0.2-0.2-0.3-0.5-0.3-0.9v-4.9c0-0.4,0.1-0.7,0.3-0.9c0.2-0.2,0.5-0.3,0.9-0.3H78.2z M25.6,74.5
	c0.1-1.4,0.3-2.8,0.6-4.1c0.3-1.3,0.7-2.5,1.1-3.6c0.4-1.1,1-2.2,1.8-3.3c0.7-1.1,1.4-2.1,2-2.9c0.6-0.8,1.4-1.7,2.5-2.7
	c1-1,1.9-1.7,2.5-2.3c0.7-0.6,1.6-1.3,2.7-2.1s2-1.4,2.5-1.8c0.6-0.4,1.4-0.9,2.5-1.6c-1.1-0.7-1.9-1.3-2.5-1.6
	c-0.6-0.4-1.4-1-2.5-1.8s-2-1.5-2.7-2.1c-0.7-0.6-1.5-1.3-2.5-2.3c-1-1-1.8-1.8-2.5-2.7c-0.6-0.8-1.3-1.8-2-2.9
	c-0.7-1.1-1.3-2.2-1.8-3.3c-0.4-1.1-0.8-2.3-1.1-3.6c-0.3-1.3-0.5-2.7-0.6-4.1h48.8c-0.1,1.4-0.3,2.8-0.6,4.1s-0.7,2.5-1.1,3.6
	c-0.4,1.1-1,2.2-1.8,3.3c-0.7,1.1-1.4,2.1-2,2.9c-0.6,0.8-1.4,1.7-2.5,2.7c-1,1-1.9,1.7-2.5,2.3c-0.7,0.6-1.6,1.3-2.7,2.1
	s-2,1.4-2.5,1.8c-0.6,0.4-1.4,0.9-2.5,1.6c1.1,0.7,1.9,1.3,2.5,1.6c0.6,0.4,1.4,1,2.5,1.8s2,1.5,2.7,2.1c0.7,0.6,1.5,1.3,2.5,2.3
	c1,1,1.8,1.8,2.5,2.7s1.3,1.8,2,2.9c0.7,1.1,1.3,2.2,1.8,3.3c0.4,1.1,0.8,2.3,1.1,3.6s0.5,2.7,0.6,4.1H25.6z M78.2,15.7
	c0.4,0,0.7,0.1,0.9,0.3c0.2,0.2,0.3,0.5,0.3,0.9v4.9c0,0.4-0.1,0.7-0.3,0.9c-0.2,0.2-0.5,0.3-0.9,0.3H21.8c-0.4,0-0.7-0.1-0.9-0.3
	c-0.2-0.2-0.3-0.5-0.3-0.9v-4.9c0-0.4,0.1-0.7,0.3-0.9c0.2-0.2,0.5-0.3,0.9-0.3H78.2z"/>
</svg>
