<?xml version="1.0" encoding="utf-8"?>
<!-- Generator: Adobe Illustrator 20.1.0, SVG Export Plug-In . SVG Version: 6.00 Build 0)  -->
<svg version="1.1" id="Layer_1" xmlns="http://www.w3.org/2000/svg" xmlns:xlink="http://www.w3.org/1999/xlink" x="0px" y="0px"
	 viewBox="0 0 100 100" style="enable-background:new 0 0 100 100;" xml:space="preserve">
<style type="text/css">
	.st0{fill:#31728C;}
	.st1{fill:#FFFFFF;}
</style>
<rect class="st0" width="100" height="100"/>
<g id="preparing_for_maint">
	<g transform="matrix(1,0,0,-1,53.152542,1217.0847)">
		<path class="st1" d="M9.6,1167.3c0.3-0.3,0.6-0.5,1-0.5s0.7,0.1,1,0.5c0.3,0.3,0.5,0.6,0.5,1s-0.1,0.7-0.5,1s-0.6,0.5-1,0.5
			s-0.7-0.1-1-0.5s-0.5-0.6-0.5-1S9.2,1167.6,9.6,1167.3z M-1.3,1180.2c1.1,1.1,1.9,2.4,2.5,3.9l15.1-15.1c0.6-0.6,0.8-1.2,0.8-2
			c0-0.8-0.3-1.5-0.8-2l-2.3-2.4c-0.6-0.5-1.2-0.8-2-0.8c-0.8,0-1.4,0.3-2,0.8l-15.1,15.1C-3.7,1178.2-2.5,1179.1-1.3,1180.2z
			 M-19,1187.9c0.1,0.1,0.3,0.2,0.5,0.2c0.1,0,0.6-0.3,1.5-0.8c0.9-0.5,1.9-1.1,3-1.8c1.1-0.7,1.7-1,1.7-1.1l4.3,2.4v5l-6.5,3.7
			c-0.3,0.2-0.3,0.4-0.3,0.6s0.1,0.5,0.3,0.6c0.6,0.5,1.4,0.8,2.4,1s1.8,0.4,2.7,0.4c2.7,0,5.1-1,7-2.9c1.9-1.9,2.9-4.3,2.9-7
			c0-2.7-1-5.1-2.9-7c-1.9-1.9-4.3-2.9-7-2.9c-2.1,0-4,0.6-5.7,1.9s-3,2.8-3.6,4.8c-0.3,1-0.5,1.7-0.5,2.3
			C-19.2,1187.5-19.2,1187.7-19,1187.9z"/>
	</g>
	<polygon class="st1" points="49,45.7 58.9,55.4 68.7,65.1 49,65.1 29.2,65.1 39.1,55.4 	"/>
	<polygon class="st1" points="49,61.7 58.9,71.4 68.7,81.1 49,81.1 29.2,81.1 39.1,71.4 	"/>
</g>
</svg>
