<?xml version="1.0" encoding="utf-8"?>
<!-- Generator: Adobe Illustrator 20.1.0, SVG Export Plug-In . SVG Version: 6.00 Build 0)  -->
<svg version="1.1" id="Layer_1" xmlns="http://www.w3.org/2000/svg" xmlns:xlink="http://www.w3.org/1999/xlink" x="0px" y="0px"
	 viewBox="0 0 1024 1024" style="enable-background:new 0 0 1024 1024;" xml:space="preserve">
<style type="text/css">
	.st0{fill:#0099CC;}
</style>
<g>
	<path class="st0" d="M923.7,926H702.5L422.1,539c-20.8,0.8-37.7,1.2-50.7,1.2c-5.3,0-11-0.1-17.1-0.3s-12.4-0.5-18.9-0.9v241
		c0,51.7,5.6,83.8,16.9,96.3c15.3,17.8,38.3,26.7,69,26.7h32.1v23h-353v-23h30.9c34.7,0,59.5-11.3,74.4-33.9
		c8.5-12.5,12.7-42.2,12.7-89.1V244c0-51.7-5.7-83.8-16.9-96.3c-15.8-17.8-39.1-26.7-70.2-26.7h-30.9V98h301.2
		c87.8,0,152.5,6.4,194.2,19.2s77,36.5,106.1,70.9s43.6,75.5,43.6,123.1c0,50.9-16.6,95.1-49.7,132.6c-33.1,37.5-84.4,64-153.9,79.5
		l171.4,236.8c39.1,54.5,72.6,90.8,100.7,108.7s64.7,29.3,109.9,34.2v23H923.7z M335.3,501c7.6,0,14.3,0.1,19.9,0.3
		s10.3,0.3,13.9,0.3c78.1,0,137-17.1,176.7-51.4s59.5-78,59.5-131c0-51.8-16-94-48-126.4S482.9,144,430.1,144c-23.4,0-55,4-94.8,12
		V501z"/>
</g>
</svg>
