<?xml version="1.0" encoding="utf-8"?>
<!-- Generator: Adobe Illustrator 20.1.0, SVG Export Plug-In . SVG Version: 6.00 Build 0)  -->
<svg version="1.1" id="Layer_1" xmlns="http://www.w3.org/2000/svg" xmlns:xlink="http://www.w3.org/1999/xlink" x="0px" y="0px"
	 viewBox="0 0 1024 1024" style="enable-background:new 0 0 1024 1024;" xml:space="preserve">
<style type="text/css">
	.st0{fill:#0099CC;}
</style>
<g>
	<path class="st0" d="M508.5,732h-24c2.3-51.4,8.5-93.9,18.4-127.5c10-33.6,30.6-80.4,61.9-140.3c24.4-46.1,40.3-81.4,47.7-105.9
		c7.3-24.5,11-49.4,11-74.6c0-51.5-13.8-92.5-41.2-123S521,115,481.1,115c-35.5,0-63.4,8.3-83.7,24.9
		c-20.4,16.6-30.5,34.7-30.5,54.1c0,15,6.1,33.5,18.3,55.3c12.2,21.9,18.3,38.5,18.3,49.9c0,14.6-4.7,26.9-14,36.8
		S368.7,351,355.3,351c-17.1,0-32.7-8.4-46.7-25.3c-14-16.9-21.1-40.4-21.1-70.5c0-46,19.8-86.7,59.2-122.1S439.8,80,507.4,80
		c83.9,0,145.6,24.4,185.1,73.3c29.3,35.8,44,75.5,44,119.1c0,29.7-6.6,60.2-19.9,91.6s-38.4,68.2-75.4,110.6
		c-59,66.9-95.2,114.3-108.5,142.2C519.4,644.7,511.4,683.1,508.5,732z M500.2,808c19.1,0,35.3,6.6,48.5,19.8s19.8,29.4,19.8,48.5
		c0,18.7-6.7,34.7-20.1,47.9C535,937.4,518.9,944,500.2,944s-34.7-6.6-47.9-19.8c-13.2-13.2-19.8-29.2-19.8-47.9
		c0-19.1,6.6-35.3,19.8-48.5S481.5,808,500.2,808z"/>
</g>
</svg>
