<?xml version="1.0" encoding="utf-8"?>
<!-- Generator: Adobe Illustrator 20.1.0, SVG Export Plug-In . SVG Version: 6.00 Build 0)  -->
<svg version="1.1" id="Layer_1" xmlns="http://www.w3.org/2000/svg" xmlns:xlink="http://www.w3.org/1999/xlink" x="0px" y="0px"
	 viewBox="0 0 100 100" style="enable-background:new 0 0 100 100;" xml:space="preserve">
<style type="text/css">
	.st0{fill:#3F9C35;}
</style>
<g transform="matrix(1,0,0,-1,53.152542,1217.0847)">
	<path d="M17.6,1165.7c0.4-0.4,0.9-0.7,1.5-0.7c0.6,0,1.1,0.2,1.5,0.7c0.4,0.4,0.7,0.9,0.7,1.5c0,0.6-0.2,1.1-0.7,1.5
		s-0.9,0.7-1.5,0.7c-0.6,0-1.1-0.2-1.5-0.7s-0.7-0.9-0.7-1.5C16.9,1166.6,17.1,1166.1,17.6,1165.7z M0.8,1185.6c1.7,1.7,3,3.7,3.9,6
		l23.4-23.4c0.9-0.9,1.3-1.9,1.3-3.1c0-1.2-0.4-2.3-1.3-3.1l-3.6-3.7c-0.9-0.8-1.9-1.3-3.1-1.3c-1.2,0-2.2,0.4-3.1,1.3l-23.4,23.4
		C-2.9,1182.6-1,1183.9,0.8,1185.6z M-26.7,1197.5c0.2,0.2,0.5,0.3,0.8,0.3c0.2,0,1-0.4,2.4-1.2s3-1.7,4.7-2.8s2.6-1.6,2.7-1.7
		l6.6,3.7v7.7l-10.1,5.8c-0.4,0.3-0.5,0.6-0.5,1s0.2,0.7,0.5,1c1,0.7,2.2,1.2,3.7,1.6c1.5,0.4,2.8,0.6,4.2,0.6
		c4.2,0,7.9-1.5,10.9-4.5c3-3,4.5-6.6,4.5-10.9c0-4.2-1.5-7.9-4.5-10.9s-6.6-4.5-10.9-4.5c-3.2,0-6.2,1-8.9,2.9
		c-2.7,1.9-4.6,4.4-5.6,7.5c-0.5,1.5-0.8,2.7-0.8,3.6C-27,1196.9-26.9,1197.2-26.7,1197.5z"/>
</g>
<polygon class="st0" points="50,41.5 65.3,56.6 80.6,71.6 50,71.6 19.4,71.6 34.7,56.6 "/>
<polygon class="st0" points="50,66.3 65.3,81.3 80.6,96.4 50,96.4 19.4,96.4 34.7,81.3 "/>
</svg>
