<?xml version="1.0" encoding="utf-8"?>
<!-- Generator: Adobe Illustrator 20.1.0, SVG Export Plug-In . SVG Version: 6.00 Build 0)  -->
<svg version="1.1" id="Layer_1" xmlns="http://www.w3.org/2000/svg" xmlns:xlink="http://www.w3.org/1999/xlink" x="0px" y="0px"
	 viewBox="0 0 100 100" style="enable-background:new 0 0 100 100;" xml:space="preserve">
<style type="text/css">
	.st0{fill:#31728C;}
	.st1{fill:#FFFFFF;}
</style>
<rect class="st0" width="100" height="100"/>
<path id="O" class="st1" d="M50.5,20.5c7.3,0,13.7,2.8,19,8.3c5.4,5.6,8.1,12.5,8.1,20.8c0,8.6-2.7,15.7-8.1,21.3s-12,8.5-19.6,8.5
	c-7.8,0-14.3-2.8-19.6-8.3c-5.3-5.5-7.9-12.7-7.9-21.4c0-9,3.1-16.3,9.2-21.9C36.8,23,43.2,20.5,50.5,20.5z M49.7,23.4
	c-5,0-9.1,1.9-12.1,5.6c-3.8,4.7-5.7,11.5-5.7,20.5c0,9.2,2,16.3,5.9,21.3c3,3.8,7,5.7,12,5.7c5.3,0,9.7-2.1,13.1-6.2
	c3.5-4.1,5.2-10.7,5.2-19.6c0-9.7-1.9-16.9-5.7-21.7C59.3,25.3,55.1,23.4,49.7,23.4z"/>
</svg>
