<?xml version="1.0" encoding="utf-8"?>
<!-- Generator: Adobe Illustrator 20.1.0, SVG Export Plug-In . SVG Version: 6.00 Build 0)  -->
<svg version="1.1" id="Layer_1" xmlns="http://www.w3.org/2000/svg" xmlns:xlink="http://www.w3.org/1999/xlink" x="0px" y="0px"
	 viewBox="0 0 100 100" style="enable-background:new 0 0 100 100;" xml:space="preserve">
<style type="text/css">
	.st0{fill:#31728C;}
	.st1{fill:#FFFFFF;}
</style>
<rect class="st0" width="100" height="100"/>
<path id="not_x5F_responding" class="st1" d="M57.8,66.8v9c0,0.7-0.3,1.3-0.8,1.9c-0.5,0.5-1.1,0.8-1.9,0.8H44.8
	c-0.7,0-1.3-0.3-1.9-0.8c-0.5-0.5-0.8-1.1-0.8-1.9v-9c0-0.7,0.3-1.3,0.8-1.9c0.5-0.5,1.1-0.8,1.9-0.8h10.3c0.7,0,1.3,0.3,1.9,0.8
	C57.5,65.5,57.8,66.2,57.8,66.8z M59,24.1l-1.1,31.1c0,0.7-0.3,1.3-0.9,1.9c-0.5,0.5-1.1,0.8-1.9,0.8H44.8c-0.7,0-1.3-0.3-1.9-0.8
	c-0.5-0.5-0.8-1.1-0.9-1.9l-1.1-31.1c0-0.7,0.2-1.3,0.7-1.9c0.5-0.5,1.1-0.8,1.8-0.8h13c0.7,0,1.3,0.3,1.8,0.8
	C58.8,22.8,59,23.4,59,24.1z"/>
</svg>
