<?xml version="1.0" encoding="utf-8"?>
<!-- Generator: Adobe Illustrator 20.1.0, SVG Export Plug-In . SVG Version: 6.00 Build 0)  -->
<svg version="1.1" id="Layer_1" xmlns="http://www.w3.org/2000/svg" xmlns:xlink="http://www.w3.org/1999/xlink" x="0px" y="0px"
	 viewBox="0 0 100 100" style="enable-background:new 0 0 100 100;" xml:space="preserve">
<style type="text/css">
	.st0{fill:#F0AB00;}
	.st1{fill:#FFFFFF;}
</style>
<rect class="st0" width="100" height="100"/>
<path class="st1" d="M85.6,31.6c1,1,1.5,2.3,1.5,3.7c0,1.5-0.5,2.7-1.5,3.8L69,55.7l6.2,6.2l-6.6,6.6c-4.5,4.5-9.9,7.1-16.2,7.7
	c-6.3,0.6-12-0.7-17.1-4.2l-15,15h-7.5v-7.5l15-15c-3.4-5.1-4.8-10.8-4.2-17.1c0.6-6.3,3.2-11.6,7.7-16.2l6.6-6.6l6.2,6.2l16.6-16.6
	c1.1-1,2.3-1.5,3.8-1.5c1.5,0,2.7,0.5,3.7,1.5s1.5,2.3,1.5,3.8c0,1.5-0.5,2.7-1.5,3.8L51.8,38.5l9.7,9.7l16.6-16.6
	c1.1-1,2.3-1.5,3.8-1.5C83.4,30.1,84.6,30.6,85.6,31.6z"/>
</svg>
