<?xml version="1.0" encoding="utf-8"?>
<!-- Generator: Adobe Illustrator 21.1.0, SVG Export Plug-In . SVG Version: 6.00 Build 0)  -->
<svg version="1.1" id="Layer_1" xmlns="http://www.w3.org/2000/svg" xmlns:xlink="http://www.w3.org/1999/xlink" x="0px" y="0px"
	 viewBox="0 0 100 100" style="enable-background:new 0 0 100 100;" xml:space="preserve">
<style type="text/css">
	.st0{fill:#F0AB00;}
	.st1{fill:#FFFFFF;}
</style>
<rect class="st0" width="100" height="100"/>
<path class="st1" d="M22,49.4c-0.2-0.2-0.4-0.5-0.4-0.8v-3.5h-4.8v3.6c0,1.6,0.6,3.1,1.8,4.2c1.2,1.2,2.6,1.8,4.2,1.8h3.6v-4.9h-3.6
	C22.5,49.7,22.3,49.6,22,49.4L22,49.4z M82.3,42.1c-1.2-1.2-2.6-1.8-4.2-1.8H46.9c-0.3,0-0.6,0-0.9,0.1l-8.5-8.5
	c-1-1-1.4-0.9-2.7-1.1s-1.9,0.1-2.6,0.8c-0.7,0.7-1,1.3-0.8,2.6c0.2,1.3,0.1,1.7,1.1,2.7l8.5,8.5c-0.1,0.3-0.1,0.7-0.1,1V50h-9.6
	v4.8h9.6v22.6c0,1.6,0.6,3.1,1.8,4.2c1.2,1.2,2.6,1.8,4.2,1.8H78c1.6,0,3.1-0.6,4.2-1.8c1.2-1.2,1.8-2.6,1.8-4.2v-31
	C84,44.7,83.4,43.3,82.3,42.1L82.3,42.1z M79.2,77.4c0,0.3-0.1,0.6-0.4,0.8c-0.2,0.2-0.5,0.4-0.8,0.4H46.9c-0.3,0-0.6-0.1-0.8-0.4
	c-0.2-0.2-0.4-0.5-0.4-0.8V50.1l12.1,12.1c0.1,0.1,0.1,0.1,0.2,0.2l-1.2,1.2L51,69.3c-0.9,0.8-1.1,1.8-0.6,2.9
	c0.5,1.1,1.3,1.7,2.5,1.7h18.7c0.7,0,1.4-0.3,1.9-0.8c0.5-0.5,0.8-1.2,0.8-1.9V52.5c0-1.2-0.5-2.1-1.6-2.6c-1.1-0.5-2.1-0.1-2.9,0.7
	L64.3,56L63,57.4c-0.1-0.1-0.1-0.1-0.2-0.2l-12-12H78c0.3,0,0.6,0.1,0.8,0.4s0.4,0.5,0.4,0.8L79.2,77.4L79.2,77.4z M16.9,30.6h4.8
	v9.7h-4.8C16.9,40.2,16.9,30.6,16.9,30.6z M50.3,30.6h4.8v9.7h-4.8V30.6L50.3,30.6z M18.6,18c-1.2,1.2-1.8,2.6-1.8,4.2v3.6h4.8v-3.6
	c0-0.3,0.1-0.6,0.4-0.8s0.5-0.4,0.8-0.4h3.6v-4.8h-3.6C21.2,16.2,19.8,16.8,18.6,18L18.6,18z M31.2,16.2h9.7V21h-9.7
	C31.2,21,31.2,16.2,31.2,16.2z M50.1,21.4L50.1,21.4c0.2,0.2,0.4,0.5,0.4,0.8v6h4.9v-6c0-1.6-0.6-3.1-1.8-4.2
	c-1.2-1.2-2.6-1.8-4.2-1.8h-3.6V21h3.5C49.5,21,49.8,21.1,50.1,21.4z"/>
</svg>
