<?xml version="1.0" encoding="utf-8"?>
<!-- Generator: Adobe Illustrator 20.1.0, SVG Export Plug-In . SVG Version: 6.00 Build 0)  -->
<svg version="1.1" id="Layer_1" xmlns="http://www.w3.org/2000/svg" xmlns:xlink="http://www.w3.org/1999/xlink" x="0px" y="0px"
	 viewBox="0 0 1024 1024" style="enable-background:new 0 0 1024 1024;" xml:space="preserve">
<style type="text/css">
	.st0{fill:#0099CC;}
</style>
<g>
	<path class="st0" d="M519.9,79c107.5,0,200.6,40.8,279.4,122.5c78.8,81.6,118.2,183.5,118.2,305.7c0,125.8-39.7,230.2-119.1,313.3
		S622.9,945,510.2,945c-114,0-209.8-40.5-287.3-121.5c-77.6-81-116.3-185.9-116.3-314.5c0-131.5,44.8-238.8,134.4-321.9
		C318.6,115,411.6,79,519.9,79z M508.3,122c-74.1,0-133.5,27.6-178.2,82.7c-55.8,68.6-83.6,169-83.6,301.2
		c0,135.5,28.9,239.8,86.7,312.9C377.5,874.2,436.1,902,509,902c77.7,0,141.9-30.4,192.6-91.2s76-156.7,76-287.8
		c0-142-27.9-248-83.6-317.8C649.1,149.8,587.3,122,508.3,122z"/>
</g>
</svg>
