<?xml version="1.0" encoding="utf-8"?>
<!-- Generator: Adobe Illustrator 20.1.0, SVG Export Plug-In . SVG Version: 6.00 Build 0)  -->
<svg version="1.1" id="Layer_1" xmlns="http://www.w3.org/2000/svg" xmlns:xlink="http://www.w3.org/1999/xlink" x="0px" y="0px"
	 viewBox="0 0 100 100" style="enable-background:new 0 0 100 100;" xml:space="preserve">
<style type="text/css">
	.st0{fill:#F5C12E;}
</style>
<path class="st0" d="M69.9,34.3c4.8,4.3,7.8,10.5,7.8,17.4c0,13-10.5,23.5-23.5,23.5c-10.6,0-19.6-7.1-22.5-16.8
	c-0.1,1-0.2,2-0.2,3.1c0,15.9,12.9,28.9,28.9,28.9s28.9-12.9,28.9-28.9C89.2,49,81.2,38.3,69.9,34.3z"/>
<polygon class="st0" points="21.6,11.4 24.7,17.6 31.5,18.6 26.6,23.4 27.7,30.3 21.6,27 15.5,30.3 16.7,23.4 11.7,18.6 18.5,17.6 
	"/>
<polygon class="st0" points="57.2,8.4 59.4,12.9 64.4,13.6 60.8,17.1 61.6,22.1 57.2,19.7 52.7,22.1 53.6,17.1 50,13.6 55,12.9 "/>
<polygon class="st0" points="25.1,38.8 27.3,43.3 32.3,44 28.7,47.5 29.5,52.5 25.1,50.1 20.7,52.5 21.5,47.5 17.9,44 22.9,43.3 "/>
<polygon class="st0" points="15.5,62.3 17.7,66.8 22.7,67.5 19.1,71 19.9,75.9 15.5,73.6 11,75.9 11.9,71 8.3,67.5 13.3,66.8 "/>
</svg>
