<?xml version="1.0" encoding="utf-8"?>
<!-- Generator: Adobe Illustrator 20.1.0, SVG Export Plug-In . SVG Version: 6.00 Build 0)  -->
<svg version="1.1" id="Layer_1" xmlns="http://www.w3.org/2000/svg" xmlns:xlink="http://www.w3.org/1999/xlink" x="0px" y="0px"
	 viewBox="0 0 1024 1024" style="enable-background:new 0 0 1024 1024;" xml:space="preserve">
<style type="text/css">
	.st0{fill:#0099CC;}
</style>
<g>
	<path class="st0" d="M636.4,659.5H313.8L258.1,789c-13.8,32-20.8,56-20.8,71.8c0,12.6,6,23.6,18,33.2c12,9.6,38,15.7,77.8,18.5v23
		H71.7v-23c34.6-6.1,57-14,67.1-23.8c20.8-19.5,43.7-59.3,69-119.1l291.9-681h22l288.4,688.9c23.2,55.2,44.2,91,63.2,107.4
		c18.9,16.4,45.3,25.7,79,27.7v23H625.7v-23c33-1.6,55.2-7.1,66.8-16.5s17.4-20.7,17.4-34.1c0-17.9-8.1-46.1-24.4-84.7L636.4,659.5z
		 M617.6,614.5L477.6,280L333.2,614.5H617.6z"/>
</g>
</svg>
