<?xml version="1.0" encoding="utf-8"?>
<!-- Generator: Adobe Illustrator 20.1.0, SVG Export Plug-In . SVG Version: 6.00 Build 0)  -->
<svg version="1.1" id="Layer_1" xmlns="http://www.w3.org/2000/svg" xmlns:xlink="http://www.w3.org/1999/xlink" x="0px" y="0px"
	 viewBox="0 0 100 100" style="enable-background:new 0 0 100 100;" xml:space="preserve">
<style type="text/css">
	.st0{fill:#31728C;}
	.st1{fill:#FFFFFF;}
</style>
<rect class="st0" width="100" height="100"/>
<path id="unknown" class="st1" d="M49.8,64.5h-1.6c0.2-3.4,0.6-6.2,1.2-8.4c0.7-2.2,2-5.3,4.1-9.3c1.6-3,2.7-5.4,3.2-7
	c0.5-1.6,0.7-3.3,0.7-4.9c0-3.4-0.9-6.1-2.8-8.1c-1.8-2-4.1-3-6.8-3c-2.4,0-4.2,0.5-5.6,1.6c-1.4,1.1-2,2.3-2,3.6
	c0,1,0.4,2.2,1.2,3.6c0.8,1.4,1.2,2.5,1.2,3.3c0,1-0.3,1.8-0.9,2.4s-1.4,1-2.3,1c-1.1,0-2.2-0.6-3.1-1.7C35.5,36.6,35,35,35,33.1
	c0-3,1.3-5.7,4-8.1c2.6-2.3,6.2-3.5,10.7-3.5c5.6,0,9.7,1.6,12.4,4.8c2,2.4,2.9,5,2.9,7.9c0,2-0.4,4-1.3,6c-0.9,2.1-2.6,4.5-5,7.3
	c-3.9,4.4-6.4,7.5-7.2,9.4C50.5,58.8,50,61.3,49.8,64.5z M49.2,69.5c1.3,0,2.4,0.4,3.2,1.3s1.3,1.9,1.3,3.2c0,1.2-0.4,2.3-1.3,3.2
	c-0.9,0.9-2,1.3-3.2,1.3s-2.3-0.4-3.2-1.3c-0.9-0.9-1.3-1.9-1.3-3.2c0-1.3,0.4-2.3,1.3-3.2S48,69.5,49.2,69.5z"/>
</svg>
