<?xml version="1.0" encoding="utf-8"?>
<!-- Generator: Adobe Illustrator 20.1.0, SVG Export Plug-In . SVG Version: 6.00 Build 0)  -->
<svg version="1.1" id="Layer_1" xmlns="http://www.w3.org/2000/svg" xmlns:xlink="http://www.w3.org/1999/xlink" x="0px" y="0px"
	 viewBox="0 0 1024 1024" style="enable-background:new 0 0 1024 1024;" xml:space="preserve">
<g>
	<path d="M895.7,511.7c0,133.4-33.8,238.3-101.3,314.7S633,941,512.9,941c-122.9,0-217.7-37.5-284.4-112.6s-100.1-181-100.1-317.8
		c0-135.7,33.5-240.9,100.4-315.5S390.7,83,514,83c119.8,0,213.4,38,280.7,114S895.7,377.9,895.7,511.7z M231,511.9
		c0,112.8,24.1,198.4,72.2,256.7s118,87.5,209.7,87.5c92.4,0,162.2-29,209.4-87.2c47.2-58.1,70.8-143.8,70.8-257
		c0-112-23.5-197-70.5-255C675.6,199,606.1,170,514,170c-92.4,0-162.7,29.2-210.8,87.5S231,400.6,231,511.9z"/>
</g>
</svg>
