<?xml version="1.0" encoding="utf-8"?>
<!-- Generator: Adobe Illustrator 20.1.0, SVG Export Plug-In . SVG Version: 6.00 Build 0)  -->
<svg version="1.1" id="Layer_1" xmlns="http://www.w3.org/2000/svg" xmlns:xlink="http://www.w3.org/1999/xlink" x="0px" y="0px"
	 viewBox="0 0 100 100" style="enable-background:new 0 0 100 100;" xml:space="preserve">
<style type="text/css">
	.st0{fill:#31728C;}
	.st1{fill:#FFFFFF;}
</style>
<rect class="st0" width="100" height="100"/>
<path id="A" class="st1" d="M58.5,60.1H36.4L32.6,69c-0.9,2.2-1.4,3.8-1.4,4.9c0,0.9,0.4,1.6,1.2,2.3s2.6,1.1,5.3,1.3V79H19.8v-1.6
	c2.4-0.4,3.9-1,4.6-1.6c1.4-1.3,3-4.1,4.7-8.2l20-46.6h1.5l19.7,47.2c1.6,3.8,3,6.2,4.3,7.4c1.3,1.1,3.1,1.8,5.4,1.9V79H57.8v-1.6
	c2.3-0.1,3.8-0.5,4.6-1.1s1.2-1.4,1.2-2.3c0-1.2-0.6-3.2-1.7-5.8L58.5,60.1z M57.2,57l-9.6-22.9L37.8,57H57.2z"/>
</svg>
