<?xml version="1.0" encoding="utf-8"?>
<!-- Generator: Adobe Illustrator 20.1.0, SVG Export Plug-In . SVG Version: 6.00 Build 0)  -->
<svg version="1.1" id="Layer_1" xmlns="http://www.w3.org/2000/svg" xmlns:xlink="http://www.w3.org/1999/xlink" x="0px" y="0px"
	 viewBox="0 0 100 100" style="enable-background:new 0 0 100 100;" xml:space="preserve">
<style type="text/css">
	.st0{fill:#31728C;}
	.st1{fill:#FFFFFF;}
</style>
<rect class="st0" width="100" height="100"/>
<path id="T" class="st1" d="M73.7,21l0.6,13.6h-1.6c-0.3-2.4-0.7-4.1-1.3-5.1c-0.9-1.7-2.1-2.9-3.5-3.7c-1.5-0.8-3.4-1.2-5.8-1.2
	h-8.2V69c0,3.5,0.4,5.8,1.2,6.6c1.1,1.2,2.8,1.8,5,1.8h2V79H37.4v-1.6h2.1c2.5,0,4.2-0.7,5.3-2.2c0.6-0.9,0.9-3,0.9-6.2V24.6h-7
	c-2.7,0-4.6,0.2-5.8,0.6c-1.5,0.5-2.7,1.6-3.8,3.1c-1.1,1.5-1.7,3.6-1.9,6.2h-1.6L26.3,21H73.7z"/>
</svg>
