<?xml version="1.0" encoding="utf-8"?>
<!-- Generator: Adobe Illustrator 20.1.0, SVG Export Plug-In . SVG Version: 6.00 Build 0)  -->
<svg version="1.1" id="Layer_1" xmlns="http://www.w3.org/2000/svg" xmlns:xlink="http://www.w3.org/1999/xlink" x="0px" y="0px"
	 viewBox="0 0 100 100" style="enable-background:new 0 0 100 100;" xml:space="preserve">
<style type="text/css">
	.st0{fill:#31728C;}
	.st1{fill:#FFFFFF;}
</style>
<rect class="st0" width="100" height="100"/>
<g id="standby">
	<path class="st1" d="M68.8,35.3c4.3,3.9,7.1,9.5,7.1,15.7c0,11.8-9.5,21.2-21.2,21.2c-9.6,0-17.7-6.4-20.3-15.2
		c-0.1,0.9-0.2,1.8-0.2,2.8C34.1,74.3,45.7,86,60.2,86s26.1-11.7,26.1-26.1C86.3,48.6,79,38.9,68.8,35.3z"/>
	<polygon class="st1" points="25.1,14.6 27.9,20.2 34.1,21.1 29.7,25.4 30.6,31.7 25.1,28.7 19.6,31.7 20.7,25.4 16.2,21.1 
		22.3,20.2 	"/>
	<polygon class="st1" points="57.3,11.9 59.3,16 63.8,16.6 60.6,19.8 61.3,24.3 57.3,22.1 53.2,24.3 54.1,19.8 50.8,16.6 55.3,16 	
		"/>
	<polygon class="st1" points="28.3,39.4 30.3,43.4 34.8,44.1 31.5,47.2 32.3,51.8 28.3,49.6 24.3,51.8 25,47.2 21.8,44.1 26.3,43.4 
			"/>
	<polygon class="st1" points="19.6,60.6 21.6,64.7 26.1,65.3 22.9,68.5 23.6,72.9 19.6,70.8 15.5,72.9 16.4,68.5 13.1,65.3 
		17.6,64.7 	"/>
</g>
</svg>
