<?xml version="1.0" encoding="utf-8"?>
<!-- Generator: Adobe Illustrator 20.1.0, SVG Export Plug-In . SVG Version: 6.00 Build 0)  -->
<svg version="1.1" id="Layer_1" xmlns="http://www.w3.org/2000/svg" xmlns:xlink="http://www.w3.org/1999/xlink" x="0px" y="0px"
	 viewBox="0 0 100 100" style="enable-background:new 0 0 100 100;" xml:space="preserve">
<style type="text/css">
	.st0{fill:#F0AB00;}
	.st1{fill:#FFFFFF;}
</style>
<rect class="st0" width="100" height="100"/>
<path class="st1" d="M37.3,46.8h25.5v-9.5c0-3.5-1.2-6.5-3.7-9c-2.5-2.5-5.5-3.7-9-3.7s-6.5,1.2-9,3.7c-2.5,2.5-3.7,5.5-3.7,9V46.8z
	 M78.6,51.6v28.6c0,1.3-0.5,2.5-1.4,3.4c-0.9,0.9-2.1,1.4-3.4,1.4H26.1c-1.3,0-2.5-0.5-3.4-1.4c-0.9-0.9-1.4-2.1-1.4-3.4V51.6
	c0-1.3,0.5-2.5,1.4-3.4s2.1-1.4,3.4-1.4h1.6v-9.5c0-6.1,2.2-11.3,6.6-15.7S43.9,15,50,15s11.3,2.2,15.7,6.6s6.6,9.6,6.6,15.7v9.5
	h1.6c1.3,0,2.5,0.5,3.4,1.4C78.2,49.1,78.6,50.3,78.6,51.6z"/>
</svg>
