<?xml version="1.0" encoding="utf-8"?>
<!-- Generator: Adobe Illustrator 20.1.0, SVG Export Plug-In . SVG Version: 6.00 Build 0)  -->
<svg version="1.1" id="Layer_1" xmlns="http://www.w3.org/2000/svg" xmlns:xlink="http://www.w3.org/1999/xlink" x="0px" y="0px"
	 viewBox="0 0 100 100" style="enable-background:new 0 0 100 100;" xml:space="preserve">
<style type="text/css">
	.st0{fill:#CC0000;}
</style>
<path class="st0" d="M60.9,73.6v12.7c0,1-0.4,1.8-1.1,2.6c-0.7,0.7-1.6,1.1-2.6,1.1H42.7c-1,0-1.8-0.4-2.6-1.1
	c-0.7-0.7-1.1-1.6-1.1-2.6V73.6c0-1,0.4-1.8,1.1-2.6c0.7-0.7,1.6-1.1,2.6-1.1h14.5c1,0,1.8,0.4,2.6,1.1
	C60.5,71.8,60.9,72.7,60.9,73.6z M62.6,13.6L61,57.3c0,1-0.4,1.8-1.2,2.6c-0.7,0.7-1.6,1.1-2.6,1.1H42.7c-1,0-1.8-0.4-2.6-1.1
	c-0.7-0.7-1.1-1.6-1.2-2.6l-1.6-43.6c0-1,0.3-1.8,1-2.6c0.7-0.7,1.5-1.1,2.5-1.1h18.2c1,0,1.8,0.4,2.5,1.1
	C62.3,11.8,62.7,12.7,62.6,13.6z"/>
</svg>
