<?xml version="1.0" encoding="utf-8"?>
<!-- Generator: Adobe Illustrator 20.1.0, SVG Export Plug-In . SVG Version: 6.00 Build 0)  -->
<svg version="1.1" id="Layer_1" xmlns="http://www.w3.org/2000/svg" xmlns:xlink="http://www.w3.org/1999/xlink" x="0px" y="0px"
	 viewBox="0 0 100 100" style="enable-background:new 0 0 100 100;" xml:space="preserve">
<path d="M59.2,72.6v15.1c0,0.7-0.3,1.3-0.8,1.8c-0.5,0.5-1.1,0.8-1.8,0.8H41.6c-0.7,0-1.3-0.3-1.8-0.8c-0.5-0.5-0.8-1.1-0.8-1.8
	V72.6c0-0.7,0.3-1.3,0.8-1.8c0.5-0.5,1.1-0.8,1.8-0.8h15.1c0.7,0,1.3,0.3,1.8,0.8C58.9,71.3,59.2,71.9,59.2,72.6z M79,34.9
	c0,2.3-0.3,4.4-1,6.3c-0.6,2-1.4,3.6-2.2,4.8c-0.8,1.2-2,2.5-3.5,3.7c-1.5,1.3-2.7,2.2-3.6,2.7c-0.9,0.6-2.2,1.3-3.8,2.2
	c-1.7,1-3.1,2.3-4.3,4.1c-1.2,1.8-1.7,3.2-1.7,4.2c0,0.7-0.3,1.4-0.8,2c-0.5,0.6-1.1,1-1.8,1H41.3c-0.6,0-1.2-0.4-1.6-1.2
	c-0.4-0.8-0.7-1.6-0.7-2.4v-2.8c0-3.5,1.4-6.7,4.1-9.8c2.7-3.1,5.7-5.3,9-6.8c2.5-1.1,4.2-2.3,5.3-3.5s1.6-2.8,1.6-4.8
	c0-1.8-1-3.3-2.9-4.6c-1.9-1.3-4.2-2-6.7-2c-2.7,0-5,0.6-6.8,1.8c-1.5,1-3.7,3.5-6.7,7.2c-0.5,0.7-1.2,1-1.9,1c-0.5,0-1-0.2-1.6-0.5
	L22,29.9c-0.5-0.4-0.9-0.9-1-1.6c-0.1-0.6,0-1.2,0.3-1.8C28.1,15.4,37.8,9.9,50.5,9.9c3.3,0,6.7,0.6,10.1,1.9c3.4,1.3,6.4,3,9.2,5.2
	s4.9,4.8,6.6,8S79,31.5,79,34.9z"/>
</svg>
