<?xml version="1.0" encoding="utf-8"?>
<!-- Generator: Adobe Illustrator 20.1.0, SVG Export Plug-In . SVG Version: 6.00 Build 0)  -->
<svg version="1.1" id="Layer_1" xmlns="http://www.w3.org/2000/svg" xmlns:xlink="http://www.w3.org/1999/xlink" x="0px" y="0px"
	 viewBox="0 0 100 100" style="enable-background:new 0 0 100 100;" xml:space="preserve">
<style type="text/css">
	.st0{fill:#A6CC46;}
	.st1{fill:#A3238E;}
	.st2{fill:#FAA74A;}
	.st3{fill:#2E3192;}
	.st4{fill:#A6CE39;}
</style>
<g>
	<polygon class="st0" points="13.9,15.3 30.5,15.3 23.4,22.6 45.2,44.4 45.2,46.1 43.4,46.1 21.5,24.3 13.9,31.9 	"/>
	<polygon class="st1" points="68.9,15.3 85,15.3 85,31.4 77.7,24.1 55.6,46.1 53.9,46.1 53.9,44.4 76,22.2 	"/>
	<polygon class="st2" points="53.9,54.7 55.6,54.7 77.6,76.7 85,69.1 85,85.7 68.4,85.7 75.7,78.4 53.9,56.6 	"/>
	<polygon class="st3" points="43.4,54.7 45.2,54.7 45.2,56.6 23.1,78.6 30,85.7 13.9,85.7 13.9,69.6 21.4,76.9 	"/>
	<polygon class="st4" points="13.9,36.3 21.5,28.7 39,46.1 13.9,46.1 	"/>
	<polygon class="st3" points="39,54.7 21.4,72.5 13.9,65.2 13.9,54.7 	"/>
	<polygon class="st1" points="-0.5,50.7 10.9,39.3 10.9,49.1 42.2,49.1 43.4,50.5 42.2,51.7 10.9,51.7 10.9,62 	"/>
	<polygon class="st1" points="60,46.1 77.7,28.3 85,35.8 85,46.1 	"/>
	<polygon class="st2" points="85,64.7 77.6,72.3 60,54.7 85,54.7 	"/>
	<polygon class="st3" points="55.7,50.5 56.9,49.1 88.2,49.1 88.2,38.8 99.6,50.2 88.2,61.5 88.2,51.7 56.9,51.7 	"/>
	<polygon class="st2" points="53.9,61 71.3,78.4 64.2,85.7 53.9,85.7 	"/>
	<polygon class="st4" points="48.3,57.8 49.5,56.6 50.8,57.8 50.8,88.7 61,88.7 49.3,100.4 37.6,88.7 48.3,88.7 	"/>
	<polygon class="st3" points="27.5,78.6 45.2,61 45.2,85.7 34.4,85.7 	"/>
	<polygon class="st1" points="53.9,40 71.3,22.6 64.2,15.5 53.9,15.5 	"/>
	<polygon class="st2" points="48.3,43.2 49.5,44.4 50.8,43.2 50.8,12.3 61,12.3 49.3,0.6 37.6,12.3 48.3,12.3 	"/>
	<polygon class="st4" points="27.5,22.4 45.2,40 45.2,15.5 34.4,15.5 	"/>
</g>
</svg>
