<?xml version="1.0" encoding="utf-8"?>
<!-- Generator: Adobe Illustrator 20.1.0, SVG Export Plug-In . SVG Version: 6.00 Build 0)  -->
<svg version="1.1" id="Layer_1" xmlns="http://www.w3.org/2000/svg" xmlns:xlink="http://www.w3.org/1999/xlink" x="0px" y="0px"
	 viewBox="0 0 100 100" style="enable-background:new 0 0 100 100;" xml:space="preserve">
<style type="text/css">
	.st0{fill:#07BCE5;}
</style>
<path id="unknown" class="st0" d="M49.7,60.8h-1.8c0.2-3.9,0.6-7.2,1.4-9.7c0.8-2.6,2.3-6.1,4.7-10.7c1.9-3.5,3.1-6.2,3.6-8.1
	c0.6-1.9,0.8-3.8,0.8-5.7c0-3.9-1.1-7.1-3.1-9.4s-4.7-3.5-7.7-3.5c-2.7,0-4.8,0.6-6.4,1.9c-1.6,1.3-2.3,2.7-2.3,4.1
	c0,1.1,0.5,2.6,1.4,4.2c0.9,1.7,1.4,2.9,1.4,3.8c0,1.1-0.4,2.1-1.1,2.8c-0.7,0.8-1.6,1.1-2.6,1.1c-1.3,0-2.5-0.6-3.6-1.9
	c-1.1-1.3-1.6-3.1-1.6-5.4c0-3.5,1.5-6.6,4.5-9.3c3-2.7,7.1-4.1,12.3-4.1c6.4,0,11.1,1.9,14.1,5.6c2.2,2.7,3.4,5.8,3.4,9.1
	c0,2.3-0.5,4.6-1.5,7c-1,2.4-2.9,5.2-5.8,8.4c-4.5,5.1-7.3,8.7-8.3,10.9C50.6,54.1,50,57.1,49.7,60.8z M49.1,66.6
	c1.5,0,2.7,0.5,3.7,1.5c1,1,1.5,2.2,1.5,3.7c0,1.4-0.5,2.7-1.5,3.7c-1,1-2.3,1.5-3.7,1.5s-2.7-0.5-3.7-1.5c-1-1-1.5-2.2-1.5-3.7
	c0-1.5,0.5-2.7,1.5-3.7C46.4,67.1,47.7,66.6,49.1,66.6z"/>
</svg>
