<svg id="Layer_1" data-name="Layer 1" xmlns="http://www.w3.org/2000/svg" width="190.34" height="144" viewBox="0 0 190.34 144">
  <defs>
    <style>
      .cls-1 {
        fill: #e00;
      }
    </style>
  </defs>
  <title>os-linux_redhat</title>
  <path d="M158.1,88.25a14,14,0,0,1,.31,3.42c0,14.88-18.11,17.47-30.61,17.47-48.65,0-84.94-30.24-84.94-39.46a6.06,6.06,0,0,1,.22-1.94L39.41,76.8a18.55,18.55,0,0,0-1.51,7.34c0,18.11,41,45.48,87.74,45.48,20.7,0,36.43-7.76,36.43-21.77,0-1.08,0-1.94-1.72-10.13Z" transform="translate(-0.83 -26.68)"/>
  <path class="cls-1" d="M127.8,109.68c12.5,0,30.61-2.58,30.61-17.46a14,14,0,0,0-.31-3.42l-7.45-32.36c-1.73-7.12-3.23-10.35-15.74-16.6-9.7-5-30.83-13.16-37.08-13.16-5.83,0-7.54,7.54-14.44,7.54-6.68,0-11.64-5.6-17.89-5.6-6,0-9.92,4.09-12.94,12.5,0,0-8.4,23.72-9.48,27.16a6.06,6.06,0,0,0-.22,1.94c0,9.22,36.29,39.46,84.94,39.46m32.55-11.42c1.72,8.19,1.72,9,1.72,10.13,0,14-15.73,21.77-36.43,21.77-46.78,0-87.74-27.38-87.74-45.48a18.46,18.46,0,0,1,1.51-7.33C22.6,78.2.83,81.22.83,100.4c0,31.48,74.58,70.28,133.65,70.28,45.27,0,56.69-20.48,56.69-36.65,0-12.72-11-27.16-30.82-35.78" transform="translate(-0.83 -26.68)"/>
</svg>
