<svg xmlns:rdf="http://www.w3.org/1999/02/22-rdf-syntax-ns#" xmlns="http://www.w3.org/2000/svg" xml:space="preserve" version="1.1" xmlns:cc="http://creativecommons.org/ns#" xmlns:dc="http://purl.org/dc/elements/1.1/" viewBox="0 0 408.77 306.22"><defs><linearGradient id="linearGradient3007" gradientUnits="userSpaceOnUse" gradientTransform="matrix(111.6 -7.0785 -7.0785 -111.6 347.48 419.51)"><stop stop-color="#fedd28" offset="0"/><stop stop-color="#ef7c37" offset="1"/></linearGradient><clipPath id="clipPath3019" clipPathUnits="userSpaceOnUse"><path id="path3021" d="m0 792h612v-792h-612v792z"/></clipPath><linearGradient id="linearGradient3043" gradientUnits="userSpaceOnUse" gradientTransform="matrix(35.213 -2.2335 -2.2335 -35.213 290.74 441.78)"><stop stop-color="#fedd28" offset="0"/><stop stop-color="#ef7c37" offset="1"/></linearGradient><clipPath id="clipPath3055" clipPathUnits="userSpaceOnUse"><path id="path3057" d="m0 792h612v-792h-612v792z"/></clipPath><linearGradient id="linearGradient3079" gradientUnits="userSpaceOnUse" gradientTransform="matrix(35.642 -2.2607 -2.2607 -35.642 237.28 380.19)"><stop stop-color="#fedd28" offset="0"/><stop stop-color="#ef7c37" offset="1"/></linearGradient><clipPath id="clipPath3091" clipPathUnits="userSpaceOnUse"><path id="path3093" d="m0 792h612v-792h-612v792z"/></clipPath><linearGradient id="linearGradient3115" gradientUnits="userSpaceOnUse" gradientTransform="matrix(115.62 -7.3336 -7.3336 -115.62 138.61 407.42)"><stop stop-color="#fedd28" offset="0"/><stop stop-color="#ef7c37" offset="1"/></linearGradient><clipPath id="clipPath3127" clipPathUnits="userSpaceOnUse"><path id="path3129" d="m0 792h612v-792h-612v792z"/></clipPath><radialGradient id="radialGradient3151" gradientUnits="userSpaceOnUse" cy="0" cx="0" gradientTransform="matrix(40.882 -2.593 -2.7251 -42.951 270.77 428.1)" r="1"><stop stop-color="#fedd28" offset="0"/><stop stop-color="#f47738" offset="1"/></radialGradient><clipPath id="clipPath3163" clipPathUnits="userSpaceOnUse"><path id="path3165" d="m0 792h612v-792h-612v792z"/></clipPath><clipPath id="clipPath3175" clipPathUnits="userSpaceOnUse"><path id="path3177" d="m216.09 424.12h23.589v-31.723h-23.589v31.723z"/></clipPath><linearGradient id="linearGradient3183" gradientUnits="userSpaceOnUse" gradientTransform="matrix(25.21 -1.599 -1.599 -25.21 215.42 409.06)"><stop stop-color="#6f4a31" offset="0"/><stop stop-color="#a9815b" offset=".48466"/><stop stop-color="#504530" offset="1"/></linearGradient><clipPath id="clipPath3209" clipPathUnits="userSpaceOnUse"><path id="path3211" d="m227.2 432.31h26.912v-41.433h-26.912v41.433z"/></clipPath><linearGradient id="linearGradient3217" gradientUnits="userSpaceOnUse" gradientTransform="matrix(28.928 -1.8348 -1.8348 -28.928 226.44 412.54)"><stop stop-color="#6f4a31" offset="0"/><stop stop-color="#a9815b" offset=".48466"/><stop stop-color="#504530" offset="1"/></linearGradient><clipPath id="clipPath3243" clipPathUnits="userSpaceOnUse"><path id="path3245" d="m244.33 437.06h24.909v-46.232h-24.909v46.232z"/></clipPath><linearGradient id="linearGradient3251" gradientUnits="userSpaceOnUse" gradientTransform="matrix(27.019 -1.7137 -1.7137 -27.019 243.63 414.86)"><stop stop-color="#6f4a31" offset="0"/><stop stop-color="#a9815b" offset=".48466"/><stop stop-color="#504530" offset="1"/></linearGradient><linearGradient id="linearGradient3285" gradientUnits="userSpaceOnUse" gradientTransform="matrix(59.732 10.661 10.661 -59.732 197.15 376.8)"><stop stop-color="#fec02e" offset="0"/><stop stop-color="#ef7c37" offset="1"/></linearGradient><clipPath id="clipPath3297" clipPathUnits="userSpaceOnUse"><path id="path3299" d="m0 792h612v-792h-612v792z"/></clipPath><radialGradient id="radialGradient3325" gradientUnits="userSpaceOnUse" cy="0" cx="0" gradientTransform="matrix(30.319 -1.923 -1.923 -30.319 337.39 427.31)" r="1"><stop stop-color="#fedd28" offset="0"/><stop stop-color="#f47738" offset="1"/></radialGradient><clipPath id="clipPath3337" clipPathUnits="userSpaceOnUse"><path id="path3339" d="m0 792h612v-792h-612v792z"/></clipPath><linearGradient id="linearGradient3357" gradientUnits="userSpaceOnUse" gradientTransform="matrix(-73.769 88.283 88.283 73.769 441.63 315.69)"><stop stop-color="#fedd28" offset="0"/><stop stop-color="#ef7c37" offset="1"/></linearGradient><clipPath id="clipPath3369" clipPathUnits="userSpaceOnUse"><path id="path3371" d="m0 792h612v-792h-612v792z"/></clipPath><linearGradient id="linearGradient3401" gradientUnits="userSpaceOnUse" gradientTransform="matrix(81.376 -5.1615 -5.1615 -81.376 249.91 370.21)"><stop stop-color="#fedd28" offset="0"/><stop stop-color="#ef7c37" offset="1"/></linearGradient><clipPath id="clipPath3445" clipPathUnits="userSpaceOnUse"><path id="path3447" d="m326.94 442.07h130.14v-39.263h-130.14v39.263z"/></clipPath><radialGradient id="radialGradient3617" gradientUnits="userSpaceOnUse" cy="0" cx="0" gradientTransform="matrix(30.632 16.747 16.747 -30.632 366.61 476.67)" r="1"><stop stop-color="#fedd28" offset="0"/><stop stop-color="#f47738" offset="1"/></radialGradient><clipPath id="clipPath3629" clipPathUnits="userSpaceOnUse"><path id="path3631" d="m0 792h612v-792h-612v792z"/></clipPath><radialGradient id="radialGradient3649" gradientUnits="userSpaceOnUse" cy="0" cx="0" gradientTransform="matrix(14.593 9.2239 9.2239 -14.593 344.04 467.4)" r="1"><stop stop-color="#fff" offset="0"/><stop stop-color="#dfe6e6" offset="1"/></radialGradient><clipPath id="clipPath3661" clipPathUnits="userSpaceOnUse"><path id="path3663" d="m0 792h612v-792h-612v792z"/></clipPath><radialGradient id="radialGradient3685" gradientUnits="userSpaceOnUse" cy="0" cx="0" gradientTransform="matrix(13.708 6.5215 6.5215 -13.708 387.5 484.22)" r="1"><stop stop-color="#fff" offset="0"/><stop stop-color="#dfe6e6" offset="1"/></radialGradient><clipPath id="clipPath3697" clipPathUnits="userSpaceOnUse"><path id="path3699" d="m0 792h612v-792h-612v792z"/></clipPath></defs><g transform="matrix(1.25 0 0 -1.25 -258.2 799.31)"><g transform="translate(72,75.2)"><path id="path3013" fill="url(#linearGradient3007)" d="m359.8 422.36-12.85-11.14c17.083-0.887 46.713 17.511 55.763 20.432 4.826-2.829 23.693-33.645 40.724-38.908 2.627-0.878 14.445 0.839 14.445 0.839-1.787 4.321-7.695 6.748-13.628 2.857-3.631-0.374-34.407 37.471-38.434 40.14-0.986 0.123-2.043 0.185-3.167 0.185-9.522 0.001-23.967-4.462-42.849-14.406"/></g><g transform="translate(72,75.2)"><g clip-path="url(#clipPath3019)"><g transform="translate(456.44 395.48)"><path id="path3025" d="m0 0c-0.941 0.989-2.334 1.865-4.05 2.244-1.709 0.385-3.722 0.223-5.656-0.608-0.481-0.212-0.966-0.442-1.433-0.727-0.123-0.069-0.229-0.135-0.359-0.219l-0.565-0.312c-0.409-0.095-0.908 0.134-1.227 0.299-1.148 0.651-2.058 1.468-3.021 2.31-1.891 1.701-3.755 3.594-5.666 5.585-7.616 7.979-15.822 17.647-24.012 26.786-1.029 1.136-2.059 2.264-3.105 3.344-0.522 0.535-1.054 1.072-1.585 1.527-0.296 0.236-0.115 0.156-0.625 0.22-0.362 0.039-0.725 0.064-1.089 0.086-2.915 0.157-5.817-0.146-8.593-0.617-5.565-0.972-10.667-2.614-15.116-4.232-8.895-3.297-15.245-6.532-17.644-7.681-1.836-0.908-5.382-2.188-0.451 0.885 0.159 0.094 1.806 0.967 4.621 2.337 2.817 1.363 6.804 3.23 11.7 5.151 4.898 1.896 10.708 3.922 17.226 5.054 1.629 0.275 3.303 0.483 5.014 0.579 0.856 0.049 1.72 0.065 2.592 0.045 0.436-0.011 0.873-0.03 1.312-0.063l0.659-0.056 0.386-0.043c0.178-0.032 0.375-0.011 0.51-0.15 0.341-0.237 0.488-0.374 0.661-0.522l0.497-0.455 0.941-0.926c0.613-0.623 1.212-1.257 1.807-1.895 1.187-1.277 2.358-2.573 3.525-3.874 9.309-10.407 18.406-21.159 26.065-28.771 0.962-0.937 1.909-1.823 2.846-2.582 0.234-0.188 0.468-0.367 0.699-0.528 0.209-0.151 0.508-0.33 0.62-0.38 0.086-0.04 0.196-0.09 0.279-0.006l0.263 0.16 0.395 0.22c2.105 1.146 4.316 1.573 6.156 1.411 1.852-0.137 3.289-0.799 4.239-1.416 0.962-0.622 1.462-1.214 1.673-1.447 0.77-0.942 1.039-1.672 1.155-2.076 0.099-0.417 0.054-0.526-0.072-0.446-0.239 0.17-0.825 1.07-1.572 1.789" fill="#292929"/></g><g transform="translate(404.69 430.85)"><path id="path3029" d="m0 0c5.245-4.385 14.009-17.26 24.46-27.318 2.607-2.504 5.32-4.82 8.079-6.695 1.379-0.935 2.769-1.761 4.151-2.433 0.691-0.338 1.38-0.635 2.062-0.891 0.328-0.124 0.708-0.255 1.001-0.347 0.29-0.082 0.63-0.127 0.963-0.158 2.726-0.183 5.218 0.065 7.152 0.197 1.946 0.159 3.387 0.312 4.174 0.394 1.205 0.126 3.476-0.072 0.126-0.986-0.107-0.026-1.202-0.189-3.05-0.405-1.855-0.194-4.431-0.527-7.626-0.519-0.403 0.009-0.816 0.025-1.254 0.074-0.218 0.025-0.442 0.056-0.683 0.11-0.262 0.059-0.47 0.137-0.663 0.195-0.821 0.266-1.654 0.592-2.484 0.967-1.662 0.752-3.323 1.707-4.957 2.804-3.269 2.196-6.427 4.946-9.4 7.872-5.945 5.867-11.181 12.42-15.192 17.465-2.002 2.528-3.698 4.685-4.982 6.237-1.278 1.56-2.155 2.486-2.374 2.736-0.829 0.967-1.027 1.183-0.831 1.28 0.198 0.084 0.82-0.18 1.328-0.579" fill="#292929"/></g></g></g><g transform="translate(72,75.2)"><path id="path3049" fill="url(#linearGradient3043)" d="m308.54 455.27c-3.212-2.251-16.027-20.459-16.027-20.459l-2.461-3.812 3.135-4.474s15.614 16.965 17.324 23.699c0.182-3.861 8.903-14.675 8.903-14.675l6.684 6.334c-2.965 5.126-11.829 13.772-16.207 13.772-0.52 0-0.976-0.121-1.351-0.385"/></g><g transform="translate(72,75.2)"><g clip-path="url(#clipPath3055)"><g transform="translate(290.92 430.92)"><path id="path3061" d="m0 0c0.327-0.313 0.772-0.815 1.315-1.477l0.887-1.108 0.275-0.324 0.122-0.143 0.06-0.071c0.021-0.003 0.046 0.05 0.068 0.072 0.131 0.207 1.234 1.49 2.123 2.549l2.989 3.574c2.092 2.532 4.359 5.325 6.493 8.232 1.065 1.454 2.096 2.937 3.015 4.44 0.227 0.376 0.45 0.752 0.658 1.131l0.156 0.284 0.237 0.465c0.159 0.323 0.313 0.651 0.452 1.017 0.275 0.734 0.538 1.661 0.81 2.543l0.355 1.218c0.064 0.222 0.048 0.07 0.111 0.238 0.037 0.062 0.122 0.287 0.199 0.484 0.223-2.248 0.339-3.991 0.565-4.795 0.133-0.408 0.281-0.775 0.439-1.121l0.325-0.693c0.42-0.851 0.875-1.661 1.327-2.427 0.908-1.532 1.809-2.894 2.599-4.059 1.585-2.327 2.736-3.868 3.024-4.288 0.295-0.423 0.493-1.485-0.781-0.613-0.058 0.046-1.201 1.436-2.908 3.767-0.851 1.168-1.843 2.571-2.871 4.194-0.511 0.813-1.034 1.68-1.528 2.62l-0.364 0.721-0.126 0.271c-0.067 0.153-0.125 0.31-0.162 0.474l-0.018 0.103c-0.006 0.022-0.002 0.107-0.015 0.039l-0.065-0.209c-0.049-0.137-0.105-0.272-0.167-0.403l-0.096-0.195-0.332-0.622c-0.238-0.43-0.484-0.857-0.741-1.277-1.023-1.685-2.159-3.314-3.322-4.897-2.332-3.162-4.778-6.136-6.995-8.73-1.11-1.297-2.164-2.496-3.127-3.569l-1.696-1.869-0.524-0.565c-0.084-0.072-0.173-0.227-0.251-0.23l-0.212 0.305-0.801 1.151-1.574 2.317c-0.35 0.529-0.557 0.856-0.594 0.944-0.446 1.072 0.241 0.892 0.666 0.532" fill="#292929"/></g><g transform="translate(325.93 442.61)"><path id="path3065" d="m0 0c-0.992 1.08-3.35 4.058-6.999 7.331-1.82 1.605-3.949 3.387-6.407 4.583-1.2 0.563-2.629 0.968-3.354 0.286-1.02-0.857-2.02-2.042-2.978-3.154-3.823-4.569-7.359-9.31-10.115-12.956-1.357-1.835-2.576-3.386-3.379-4.595l-1.592-2.307c-0.315-0.432-1.268-0.975-0.832 0.542 0.042 0.069 1.698 2.916 4.55 6.812 2.827 3.921 6.546 9.139 10.712 14.125 0.529 0.62 1.069 1.233 1.648 1.831 0.292 0.298 0.59 0.592 0.939 0.881 0.316 0.288 0.905 0.618 1.403 0.693 1.043 0.19 1.935-0.063 2.735-0.337 0.801-0.291 1.525-0.664 2.208-1.065 2.71-1.631 4.854-3.591 6.638-5.344 3.556-3.526 5.41-6.517 5.513-6.826 0.412-1.16-0.29-0.884-0.69-0.5" fill="#292929"/></g></g></g><g transform="translate(72,75.2)"><path id="path3085" fill="url(#linearGradient3079)" d="m252.59 369.87s-8.432 7.574-16.016-0.72c0 0 15.517-4.994 16.54-4.921 3.408 2.176 20.655 27.145 20.655 27.145l-6.233 1.85s-12.345-20.914-14.946-23.354"/></g><g transform="translate(72,75.2)"><g clip-path="url(#clipPath3091)"><g transform="translate(236.73 369.26)"><path id="path3097" d="m0 0c1.423-0.155 4.959-1.127 9.515-2.439l3.59-1.023 1.898-0.508c0.924-0.163 0.465-0.299 1.076 0.199 1.868 1.862 3.656 4.191 5.423 6.417 7.014 9.048 13.51 18.075 14.344 19.109 0.317 0.403 1.262 0.879 0.816-0.567-0.08-0.171-6.908-10.294-14.412-20.103-0.946-1.223-1.907-2.437-2.895-3.612-0.495-0.588-0.998-1.165-1.525-1.726-0.267-0.279-0.536-0.556-0.832-0.825-0.115-0.109-0.399-0.345-0.645-0.507-0.243-0.213-0.566-0.145-0.864-0.107-0.352 0.064-0.479 0.1-0.672 0.145l-0.535 0.137-1.035 0.284-1.985 0.579-3.628 1.114c-4.503 1.416-7.583 2.456-7.843 2.607-0.987 0.578-0.338 0.853 0.209 0.826" fill="#292929"/></g><g transform="translate(266.97 392.74)"><path id="path3101" d="m0 0c-0.439-1.359-2.292-4.792-4.821-9.046-1.265-2.127-2.699-4.459-4.225-6.833-0.765-1.186-1.551-2.384-2.362-3.566-0.406-0.592-0.818-1.18-1.241-1.76-0.464-0.607-0.729-1.04-1.606-1.979-0.242-0.034-0.447-0.126-0.619-0.107-0.169 0.041-0.376 0.081-0.625 0.12-0.164 0.138-0.345 0.281-0.498 0.393l-0.336 0.244c-0.204 0.142-0.411 0.279-0.62 0.41-0.417 0.263-0.843 0.501-1.274 0.715-0.86 0.425-1.739 0.75-2.606 0.954-1.736 0.422-3.409 0.329-4.771-0.071-1.367-0.395-2.427-1.037-3.175-1.575-0.749-0.543-1.208-0.977-1.393-1.138-0.321-0.285-1.288-0.572-0.704 0.701 0.021 0.029 0.365 0.429 1.07 1.023 0.702 0.589 1.782 1.395 3.314 1.986 1.52 0.591 3.524 0.876 5.603 0.479 1.037-0.187 2.085-0.526 3.105-0.989 0.51-0.232 1.013-0.495 1.506-0.788 0.246-0.147 0.49-0.301 0.732-0.463l0.448-0.314 0.12-0.096c0.04-0.014 0.077 0.062 0.112 0.092l0.122 0.149 0.29 0.378 0.663 0.911c0.438 0.618 0.869 1.252 1.295 1.89 0.851 1.276 1.685 2.57 2.495 3.843 1.619 2.547 3.144 5.014 4.477 7.177 2.663 4.327 4.553 7.44 4.768 7.654 0.719 0.724 0.875 0.085 0.756-0.394" fill="#292929"/></g></g></g><g transform="translate(72,75.2)"><path id="path3121" fill="url(#linearGradient3115)" d="m207.73 445.92s-12.836-31.219-16.408-53.543c-5.026-3.351-23.94-20.456-29.006-24.828-9.781 4.232-21.583 2.622-25.983-3.627-1.878-2.67 1.41-1.768 3.872-2.722 2.48-0.958 19.575-1.25 19.575-1.25s27.839 20.747 31.656 27.734c7.096 2.823 22.374 44.464 22.33 53.927 11.833-11.86 25.745-16.386 25.745-16.386l16.413 1.459c-10.641 8.416-33.687 19.096-40.276 21.21-2.803 0.9-4.392 1.462-5.41 1.462-1.339 0-1.688-0.974-2.508-3.436"/></g><g transform="translate(72,75.2)"><g clip-path="url(#clipPath3127)"><g transform="translate(135.99 362.42)"><path id="path3133" d="m0 0c0.556-0.413 1.888-0.25 3.435-0.596 0.194-0.046 0.395-0.095 0.598-0.163 0.223-0.076 0.334-0.107 0.544-0.151 0.381-0.077 0.802-0.132 1.24-0.181 0.878-0.096 1.834-0.162 2.852-0.222 2.038-0.118 4.33-0.201 6.833-0.271l3.912-0.093 3.962-0.062 3.45 2.656 3.816 2.984c2.596 2.049 5.291 4.208 8.037 6.475 2.745 2.268 5.546 4.638 8.308 7.143 1.379 1.253 2.75 2.541 4.066 3.885 0.657 0.673 1.299 1.361 1.905 2.07 0.302 0.354 0.595 0.714 0.868 1.082 0.137 0.182 0.267 0.368 0.391 0.553l0.179 0.281 0.295 0.513c0.626 0.268 0.663 0.32 0.933 0.504 0.224 0.165 0.445 0.358 0.66 0.566 0.429 0.417 0.835 0.885 1.222 1.379 0.774 0.987 1.478 2.058 2.148 3.154 1.335 2.198 2.532 4.503 3.664 6.83 2.256 4.662 4.246 9.426 6.055 14.12 1.803 4.696 3.419 9.332 4.787 13.807 0.682 2.237 1.301 4.436 1.819 6.585 0.257 1.074 0.488 2.136 0.674 3.182l0.13 0.781 0.071 0.503 0.067 0.602c0.069 0.8 0.078 1.737 0.094 2.556 0.059 0.028 0.217-0.167 0.338-0.279l0.38-0.38 0.76-0.754 1.377-1.323c0.666-0.622 1.332-1.218 1.996-1.79 1.327-1.143 2.643-2.186 3.923-3.138 2.562-1.903 4.978-3.442 7.102-4.675 4.254-2.463 7.307-3.733 8.313-4.172 0.718-0.312 1.699-0.82 1.978-1.109 0.287-0.281-0.188-0.432-2.352 0.189-0.143 0.06-2.972 1.092-7.415 3.499-2.216 1.209-4.83 2.772-7.65 4.779-1.409 1.003-2.869 2.117-4.35 3.353-0.74 0.619-1.486 1.267-2.231 1.947l-0.665 0.615-0.184 0.176-0.09 0.09c-0.024 0.014-0.079 0.102-0.065 0.024-0.001-0.173-0.014-0.347-0.034-0.521l-0.051-0.385-0.129-0.813c-0.185-1.084-0.414-2.171-0.668-3.266-0.512-2.191-1.124-4.418-1.798-6.682-1.354-4.526-2.956-9.202-4.75-13.942-1.8-4.737-3.785-9.542-6.053-14.267-1.139-2.359-2.345-4.7-3.715-6.964-0.688-1.132-1.415-2.245-2.245-3.308-0.416-0.531-0.86-1.049-1.362-1.537-0.252-0.244-0.52-0.481-0.818-0.7-0.251-0.201-0.772-0.487-0.749-0.46l-0.067-0.113-0.211-0.331c-0.144-0.216-0.292-0.426-0.444-0.63-0.302-0.407-0.617-0.794-0.939-1.172-0.644-0.754-1.313-1.469-1.992-2.163-1.359-1.389-2.757-2.701-4.16-3.974-2.809-2.542-5.639-4.928-8.406-7.2-2.767-2.271-5.476-4.423-8.077-6.452l-3.818-2.948-3.844-2.903-5.187 0.138-4.47 0.177c-2.818 0.135-5.298 0.288-7.39 0.512-1.061 0.128-1.965 0.212-2.92 0.51-0.731 0.289-1.365 0.384-1.961 0.48-0.605 0.094-1.048 0.143-1.534 0.266-0.569 0.134-0.856 0.361-0.971 0.465-0.481 0.442-0.407 1.051-0.255 1.406 0.161 0.389 0.364 0.614 0.48 0.737 0.249 0.233 0.354 0.231 0.368 0.108 0.018-0.121-0.075-0.384-0.15-0.687-0.068-0.279-0.152-0.676 0.14-0.905" fill="#292929"/></g><g transform="translate(253.9 427.79)"><path id="path3137" d="m0 0c-2.035 1.322-5.733 3.659-10.843 6.447-5.105 2.791-11.593 6.086-19.083 9.417-1.873 0.827-3.81 1.658-5.809 2.445-0.999 0.391-2.014 0.774-3.04 1.101-1.057 0.334-2.123 0.69-3.181 1.001-1.017 0.309-2.254 0.579-2.508 0.188-0.224-0.208-0.458-0.704-0.647-1.21-0.207-0.533-0.349-1.02-0.585-1.662-0.872-2.156-1.728-4.365-2.578-6.601-3.387-8.953-6.667-18.413-9.421-27.936-1.371-4.761-2.607-9.541-3.578-14.284-0.242-1.186-0.467-2.369-0.67-3.549l-0.086-0.505c-0.054-0.222-0.04-0.483-0.15-0.672l-0.951-0.662c-0.475-0.344-0.946-0.704-1.412-1.066-1.865-1.455-3.671-2.961-5.442-4.45-7.071-5.978-13.561-11.745-19.281-16.731l-2.335-2.019c-0.057-0.09-0.138-0.034-0.214-0.001l-0.23 0.098-0.458 0.192-0.644 0.258c-0.409 0.158-0.819 0.304-1.227 0.44-1.632 0.543-3.242 0.915-4.789 1.148-3.095 0.467-5.924 0.381-8.287-0.005-2.368-0.385-4.266-1.075-5.633-1.771-1.372-0.695-2.219-1.375-2.648-1.731-0.676-0.538-1.561-1.377-1.938-1.608-0.194-0.107-0.279-0.042-0.143 0.335 0.146 0.369 0.512 1.071 1.431 2.024 0.061 0.055 0.623 0.597 1.776 1.326 1.152 0.722 2.924 1.593 5.293 2.182 2.361 0.591 5.311 0.911 8.642 0.629 1.664-0.144 3.422-0.43 5.228-0.917 0.902-0.244 1.817-0.534 2.735-0.88l0.62-0.242c0.07-0.005 0.16-0.119 0.218-0.039l0.845 0.741c5.988 5.279 12.897 11.517 20.5 17.995 1.909 1.613 3.848 3.249 5.913 4.828l0.79 0.585 0.268 0.19c0.02 0.015 0.042 0.027 0.059 0.043l0.015 0.09 0.302 1.752c0.232 1.285 0.487 2.572 0.76 3.86 1.096 5.152 2.475 10.318 3.992 15.442 3.049 10.247 6.633 20.336 10.314 29.719l0.697 1.75c0.105 0.269 0.26 0.627 0.328 0.823l0.304 0.891c0.218 0.598 0.416 1.205 0.838 1.861 0.215 0.32 0.541 0.68 0.988 0.883 0.442 0.202 0.888 0.232 1.257 0.215 0.745-0.045 1.35-0.219 1.951-0.383 0.596-0.17 1.169-0.354 1.737-0.536 1.121-0.367 2.26-0.711 3.369-1.133 4.383-1.667 8.381-3.518 12.084-5.272 7.389-3.534 13.458-6.868 17.74-9.462 4.287-2.589 6.773-4.45 7.168-4.776 2.966-2.553 1.189-1.771-0.351-0.796" fill="#292929"/></g></g></g><g transform="translate(72,75.2)"><path id="path3157" fill="url(#radialGradient3151)" d="m219.38 435.12c-21.622-15.502-11.8-30.713 4.606-38.816 17.113-8.455 72.127-21.376 81.546 18.574 1.97 12.008-6.094 24.866-17.431 31.048-6.208 3.388-13.785 4.993-21.934 4.993-15.308 0.001-32.645-5.66-46.787-15.799"/></g><g transform="translate(72,75.2)"><g clip-path="url(#clipPath3163)"><g transform="translate(226.82 395.26)"><path id="path3169" d="m0 0c3.23-1.221 9.12-3.253 17.191-4.878 4.032-0.807 8.606-1.51 13.622-1.856 5.009-0.338 10.477-0.333 16.149 0.504 5.646 0.845 11.562 2.558 16.785 5.908 2.6 1.67 4.994 3.751 7.014 6.211 2.022 2.458 3.656 5.289 4.874 8.34 0.612 1.526 1.117 3.107 1.535 4.724 0.221 0.792 0.329 1.496 0.399 2.335 0.075 0.81 0.1 1.628 0.08 2.447-0.072 3.281-0.874 6.577-2.218 9.661-2.699 6.175-7.461 11.542-13.238 15.145-5.946 3.704-13.024 5.366-19.973 5.737-6.982 0.369-13.917-0.508-20.435-2.109-6.526-1.611-12.656-3.969-18.211-6.775-2.779-1.404-5.413-2.927-7.892-4.53-2.481-1.606-4.807-3.264-6.856-5.082-4.098-3.585-7.189-7.898-7.889-12.365-0.367-2.21-0.147-4.372 0.445-6.286 0.588-1.921 1.516-3.598 2.522-5.036 2.041-2.877 4.332-4.838 6.13-6.244 1.819-1.4 3.202-2.245 3.915-2.683 1.084-0.668 2.609-1.618 3.049-2.039 0.448-0.398-0.272-0.437-3.555 1.184-0.1 0.058-1.027 0.557-2.593 1.595-1.552 1.049-3.779 2.623-6.148 5.139-1.173 1.262-2.376 2.77-3.393 4.612-1.013 1.833-1.832 4.03-2.057 6.493-0.235 2.455 0.183 5.133 1.254 7.649 1.059 2.527 2.703 4.893 4.682 7.052 1.982 2.163 4.301 4.138 6.826 5.967 2.512 1.824 5.214 3.565 8.085 5.191 5.742 3.247 12.172 6.04 19.119 8.016 6.937 1.972 14.409 3.158 22.067 2.949 7.611-0.221 15.564-1.878 22.361-6.089 6.845-4.27 12.337-10.754 15.057-18.334 1.345-3.781 1.937-7.861 1.494-11.842-0.058-0.478-0.116-1.015-0.232-1.528-0.121-0.497-0.245-0.985-0.375-1.443-0.261-0.931-0.545-1.856-0.871-2.763-0.643-1.818-1.42-3.582-2.33-5.262-1.817-3.362-4.203-6.365-6.974-8.811-2.771-2.451-5.894-4.344-9.099-5.749-6.44-2.802-13.067-3.771-19.118-4.017-6.075-0.229-11.658 0.289-16.585 1.034-4.93 0.755-9.214 1.762-12.762 2.749-7.101 1.987-11.259 3.887-11.936 4.192-2.545 1.223-3.1 1.763-2.762 1.763 0.342 0.011 1.602-0.427 2.847-0.876" fill="#292929"/></g><g opacity="0.38" clip-path="url(#clipPath3175)"><path id="path3203" fill="url(#linearGradient3183)" d="m239.68 392.4c-9.671 0.21-26.99 13.415-23.003 31.723 0.009-15.738 12.458-26.212 23.003-31.723"/></g><g opacity="0.38" clip-path="url(#clipPath3209)"><path id="path3237" fill="url(#linearGradient3217)" d="m254.11 390.88c-11.968 1.146-32.232 19.1-25.615 41.433-1.428-19.51 13.047-33.636 25.615-41.433"/></g><g opacity="0.38" clip-path="url(#clipPath3243)"><path id="path3271" fill="url(#linearGradient3251)" d="m269.24 390.83c-12.44 2.484-31.784 23.501-22.446 46.232-3.588-20.326 10.09-36.702 22.446-46.232"/></g></g></g><g transform="translate(72,75.2)"><path id="path3291" fill="url(#linearGradient3285)" d="m220.8 425.88s-16.405-39.498-20.25-63.575c-5.176-4.015-24.141-24.528-29.699-29.966-10.775 3.579-24.228 0.335-29.425-7.4-2.239-3.333 1.622-1.842 4.467-2.6 2.849-0.759 22.084 1.205 22.084 1.205s32.509 28.63 36.483 36.485c7.177 3.6 22.096 51.588 22.141 61.431 11.11-11.999 26.153-21.35 26.153-21.35 4.139-3.455 20.723-3.832 14.603 1.968-8.976 8.509-32.658 23.79-38.893 25.923-2.676 0.915-4.2 1.49-5.183 1.49-1.307 0.001-1.655-1.018-2.481-3.611"/></g><g transform="translate(72,75.2)"><g clip-path="url(#clipPath3297)"><g transform="translate(141.42 323.5)"><path id="path3303" d="m0 0c0.198-0.105 0.433-0.127 0.677-0.143 0.271-0.015 0.613-0.013 0.957-0.005 0.699 0.009 1.497 0.044 2.393-0.066 0.224-0.025 0.454-0.068 0.689-0.121 0.194-0.045 0.396-0.068 0.622-0.085 0.445-0.033 0.925-0.037 1.422-0.034 0.997 0.011 2.073 0.06 3.217 0.127 2.288 0.135 4.849 0.342 7.643 0.593l4.362 0.412 4.468 0.458 8.293 7.542c2.96 2.724 6.048 5.599 9.211 8.611 3.16 3.012 6.401 6.156 9.621 9.453 1.607 1.651 3.211 3.339 4.762 5.087 0.774 0.875 1.535 1.766 2.258 2.68 0.361 0.457 0.712 0.921 1.04 1.391 0.164 0.236 0.323 0.473 0.472 0.711 0.159 0.256 0.243 0.393 0.524 0.935l0.395 0.22c0.078 0.046 0.12 0.076 0.183 0.121 0.116 0.082 0.231 0.178 0.346 0.277 0.229 0.203 0.451 0.436 0.666 0.682 0.428 0.494 0.828 1.04 1.208 1.606 0.759 1.135 1.443 2.349 2.091 3.585 1.293 2.478 2.446 5.057 3.539 7.66 2.175 5.213 4.1 10.54 5.872 15.831 1.764 5.295 3.37 10.562 4.767 15.72 0.696 2.579 1.34 5.131 1.893 7.648 0.276 1.259 0.529 2.509 0.739 3.748l0.147 0.926 0.066 0.461 0.088 0.725c0.103 0.954 0.112 2.098 0.14 3.115 0.056 0.004 0.169-0.129 0.274-0.243l0.312-0.336 0.623-0.669 1.241-1.313 1.706-1.73c1.074-1.063 2.153-2.086 3.23-3.071 2.154-1.969 4.295-3.79 6.378-5.475 4.168-3.367 8.093-6.206 11.543-8.524l1.273-0.84 0.311-0.2c0.075-0.053 0.169-0.093 0.284-0.153l0.639-0.304c0.853-0.385 1.694-0.7 2.501-0.964 1.616-0.528 3.102-0.851 4.392-1.012 2.595-0.349 4.345 0.105 5.025 0.452 0.419 0.189 0.893 0.468 1.263 0.799 0.372 0.326 0.642 0.691 0.814 0.86 0.168 0.169 0.28 0.133 0.196-0.321-0.09-0.415-0.45-1.426-1.845-2.233-0.094-0.06-1.537-0.812-4.042-0.732-1.243 0.025-2.73 0.218-4.401 0.628-0.835 0.206-1.717 0.464-2.637 0.79-0.936 0.347-1.838 0.673-2.899 1.272-3.594 2.291-7.754 5.202-12.256 8.729-2.248 1.766-4.575 3.692-6.927 5.795-1.176 1.051-2.358 2.148-3.536 3.294l-1.721 1.713-0.279 0.289-0.138 0.145-0.069 0.074c-0.022 0.021-0.054 0.07-0.046 0.011-0.002-0.2-0.02-0.4-0.042-0.6l-0.08-0.633-0.148-0.955c-0.209-1.272-0.46-2.544-0.733-3.822-0.549-2.553-1.188-5.13-1.878-7.732-1.386-5.202-2.98-10.504-4.739-15.834-1.765-5.328-3.686-10.688-5.871-15.955-1.099-2.631-2.259-5.239-3.58-7.778-0.664-1.268-1.365-2.52-2.171-3.727-0.404-0.602-0.835-1.194-1.326-1.761-0.247-0.284-0.51-0.56-0.805-0.823-0.149-0.13-0.303-0.258-0.473-0.379-0.079-0.059-0.182-0.127-0.254-0.17l-0.064-0.037c0.01 0.013-0.207-0.378-0.366-0.627-0.169-0.27-0.343-0.531-0.522-0.787-0.356-0.509-0.727-0.999-1.105-1.478-0.757-0.956-1.541-1.872-2.336-2.769-1.589-1.79-3.22-3.503-4.85-5.172-3.265-3.335-6.536-6.496-9.718-9.511-3.184-3.014-6.283-5.876-9.245-8.574l-4.334-3.917-4.281-3.807-5.776-0.535-5.016-0.399c-3.161-0.226-5.942-0.385-8.296-0.417-1.19-0.003-2.221-0.02-3.281 0.16l-0.358 0.085c-0.095 0.026-0.194 0.042-0.288 0.062-0.193 0.036-0.384 0.062-0.57 0.084-0.374 0.04-0.73 0.058-1.061 0.069-0.663 0.023-1.224 0.027-1.675 0.072-0.558 0.039-1.019 0.21-1.154 0.3-0.334 0.194-0.559 0.497-0.602 0.814-0.056 0.309 0.018 0.594 0.1 0.832 0.202 0.501 0.42 0.733 0.542 0.878 0.281 0.296 0.397 0.313 0.402 0.17 0.007-0.141-0.114-0.453-0.227-0.836-0.05-0.189-0.103-0.383-0.099-0.587-0.002-0.199 0.102-0.42 0.305-0.506" fill="#292929"/></g><g transform="translate(265.62 403.85)"><path id="path3307" d="m0 0c-2.172 1.61-6.088 4.516-11.428 8.199-5.347 3.66-12.06 8.225-19.947 12.777-1.98 1.095-4.029 2.284-6.203 3.019-1.14 0.381-2.3 0.807-3.425 1.116-0.548 0.151-1.14 0.252-1.435 0.166-0.138-0.043-0.226-0.092-0.353-0.252-0.123-0.153-0.247-0.386-0.357-0.641-0.225-0.513-0.414-1.114-0.606-1.708-0.195-0.685-0.486-1.241-0.707-1.838l-1.433-3.588-2.847-7.366c-3.768-9.971-7.482-20.48-10.623-31.061-1.562-5.291-2.981-10.603-4.066-15.879l-0.386-1.977-0.375-2.142c-0.038-0.114 0-0.259-0.101-0.346l-0.32-0.254-0.444-0.362-0.744-0.642-1.461-1.332c-1.924-1.803-3.781-3.647-5.599-5.472-7.267-7.312-13.894-14.342-19.839-20.354l-1.155-1.147-0.406-0.398c-0.07-0.057-0.13-0.153-0.207-0.176l-0.269 0.086-0.929 0.293c-0.955 0.283-1.907 0.512-2.849 0.686-1.882 0.351-3.719 0.498-5.461 0.504-3.489 0.006-6.594-0.56-9.144-1.357-5.149-1.603-7.894-4.127-8.771-4.976-0.712-0.658-1.65-1.65-2.048-1.924-0.205-0.13-0.291-0.066-0.14 0.347 0.157 0.407 0.548 1.175 1.488 2.281 0.064 0.064 0.64 0.694 1.826 1.614 1.186 0.911 3.012 2.089 5.522 3.089 2.501 1 5.681 1.83 9.388 2.064 1.85 0.117 3.83 0.084 5.894-0.17 1.032-0.125 2.084-0.307 3.148-0.554 0.533-0.122 1.067-0.266 1.604-0.423l0.399-0.122c0.041 0 0.068 0.056 0.103 0.082l0.145 0.144c6.226 6.311 13.272 13.919 21.08 21.824 1.959 1.973 3.954 3.972 6.075 5.927 0.533 0.488 1.073 0.972 1.647 1.445 0.103 0.096 0.113 0.065 0.151 0.146l0.044 0.27 0.184 1.074c0.255 1.433 0.54 2.865 0.847 4.299 1.239 5.73 2.822 11.466 4.549 17.155 3.472 11.376 7.521 22.579 11.581 33.026l1.53 3.88 1.512 3.74c0.21 0.646 0.407 1.291 0.674 1.96 0.138 0.335 0.288 0.679 0.525 1.037 0.223 0.351 0.62 0.745 1.12 0.929 1.021 0.314 1.743 0.044 2.412-0.101 0.668-0.181 1.291-0.392 1.907-0.601l1.82-0.626c0.629-0.209 1.251-0.478 1.83-0.747 1.167-0.546 2.27-1.137 3.344-1.735 2.147-1.199 4.172-2.43 6.106-3.637 15.422-9.727 25.176-17.696 26.004-18.483 3.152-2.98 1.268-1.981-0.381-0.788" fill="#292929"/></g><g transform="translate(348.15 411.41)"><path id="path3311" d="m0 0c2.774 0.241 7.292 1.036 12.457 2.686 5.17 1.614 10.982 3.959 16.547 6.429 5.566 2.468 10.897 5.042 15.182 7.051 4.277 2.025 7.544 3.418 8.813 3.856 0.484 0.178 1.217 0.297 1.494 0.187 0.278-0.113 0.097-0.393-1.129-1.11-0.161-0.069-3.343-1.437-7.986-3.774-4.65-2.303-10.801-5.427-17.16-8.257-6.349-2.844-12.947-5.332-18.259-6.628-5.303-1.36-9.262-1.378-9.852-1.291-2.272 0.299-1.14 0.726-0.107 0.851" fill="#292929"/></g></g></g><g transform="translate(72,75.2)"><path id="path3331" fill="url(#radialGradient3325)" d="m328.06 446.55c-20.828-6.401-24.155-21.342-25.043-30.552-5.06-22.262 22.088-20.803 37.749-18.321 15.661 2.481 31.32 14.517 30.145 24.727-3.674 13.693-16.245 25.755-32.468 25.754-3.322 0-6.799-0.506-10.383-1.608"/></g><g transform="translate(72,75.2)"><g clip-path="url(#clipPath3337)"><g transform="translate(338.58 397.16)"><path id="path3343" d="m0 0c-2.531-0.447-7.107-1.224-13.284-1.36-3.084-0.041-6.583 0.07-10.347 0.846-1.876 0.396-3.82 0.971-5.721 1.902-1.889 0.928-3.751 2.256-5.156 4.115-1.417 1.846-2.261 4.187-2.497 6.58-0.126 1.198-0.119 2.413-0.013 3.621 0.052 0.605 0.129 1.208 0.226 1.81l0.163 0.901 0.092 0.448 0.024 0.113 0.001 0.014 0.019 0.202c0.432 4.787 1.507 9.848 3.925 14.501 2.376 4.661 6.132 8.748 10.647 11.679 2.25 1.479 4.67 2.697 7.166 3.697 2.495 0.989 5.067 1.81 7.733 2.335 5.445 1.096 11.174 0.859 16.399-0.762 5.238-1.594 9.912-4.51 13.644-8.099 3.741-3.597 6.569-7.855 8.417-12.254 0.462-1.101 0.867-2.21 1.208-3.323l0.244-0.834c0.065-0.305 0.169-0.481 0.22-0.958 0.056-0.605 0.057-1.207 0.006-1.798-0.195-2.376-1.116-4.499-2.221-6.322-2.275-3.648-5.269-6.274-8.09-8.354-2.853-2.067-5.625-3.565-8.071-4.679-4.909-2.219-8.47-2.945-9.686-3.228-0.935-0.208-2.277-0.344-2.725-0.259-0.453 0.096 0.01 0.295 2.547 1.034 0.146 0.078 2.997 0.615 7.511 2.552 2.247 0.975 4.9 2.32 7.699 4.213 2.777 1.895 5.773 4.325 8.226 7.586 1.207 1.629 2.27 3.482 2.822 5.527 0.27 1.019 0.413 2.082 0.347 3.141-0.003 0.133-0.022 0.265-0.034 0.397-0.008 0.085-0.004 0.076-0.012 0.104l-0.05 0.171-0.248 0.828c-0.17 0.553-0.362 1.103-0.566 1.654-1.63 4.398-4.286 8.708-7.873 12.363-3.574 3.655-8.116 6.628-13.217 8.278-5.093 1.673-10.699 1.947-16.067 0.858-5.443-1.157-10.827-3.322-15.304-6.502-4.505-3.177-7.963-7.572-9.968-12.455-1.021-2.433-1.712-4.965-2.173-7.495-0.231-1.266-0.403-2.533-0.537-3.794l-0.03-0.282-0.064-0.304-0.099-0.454-0.172-0.908c-0.103-0.603-0.184-1.205-0.236-1.804-0.214-2.388 0.032-4.739 0.918-6.75 0.87-2.019 2.373-3.634 4.113-4.789 1.744-1.165 3.681-1.924 5.581-2.46 1.904-0.535 3.785-0.851 5.573-1.057 3.583-0.401 6.796-0.382 9.48-0.289 5.376 0.224 8.677 0.722 9.221 0.749 4.104 0.409 2.225-0.248 0.289-0.646" fill="#292929"/></g></g></g><g transform="translate(72,75.2)"><path id="path3363" fill="url(#linearGradient3357)" d="m344.98 387.65c12.828-4.676 40.434 10.56 49.4 11.921 4.756-4.164 18.661-40.566 40.52-55.079 3.697-2.551 20.935-3.238 20.935-3.238-2.997 7.525-11.554 11.138-19.851 8.189-4.948 1.086-34.199 51.201-38.208 54.931-9.084 2.893-23.483 1.104-41.707-6.232 3.178 7.519 4.29 12.854 3.642 14.825l-12.568 2.727c-2.318-12.206-4.537-22.874-2.163-28.044"/></g><g transform="translate(72,75.2)"><g clip-path="url(#clipPath3369)"><g transform="translate(397.03 403.96)"><path id="path3375" d="m0 0c-1.063 0.111-3.206 0.502-6.112 0.607-2.904 0.116-6.558-0.066-10.518-0.653-3.961-0.587-8.221-1.557-12.369-2.756-2.075-0.599-4.124-1.252-6.101-1.928-0.989-0.337-1.959-0.681-2.906-1.029l-4.12-1.568 0.882 2.062 0.764 1.848c0.333 0.826 0.64 1.625 0.919 2.392 0.558 1.533 1.003 2.938 1.328 4.157 0.67 2.442 0.754 4.131 0.715 4.594-0.001 0.274 0.059 0.661 0.191 0.844 0.116 0.187 0.473 0.142 0.799-0.765 0.049-0.085 0.16-1.833-0.441-4.413-0.283-1.296-0.707-2.814-1.263-4.485-0.279-0.835-0.589-1.71-0.932-2.614l-0.446-1.144 1.3 0.51c1.023 0.389 2.073 0.777 3.145 1.153 2.143 0.757 4.37 1.48 6.624 2.13 4.506 1.305 9.131 2.294 13.34 2.778 4.207 0.499 7.989 0.456 10.732 0.108 2.748-0.332 4.438-0.901 4.644-0.993 1.173-0.609 0.428-0.867-0.175-0.835" fill="#292929"/></g><g transform="translate(455.18 341.73)"><path id="path3379" d="m0 0c-0.65 1.026-1.849 2.927-4.154 4.653-2.269 1.718-5.757 3.135-9.792 2.935-1.002-0.045-2.029-0.186-3.058-0.428-0.515-0.119-1.031-0.263-1.543-0.437l-0.659-0.189c-0.228 0.01-0.454 0.106-0.668 0.203-0.105 0.053-0.216 0.117-0.311 0.174l-0.216 0.148c-0.137 0.097-0.264 0.197-0.386 0.299-1.859 1.653-3.268 3.575-4.772 5.54-2.939 3.955-5.777 8.219-8.555 12.471-5.537 8.515-10.767 17.018-14.869 23.577-4.08 6.574-7.101 11.158-7.818 12.066-0.261 0.365-0.553 0.918-0.576 1.189-0.043 0.28 0.368 0.32 1.36-0.58 0.068-0.058 0.958-1.191 2.322-3.186 1.371-1.995 3.245-4.847 5.455-8.276 4.427-6.852 10.186-16.027 16.176-25.089 3.006-4.516 6.045-9.043 9.168-13.05 0.785-0.993 1.58-1.958 2.407-2.804 0.206-0.209 0.415-0.411 0.625-0.593 0.104-0.091 0.209-0.178 0.312-0.255 0.097-0.074 0.229-0.161 0.241-0.167 0.04-0.022 0.082-0.044 0.127-0.054l0.141 0.045c0.295 0.102 0.594 0.186 0.892 0.268 2.38 0.658 4.771 0.789 6.933 0.501 2.166-0.281 4.097-0.973 5.676-1.841 1.582-0.87 2.815-1.909 3.725-2.883 1.82-1.968 2.435-3.543 2.54-3.778 0.612-1.976-0.22-1.219-0.723-0.459" fill="#292929"/></g><g transform="translate(346.6 387)"><path id="path3383" d="m0 0c1.88-0.323 5.354-0.432 9.874 0.45 4.522 0.84 10.043 2.55 16.157 4.822 3.061 1.132 6.274 2.399 9.626 3.709 3.369 1.284 6.812 2.718 10.623 3.698 0.245 0.057 0.474 0.111 0.741 0.161 0.197 0.041 0.396 0.072 0.595 0.099 0.193 0.007 0.424 0.14 0.551-0.072 0.149-0.135 0.295-0.273 0.437-0.419l0.203-0.219 0.135-0.159c0.168-0.201 0.324-0.404 0.474-0.609 0.597-0.818 1.114-1.655 1.622-2.501 1.007-1.691 1.949-3.416 2.894-5.147 1.882-3.465 3.756-6.961 5.698-10.399 3.872-6.878 7.999-13.54 12.422-19.401 4.408-5.865 9.136-10.915 13.865-14.579 0.59-0.458 1.179-0.896 1.765-1.312l0.881-0.61c0.256-0.177 0.542-0.323 0.843-0.454 1.216-0.516 2.516-0.815 3.734-1.076 2.454-0.502 4.694-0.786 6.614-1.013 3.848-0.437 6.443-0.603 7.355-0.681 1.402-0.109 3.948-0.739-0.057-0.991-0.128-0.001-2.334 0.085-6.096 0.424-1.881 0.177-4.15 0.411-6.742 0.842-1.296 0.225-2.671 0.485-4.119 0.927-0.723 0.235-1.473 0.487-2.232 0.983-0.636 0.422-1.291 0.878-1.94 1.354-5.222 3.814-10.445 9.27-15.259 15.641-4.833 6.368-9.292 13.636-13.437 21.06l-6.104 11.113c-1.023 1.803-2.04 3.64-3.213 5.187-0.147 0.19-0.326 0.397-0.341 0.409l-0.082 0.079-0.112-0.019-0.568-0.12-0.716-0.177c-0.954-0.254-1.903-0.554-2.841-0.87-3.751-1.286-7.352-2.745-10.803-4.062-3.449-1.327-6.744-2.552-9.843-3.589-6.189-2.089-11.623-3.368-15.663-3.699-4.045-0.369-6.589 0.237-6.98 0.356-1.539 0.489-1.84 0.867-1.63 0.944 0.216 0.099 0.95-0.002 1.669-0.08" fill="#292929"/></g><g transform="translate(347.27 414.93)"><path id="path3387" d="m0 0c0.297-1.636-0.991-8.069-1.979-14.29-0.486-3.111-0.827-6.185-0.792-8.555 0.007-2.378 0.486-3.985 0.593-4.318 0.069-0.24-0.175-0.97-0.923-0.365-0.049 0.028-0.806 1.78-0.937 4.42-0.182 2.633 0.1 6.07 0.587 9.46 1.001 6.781 2.454 13.477 2.609 13.778 0.361 0.559 0.757 0.184 0.842-0.13" fill="#292929"/></g></g></g><g transform="translate(72,75.2)"><path id="path3407" fill="url(#linearGradient3401)" d="m320.01 410.19c-1.353-3.027-6.866-16.938-7.471-20.374-6.055 1.927-21.509 1.752-23.578-0.435-3.826-5.544-15.72-53.05-20.727-58.912-6.822 1.98-20.837 0.166-21.494-10.217l20.215 2.191c7.744 6.459 24.443 50.572 26.45 63.954 2.643-0.939 16.46-2.204 21.458-2.52 4.689 0.861 15.736 16.76 18.892 23.898 1.542 4.247-2.224 7.672-6.386 7.671-2.754 0-5.683-1.501-7.359-5.256"/></g><g transform="translate(318.27 396.94)"><path id="path3419" d="m0 0c0.165 0.949 0.546 2.26 1.481 3.629 0.923 1.369 2.417 2.734 4.383 3.768 1.962 1.043 4.364 1.779 7.036 2.121 1.337 0.17 2.744 0.242 4.203 0.186 0.729-0.029 1.471-0.09 2.224-0.195 0.377-0.053 0.756-0.114 1.137-0.193l0.479-0.103 0.203-0.05c0.051 0.034 0.088 0.105 0.128 0.158l0.192 0.307c0.183 0.306 0.358 0.629 0.527 0.96 0.338 0.664 0.653 1.363 0.959 2.078 0.611 1.434 1.182 2.938 1.744 4.483 1.121 3.095 2.198 6.363 3.28 9.739 2.159 6.753 4.317 13.942 6.569 21.223 1.129 3.64 2.275 7.304 3.502 10.941 0.618 1.818 1.249 3.629 1.965 5.42 0.364 0.896 0.732 1.784 1.224 2.675l0.201 0.337c0.078 0.131 0.203 0.311 0.353 0.428 0.29 0.244 0.526 0.361 0.782 0.485 0.499 0.228 0.984 0.373 1.466 0.495 1.925 0.465 3.814 0.622 5.69 0.736 1.875 0.101 3.73 0.114 5.563 0.062 1.832-0.052 3.641-0.17 5.421-0.376 0.89-0.103 1.773-0.228 2.647-0.39 0.436-0.081 0.871-0.171 1.304-0.275l0.633-0.169c0.028 0.143 0.067 0.285 0.11 0.425l0.294 0.908c0.216 0.629 0.444 1.244 0.676 1.849 0.466 1.211 0.951 2.387 1.434 3.538 0.97 2.3 1.943 4.493 2.887 6.579 0.945 2.087 1.86 4.064 2.743 5.92 0.227 0.466 0.421 0.913 0.696 1.391 0.27 0.46 0.585 0.879 0.926 1.256 0.684 0.756 1.463 1.348 2.256 1.826 3.2 1.846 6.527 2.169 8.809 1.275 1.15-0.449 1.903-1.362 2.155-2.159 0.267-0.801 0.218-1.418 0.192-1.777-0.062-0.84-0.558-1.879-0.869-2.126-0.15-0.131-0.244-0.077-0.236 0.259-0.009 0.331 0.14 0.969 0.115 1.94-0.009 0.04 0.029 0.319-0.032 0.773-0.066 0.447-0.245 1.073-0.868 1.588-1.225 1.083-4.336 1.265-7.43-0.135-1.528-0.695-3.14-1.813-4.049-3.487-0.893-1.849-1.849-3.977-2.829-6.163-0.982-2.202-2-4.531-3.018-6.972-0.508-1.221-1.015-2.47-1.503-3.747-0.242-0.638-0.48-1.284-0.701-1.934-0.112-0.331-0.213-0.639-0.316-0.989-0.173-0.562-0.28-1.194-0.401-1.796l-1.052 0.313-0.532 0.149-0.417 0.102c-0.407 0.095-0.822 0.178-1.242 0.253-0.84 0.15-1.699 0.267-2.569 0.362-1.74 0.19-3.524 0.295-5.33 0.337-1.806 0.039-3.636 0.016-5.471-0.096-1.826-0.121-3.695-0.295-5.424-0.74-0.424-0.114-0.845-0.251-1.181-0.422-0.163-0.079-0.323-0.196-0.346-0.224l-0.033-0.049-0.081-0.132-0.159-0.281c-0.416-0.781-0.776-1.656-1.123-2.528-0.688-1.755-1.311-3.563-1.919-5.376-1.21-3.631-2.348-7.305-3.472-10.951-2.243-7.293-4.403-14.488-6.578-21.226-1.089-3.369-2.177-6.625-3.317-9.715-0.571-1.545-1.155-3.048-1.786-4.498-0.318-0.725-0.645-1.437-1.007-2.132-0.181-0.347-0.371-0.69-0.579-1.03l-0.169-0.266c-0.09-0.127-0.172-0.261-0.267-0.381-0.184-0.244-0.376-0.485-0.573-0.703l-1.085 0.293-0.644 0.143c-0.41 0.081-0.82 0.146-1.229 0.2-0.817 0.106-1.627 0.162-2.42 0.178-1.585 0.031-3.101-0.09-4.505-0.324-2.812-0.465-5.179-1.404-6.882-2.554-1.715-1.149-2.736-2.482-3.283-3.518-0.555-1.041-0.726-1.761-0.797-1.956-0.476-1.521-0.569-1.983-0.75-1.785-0.151 0.186-0.24 1.014-0.115 1.835" fill="#292929"/></g><g transform="translate(404.71 481)"><path id="path3423" d="m0 0c-1.178-2.786-4.39-8.797-10.01-15.897-1.431-1.756-2.994-3.595-4.966-5.282-0.501-0.416-1.028-0.822-1.63-1.18-0.3-0.18-0.622-0.346-0.981-0.48-0.201-0.074-0.319-0.117-0.622-0.181-0.132-0.051-0.286 0.001-0.392-0.006l-0.245 0.015-3.992 0.294c-2.706 0.221-5.499 0.481-8.362 0.796-1.431 0.158-2.879 0.33-4.342 0.532-0.733 0.102-1.469 0.212-2.211 0.34l-1.108 0.21c-0.107 0.023-0.215 0.047-0.319 0.083-0.031-0.058-0.032-0.165-0.052-0.245l-0.123-0.644c-0.119-0.596-0.249-1.188-0.386-1.778-0.274-1.183-0.577-2.36-0.898-3.535-0.642-2.349-1.353-4.691-2.1-7.026-1.498-4.668-3.143-9.305-4.857-13.837-3.442-9.057-7.119-17.72-10.947-25.166-1.948-3.703-3.845-7.158-6.218-9.946-0.318-0.355-0.593-0.648-0.994-1.005-0.123-0.09-0.223-0.235-0.368-0.272l-0.46-0.05-0.632-0.064-2.44-0.245-4.42-0.441-10.26-1c-1.416-0.124-4.027 0.102-0.107 0.987 0.149 0.033 3.241 0.386 8.407 0.961l9.195 1.02 0.197 0.022c0.042-0.003 0.073 0.017 0.1 0.047 0.012 0.009 0.236 0.218 0.363 0.352 0.295 0.304 0.583 0.636 0.864 0.985 0.562 0.7 1.099 1.468 1.624 2.273 1.048 1.613 2.05 3.381 3.037 5.243 3.922 7.473 7.694 16.417 11.244 25.779 1.766 4.686 3.466 9.488 5.013 14.307 0.771 2.41 1.504 4.826 2.166 7.234 0.329 1.204 0.641 2.407 0.92 3.606 0.294 1.288 0.466 2.016 0.858 4.469 0.675-0.232 1.51-0.501 2.029-0.589l1.192-0.22c0.801-0.133 1.607-0.25 2.41-0.359 1.606-0.217 3.202-0.402 4.776-0.573 3.148-0.341 6.211-0.625 9.143-0.863l2.172-0.163c0.396-0.12 0.981 0.222 1.526 0.534 1.091 0.688 2.083 1.607 2.999 2.518 1.829 1.848 3.393 3.77 4.783 5.565 5.538 7.249 8.265 12.596 8.598 13.129 0.796 1.303 1.093 1.608 1.182 1.39 0.084-0.217-0.084-0.953-0.356-1.644" fill="#292929"/></g><g transform="translate(420.76 524.71)"><path id="path3427" d="m0 0c0.649-2.083 1.974-3.516 3.119-5.304 1.144-1.785 2.557-3.389 4.169-4.763 1.409-1.196 2.966-2.218 4.632-3.022 0.244-0.116 0.488-0.228 0.734-0.334 0.103-0.149-1.053-1.761-1.441-1.608-1.758 0.693-3.484 2.197-4.888 3.75-1.579 1.749-3.096 3.592-4.105 5.638-1.017 2.043-2.284 3.54-2.22 5.643" fill="#292929"/></g><g transform="translate(420.26 487.43)"><path id="path3431" d="m0 0c2.774 0.243 7.292 1.034 12.456 2.685 5.171 1.615 10.983 3.957 16.546 6.429 5.567 2.467 10.898 5.042 15.184 7.051 4.277 2.025 7.543 3.418 8.812 3.856 1.002 0.354 2.852 0.462 0.364-0.923-0.159-0.069-3.341-1.437-7.985-3.774-4.65-2.302-10.8-5.426-17.16-8.257-6.348-2.845-12.946-5.331-18.258-6.628-5.303-1.36-9.263-1.376-9.852-1.29-2.274 0.299-1.141 0.724-0.107 0.851" fill="#292929"/></g><g transform="translate(398 481.48)"><path id="path3435" d="m0 0c26.784 37.572 97.844 68.915 134.22 38.571 3.63-41.097-75.408-53.869-134.22-38.571" fill="#90c84c"/></g><g transform="translate(72,75.2)"><g clip-path="url(#clipPath3445)"><g transform="translate(436.6 435.43)"><path id="path3455" d="m0 0c-2.473-4.894-8.229-14.234-16.412-18.468 7.272 5.461 11.575 12.801 13.675 17.676-7.506-2.159-16.176-4.55-25.277-7.001-2.285-4.846-8.845-16.353-18.492-21.342 8.577 6.441 13.366 15.277 15.433 20.523-9.635-2.58-19.646-5.196-29.178-7.648-1.656-3.338-5.706-10.053-11.522-13.058 5.2 3.905 8.213 9.186 9.63 12.572-23.696-6.077-44.024-11.016-47.522-11.562 61.659-12.3 123.55 2.43 130.14 34.95-3.314-1.449-10.751-3.812-20.48-6.642" fill="#579a4e"/></g></g></g><g transform="translate(400 484.52)"><path id="path3439" d="m0 0c2.482 3.423 7.388 9.376 15.109 16.036 7.698 6.651 18.19 14.026 31.148 20.244 6.471 3.103 13.554 5.912 21.147 8.091 7.588 2.168 15.705 3.715 24.112 4.075 8.384 0.35 17.115-0.518 25.36-3.409 4.112-1.44 8.08-3.388 11.723-5.836 0.914-0.61 1.8-1.256 2.67-1.928l0.647-0.508 0.787-0.642c0.084-0.074 0.185-0.139 0.254-0.221l0.025-0.339 0.043-0.594c0.023-0.275 0.035-0.553 0.045-0.828 0.096-2.214-0.051-4.444-0.466-6.624-0.804-4.373-2.734-8.49-5.365-11.99-2.628-3.516-5.9-6.449-9.398-8.911-7.045-4.918-14.919-8.083-22.66-10.408-7.77-2.306-15.495-3.73-22.894-4.647-7.404-0.91-14.489-1.299-21.093-1.367-13.215-0.129-24.487 1.017-32.878 2.273-8.4 1.263-13.941 2.604-15.89 3.066-3.014 0.746-8.274 2.592 0.224 0.968 0.274-0.029 4.919-1.199 12.99-2.493 8.063-1.275 19.593-2.598 33.432-2.55 6.914 0.026 14.401 0.401 22.25 1.355 7.841 0.962 16.064 2.488 24.287 5.023 8.178 2.56 16.498 6.085 23.554 11.638 3.495 2.78 6.629 6.106 8.854 10.009 2.237 3.888 3.465 8.342 3.522 12.85 0.011 0.563 0.008 1.126-0.019 1.69l-0.048 0.844-0.016 0.214c0.008 0.048-0.026 0.074-0.062 0.101l-0.541 0.44-0.676 0.524c-0.453 0.344-0.906 0.687-1.372 1.015-1.854 1.32-3.804 2.5-5.824 3.543-4.035 2.091-8.349 3.6-12.745 4.6-8.809 1.999-17.87 1.992-26.449 0.89-8.592-1.108-16.764-3.309-24.294-6.018-7.532-2.721-14.435-5.967-20.607-9.381-12.363-6.832-21.749-14.34-27.983-20.247-6.246-5.924-9.448-10.174-10.03-10.82-2.141-2.555-2.75-3.2-2.685-2.804 0.076 0.387 0.886 1.775 1.819 3.076" fill="#292929"/></g><g transform="translate(436.53 496.15)"><path id="path3459" d="m0 0-0.029-0.007-1.457-1.323-0.498 0.934 1.832 1.652 1.115 0.277 2.392-9.666-1.263-0.313-2.092 8.446z" fill="#fff"/></g><g transform="translate(455.58 493.17)"><path id="path3463" d="m0 0-0.029-0.007-1.457-1.323-0.5 0.934 1.832 1.652l1.115 0.277 2.394-9.666-1.263-0.313-2.092 8.446z" fill="#fff"/></g><g transform="translate(482.43 505.44)"><path id="path3467" d="m0 0-0.035-0.009-1.708-1.553-0.587 1.096 2.15 1.94 1.309 0.324 2.809-11.342-1.484-0.367-2.454 9.911z" fill="#fff"/></g><g transform="translate(432.82 488.15)"><path id="path3471" d="m0 0-0.029-0.007-1.456-1.324-0.499 0.934 1.831 1.652 1.115 0.277 2.393-9.666-1.263-0.313-2.092 8.447z" fill="#fff"/></g><g transform="translate(475.38 498.22)"><path id="path3475" d="m0 0-0.024-0.006-1.218-1.107-0.418 0.781 1.532 1.383 0.934 0.231 2.003-8.087-1.059-0.261-1.75 7.066z" fill="#fff"/></g><g transform="translate(474.64 481.77)"><path id="path3479" d="m0 0c1.015 0.251 1.209 1.569 0.74 3.463-0.452 1.824-1.205 2.91-2.255 2.649-0.912-0.225-1.216-1.536-0.756-3.395 0.455-1.932 1.336-2.948 2.259-2.719l0.012 0.002zm0.146-0.788c-1.448-0.358-2.776 0.753-3.407 3.2-0.618 2.497 0.129 4.123 1.635 4.496 1.551 0.384 2.796-0.785 3.381-3.145 0.624-2.522 0.022-4.147-1.598-4.548l-0.011-0.003z" fill="#fff"/></g><g transform="translate(424.37 481.25)"><path id="path3483" d="m0 0c1.016 0.251 1.209 1.57 0.74 3.463-0.453 1.825-1.205 2.91-2.254 2.65-0.912-0.226-1.216-1.537-0.756-3.396 0.454-1.932 1.334-2.948 2.258-2.72l0.012 0.003zm0.146-0.787c-1.447-0.359-2.777 0.752-3.406 3.199-0.619 2.498 0.129 4.124 1.633 4.496 1.553 0.384 2.797-0.784 3.383-3.145 0.623-2.521 0.021-4.146-1.598-4.547l-0.012-0.003z" fill="#fff"/></g><g transform="translate(445.39 479.87)"><path id="path3487" d="m0 0c1.016 0.251 1.209 1.57 0.74 3.463-0.452 1.825-1.205 2.911-2.254 2.65-0.912-0.225-1.216-1.536-0.756-3.396 0.455-1.932 1.335-2.948 2.259-2.719l0.011 0.002zm0.146-0.787c-1.448-0.358-2.776 0.752-3.406 3.199-0.619 2.498 0.129 4.124 1.634 4.497 1.551 0.384 2.797-0.785 3.382-3.146 0.624-2.521 0.021-4.146-1.598-4.547l-0.012-0.003z" fill="#fff"/></g><g transform="translate(425.82 493.02)"><path id="path3491" d="m0 0c1.322 0.328 1.574 2.047 0.963 4.515-0.588 2.38-1.57 3.795-2.938 3.456-1.189-0.295-1.588-2.003-0.986-4.428 0.592-2.52 1.74-3.845 2.945-3.546l0.016 0.003zm0.191-1.026c-1.89-0.468-3.623 0.982-4.443 4.172-0.807 3.257 0.168 5.375 2.131 5.861 2.021 0.501 3.646-1.022 4.408-4.1 0.815-3.287 0.029-5.407-2.082-5.93l-0.014-0.003z" fill="#fff"/></g><g transform="translate(463.61 497.17)"><path id="path3495" d="m0 0c1.323 0.328 1.577 2.048 0.965 4.517-0.589 2.379-1.571 3.793-2.939 3.454-1.189-0.295-1.588-2.003-0.987-4.427 0.593-2.521 1.741-3.846 2.946-3.547l0.015 0.003zm0.191-1.026c-1.888-0.468-3.621 0.981-4.442 4.171-0.807 3.258 0.168 5.376 2.132 5.862 2.021 0.501 3.645-1.022 4.408-4.101 0.814-3.286 0.028-5.406-2.083-5.928l-0.015-0.004z" fill="#fff"/></g><g transform="translate(505.38 507.07)"><path id="path3499" d="m0 0c1.323 0.328 1.576 2.047 0.966 4.516-0.59 2.379-1.572 3.794-2.941 3.455-1.189-0.295-1.587-2.003-0.986-4.428 0.593-2.52 1.741-3.845 2.946-3.547l0.015 0.004zm0.19-1.026c-1.887-0.468-3.62 0.981-4.441 4.171-0.807 3.258 0.168 5.376 2.131 5.862 2.022 0.501 3.646-1.022 4.408-4.101 0.815-3.286 0.029-5.406-2.082-5.929l-0.016-0.003z" fill="#fff"/></g><g transform="translate(486.31 482.28)"><path id="path3503" d="m0 0c1.442 0.357 1.718 2.232 1.052 4.921-0.643 2.593-1.712 4.135-3.203 3.766-1.296-0.321-1.73-2.184-1.076-4.825 0.646-2.746 1.898-4.191 3.21-3.866l0.017 0.004zm0.208-1.118c-2.059-0.509-3.945 1.07-4.84 4.546-0.879 3.549 0.183 5.859 2.321 6.388 2.205 0.546 3.974-1.113 4.804-4.469 0.887-3.581 0.032-5.891-2.269-6.461l-0.016-0.004z" fill="#fff"/></g><g transform="translate(451.89 485.02)"><path id="path3507" d="m0 0-0.02-0.005-0.97-0.882-0.334 0.622 1.222 1.104 0.745 0.184 1.597-6.451-0.844-0.209-1.396 5.637z" fill="#fff"/></g><path id="path3511" d="m510.03 526.69-0.029-0.007-1.455-1.324-0.5 0.934 1.832 1.653 1.115 0.276 2.392-9.666-1.263-0.313-2.092 8.447z" fill="#fff"/><g transform="translate(487.64 519.47)"><path id="path3515" d="m0 0c1.324 0.328 1.578 2.048 0.967 4.518-0.59 2.378-1.572 3.793-2.94 3.454-1.189-0.295-1.588-2.003-0.988-4.427 0.594-2.521 1.742-3.847 2.947-3.549l0.014 0.004zm0.191-1.025c-1.888-0.468-3.619 0.981-4.441 4.171-0.807 3.256 0.168 5.376 2.131 5.862 2.023 0.501 3.646-1.022 4.408-4.101 0.815-3.286 0.029-5.406-2.082-5.929l-0.016-0.003z" fill="#fff"/></g><g transform="translate(471.71 502.41)"><path id="path3519" d="m0 0c1.323 0.328 1.576 2.046 0.965 4.516-0.59 2.379-1.57 3.794-2.939 3.455-1.189-0.295-1.587-2.003-0.987-4.427 0.593-2.521 1.742-3.846 2.946-3.547l0.015 0.003zm0.191-1.026c-1.888-0.468-3.621 0.981-4.442 4.171-0.807 3.258 0.168 5.376 2.132 5.862 2.021 0.501 3.645-1.021 4.408-4.1 0.814-3.286 0.028-5.407-2.083-5.93l-0.015-0.003z" fill="#fff"/></g><g transform="translate(491.74 516.87)"><path id="path3523" d="m0 0-0.029-0.008-1.457-1.322-0.5 0.934 1.832 1.652l1.115 0.276 2.394-9.666-1.263-0.312-2.092 8.446z" fill="#fff"/></g><g transform="translate(490.98 501.66)"><path id="path3527" d="m0 0c1.015 0.251 1.209 1.57 0.74 3.462-0.452 1.826-1.205 2.911-2.255 2.651-0.912-0.226-1.216-1.537-0.756-3.396 0.455-1.933 1.335-2.949 2.259-2.72l0.012 0.003zm0.146-0.787c-1.449-0.359-2.777 0.752-3.407 3.199-0.618 2.498 0.129 4.123 1.634 4.496 1.552 0.384 2.797-0.784 3.382-3.145 0.624-2.521 0.022-4.146-1.598-4.547l-0.011-0.003z" fill="#fff"/></g><g transform="translate(479.25 513.03)"><path id="path3531" d="m0 0c1.016 0.251 1.208 1.57 0.739 3.462-0.452 1.826-1.204 2.911-2.253 2.651-0.913-0.226-1.216-1.537-0.757-3.396 0.455-1.933 1.335-2.949 2.259-2.72l0.012 0.003zm0.146-0.787c-1.449-0.359-2.777 0.752-3.407 3.199-0.618 2.498 0.129 4.123 1.634 4.496 1.552 0.384 2.797-0.784 3.382-3.145 0.624-2.521 0.022-4.146-1.597-4.547l-0.012-0.003z" fill="#fff"/></g><g transform="translate(413.83 482.88)"><path id="path3535" d="m0 0c1.324 0.328 1.576 2.047 0.965 4.517-0.59 2.379-1.57 3.794-2.94 3.455-1.189-0.295-1.586-2.003-0.986-4.427 0.594-2.522 1.742-3.847 2.947-3.548l0.014 0.003zm0.191-1.025c-1.888-0.468-3.621 0.981-4.443 4.171-0.807 3.257 0.17 5.375 2.133 5.861 2.021 0.501 3.646-1.022 4.408-4.1 0.815-3.287 0.029-5.406-2.082-5.929l-0.016-0.003z" fill="#fff"/></g><g transform="translate(526.18 511.69)"><path id="path3539" d="m0 0c1.323 0.328 1.577 2.047 0.966 4.516-0.59 2.379-1.571 3.795-2.94 3.456-1.189-0.295-1.588-2.003-0.987-4.428 0.593-2.521 1.742-3.846 2.946-3.547l0.015 0.003zm0.191-1.026c-1.888-0.467-3.621 0.982-4.442 4.172-0.807 3.257 0.168 5.375 2.131 5.861 2.023 0.501 3.646-1.022 4.409-4.1 0.814-3.287 0.028-5.406-2.083-5.929l-0.015-0.004z" fill="#fff"/></g><g transform="translate(500.29 519.66)"><path id="path3543" d="m0 0c1.322 0.328 1.576 2.047 0.965 4.516-0.59 2.379-1.57 3.795-2.94 3.456-1.189-0.295-1.586-2.003-0.986-4.428 0.592-2.521 1.742-3.846 2.945-3.547l0.016 0.003zm0.191-1.026c-1.888-0.468-3.621 0.982-4.443 4.172-0.807 3.257 0.168 5.375 2.133 5.861 2.021 0.501 3.644-1.021 4.408-4.099 0.813-3.287 0.027-5.408-2.084-5.931l-0.014-0.003z" fill="#fff"/></g><g transform="translate(436.01 508.07)"><path id="path3547" d="m0 0-0.02-0.005-0.972-0.882-0.332 0.623 1.222 1.103 0.745 0.184 1.597-6.45-0.844-0.209-1.396 5.636z" fill="#fff"/></g><g transform="translate(443.1 502.33)"><path id="path3551" d="m0 0-0.029-0.007-1.456-1.322-0.499 0.933 1.831 1.653 1.115 0.277 2.393-9.666-1.263-0.313-2.092 8.445z" fill="#fff"/></g><g transform="translate(453.4 500.91)"><path id="path3555" d="m0 0c1.015 0.251 1.209 1.569 0.74 3.462-0.452 1.825-1.205 2.91-2.254 2.65-0.913-0.226-1.217-1.537-0.757-3.395 0.455-1.932 1.335-2.948 2.259-2.72l0.012 0.003zm0.146-0.787c-1.449-0.359-2.777 0.752-3.407 3.199-0.618 2.497 0.129 4.123 1.634 4.495 1.552 0.385 2.797-0.784 3.382-3.144 0.624-2.522 0.022-4.146-1.597-4.547l-0.012-0.003z" fill="#fff"/></g><g transform="translate(492.71 494.07)"><path id="path3559" d="m0 0-0.029-0.007-1.456-1.323-0.499 0.935 1.831 1.653 1.115 0.276 2.393-9.666-1.263-0.313-2.092 8.445z" fill="#fff"/></g><g transform="translate(464.05 491.37)"><path id="path3563" d="m0 0-0.039-0.01-1.907-1.733-0.655 1.222 2.4 2.166 1.461 0.362 3.135-12.66-1.656-0.41l-2.739 11.063z" fill="#fff"/></g><g transform="translate(513.37 513.94)"><path id="path3567" d="m0 0-0.029-0.008-1.457-1.323-0.498 0.934 1.83 1.652l1.115 0.276 2.394-9.666-1.263-0.312-2.092 8.447z" fill="#fff"/></g><g transform="translate(510.66 501.44)"><path id="path3571" d="m0 0-0.029-0.007-1.457-1.323-0.5 0.934 1.832 1.653l1.115 0.276 2.394-9.666-1.263-0.313-2.092 8.446z" fill="#fff"/></g><g transform="translate(521.68 498.9)"><path id="path3575" d="m0 0c1.016 0.251 1.208 1.57 0.739 3.463-0.451 1.825-1.204 2.91-2.254 2.65-0.912-0.225-1.216-1.536-0.756-3.396 0.455-1.932 1.335-2.948 2.259-2.72l0.012 0.003zm0.146-0.787c-1.448-0.358-2.777 0.752-3.407 3.199-0.618 2.498 0.129 4.124 1.634 4.497 1.552 0.384 2.798-0.785 3.382-3.146 0.625-2.521 0.022-4.146-1.598-4.547l-0.011-0.003z" fill="#fff"/></g><g transform="translate(502.54 491.13)"><path id="path3579" d="m0 0c1.322 0.328 1.576 2.048 0.965 4.517-0.59 2.379-1.57 3.793-2.94 3.454-1.189-0.295-1.586-2.003-0.986-4.427 0.592-2.521 1.742-3.846 2.945-3.547l0.016 0.003zm0.191-1.026c-1.888-0.468-3.621 0.981-4.443 4.172-0.807 3.257 0.168 5.375 2.133 5.861 2.021 0.501 3.644-1.021 4.408-4.1 0.813-3.286 0.027-5.407-2.084-5.929l-0.014-0.004z" fill="#fff"/></g><g transform="translate(363.02 611.42)"><path id="path3583" d="m0 0c-1.382-3.099-1.508-4.124-0.178-8.632 2.057-6.97 2.157-15.461 1.038-17.669-2.085-4.131-7.904 18.608-1.62 25.7" fill="#292929"/></g><g transform="translate(362.79 610.31)"><path id="path3587" d="m0 0c-0.171-0.619-0.367-1.334-0.416-2.123-0.055-0.788 0.072-1.657 0.315-2.609 0.238-0.957 0.574-1.964 0.926-3.08 0.349-1.121 0.646-2.322 0.904-3.58 0.501-2.517 0.83-5.262 0.865-8.111 0.01-1.426-0.036-2.872-0.295-4.36-0.061-0.317-0.177-0.876-0.404-1.43-0.229-0.533-0.541-0.929-1.003-1.104-0.505-0.171-0.988 0.038-1.365 0.384-0.196 0.171-0.371 0.4-0.532 0.64-0.155 0.234-0.322 0.54-0.391 0.687-0.667 1.391-1.042 2.756-1.382 4.125-0.328 1.365-0.568 2.717-0.748 4.034-0.357 2.636-0.463 5.138-0.357 7.357 0.102 2.219 0.431 4.153 0.884 5.642 0.444 1.494 1.012 2.524 1.357 3.055 0.262 0.419 0.794 0.886 1.077 0.918 0.298 0.028 0.241-0.284-0.227-1.431-0.017-0.08-0.454-0.743-0.881-2.036-0.43-1.289-0.81-3.209-0.906-5.553-0.104-2.342 0.049-5.096 0.511-8.001 0.232-1.451 0.541-2.943 0.955-4.419 0.211-0.735 0.444-1.471 0.727-2.172 0.132-0.333 0.316-0.731 0.437-0.956 0.058-0.103 0.12-0.208 0.211-0.285 0.09-0.1 0.246-0.044 0.286 0.075 0.063 0.13 0.075 0.163 0.129 0.394 0.148 0.682 0.235 1.471 0.281 2.228 0.094 1.533 0.059 3.073-0.038 4.562-0.197 2.982-0.661 5.774-1.252 8.145-0.624 2.34-1.325 4.474-1.255 6.239 0.023 0.878 0.221 1.584 0.384 2.072 0.17 0.49 0.31 0.792 0.376 0.917 1.053 1.837 1.067 0.711 0.827-0.224" fill="#292929"/></g><g transform="translate(427.73 634.41)"><path id="path3591" d="m0 0c3.072 1.437 4.095 1.581 8.625 0.332 7.008-1.933 15.499-1.88 17.686-0.723 4.092 2.16-18.745 7.571-25.724 1.161" fill="#292929"/></g><g transform="translate(428.66 635.07)"><path id="path3595" d="m0 0c0.573 0.316 1.277 0.666 2.164 0.859 0.887 0.199 1.909 0.171 2.94 0.015 1.033-0.149 2.123-0.415 3.227-0.68 1.101-0.26 2.276-0.48 3.504-0.671 2.455-0.369 5.133-0.606 7.868-0.587 1.362 0.014 2.755 0.085 4.062 0.326 0.375 0.077 0.521 0.115 0.604 0.144 0.101 0.036 0.217 0.076 0.277 0.173 0.059 0.109-0.041 0.214-0.121 0.279-0.042 0.036-0.089 0.067-0.137 0.097-0.057 0.034-0.063 0.04-0.233 0.123-1.158 0.556-2.507 0.948-3.802 1.273-1.309 0.323-2.618 0.568-3.895 0.757-2.556 0.376-4.99 0.521-7.139 0.464-2.15-0.053-4.014-0.322-5.44-0.711-1.431-0.379-2.407-0.875-2.915-1.173-0.395-0.223-0.973-0.515-1.258-0.525-0.268-0.022-0.335 0.374 0.73 1.366 0.071 0.048 0.833 0.598 2.248 1.123 1.411 0.529 3.462 0.994 5.915 1.162 2.454 0.176 5.304 0.088 8.32-0.321 1.508-0.205 3.058-0.49 4.619-0.891 0.781-0.207 1.565-0.436 2.349-0.734 0.407-0.16 0.745-0.29 1.226-0.544 0.596-0.317 1.155-0.724 1.392-1.218 0.123-0.241 0.187-0.528 0.125-0.816-0.057-0.288-0.222-0.51-0.427-0.701-0.38-0.385-1.14-0.645-1.682-0.772-0.876-0.21-1.677-0.301-2.5-0.369-1.628-0.128-3.222-0.116-4.766-0.039-3.086 0.156-5.967 0.597-8.44 1.192-2.467 0.648-4.446 1.259-5.858 1.206-1.382-0.045-2.28-0.512-2.538-0.554-1.934-0.59-1.274 0.214-0.419 0.747" fill="#292929"/></g><g transform="translate(420.09 564.16)"><path id="path3599" d="m0 0c-2.514 2.782-6.508 7.505-11.428 12.875-4.912 5.375-10.764 11.383-16.801 16.831-6.019 5.457-12.248 10.344-17.461 13.828-2.6 1.697-5.091 2.849-7.16 3.201-2.078 0.391-3.589-0.118-4.297-0.519-0.569-0.278-1.345-0.775-1.715-0.869-0.188-0.037-0.284 0.048-0.176 0.361 0.119 0.3 0.424 0.877 1.305 1.546 0.09 0.044 1.375 0.953 3.704 0.934 2.307-0.001 5.284-1.033 8.338-2.854 6.016-3.709 13.353-9.351 20.249-15.642 6.901-6.27 13.317-13.136 18.018-18.65 4.712-5.508 7.743-9.641 8.154-10.315 1.542-2.587 0.244-1.752-0.73-0.727" fill="#292929"/></g><g transform="translate(434.65 576.51)"><path id="path3603" d="m0 0c-2.979 5.382-8.285 18.693-10.714 31.988-1.201 6.617-1.636 13.291-0.463 18.51 0.29 1.298 0.68 2.494 1.152 3.549 0.458 1.059 1.054 1.96 1.551 2.695 0.997 1.508 1.885 2.573 2.484 3.071 0.435 0.418 1.291 0.711 1.604 0.561 0.157-0.058 0.18-0.187 0.038-0.389-0.14-0.21-0.429-0.485-0.835-1.048-0.051-0.065-0.695-0.674-1.597-2.064-0.436-0.683-1.029-1.563-1.509-2.503-0.487-0.971-0.913-2.138-1.222-3.463-1.288-5.335-0.593-12.897 0.948-20.225 3.095-14.76 9.15-28.969 9.46-30.181 0.67-2.338-0.287-1.505-0.897-0.501" fill="#292929"/></g><g transform="translate(72,75.2)"><path id="path3623" fill="url(#radialGradient3617)" d="m348.72 499.26c-18.549-10.142-19.97-36.466-9.045-45.66 14.507-12.209 35.644-25.332 50.894-14.928 9.212 6.284 9.659 23.577 3.288 45.541-1.191 10.993-14.363 19.18-28.563 19.179-5.588-0.001-11.336-1.269-16.574-4.132"/></g><g transform="translate(72,75.2)"><g clip-path="url(#clipPath3629)"><g transform="translate(394.75 481.87)"><path id="path3635" d="m0 0c0.879-2.774 2.369-7.843 3.371-14.801 0.478-3.476 0.829-7.435 0.59-11.774-0.126-2.167-0.409-4.429-0.995-6.724-0.593-2.286-1.492-4.629-2.964-6.747-0.73-1.059-1.609-2.049-2.627-2.911-1.03-0.868-2.154-1.556-3.332-2.197-2.369-1.254-5.036-2.091-7.807-2.416-5.573-0.67-11.345 0.609-16.729 2.744-5.412 2.15-10.548 5.163-15.441 8.551-2.444 1.701-4.831 3.502-7.156 5.381-1.163 0.964-2.31 1.835-3.455 2.949-1.1 1.109-2.038 2.362-2.808 3.698-1.546 2.676-2.468 5.639-2.941 8.622-0.472 2.988-0.483 6.014-0.137 8.962 0.702 5.898 2.91 11.506 6.288 16.053 3.358 4.575 7.94 7.949 12.742 9.938 4.804 2.03 9.792 2.806 14.381 2.727 9.244-0.162 16.795-3.593 21.31-7.378 2.285-1.892 3.846-3.868 4.824-5.511 0.989-1.647 1.421-2.942 1.635-3.607 0.348-1.034 0.491-2.562 0.338-3.059-0.062-0.25-0.171-0.243-0.339 0.175-0.172 0.414-0.39 1.251-0.942 2.574-0.04 0.082-0.277 0.889-0.947 2.224-0.682 1.322-1.861 3.162-3.84 5.06-1.971 1.893-4.729 3.836-8.231 5.347-3.492 1.514-7.719 2.62-12.398 2.852-4.665 0.231-9.808-0.42-14.758-2.447-2.472-1.011-4.887-2.347-7.093-4.059-2.205-1.712-4.202-3.792-5.874-6.167-3.352-4.745-5.41-10.647-5.77-16.754-0.18-3.05 0.057-6.158 0.822-9.139 0.767-2.971 2.066-5.843 4.044-8.152 0.492-0.576 1.024-1.117 1.598-1.603l1.825-1.515c1.226-1 2.469-1.979 3.727-2.933 2.515-1.907 5.092-3.714 7.729-5.376 5.269-3.312 10.809-6.098 16.512-7.631 2.846-0.76 5.729-1.186 8.543-1.134 2.812 0.042 5.543 0.593 8.006 1.623 1.234 0.51 2.393 1.148 3.479 1.865 1.074 0.7 2.006 1.543 2.807 2.491 1.602 1.902 2.636 4.162 3.318 6.422 1.345 4.558 1.439 9.071 1.289 13.027-0.179 3.976-0.683 7.471-1.19 10.381-1.048 5.823-2.063 9.34-2.168 9.934-0.999 4.497 0.039 2.521 0.764 0.435" fill="#292929"/></g></g></g><g transform="translate(72,75.2)"><path id="path3655" fill="url(#radialGradient3649)" d="m335 483.74c-7.128-3.898-10.872-12.86-5.542-22.612 5.335-9.753 17.184-13.545 24.313-9.647 7.131 3.898 8.588 14.964 3.256 24.717-3.597 6.579-9.119 9.487-14.521 9.487-2.607 0-5.185-0.677-7.506-1.945"/></g><g transform="translate(72,75.2)"><g clip-path="url(#clipPath3661)"><g transform="translate(358.19 474.34)"><path id="path3667" d="m0 0c1.163-2.262 2.402-5.541 2.594-9.626 0.083-2.032-0.103-4.264-0.829-6.51-0.72-2.231-2.024-4.502-4.078-6.187-2.038-1.705-4.757-2.643-7.51-2.796-2.766-0.168-5.59 0.369-8.222 1.423-5.28 2.089-9.793 6.389-12.113 11.632-1.185 2.598-1.87 5.445-1.807 8.268 0.049 2.818 0.863 5.567 2.261 7.856 2.808 4.635 7.668 7.214 12.044 7.696 2.203 0.26 4.307 0.026 6.128-0.51 1.828-0.532 3.372-1.357 4.618-2.228 2.498-1.77 3.836-3.632 4.536-4.615 0.549-0.767 1.107-1.972 1.138-2.429 0.013-0.478-0.33-0.099-1.945 1.85-0.123 0.099-0.995 1.509-3.045 3.265-1.03 0.863-2.38 1.781-4.081 2.472-1.694 0.689-3.749 1.129-5.988 1.026-2.233-0.097-4.639-0.747-6.857-2.038-2.215-1.282-4.232-3.215-5.566-5.661-1.346-2.435-1.961-5.362-1.686-8.29 0.254-2.93 1.349-5.833 2.936-8.411 3.17-5.163 8.734-8.801 14.393-9.601 2.813-0.41 5.654-0.084 7.956 1.069 2.31 1.142 3.97 3.111 4.944 5.197 0.991 2.095 1.372 4.278 1.464 6.232 0.085 1.964-0.123 3.722-0.405 5.187-0.593 2.937-1.419 4.723-1.58 5.209-0.698 1.842-0.854 2.364-0.592 2.26 0.245-0.109 0.835-0.886 1.292-1.74" fill="#292929"/></g><g transform="translate(354.9 472.07)"><path id="path3671" d="m0 0c1.757-2.625 1.264-6.038-1.104-7.62-2.367-1.584-5.709-0.736-7.466 1.888-1.754 2.624-1.261 6.037 1.106 7.621 2.367 1.582 5.708 0.736 7.464-1.889" fill="#292929"/></g></g></g><g transform="translate(72,75.2)"><path id="path3691" fill="url(#radialGradient3685)" d="m380.2 499.86c-6.751-2.701-8.615-10.261-4.921-19.498 3.7-9.235 13.758-13.851 18.153-12.377 6.894 2.317 9.83 11.171 6.137 20.405-3.016 7.534-9.506 12.207-15.461 12.206-1.345 0-2.664-0.238-3.908-0.736"/></g><g transform="translate(72,75.2)"><g clip-path="url(#clipPath3697)"><g transform="translate(400.39 486.66)"><path id="path3703" d="m0 0c0.769-2.083 1.509-5.08 1.112-8.654-0.206-1.772-0.715-3.684-1.741-5.489-1.011-1.799-2.586-3.478-4.646-4.53-0.516-0.265-1.038-0.488-1.617-0.673-0.606-0.186-1.224-0.266-1.832-0.27-1.217-0.014-2.41 0.206-3.561 0.552-2.308 0.692-4.477 1.878-6.443 3.367-1.958 1.501-3.704 3.339-5.085 5.44-1.403 2.101-2.332 4.473-2.989 6.847-0.656 2.389-0.981 4.886-0.746 7.338 0.239 2.438 1.106 4.85 2.678 6.659 1.557 1.825 3.638 2.978 5.752 3.534 2.137 0.537 4.279 0.373 6.14-0.143 3.758-1.067 6.428-3.315 8.193-5.249 1.774-1.972 2.711-3.712 3.199-4.651 0.382-0.729 0.736-1.833 0.712-2.235-0.039-0.416-0.313-0.062-1.497 1.818-0.089 0.108-0.705 1.411-2.193 3.275-1.483 1.818-3.96 4.293-7.699 5.624-1.845 0.644-4.009 0.948-6.166 0.475-2.124-0.482-4.295-1.708-5.731-3.608-1.458-1.902-2.126-4.436-2.115-7.012 0.004-2.589 0.615-5.227 1.548-7.738 1.787-5.025 5.749-9.137 10.252-11.365 1.124-0.558 2.286-0.995 3.448-1.27 1.156-0.264 2.337-0.383 3.368-0.172 2.101 0.53 3.971 1.901 5.161 3.49 1.23 1.596 1.921 3.401 2.275 5.065 0.356 1.672 0.397 3.213 0.331 4.512-0.169 2.605-0.699 4.242-0.79 4.68-0.407 1.672-0.487 2.142-0.265 2.027 0.203-0.12 0.634-0.856 0.947-1.644" fill="#292929"/></g><g transform="translate(396.12 489.35)"><path id="path3707" d="m0 0c1.756-2.624 2.472-6.643 0.104-8.224-2.367-1.584-5.104-0.132-6.861 2.492-1.754 2.624-1.866 6.038 0.501 7.621 2.367 1.582 4.499 0.736 6.256-1.889" fill="#292929"/></g></g></g></g></svg>
