<?xml version="1.0" encoding="utf-8"?>
<!-- Generator: Adobe Illustrator 20.1.0, SVG Export Plug-In . SVG Version: 6.00 Build 0)  -->
<svg version="1.1" id="Layer_1" xmlns="http://www.w3.org/2000/svg" xmlns:xlink="http://www.w3.org/1999/xlink" x="0px" y="0px"
	 viewBox="0 0 1024 1024" style="enable-background:new 0 0 1024 1024;" xml:space="preserve" width="5cm" height="5cm">
<style type="text/css">
	.st0{fill:#0099CC;}
</style>
<g>
	<path class="st0" d="M522.6,693h-20.2c1.9-43.3,7.2-79.1,15.5-107.4c8.4-28.3,25.8-67.7,52.1-118.2c20.6-38.8,34-68.6,40.2-89.2
		c6.1-20.6,9.3-41.6,9.3-62.8c0-43.4-11.6-77.9-34.7-103.6s-51.6-38.5-85.3-38.5c-29.9,0-53.4,7-70.5,21
		c-17.2,14-25.7,29.2-25.7,45.6c0,12.6,5.1,28.2,15.4,46.6c10.3,18.4,15.4,32.4,15.4,42c0,12.3-4,22.7-11.8,31
		c-7.8,8.3-17.5,12.6-28.8,12.6c-14.4,0-27.5-7.1-39.3-21.3c-11.8-14.2-17.8-34-17.8-59.4c0-38.8,16.7-73,49.9-102.9
		s78.4-44.7,135.4-44.7c70.7,0,122.7,20.6,155.9,61.8c24.7,30.2,37.1,63.6,37.1,100.3c0,25-5.6,50.7-16.8,77.2
		c-11.2,26.5-32.4,57.5-63.5,93.2c-49.7,56.4-80.2,96.3-91.4,119.8C531.8,619.5,525,651.9,522.6,693z M515.6,757.1
		c16.1,0,29.7,5.6,40.9,16.7c11.1,11.1,16.7,24.8,16.7,40.9c0,15.8-5.6,29.2-16.9,40.4c-11.3,11.1-24.9,16.7-40.6,16.7
		c-15.8,0-29.2-5.6-40.4-16.7s-16.7-24.6-16.7-40.4c0-16.1,5.6-29.7,16.7-40.9C486.4,762.6,499.9,757.1,515.6,757.1z"/>
</g>
</svg>
