<?xml version="1.0" encoding="UTF-8" standalone="no"?>
<svg
   xmlns:dc="http://purl.org/dc/elements/1.1/"
   xmlns:cc="http://creativecommons.org/ns#"
   xmlns:rdf="http://www.w3.org/1999/02/22-rdf-syntax-ns#"
   xmlns:svg="http://www.w3.org/2000/svg"
   xmlns="http://www.w3.org/2000/svg"
   xml:space="preserve"
   enable-background="new 0 0 31 31"
   viewBox="0 0 31 31"
   y="0px"
   x="0px"
   id="Layer_1"
   version="1.1"><metadata
     id="metadata28"><rdf:RDF><cc:Work
         rdf:about=""><dc:format>image/svg+xml</dc:format><dc:type
           rdf:resource="http://purl.org/dc/dcmitype/StillImage" /></cc:Work></rdf:RDF></metadata><defs
     id="defs26" /><g
     id="Oracle_Siebel"><g
       id="g8"><rect
         id="rect2"
         height="31"
         width="31"
         fill="#ED2224" /><path
         id="path4"
         d="M11.6,22.8c-3.8,0-6.9-3.1-6.9-6.9c0-3.8,3.1-6.9,6.9-6.9h8c3.8,0,6.9,3.1,6.9,6.9c0,3.8-3.1,6.9-6.9,6.9    L11.6,22.8z"
         fill="#FFFFFF" /><path
         id="path6"
         d="M19.4,20.4c2.5,0,4.4-2,4.4-4.4c0-2.5-2-4.4-4.4-4.4l-7.6,0c-2.5,0-4.4,2-4.4,4.4c0,2.4,2,4.4,4.4,4.4    H19.4z"
         fill="#ED2224" /></g></g><g
     id="g11" /><g
     id="g13" /><g
     id="g15" /><g
     id="g17" /><g
     id="g19" /><g
     id="g21" /></svg>