<svg data-name="Layer 1" xmlns="http://www.w3.org/2000/svg" viewBox="0 0 32 32"><defs><style>.cls-1{fill:#9855d4}</style></defs><path class="cls-1" d="M28.99 8.96l-3.96-2.93L22 7.81v2.32l2.91-1.7 2.08 1.54.01 12.72-1.97 1.01L22 21.93v2.32l2.96 1.74L29 23.91l-.01-14.95zM10 21.93l-2.95 1.73L5 22.22V9.97l2.09-1.54L10 10.14V7.82L6.96 6.03 3 8.96v14.31l3.96 2.76L10 24.25v-2.32zM16 4.27l2 1.18v2.43l-2 1.18-2-1.18V5.45l2-1.18M16 2a.32.32 0 00-.16 0l-3.67 2.21a.32.32 0 00-.17.29v4.33a.32.32 0 00.17.29l3.67 2.17a.32.32 0 00.16 0 .35.35 0 00.17 0l3.67-2.17a.34.34 0 00.16-.29V4.5a.34.34 0 00-.16-.29L16.17 2A.35.35 0 0016 2zM16 13.6l2 1.18v2.44l-2 1.18-2-1.18v-2.44l2-1.18m0-2.27a.33.33 0 00-.16.05l-3.67 2.16a.32.32 0 00-.17.29v4.34a.32.32 0 00.17.29l3.67 2.16a.33.33 0 00.16.05.37.37 0 00.17-.05l3.67-2.16a.34.34 0 00.16-.29v-4.34a.34.34 0 00-.16-.29l-3.67-2.16a.37.37 0 00-.17-.05z"/><path class="cls-1" d="M16 22.94l2 1.18v2.43l-2 1.18-2-1.18v-2.43l2-1.18m0-2.27a.32.32 0 00-.16 0l-3.67 2.17a.32.32 0 00-.17.29v4.37a.32.32 0 00.17.29L15.84 30a.32.32 0 00.16 0 .35.35 0 00.17 0l3.67-2.17a.34.34 0 00.16-.33v-4.33a.34.34 0 00-.16-.29l-3.67-2.17a.35.35 0 00-.17 0z"/></svg>
