<svg data-name="Layer 1" xmlns="http://www.w3.org/2000/svg" viewBox="0 0 32 32"><path d="M12.1 23.37s.06-.17.14-.37H4v-5h12a9.5 9.5 0 012-1.18V3.5A1.5 1.5 0 0016.5 2h-13A1.5 1.5 0 002 3.5v20A1.5 1.5 0 003.5 25h8.74c-.08-.2-.13-.33-.14-.37a2.08 2.08 0 010-1.26zM4 4h12v5H4zm0 7h12v5H4zm18 7c-6 0-8 6-8 6s2 6 8.05 6 8-6 8-6S28 18 22 18zm.05 10a6.62 6.62 0 01-5.88-4A6.58 6.58 0 0122 20a6.59 6.59 0 015.83 4c-.62 1.28-2.34 4-5.78 4zM22 21a3 3 0 103 3 3 3 0 00-3-3zm0 4a1 1 0 111-1 1 1 0 01-1 1z" fill="#9855d4"/></svg>
