<svg data-name="Layer 1" xmlns="http://www.w3.org/2000/svg" viewBox="0 0 32 32"><path d="M7.51 21.32l8 4.44a.85.85 0 00.22.09 1.15 1.15 0 00.26 0 1.15 1.15 0 00.26 0 1 1 0 00.22-.09l8-4.44a1 1 0 00.51-.88v-8.88a.84.84 0 000-.27v-.06a1.42 1.42 0 00-.08-.18v-.06a.81.81 0 00-.12-.14l-.06-.06-.13-.1-8-4.44a1 1 0 00-1 0l-8 4.44a1 1 0 00-.51.87V20.45a1 1 0 00.43.87zM23 19.86l-6 3.33v-6.6l6-3.33zM16 8.25l5.94 3.31L19.39 13 16 14.85l-5.93-3.3zm-7 5l6 3.33v6.6l-6-3.32zm-3.5 6.93v-10l7.74-4.3L18 3.21l-1.55-.86a1 1 0 00-1 0L4 8.74a1 1 0 00-.5.78 1.77 1.77 0 000 .23v9.31zM6 22.1l-2.5-1.4v1.69a1 1 0 00.51.87l11.5 6.39a.79.79 0 00.27.1.83.83 0 00.22 0 1 1 0 00.49-.13l8.51-4.7v-2.29l-9 5zM28.5 9.61a1 1 0 00-.5-.87L19.5 4l-2.06 1.17 9.06 5v13.89l1.5-.8a1 1 0 00.51-.87z" fill="#9855d4"/></svg>
