<svg data-name="Layer 1" xmlns="http://www.w3.org/2000/svg" viewBox="0 0 32 32"><defs><style>.cls-2{fill:#9855d4;fill-rule:evenodd}</style></defs><path d="M7 23H4v-5h14V3.5A1.5 1.5 0 0016.5 2h-13A1.5 1.5 0 002 3.5v20A1.5 1.5 0 003.5 25H7zM4 4h12v5H4zm0 7h12v5H4z" fill="#9855d4"/><path class="cls-2" d="M30 30h-6v-4.5a1.5 1.5 0 011.5-1.5h3v-3H24v-1.5h4.5A1.5 1.5 0 0130 21v3a1.5 1.5 0 01-1.5 1.5h-3v3H30zM12 19.5H9V30h3a3 3 0 003-3v-4.5a3 3 0 00-3-3zm1.5 7.5a1.5 1.5 0 01-1.5 1.5h-1.5V21H12a1.5 1.5 0 011.5 1.5zM22.5 21.75a2.25 2.25 0 00-2.25-2.25H16.5V30h3.75a2.25 2.25 0 002.25-2.25v-1.5a2.21 2.21 0 00-.59-1.5 2.2 2.2 0 00.59-1.5zm-1.5 6a.76.76 0 01-.75.75H18v-3h2.25a.76.76 0 01.75.75zm0-4.5a.76.76 0 01-.75.75H18v-3h2.25a.76.76 0 01.75.75z"/></svg>
