<svg data-name="Layer 1" xmlns="http://www.w3.org/2000/svg" viewBox="0 0 32 32"><path d="M15 13.26v-6.5a.48.48 0 00-.24-.43L9.24 3.07A.5.5 0 009 3a.54.54 0 00-.25.06l-5.5 3.27a.47.47 0 00-.25.43v6.5a.5.5 0 00.25.44l5.5 3.3A.45.45 0 009 17a.42.42 0 00.24 0l5.51-3.25a.51.51 0 00.25-.49zm-2-.85l-4 2.36-4-2.36v-4.8l4-2.36 4 2.36zm15.74-6.08l-5.5-3.26A.54.54 0 0023 3a.5.5 0 00-.24.06l-5.52 3.27a.48.48 0 00-.24.43v6.5a.51.51 0 00.24.44l5.51 3.3a.42.42 0 00.25 0 .45.45 0 00.25-.07l5.5-3.25a.51.51 0 00.24-.44V6.76a.48.48 0 00-.25-.43zM27 12.41l-4 2.36-4-2.36v-4.8l4-2.36 4 2.36zm-10.76 2.94a.42.42 0 00-.24-.07.45.45 0 00-.25.07l-5.5 3.18A.5.5 0 0010 19v6.36a.5.5 0 00.25.43l5.5 3.18A.45.45 0 0016 29a.42.42 0 00.24-.07l5.51-3.18a.5.5 0 00.24-.43V19a.5.5 0 00-.24-.43zm3.76 9.1l-4 2.31-4-2.31v-4.62l4-2.31 4 2.31z" fill="#9855d4"/></svg>
