<svg data-name="Layer 1" xmlns="http://www.w3.org/2000/svg" viewBox="0 0 32 32"><path d="M6 5v21a2 2 0 002 2V3a2 2 0 00-2 2zM2 6v19a2 2 0 002 2V4a2 2 0 00-2 2zm19.5 7.5V15h1.25v3H21v1.5h5V18h-1.75v-4.5zM25 21h-3a1 1 0 00-1 1v4a1 1 0 001 1h3a1 1 0 001-1v-4a1 1 0 00-1-1zm-.5 4.5h-2v-3h2zm-6.5-12h-3a1 1 0 00-1 1v4a1 1 0 001 1h3a1 1 0 001-1v-4a1 1 0 00-1-1zm-.5 4.5h-2v-3h2zm.5 3h-3a1 1 0 00-1 1v4a1 1 0 001 1h3a1 1 0 001-1v-4a1 1 0 00-1-1zm-.5 4.5h-2v-3h2zM29.56 9.56l-7-7A2 2 0 0021.18 2h-8.69A2.5 2.5 0 0010 4.49v23A2.5 2.5 0 0012.49 30h15A2.5 2.5 0 0030 27.51V10.62a1.5 1.5 0 00-.44-1.06zM22 4.83L27.17 10H22zm6 22.68a.49.49 0 01-.49.49h-15a.49.49 0 01-.49-.49v-23a.49.49 0 01.47-.51H20v6a2 2 0 002 2h6z" fill="#9855d4"/></svg>
