<svg xmlns="http://www.w3.org/2000/svg" viewBox="0 0 32 32"><path d="M13 13.8c.8 0 1.5-.7 1.5-1.5s-.7-1.5-1.5-1.5-1.5.7-1.5 1.5.7 1.5 1.5 1.5zm0 6.7c.8 0 1.5-.7 1.5-1.5s-.7-1.5-1.5-1.5-1.5.7-1.5 1.5.7 1.5 1.5 1.5zm0 6.7c.8 0 1.5-.7 1.5-1.5s-.7-1.5-1.5-1.5-1.5.7-1.5 1.5.7 1.5 1.5 1.5zM26.1 2l-1.4 1.4L26.2 5H15.6l-2.9 3H4c-1.1 0-2 .9-2 2v18c0 1.1.9 2 2 2h18c1.1 0 2-.9 2-2V10c0-1.1-.9-2-2-2h-6.5l1-1h9.8l-1.5 1.5 1.4 1.4L30 6l-3.9-4zm-8.8 8H22v4.7h-4.7V10zm0 6.7H22v4.7h-4.7v-4.7zm0 6.6H22V28h-4.7v-4.7zM8.7 28H4v-4.7h4.7V28zm0-6.7H4v-4.7h4.7v4.7zm0-6.6H4V10h4.7v4.7zM15.3 28h-4.7v-4.7h4.7V28zm0-6.7h-4.7v-4.7h4.7v4.7zm0-6.6h-4.7V10h4.7v4.7z" fill="#0072c3"/></svg>
