<svg xmlns="http://www.w3.org/2000/svg" viewBox="0 0 32 32"><path d="M14.5 18.8c0 .8.7 1.5 1.5 1.5s1.5-.7 1.5-1.5-.7-1.5-1.5-1.5c-.8-.1-1.5.6-1.5 1.5zm11.1-9.2l-7-7c-.4-.4-.9-.6-1.4-.6H8.5C7.1 2 6 3.1 6 4.5v23C6 28.9 7.1 30 8.5 30h15c1.4 0 2.5-1.1 2.5-2.5V10.6c0-.4-.2-.8-.4-1zM18 4.8l5.2 5.2H18V4.8zm6 22.7c0 .3-.2.5-.5.5h-15c-.3 0-.5-.2-.5-.5v-23c0-.3.2-.5.5-.5H16v6c0 1.1.9 2 2 2h6v15.5zm-14-8.7s1.5 4.5 6 4.5 6-4.5 6-4.5-1.5-4.5-6-4.5-6 4.5-6 4.5zm9.8 0c-.7 1.5-2.2 2.5-3.8 2.5-1.7 0-3.1-1-3.9-2.5.7-1.5 2.2-2.5 3.9-2.5 1.6 0 3.1 1 3.8 2.5z" fill="#0072c3"/></svg>
