<svg data-name="Layer 1" xmlns="http://www.w3.org/2000/svg" viewBox="0 0 32 32"><path d="M12 12h5v4h2v-4h5v2h2V5a2 2 0 00-2-2H5a2 2 0 00-2 2v19a2 2 0 002 2h7v-2zm7-7h5v5h-5zm-7 0h5v5h-5zm-2 19H5v-5h5zm0-7H5v-5h5zm0-7H5V5h5zm4.5-4A1.5 1.5 0 1016 7.5 1.5 1.5 0 0014.5 6zm7 0A1.5 1.5 0 1023 7.5 1.5 1.5 0 0021.5 6zm-14 3A1.5 1.5 0 106 7.5 1.5 1.5 0 007.5 9zm20.08 13.2L29 21l-1.22-2-1.8.57a4.74 4.74 0 00-1.39-.78L24.22 17h-2.44l-.37 1.81a5 5 0 00-1.41.77L18.22 19 17 21l1.42 1.24a4 4 0 000 1.55L17 25l1.22 2 1.78-.56a4.9 4.9 0 001.4.77l.38 1.79h2.44l.37-1.81a4.55 4.55 0 001.4-.77l1.79.58L29 25l-1.42-1.24a4 4 0 000-1.56zm-4.52 3.6h-.12a2.78 2.78 0 110-5.56h.12a2.78 2.78 0 110 5.56z" fill="#0072c3"/></svg>
