
<!-- Uploaded to: SVG Repo, www.svgrepo.com, Generator: SVG Repo Mixer Tools -->
<svg height="800px" width="800px" version="1.1" id="Layer_1" 
	 viewBox="0 0 496 496">
<circle style="fill:#D63205;" cx="248" cy="248" r="248"/>
<path style="fill:#B72402;" d="M72.8,72.8c96.8-96.8,253.6-96.8,350.4,0s96.8,253.6,0,350.4"/>
<path style="fill:#ABD3CC;" d="M248,171.2c-8.8,0-16-7.2-16-15.2V68.8c0-8.8,7.2-15.2,16-15.2c8.8,0,16,7.2,16,15.2v86.4
	C264,164,256.8,171.2,248,171.2z"/>
<path style="fill:#EBFFFC;" d="M363.2,135.2C340,112,312,96.8,280,91.2v32c24,5.6,44,17.6,60.8,34.4c24.8,24.8,38.4,57.6,38.4,92.8
	s-13.6,68-38.4,92.8s-57.6,38.4-92.8,38.4s-68-13.6-92.8-38.4s-38.4-57.6-38.4-92c0-35.2,12.8-68,37.6-92.8
	c16.8-16.8,36.8-28.8,60.8-34.4V92c-32,6.4-60,21.6-83.2,44c-30.4,30.4-47.2,71.2-47.2,114.4s16.8,84,47.2,114.4
	S203.2,412,246.4,412s84-16.8,114.4-47.2c30.4-30.4,48-71.2,48-114.4C409.6,206.4,393.6,166.4,363.2,135.2z"/>
<g>
	<path style="fill:#ABD3CC;" d="M280,91.2v32c24,5.6,44,17.6,60.8,34.4c24.8,24.8,38.4,57.6,38.4,92.8c0,34.4-13.6,67.2-37.6,91.2
		l21.6,21.6c29.6-30.4,46.4-70.4,46.4-113.6s-16-84-47.2-114.4C340,112.8,312,97.6,280,91.2z"/>
	<path style="fill:#ABD3CC;" d="M156,156.8c16.8-16.8,36-28,60-33.6v-32c-32,5.6-59.2,20.8-82.4,43.2L156,156.8z"/>
	<circle style="fill:#ABD3CC;" cx="248" cy="248" r="21.6"/>
</g>
<path style="fill:#EBFFFC;" d="M263.2,263.2c-8.8,8.8-22.4,8.8-31.2,0s-8.8-22.4,0-31.2"/>
</svg>