<svg height="32" width="32" version="1.1" id="Layer_1" 
	 viewBox="0 0 512.001 512.001" >
<polygon style="fill:#F4B2B0;" points="470.638,192.171 470.638,214.3 375.914,292.619 256,391.772 136.087,292.619 41.362,214.3 
	41.362,192.171 256,14.714 "/>
<path style="fill:#B3404A;" d="M480.014,225.64c3.381-2.796,5.338-6.954,5.338-11.34v-22.129c0-4.386-1.957-8.544-5.338-11.34
	L265.376,3.375c-5.44-4.499-13.311-4.499-18.751,0L31.987,180.832c-3.381,2.796-5.338,6.954-5.338,11.34V214.3
	c0,0.026,0.004,0.051,0.004,0.078v279.015v0.138v3.756c0,8.126,6.589,14.713,14.713,14.713h429.267
	c8.125,0,14.713-6.587,14.713-14.713v-3.893V315.927c0-8.126-6.589-14.713-14.713-14.713c-8.125,0-14.713,6.587-14.713,14.713
	v146.209L324.954,353.849L480.014,225.64z M256,372.68l-23.507-19.436l-81.693-67.55v-87.078h210.4v87.078l-81.693,67.55L256,372.68
	z M56.08,245.562L187.046,353.85L56.08,462.137C56.08,462.137,56.08,245.562,56.08,245.562z M256,33.805l199.925,165.292v8.276
	l-65.298,53.991v-77.461c0-8.126-6.589-14.713-14.713-14.713H136.087c-8.125,0-14.713,6.587-14.713,14.713v77.463L56.08,207.378
	V201.4c0-0.029-0.004-0.057-0.004-0.085v-2.217L256,33.805z M434.458,482.574H77.543l132.593-109.632l36.489,30.171
	c2.721,2.25,6.047,3.374,9.375,3.374c3.328,0,6.655-1.126,9.375-3.374l36.489-30.171L434.458,482.574z"/>
</svg>